<svg width="242" height="363" viewBox="0 0 242 363" fill="none" xmlns="http://www.w3.org/2000/svg">
<rect width="242" height="363" fill="#FAF8F3"/>
<path d="M48.7656 318.463C48.7656 310.179 55.4814 303.463 63.7656 303.463H179.294C187.578 303.463 194.294 310.179 194.294 318.463V320H48.7656V318.463Z" fill="#AE1645"/>
<rect x="61.1641" y="214.161" width="122.376" height="14.0567" rx="7" fill="#AE1645"/>
<rect x="71.9141" y="96.7461" width="100.878" height="15.7104" rx="7.85522" fill="#AE1645"/>
<path d="M67.7807 229.872H178.581C193.773 254.102 206.083 279.028 186.023 300.983H57.0317C34.6292 279.649 50.5268 254.602 67.7807 229.872Z" fill="#AE1645"/>
<path d="M81.839 114.11H161.218L170.314 211.681H73.5703L81.839 114.11Z" fill="#AE1645"/>
<path d="M88.4509 43H56.2031C58.9443 67.261 63.3557 78.9375 79.3554 94.2657H163.696C180.052 78.3063 184.549 66.64 187.675 43H154.6L157.081 66.9791H133.929L136.409 43H107.469L109.123 66.9791H85.9703L88.4509 43Z" fill="#AE1645" stroke="#AE1645"/>
</svg>
