<svg width="242" height="363" viewBox="0 0 242 363" fill="none" xmlns="http://www.w3.org/2000/svg">
<rect width="242" height="363" fill="#AE1645"/>
<path d="M62.0234 317.227C62.0234 311.704 66.5006 307.227 72.0234 307.227H170.82C176.343 307.227 180.82 311.704 180.82 317.227V321H62.0234V317.227Z" fill="#FAF8F3"/>
<path d="M73.2185 248.689H170.494C183.647 271.812 187.862 284.554 170.494 305.505H73.2185C53.8222 285.146 58.2799 272.29 73.2185 248.689Z" fill="#FAF8F3"/>
<rect x="69.7734" y="235.777" width="104.162" height="11.1909" rx="5.59547" fill="#FAF8F3"/>
<path d="M121.426 97.1807L139.503 152.275C146.015 184.516 153.217 202.379 166.189 234.054H77.9531C89.5082 206.571 95.13 189.049 102.918 152.275L121.426 97.1807Z" fill="#FAF8F3"/>
<rect x="74.9375" y="125.59" width="92.971" height="26.6861" rx="13.343" fill="#FAF8F3"/>
<ellipse cx="121.423" cy="92.4466" rx="37.4466" ry="37.4466" fill="#FAF8F3"/>
</svg>
