<svg width="242" height="363" viewBox="0 0 242 363" fill="none" xmlns="http://www.w3.org/2000/svg">
<rect width="242" height="363" fill="#AE1645"/>
<path d="M120.79 178.147H139.038C144.248 203.939 147.942 211.341 158.319 236.679H86.0156C95.2588 214.694 98.3786 207.564 104.608 178.147H120.79Z" fill="#FAF8F3"/>
<path d="M72.9375 316.916C72.9375 311.393 77.4147 306.916 82.9375 306.916H158.654C164.177 306.916 168.654 311.393 168.654 316.916V320H72.9375V316.916Z" fill="#FAF8F3"/>
<rect x="78.4453" y="238.056" width="86.076" height="11.0177" rx="5.50886" fill="#FAF8F3"/>
<path d="M81.8811 250.451H161.071C173.723 270.629 181.22 286.568 164.514 304.851H77.7493C59.0926 287.085 67.5121 271.046 81.8811 250.451Z" fill="#FAF8F3"/>
<rect x="92.2188" y="162.309" width="60.5975" height="14.4608" rx="7.23038" fill="#FAF8F3"/>
<rect x="97.7266" y="133.388" width="48.8911" height="11.0177" rx="5.50886" fill="#FAF8F3"/>
<rect x="102.547" y="145.094" width="39.2506" height="17.2152" fill="#FAF8F3"/>
<ellipse cx="122.162" cy="57.2962" rx="8.6076" ry="9.2962" fill="#FAF8F3"/>
<path d="M102.54 133.387H141.79C155.141 117.253 152.817 106.179 139.381 84.4959L126.641 65.2148H117.689C113.021 71.9867 110.634 75.4986 108.049 79.6756L116.312 98.6123C116.639 99.8497 116.459 100.379 115.623 101.022C114.785 101.326 114.322 101.413 113.558 101.022L105.639 84.4959C91.0411 104.087 88.7193 114.864 102.54 133.387Z" fill="#FAF8F3"/>
</svg>
