<svg width="242" height="363" viewBox="0 0 242 363" fill="none" xmlns="http://www.w3.org/2000/svg">
<rect width="242" height="363" fill="#FAF8F3"/>
<path d="M123.793 167.328H142.166C147.22 192.351 155.481 227.594 165.55 252.177H84.375C93.3429 230.847 100.713 195.869 106.756 167.328H123.793Z" fill="#AE1645"/>
<path d="M71.0078 323.643C71.0078 318.12 75.485 313.643 81.0078 313.643H166.568C172.091 313.643 176.568 318.12 176.568 323.643V325H71.0078V323.643Z" fill="#AE1645"/>
<rect x="75.6875" y="253.513" width="97.5431" height="9.35344" rx="4.67672" fill="#AE1645"/>
<path d="M79.066 264.202H169.846C182.121 283.779 186.054 294.567 169.846 312.306H79.066C60.9649 295.068 65.125 284.184 79.066 264.202Z" fill="#AE1645"/>
<rect x="89.7188" y="149.288" width="68.8147" height="16.0345" rx="8.01723" fill="#AE1645"/>
<path d="M102.407 121.228H146.501C146.76 133.392 146.98 139.868 147.838 149.288H101.07C102.024 139.605 102.263 133.303 102.407 121.228Z" fill="#AE1645"/>
<path d="M104.414 63.0869C104.414 58.6686 107.996 55.0869 112.414 55.0869H136.5C140.919 55.0869 144.5 58.6686 144.5 63.0869V121.229H104.414V63.0869Z" fill="#AE1645"/>
<path d="M144.5 64.4395H157.194C163.298 65.8722 165.724 69.0774 169.22 76.7994C169.813 79.4244 169.797 80.8101 169.22 83.1463C161.024 100.812 155.494 108.904 144.5 121.228V64.4395Z" fill="#AE1645"/>
<path d="M104.414 64.4395H91.4908C85.3867 65.8722 82.9605 69.0774 79.4649 76.7994C78.8716 79.4244 78.888 80.8101 79.4649 83.1463C87.6611 100.812 93.4198 108.904 104.414 121.228V64.4395Z" fill="#AE1645"/>
<path d="M109.085 43.7285C105.186 36.2746 105.278 32.0506 109.085 24.3535C112 27.7209 113.776 29.1296 117.102 31.0345H133.136C136.711 29.3146 138.574 27.7843 141.488 24.3535C145.578 32.0139 145.553 36.2248 141.488 43.7285C138.644 40.266 136.877 38.7627 133.136 37.0475H117.102C112.848 38.9887 111.196 40.5072 109.085 43.7285Z" fill="#AE1645" stroke="#AE1645"/>
<path d="M115.773 17.8892C123.227 13.991 127.451 14.0831 135.148 17.8892C131.781 20.8049 130.372 22.5804 128.467 25.9064V41.9409C130.187 45.5161 131.718 47.3788 135.148 50.2922C127.488 54.3826 123.277 54.3577 115.773 50.2922C119.236 47.449 120.739 45.6816 122.454 41.9409V25.9064C120.513 21.6527 118.995 20.001 115.773 17.8892Z" fill="#AE1645" stroke="#AE1645"/>
</svg>
