<svg width="159" height="315" viewBox="0 0 159 315" fill="none" xmlns="http://www.w3.org/2000/svg">
<path d="M60.8314 85.2289L157.247 293.284C158.294 301.988 158.359 306.582 157.653 314.179C151.555 310.36 147.958 307.14 141.412 300.667L39.5542 95.1506C36.5754 89.6717 33.1029 88.2843 28.4914 84.3453C28.3588 83.3901 28.3263 82.8397 27.4531 82.1186C28.9183 80.4862 29.5914 79.4576 30.2747 77.1884L15.4301 84.1106C13.5868 86.3253 11.9483 86.9337 9.21168 88.2156L3.2125 75.3503C6.22559 73.7654 7.90019 73.3082 10.354 73.225L27.9201 65.0338L20.3056 48.7043L9.23017 24.953C6.1986 22.7044 4.63944 21.3811 2.07462 18.6511C0.829223 17.0769 0.308224 16.1539 -0.00184032 14.1981C1.51778 9.22668 2.87151 6.76636 6.64754 3.26606C8.79793 1.82345 10.0709 1.15898 12.5854 0.497204C17.6501 -0.522405 20.1707 -0.123664 23.7495 3.12268C24.9255 4.6923 25.2902 5.69978 25.8259 7.57567C26.3065 11.5232 26.1611 13.6543 25.5592 17.3387L36.6346 41.09L45.2386 56.9575L67.5055 46.5743C69.2104 44.3539 70.4408 43.3262 73.2459 42.0903L79.4758 55.4504C75.9201 57.1322 74.3716 57.4086 72.5817 57.4603L54.026 66.113C55.7091 67.3418 56.6393 67.6033 58.3793 67.6975C58.5717 68.6499 58.8259 69.1556 59.4176 69.9242C59.4323 75.9076 58.1104 79.2831 60.8314 85.2289Z" fill="#FAF8F3"/>
</svg>
