<svg width="626" height="258" viewBox="0 0 626 258" fill="none" xmlns="http://www.w3.org/2000/svg">
<path d="M2.35724 0.000886917H8.36577V24.1486H16.718V0.000886917H22.6982V24.1486H30.951V0.000886917H36.9311V29.0918H2.35724V0.000886917ZM49.2536 29.5037C47.8615 29.5037 46.621 29.2623 45.532 28.7793C44.4429 28.2869 43.5812 27.5624 42.9467 26.606C42.3217 25.6401 42.0092 24.4374 42.0092 22.998C42.0092 21.7859 42.2318 20.7679 42.6768 19.9441C43.1219 19.1202 43.728 18.4573 44.495 17.9554C45.2621 17.4535 46.1333 17.0748 47.1087 16.8191C48.0935 16.5634 49.1257 16.3835 50.2053 16.2793C51.4742 16.1467 52.4969 16.0236 53.2734 15.91C54.05 15.7869 54.6134 15.6069 54.9638 15.3702C55.3142 15.1335 55.4893 14.7831 55.4893 14.3191V14.2338C55.4893 13.3342 55.2053 12.6382 54.6371 12.1458C54.0784 11.6533 53.2829 11.4071 52.2507 11.4071C51.1617 11.4071 50.2952 11.6486 49.6513 12.1316C49.0073 12.6051 48.5812 13.2016 48.3729 13.9213L42.7763 13.4668C43.0604 12.141 43.6191 10.9952 44.4524 10.0293C45.2857 9.05392 46.3606 8.30581 47.6768 7.78498C49.0026 7.25468 50.5367 6.98952 52.2791 6.98952C53.4912 6.98952 54.6513 7.13157 55.7592 7.41566C56.8767 7.69975 57.8662 8.14009 58.728 8.73668C59.5992 9.33327 60.2857 10.1003 60.7876 11.0378C61.2895 11.9658 61.5405 13.0785 61.5405 14.3759V29.0918H55.8018V26.0662H55.6314C55.281 26.748 54.8123 27.3494 54.2251 27.8702C53.638 28.3816 52.9325 28.784 52.1087 29.0776C51.2848 29.3617 50.3331 29.5037 49.2536 29.5037ZM50.9865 25.3276C51.8767 25.3276 52.6626 25.1524 53.3445 24.802C54.0263 24.4422 54.5613 23.9592 54.9496 23.3532C55.3378 22.7471 55.532 22.0605 55.532 21.2935V18.9782C55.3426 19.1013 55.0822 19.2149 54.7507 19.3191C54.4287 19.4138 54.0642 19.5037 53.657 19.589C53.2498 19.6647 52.8426 19.7357 52.4354 19.802C52.0282 19.8588 51.6589 19.9109 51.3274 19.9583C50.6172 20.0624 49.9969 20.2282 49.4666 20.4554C48.9363 20.6827 48.5244 20.9905 48.2308 21.3787C47.9373 21.7575 47.7905 22.231 47.7905 22.7992C47.7905 23.623 48.0888 24.2528 48.6854 24.6884C49.2914 25.1145 50.0585 25.3276 50.9865 25.3276ZM71.2919 7.27361L75.2976 14.9015L79.4027 7.27361H85.6101L79.2891 18.1827L85.7805 29.0918H79.6016L75.2976 21.5492L71.0646 29.0918H64.8146L71.2919 18.1827L65.0419 7.27361H71.2919ZM102.102 22.4015L108.011 7.27361H112.613L104.104 29.0918H100.085L91.7749 7.27361H96.3629L102.102 22.4015ZM94.9851 7.27361V29.0918H89.2038V7.27361H94.9851ZM109.516 29.0918V7.27361H115.227V29.0918H109.516ZM126.129 29.5037C124.737 29.5037 123.496 29.2623 122.407 28.7793C121.318 28.2869 120.456 27.5624 119.822 26.606C119.197 25.6401 118.884 24.4374 118.884 22.998C118.884 21.7859 119.107 20.7679 119.552 19.9441C119.997 19.1202 120.603 18.4573 121.37 17.9554C122.137 17.4535 123.008 17.0748 123.984 16.8191C124.969 16.5634 126.001 16.3835 127.08 16.2793C128.349 16.1467 129.372 16.0236 130.148 15.91C130.925 15.7869 131.488 15.6069 131.839 15.3702C132.189 15.1335 132.364 14.7831 132.364 14.3191V14.2338C132.364 13.3342 132.08 12.6382 131.512 12.1458C130.953 11.6533 130.158 11.4071 129.126 11.4071C128.037 11.4071 127.17 11.6486 126.526 12.1316C125.882 12.6051 125.456 13.2016 125.248 13.9213L119.651 13.4668C119.935 12.141 120.494 10.9952 121.327 10.0293C122.161 9.05392 123.236 8.30581 124.552 7.78498C125.878 7.25468 127.412 6.98952 129.154 6.98952C130.366 6.98952 131.526 7.13157 132.634 7.41566C133.752 7.69975 134.741 8.14009 135.603 8.73668C136.474 9.33327 137.161 10.1003 137.663 11.0378C138.165 11.9658 138.415 13.0785 138.415 14.3759V29.0918H132.677V26.0662H132.506C132.156 26.748 131.687 27.3494 131.1 27.8702C130.513 28.3816 129.808 28.784 128.984 29.0776C128.16 29.3617 127.208 29.5037 126.129 29.5037ZM127.862 25.3276C128.752 25.3276 129.538 25.1524 130.219 24.802C130.901 24.4422 131.436 23.9592 131.825 23.3532C132.213 22.7471 132.407 22.0605 132.407 21.2935V18.9782C132.218 19.1013 131.957 19.2149 131.626 19.3191C131.304 19.4138 130.939 19.5037 130.532 19.589C130.125 19.6647 129.718 19.7357 129.31 19.802C128.903 19.8588 128.534 19.9109 128.202 19.9583C127.492 20.0624 126.872 20.2282 126.342 20.4554C125.811 20.6827 125.399 20.9905 125.106 21.3787C124.812 21.7575 124.665 22.231 124.665 22.7992C124.665 23.623 124.964 24.2528 125.56 24.6884C126.166 25.1145 126.933 25.3276 127.862 25.3276ZM140.919 12.0321V7.27361H160.692V12.0321H153.661V29.0918H147.893V12.0321H140.919ZM168.153 13.9782H174.673C177.561 13.9782 179.815 14.6694 181.434 16.052C183.053 17.4251 183.863 19.2623 183.863 21.5634C183.863 23.0596 183.498 24.3759 182.769 25.5123C182.04 26.6391 180.989 27.5198 179.616 28.1543C178.243 28.7793 176.595 29.0918 174.673 29.0918H164.36V7.27361H170.141V24.3333H174.673C175.686 24.3333 176.519 24.0776 177.173 23.5662C177.826 23.0549 178.157 22.4015 178.167 21.606C178.157 20.7632 177.826 20.0766 177.173 19.5463C176.519 19.0066 175.686 18.7367 174.673 18.7367H168.153V13.9782ZM186.207 29.0918V7.27361H192.258V29.0918H186.207ZM206.352 29.0918V7.27361H225.429V29.0918H219.648V12.0321H212.062V29.0918H206.352ZM230.259 37.2736V7.27361H236.224V10.9384H236.494C236.759 10.3513 237.143 9.75468 237.645 9.14861C238.156 8.53308 238.819 8.02172 239.634 7.61452C240.457 7.19786 241.48 6.98952 242.702 6.98952C244.293 6.98952 245.76 7.40619 247.105 8.23952C248.45 9.06339 249.525 10.3087 250.33 11.9753C251.134 13.6325 251.537 15.7111 251.537 18.2111C251.537 20.6448 251.144 22.6998 250.358 24.3759C249.581 26.0426 248.521 27.3068 247.176 28.1685C245.841 29.0208 244.345 29.4469 242.688 29.4469C241.513 29.4469 240.514 29.2528 239.69 28.8645C238.876 28.4763 238.208 27.9886 237.688 27.4015C237.167 26.8049 236.769 26.2035 236.494 25.5975H236.31V37.2736H230.259ZM236.182 18.1827C236.182 19.4801 236.362 20.6117 236.722 21.5776C237.081 22.5435 237.602 23.2963 238.284 23.8361C238.966 24.3664 239.795 24.6316 240.77 24.6316C241.755 24.6316 242.588 24.3617 243.27 23.8219C243.952 23.2727 244.468 22.5151 244.818 21.5492C245.178 20.5738 245.358 19.4516 245.358 18.1827C245.358 16.9232 245.183 15.8153 244.832 14.8588C244.482 13.9024 243.966 13.1543 243.284 12.6145C242.602 12.0748 241.764 11.8049 240.77 11.8049C239.785 11.8049 238.952 12.0653 238.27 12.5861C237.598 13.1069 237.081 13.8456 236.722 14.802C236.362 15.7585 236.182 16.8854 236.182 18.1827ZM265.429 29.5179C263.223 29.5179 261.314 29.0492 259.705 28.1117C258.104 27.1647 256.868 25.8484 255.997 24.1628C255.126 22.4677 254.69 20.5028 254.69 18.2679C254.69 16.0141 255.126 14.0444 255.997 12.3588C256.868 10.6638 258.104 9.34748 259.705 8.40998C261.314 7.46301 263.223 6.98952 265.429 6.98952C267.635 6.98952 269.539 7.46301 271.139 8.40998C272.749 9.34748 273.99 10.6638 274.861 12.3588C275.732 14.0444 276.168 16.0141 276.168 18.2679C276.168 20.5028 275.732 22.4677 274.861 24.1628C273.99 25.8484 272.749 27.1647 271.139 28.1117C269.539 29.0492 267.635 29.5179 265.429 29.5179ZM265.457 24.8304C266.461 24.8304 267.299 24.5463 267.972 23.9782C268.644 23.4005 269.151 22.6145 269.491 21.6202C269.842 20.6259 270.017 19.4943 270.017 18.2253C270.017 16.9564 269.842 15.8248 269.491 14.8304C269.151 13.8361 268.644 13.0501 267.972 12.4725C267.299 11.8948 266.461 11.606 265.457 11.606C264.444 11.606 263.592 11.8948 262.901 12.4725C262.219 13.0501 261.703 13.8361 261.352 14.8304C261.011 15.8248 260.841 16.9564 260.841 18.2253C260.841 19.4943 261.011 20.6259 261.352 21.6202C261.703 22.6145 262.219 23.4005 262.901 23.9782C263.592 24.5463 264.444 24.8304 265.457 24.8304ZM280.102 7.27361H285.884V24.2907H292.034V7.27361H297.815V24.2907H303.966V7.27361H309.747V29.0918H280.102V7.27361ZM313.16 29.0918L313.131 24.2907H313.856C314.367 24.2907 314.808 24.1676 315.177 23.9213C315.556 23.6657 315.868 23.2537 316.114 22.6855C316.361 22.1174 316.555 21.3645 316.697 20.427C316.839 19.4801 316.933 18.3153 316.981 16.9327L317.336 7.27361H333.927V29.0918H328.16V12.0321H322.776L322.435 18.6941C322.35 20.5217 322.128 22.0937 321.768 23.41C321.417 24.7263 320.93 25.8058 320.305 26.6486C319.68 27.4819 318.927 28.0975 318.046 28.4952C317.165 28.8929 316.143 29.0918 314.978 29.0918H313.16ZM344.399 21.1088L352.254 7.27361H358.22V29.0918H352.453V15.214L344.626 29.0918H338.618V7.27361H344.399V21.1088ZM372.329 29.0918V7.27361H391.406V29.0918H385.624V12.0321H378.039V29.0918H372.329ZM399.19 37.2736C398.423 37.2736 397.703 37.2121 397.031 37.089C396.368 36.9753 395.818 36.8285 395.383 36.6486L396.746 32.1316C397.457 32.3494 398.096 32.4677 398.664 32.4867C399.242 32.5056 399.739 32.373 400.156 32.089C400.582 31.8049 400.927 31.3219 401.192 30.6401L401.548 29.7168L393.721 7.27361H400.085L404.602 23.2963H404.829L409.388 7.27361H415.795L407.315 31.4498C406.907 32.624 406.353 33.6467 405.653 34.5179C404.961 35.3986 404.085 36.0757 403.025 36.5492C401.964 37.0321 400.686 37.2736 399.19 37.2736ZM417.755 12.0321V7.27361H437.528V12.0321H430.496V29.0918H424.729V12.0321H417.755ZM444.989 13.9782H451.509C454.397 13.9782 456.651 14.6694 458.27 16.052C459.889 17.4251 460.699 19.2623 460.699 21.5634C460.699 23.0596 460.334 24.3759 459.605 25.5123C458.876 26.6391 457.825 27.5198 456.452 28.1543C455.079 28.7793 453.431 29.0918 451.509 29.0918H441.196V7.27361H446.977V24.3333H451.509C452.522 24.3333 453.355 24.0776 454.009 23.5662C454.662 23.0549 454.993 22.4015 455.003 21.606C454.993 20.7632 454.662 20.0766 454.009 19.5463C453.355 19.0066 452.522 18.7367 451.509 18.7367H444.989V13.9782ZM10.9368 73.5179C8.73035 73.5179 6.82221 73.0492 5.21236 72.1117C3.61198 71.1647 2.37618 69.8484 1.50497 68.1628C0.633759 66.4677 0.198153 64.5028 0.198153 62.2679C0.198153 60.0141 0.633759 58.0444 1.50497 56.3588C2.37618 54.6638 3.61198 53.3475 5.21236 52.41C6.82221 51.463 8.73035 50.9895 10.9368 50.9895C13.1432 50.9895 15.0466 51.463 16.647 52.41C18.2569 53.3475 19.4974 54.6638 20.3686 56.3588C21.2398 58.0444 21.6754 60.0141 21.6754 62.2679C21.6754 64.5028 21.2398 66.4677 20.3686 68.1628C19.4974 69.8484 18.2569 71.1647 16.647 72.1117C15.0466 73.0492 13.1432 73.5179 10.9368 73.5179ZM10.9652 68.8304C11.969 68.8304 12.8071 68.5463 13.4794 67.9782C14.1518 67.4005 14.6584 66.6145 14.9993 65.6202C15.3497 64.6259 15.5249 63.4943 15.5249 62.2253C15.5249 60.9564 15.3497 59.8248 14.9993 58.8304C14.6584 57.8361 14.1518 57.0501 13.4794 56.4725C12.8071 55.8948 11.969 55.606 10.9652 55.606C9.95194 55.606 9.09967 55.8948 8.40838 56.4725C7.72656 57.0501 7.21046 57.8361 6.86009 58.8304C6.51918 59.8248 6.34872 60.9564 6.34872 62.2253C6.34872 63.4943 6.51918 64.6259 6.86009 65.6202C7.21046 66.6145 7.72656 67.4005 8.40838 67.9782C9.09967 68.5463 9.95194 68.8304 10.9652 68.8304ZM23.4972 56.0321V51.2736H43.2699V56.0321H36.2386V73.0918H30.4716V56.0321H23.4972ZM56.196 73.0918V51.2736H65.5C68.1894 51.2736 70.3153 51.785 71.8778 52.8077C73.4403 53.8304 74.2216 55.284 74.2216 57.1685C74.2216 58.3522 73.7813 59.3371 72.9006 60.123C72.0199 60.909 70.7983 61.4393 69.2358 61.714C70.5426 61.8087 71.6553 62.1069 72.5739 62.6088C73.5019 63.1013 74.2074 63.7405 74.6903 64.5265C75.1828 65.3124 75.429 66.1837 75.429 67.1401C75.429 68.3806 75.0975 69.446 74.4347 70.3361C73.7813 71.2263 72.8201 71.9081 71.5511 72.3816C70.2917 72.8551 68.7528 73.0918 66.9347 73.0918H56.196ZM61.8352 68.5605H66.9347C67.7775 68.5605 68.4356 68.3617 68.9091 67.964C69.392 67.5568 69.6335 67.0028 69.6335 66.302C69.6335 65.5255 69.392 64.9147 68.9091 64.4696C68.4356 64.0246 67.7775 63.802 66.9347 63.802H61.8352V68.5605ZM61.8352 60.2509H65.6278C66.2339 60.2509 66.75 60.1657 67.1761 59.9952C67.6117 59.8153 67.9432 59.5596 68.1705 59.2282C68.4072 58.8967 68.5256 58.5037 68.5256 58.0492C68.5256 57.3768 68.2557 56.8513 67.7159 56.4725C67.1761 56.0937 66.4375 55.9043 65.5 55.9043H61.8352V60.2509ZM89.1009 73.5179C86.8944 73.5179 84.9863 73.0492 83.3764 72.1117C81.776 71.1647 80.5402 69.8484 79.669 68.1628C78.7978 66.4677 78.3622 64.5028 78.3622 62.2679C78.3622 60.0141 78.7978 58.0444 79.669 56.3588C80.5402 54.6638 81.776 53.3475 83.3764 52.41C84.9863 51.463 86.8944 50.9895 89.1009 50.9895C91.3073 50.9895 93.2107 51.463 94.8111 52.41C96.4209 53.3475 97.6615 54.6638 98.5327 56.3588C99.4039 58.0444 99.8395 60.0141 99.8395 62.2679C99.8395 64.5028 99.4039 66.4677 98.5327 68.1628C97.6615 69.8484 96.4209 71.1647 94.8111 72.1117C93.2107 73.0492 91.3073 73.5179 89.1009 73.5179ZM89.1293 68.8304C90.133 68.8304 90.9711 68.5463 91.6435 67.9782C92.3158 67.4005 92.8224 66.6145 93.1634 65.6202C93.5137 64.6259 93.6889 63.4943 93.6889 62.2253C93.6889 60.9564 93.5137 59.8248 93.1634 58.8304C92.8224 57.8361 92.3158 57.0501 91.6435 56.4725C90.9711 55.8948 90.133 55.606 89.1293 55.606C88.116 55.606 87.2637 55.8948 86.5724 56.4725C85.8906 57.0501 85.3745 57.8361 85.0241 58.8304C84.6832 59.8248 84.5128 60.9564 84.5128 62.2253C84.5128 63.4943 84.6832 64.6259 85.0241 65.6202C85.3745 66.6145 85.8906 67.4005 86.5724 67.9782C87.2637 68.5463 88.116 68.8304 89.1293 68.8304ZM113.717 73.5179C111.473 73.5179 109.541 73.0634 107.922 72.1543C106.312 71.2357 105.071 69.9384 104.2 68.2623C103.329 66.5766 102.893 64.5833 102.893 62.2821C102.893 60.0378 103.329 58.0681 104.2 56.373C105.071 54.678 106.298 53.3569 107.879 52.41C109.47 51.463 111.336 50.9895 113.476 50.9895C114.915 50.9895 116.255 51.2215 117.496 51.6855C118.746 52.1401 119.835 52.8266 120.763 53.7452C121.7 54.6638 122.429 55.8191 122.95 57.2111C123.471 58.5937 123.732 60.213 123.732 62.0691V63.731H105.308V59.981H118.036C118.036 59.1098 117.846 58.338 117.467 57.6657C117.089 56.9933 116.563 56.4677 115.891 56.089C115.228 55.7007 114.456 55.5066 113.575 55.5066C112.657 55.5066 111.842 55.7196 111.132 56.1458C110.431 56.5624 109.882 57.1259 109.484 57.8361C109.087 58.5369 108.883 59.3181 108.874 60.1799V63.7452C108.874 64.8248 109.072 65.7575 109.47 66.5435C109.877 67.3295 110.45 67.9355 111.189 68.3617C111.928 68.7878 112.804 69.0009 113.817 69.0009C114.489 69.0009 115.105 68.9062 115.663 68.7168C116.222 68.5274 116.7 68.2433 117.098 67.8645C117.496 67.4857 117.799 67.0217 118.007 66.4725L123.604 66.8418C123.32 68.1865 122.737 69.3607 121.857 70.3645C120.985 71.3588 119.858 72.1354 118.476 72.6941C117.103 73.2433 115.517 73.5179 113.717 73.5179ZM142.865 59.7679V64.5265H131.473V59.7679H142.865ZM133.462 51.2736V73.0918H127.68V51.2736H133.462ZM146.658 51.2736V73.0918H140.919V51.2736H146.658ZM166.537 59.7679V64.5265H155.145V59.7679H166.537ZM157.134 51.2736V73.0918H151.352V51.2736H157.134ZM170.33 51.2736V73.0918H164.591V51.2736H170.33ZM184.882 73.5179C182.676 73.5179 180.768 73.0492 179.158 72.1117C177.557 71.1647 176.321 69.8484 175.45 68.1628C174.579 66.4677 174.143 64.5028 174.143 62.2679C174.143 60.0141 174.579 58.0444 175.45 56.3588C176.321 54.6638 177.557 53.3475 179.158 52.41C180.768 51.463 182.676 50.9895 184.882 50.9895C187.089 50.9895 188.992 51.463 190.592 52.41C192.202 53.3475 193.443 54.6638 194.314 56.3588C195.185 58.0444 195.621 60.0141 195.621 62.2679C195.621 64.5028 195.185 66.4677 194.314 68.1628C193.443 69.8484 192.202 71.1647 190.592 72.1117C188.992 73.0492 187.089 73.5179 184.882 73.5179ZM184.911 68.8304C185.914 68.8304 186.752 68.5463 187.425 67.9782C188.097 67.4005 188.604 66.6145 188.945 65.6202C189.295 64.6259 189.47 63.4943 189.47 62.2253C189.47 60.9564 189.295 59.8248 188.945 58.8304C188.604 57.8361 188.097 57.0501 187.425 56.4725C186.752 55.8948 185.914 55.606 184.911 55.606C183.897 55.606 183.045 55.8948 182.354 56.4725C181.672 57.0501 181.156 57.8361 180.805 58.8304C180.464 59.8248 180.294 60.9564 180.294 62.2253C180.294 63.4943 180.464 64.6259 180.805 65.6202C181.156 66.6145 181.672 67.4005 182.354 67.9782C183.045 68.5463 183.897 68.8304 184.911 68.8304ZM214.499 51.2736V56.0321H205.436V73.0918H199.555V51.2736H214.499ZM227.265 73.5179C225.058 73.5179 223.15 73.0492 221.54 72.1117C219.94 71.1647 218.704 69.8484 217.833 68.1628C216.962 66.4677 216.526 64.5028 216.526 62.2679C216.526 60.0141 216.962 58.0444 217.833 56.3588C218.704 54.6638 219.94 53.3475 221.54 52.41C223.15 51.463 225.058 50.9895 227.265 50.9895C229.471 50.9895 231.375 51.463 232.975 52.41C234.585 53.3475 235.826 54.6638 236.697 56.3588C237.568 58.0444 238.004 60.0141 238.004 62.2679C238.004 64.5028 237.568 66.4677 236.697 68.1628C235.826 69.8484 234.585 71.1647 232.975 72.1117C231.375 73.0492 229.471 73.5179 227.265 73.5179ZM227.293 68.8304C228.297 68.8304 229.135 68.5463 229.808 67.9782C230.48 67.4005 230.987 66.6145 231.327 65.6202C231.678 64.6259 231.853 63.4943 231.853 62.2253C231.853 60.9564 231.678 59.8248 231.327 58.8304C230.987 57.8361 230.48 57.0501 229.808 56.4725C229.135 55.8948 228.297 55.606 227.293 55.606C226.28 55.606 225.428 55.8948 224.737 56.4725C224.055 57.0501 223.539 57.8361 223.188 58.8304C222.847 59.8248 222.677 60.9564 222.677 62.2253C222.677 63.4943 222.847 64.6259 223.188 65.6202C223.539 66.6145 224.055 67.4005 224.737 67.9782C225.428 68.5463 226.28 68.8304 227.293 68.8304ZM250.06 56.0321V51.2736H269.832V56.0321H262.801V73.0918H257.034V56.0321H250.06ZM273.501 81.2736V51.2736H279.467V54.9384H279.737C280.002 54.3513 280.385 53.7547 280.887 53.1486C281.398 52.5331 282.061 52.0217 282.876 51.6145C283.7 51.1979 284.722 50.9895 285.944 50.9895C287.535 50.9895 289.003 51.4062 290.347 52.2395C291.692 53.0634 292.767 54.3087 293.572 55.9753C294.377 57.6325 294.779 59.7111 294.779 62.2111C294.779 64.6448 294.386 66.6998 293.6 68.3759C292.824 70.0426 291.763 71.3068 290.418 72.1685C289.083 73.0208 287.587 73.4469 285.93 73.4469C284.755 73.4469 283.756 73.2528 282.933 72.8645C282.118 72.4763 281.451 71.9886 280.93 71.4015C280.409 70.8049 280.011 70.2035 279.737 69.5975H279.552V81.2736H273.501ZM279.424 62.1827C279.424 63.4801 279.604 64.6117 279.964 65.5776C280.324 66.5435 280.844 67.2963 281.526 67.8361C282.208 68.3664 283.037 68.6316 284.012 68.6316C284.997 68.6316 285.83 68.3617 286.512 67.8219C287.194 67.2727 287.71 66.5151 288.06 65.5492C288.42 64.5738 288.6 63.4516 288.6 62.1827C288.6 60.9232 288.425 59.8153 288.075 58.8588C287.724 57.9024 287.208 57.1543 286.526 56.6145C285.844 56.0748 285.006 55.8049 284.012 55.8049C283.027 55.8049 282.194 56.0653 281.512 56.5861C280.84 57.1069 280.324 57.8456 279.964 58.802C279.604 59.7585 279.424 60.8854 279.424 62.1827ZM308.756 73.5179C306.512 73.5179 304.58 73.0634 302.961 72.1543C301.351 71.2357 300.111 69.9384 299.239 68.2623C298.368 66.5766 297.933 64.5833 297.933 62.2821C297.933 60.0378 298.368 58.0681 299.239 56.373C300.111 54.678 301.337 53.3569 302.918 52.41C304.509 51.463 306.375 50.9895 308.515 50.9895C309.954 50.9895 311.294 51.2215 312.535 51.6855C313.785 52.1401 314.874 52.8266 315.802 53.7452C316.739 54.6638 317.469 55.8191 317.989 57.2111C318.51 58.5937 318.771 60.213 318.771 62.0691V63.731H300.347V59.981H313.075C313.075 59.1098 312.885 58.338 312.506 57.6657C312.128 56.9933 311.602 56.4677 310.93 56.089C310.267 55.7007 309.495 55.5066 308.614 55.5066C307.696 55.5066 306.881 55.7196 306.171 56.1458C305.47 56.5624 304.921 57.1259 304.523 57.8361C304.126 58.5369 303.922 59.3181 303.913 60.1799V63.7452C303.913 64.8248 304.112 65.7575 304.509 66.5435C304.916 67.3295 305.489 67.9355 306.228 68.3617C306.967 68.7878 307.843 69.0009 308.856 69.0009C309.528 69.0009 310.144 68.9062 310.702 68.7168C311.261 68.5274 311.739 68.2433 312.137 67.8645C312.535 67.4857 312.838 67.0217 313.046 66.4725L318.643 66.8418C318.359 68.1865 317.776 69.3607 316.896 70.3645C316.024 71.3588 314.897 72.1354 313.515 72.6941C312.142 73.2433 310.556 73.5179 308.756 73.5179ZM337.904 59.7679V64.5265H326.512V59.7679H337.904ZM328.501 51.2736V73.0918H322.719V51.2736H328.501ZM341.697 51.2736V73.0918H335.958V51.2736H341.697ZM352.613 73.5037C351.221 73.5037 349.98 73.2623 348.891 72.7793C347.802 72.2869 346.941 71.5624 346.306 70.606C345.681 69.6401 345.369 68.4374 345.369 66.998C345.369 65.7859 345.591 64.7679 346.036 63.9441C346.481 63.1202 347.087 62.4573 347.854 61.9554C348.621 61.4535 349.493 61.0748 350.468 60.8191C351.453 60.5634 352.485 60.3835 353.565 60.2793C354.834 60.1467 355.856 60.0236 356.633 59.91C357.409 59.7869 357.973 59.6069 358.323 59.3702C358.674 59.1335 358.849 58.7831 358.849 58.3191V58.2338C358.849 57.3342 358.565 56.6382 357.996 56.1458C357.438 55.6533 356.642 55.4071 355.61 55.4071C354.521 55.4071 353.655 55.6486 353.011 56.1316C352.367 56.6051 351.941 57.2016 351.732 57.9213L346.136 57.4668C346.42 56.141 346.978 54.9952 347.812 54.0293C348.645 53.0539 349.72 52.3058 351.036 51.785C352.362 51.2547 353.896 50.9895 355.638 50.9895C356.851 50.9895 358.011 51.1316 359.119 51.4157C360.236 51.6998 361.226 52.1401 362.087 52.7367C362.959 53.3333 363.645 54.1003 364.147 55.0378C364.649 55.9658 364.9 57.0785 364.9 58.3759V73.0918H359.161V70.0662H358.991C358.64 70.748 358.172 71.3494 357.585 71.8702C356.997 72.3816 356.292 72.784 355.468 73.0776C354.644 73.3617 353.692 73.5037 352.613 73.5037ZM354.346 69.3276C355.236 69.3276 356.022 69.1524 356.704 68.802C357.386 68.4422 357.921 67.9592 358.309 67.3532C358.697 66.7471 358.891 66.0605 358.891 65.2935V62.9782C358.702 63.1013 358.442 63.2149 358.11 63.3191C357.788 63.4138 357.424 63.5037 357.016 63.589C356.609 63.6647 356.202 63.7357 355.795 63.802C355.388 63.8588 355.018 63.9109 354.687 63.9583C353.977 64.0624 353.356 64.2282 352.826 64.4554C352.296 64.6827 351.884 64.9905 351.59 65.3787C351.297 65.7575 351.15 66.231 351.15 66.7992C351.15 67.623 351.448 68.2528 352.045 68.6884C352.651 69.1145 353.418 69.3276 354.346 69.3276ZM368.174 73.0918L375.802 61.7424L368.217 51.2736H375.12L380.788 59.8105H381.725V51.2736H387.776V59.8105H388.685L394.353 51.2736H401.256L393.685 61.7424L401.299 73.0918H394.239L388.629 64.5691H387.776V73.0918H381.725V64.5691H380.873L375.234 73.0918H368.174ZM413.874 73.5179C411.629 73.5179 409.697 73.0634 408.078 72.1543C406.468 71.2357 405.228 69.9384 404.357 68.2623C403.485 66.5766 403.05 64.5833 403.05 62.2821C403.05 60.0378 403.485 58.0681 404.357 56.373C405.228 54.678 406.454 53.3569 408.036 52.41C409.626 51.463 411.492 50.9895 413.632 50.9895C415.071 50.9895 416.411 51.2215 417.652 51.6855C418.902 52.1401 419.991 52.8266 420.919 53.7452C421.857 54.6638 422.586 55.8191 423.107 57.2111C423.627 58.5937 423.888 60.213 423.888 62.0691V63.731H405.464V59.981H418.192C418.192 59.1098 418.002 58.338 417.624 57.6657C417.245 56.9933 416.719 56.4677 416.047 56.089C415.384 55.7007 414.612 55.5066 413.732 55.5066C412.813 55.5066 411.999 55.7196 411.288 56.1458C410.588 56.5624 410.038 57.1259 409.641 57.8361C409.243 58.5369 409.039 59.3181 409.03 60.1799V63.7452C409.03 64.8248 409.229 65.7575 409.626 66.5435C410.034 67.3295 410.607 67.9355 411.345 68.3617C412.084 68.7878 412.96 69.0009 413.973 69.0009C414.645 69.0009 415.261 68.9062 415.82 68.7168C416.378 68.5274 416.857 68.2433 417.254 67.8645C417.652 67.4857 417.955 67.0217 418.163 66.4725L423.76 66.8418C423.476 68.1865 422.893 69.3607 422.013 70.3645C421.142 71.3588 420.015 72.1354 418.632 72.6941C417.259 73.2433 415.673 73.5179 413.874 73.5179ZM409.158 48.2907C408.343 48.2907 407.643 48.0066 407.055 47.4384C406.468 46.8607 406.175 46.1789 406.175 45.3929C406.175 44.588 406.468 43.9062 407.055 43.3475C407.643 42.7888 408.343 42.5094 409.158 42.5094C409.982 42.5094 410.678 42.7888 411.246 43.3475C411.823 43.9062 412.112 44.588 412.112 45.3929C412.112 46.1789 411.823 46.8607 411.246 47.4384C410.678 48.0066 409.982 48.2907 409.158 48.2907ZM417.851 48.2907C417.036 48.2907 416.336 48.0066 415.749 47.4384C415.161 46.8607 414.868 46.1789 414.868 45.3929C414.868 44.588 415.161 43.9062 415.749 43.3475C416.336 42.7888 417.036 42.5094 417.851 42.5094C418.675 42.5094 419.371 42.7888 419.939 43.3475C420.517 43.9062 420.805 44.588 420.805 45.3929C420.805 46.1789 420.517 46.8607 419.939 47.4384C419.371 48.0066 418.675 48.2907 417.851 48.2907ZM427.837 81.2736V51.2736H433.803V54.9384H434.072C434.338 54.3513 434.721 53.7547 435.223 53.1486C435.734 52.5331 436.397 52.0217 437.212 51.6145C438.036 51.1979 439.058 50.9895 440.28 50.9895C441.871 50.9895 443.339 51.4062 444.683 52.2395C446.028 53.0634 447.103 54.3087 447.908 55.9753C448.713 57.6325 449.115 59.7111 449.115 62.2111C449.115 64.6448 448.722 66.6998 447.936 68.3759C447.16 70.0426 446.099 71.3068 444.754 72.1685C443.419 73.0208 441.923 73.4469 440.266 73.4469C439.091 73.4469 438.092 73.2528 437.268 72.8645C436.454 72.4763 435.786 71.9886 435.266 71.4015C434.745 70.8049 434.347 70.2035 434.072 69.5975H433.888V81.2736H427.837ZM433.76 62.1827C433.76 63.4801 433.94 64.6117 434.3 65.5776C434.66 66.5435 435.18 67.2963 435.862 67.8361C436.544 68.3664 437.373 68.6316 438.348 68.6316C439.333 68.6316 440.166 68.3617 440.848 67.8219C441.53 67.2727 442.046 66.5151 442.396 65.5492C442.756 64.5738 442.936 63.4516 442.936 62.1827C442.936 60.9232 442.761 59.8153 442.411 58.8588C442.06 57.9024 441.544 57.1543 440.862 56.6145C440.18 56.0748 439.342 55.8049 438.348 55.8049C437.363 55.8049 436.53 56.0653 435.848 56.5861C435.176 57.1069 434.66 57.8456 434.3 58.802C433.94 59.7585 433.76 60.8854 433.76 62.1827ZM459.371 73.5037C457.979 73.5037 456.738 73.2623 455.649 72.7793C454.56 72.2869 453.698 71.5624 453.064 70.606C452.439 69.6401 452.126 68.4374 452.126 66.998C452.126 65.7859 452.349 64.7679 452.794 63.9441C453.239 63.1202 453.845 62.4573 454.612 61.9554C455.379 61.4535 456.25 61.0748 457.226 60.8191C458.211 60.5634 459.243 60.3835 460.322 60.2793C461.591 60.1467 462.614 60.0236 463.391 59.91C464.167 59.7869 464.731 59.6069 465.081 59.3702C465.431 59.1335 465.607 58.7831 465.607 58.3191V58.2338C465.607 57.3342 465.322 56.6382 464.754 56.1458C464.196 55.6533 463.4 55.4071 462.368 55.4071C461.279 55.4071 460.412 55.6486 459.768 56.1316C459.125 56.6051 458.698 57.2016 458.49 57.9213L452.893 57.4668C453.178 56.141 453.736 54.9952 454.57 54.0293C455.403 53.0539 456.478 52.3058 457.794 51.785C459.12 51.2547 460.654 50.9895 462.396 50.9895C463.608 50.9895 464.768 51.1316 465.876 51.4157C466.994 51.6998 467.983 52.1401 468.845 52.7367C469.716 53.3333 470.403 54.1003 470.905 55.0378C471.407 55.9658 471.658 57.0785 471.658 58.3759V73.0918H465.919V70.0662H465.749C465.398 70.748 464.929 71.3494 464.342 71.8702C463.755 72.3816 463.05 72.784 462.226 73.0776C461.402 73.3617 460.45 73.5037 459.371 73.5037ZM461.104 69.3276C461.994 69.3276 462.78 69.1524 463.462 68.802C464.143 68.4422 464.679 67.9592 465.067 67.3532C465.455 66.7471 465.649 66.0605 465.649 65.2935V62.9782C465.46 63.1013 465.199 63.2149 464.868 63.3191C464.546 63.4138 464.181 63.5037 463.774 63.589C463.367 63.6647 462.96 63.7357 462.553 63.802C462.145 63.8588 461.776 63.9109 461.445 63.9583C460.734 64.0624 460.114 64.2282 459.584 64.4554C459.054 64.6827 458.642 64.9905 458.348 65.3787C458.054 65.7575 457.908 66.231 457.908 66.7992C457.908 67.623 458.206 68.2528 458.803 68.6884C459.409 69.1145 460.176 69.3276 461.104 69.3276ZM495.468 73.5179C493.233 73.5179 491.311 73.0444 489.701 72.0975C488.101 71.141 486.87 69.8153 486.008 68.1202C485.156 66.4251 484.729 64.4744 484.729 62.2679C484.729 60.0331 485.16 58.0729 486.022 56.3873C486.893 54.6922 488.129 53.3712 489.729 52.4242C491.33 51.4677 493.233 50.9895 495.44 50.9895C497.343 50.9895 499.01 51.3352 500.44 52.0265C501.87 52.7177 503.001 53.6884 503.835 54.9384C504.668 56.1884 505.127 57.6562 505.212 59.3418H499.502C499.341 58.2528 498.915 57.3768 498.224 56.714C497.542 56.0416 496.647 55.7054 495.539 55.7054C494.602 55.7054 493.782 55.9611 493.082 56.4725C492.39 56.9744 491.851 57.7083 491.462 58.6742C491.074 59.6401 490.88 60.8096 490.88 62.1827C490.88 63.5748 491.069 64.7585 491.448 65.7338C491.836 66.7092 492.381 67.4526 493.082 67.964C493.782 68.4753 494.602 68.731 495.539 68.731C496.23 68.731 496.851 68.589 497.4 68.3049C497.959 68.0208 498.418 67.6088 498.778 67.0691C499.147 66.5198 499.388 65.8617 499.502 65.0946H505.212C505.118 66.7613 504.663 68.2291 503.849 69.498C503.044 70.7575 501.931 71.7424 500.511 72.4526C499.09 73.1628 497.409 73.5179 495.468 73.5179ZM507.808 73.0918L507.78 68.2907H508.504C509.016 68.2907 509.456 68.1676 509.825 67.9213C510.204 67.6657 510.517 67.2537 510.763 66.6855C511.009 66.1174 511.203 65.3645 511.345 64.427C511.487 63.4801 511.582 62.3153 511.629 60.9327L511.984 51.2736H528.575V73.0918H522.808V56.0321H517.425L517.084 62.6941C516.999 64.5217 516.776 66.0937 516.416 67.41C516.066 68.7263 515.578 69.8058 514.953 70.6486C514.328 71.4819 513.575 72.0975 512.695 72.4952C511.814 72.8929 510.791 73.0918 509.626 73.0918H507.808ZM543.124 73.5179C540.918 73.5179 539.01 73.0492 537.4 72.1117C535.799 71.1647 534.564 69.8484 533.692 68.1628C532.821 66.4677 532.386 64.5028 532.386 62.2679C532.386 60.0141 532.821 58.0444 533.692 56.3588C534.564 54.6638 535.799 53.3475 537.4 52.41C539.01 51.463 540.918 50.9895 543.124 50.9895C545.331 50.9895 547.234 51.463 548.835 52.41C550.444 53.3475 551.685 54.6638 552.556 56.3588C553.427 58.0444 553.863 60.0141 553.863 62.2679C553.863 64.5028 553.427 66.4677 552.556 68.1628C551.685 69.8484 550.444 71.1647 548.835 72.1117C547.234 73.0492 545.331 73.5179 543.124 73.5179ZM543.153 68.8304C544.156 68.8304 544.995 68.5463 545.667 67.9782C546.339 67.4005 546.846 66.6145 547.187 65.6202C547.537 64.6259 547.712 63.4943 547.712 62.2253C547.712 60.9564 547.537 59.8248 547.187 58.8304C546.846 57.8361 546.339 57.0501 545.667 56.4725C544.995 55.8948 544.156 55.606 543.153 55.606C542.139 55.606 541.287 55.8948 540.596 56.4725C539.914 57.0501 539.398 57.8361 539.048 58.8304C538.707 59.8248 538.536 60.9564 538.536 62.2253C538.536 63.4943 538.707 64.6259 539.048 65.6202C539.398 66.6145 539.914 67.4005 540.596 67.9782C541.287 68.5463 542.139 68.8304 543.153 68.8304ZM572.982 59.7679V64.5265H561.59V59.7679H572.982ZM563.579 51.2736V73.0918H557.798V51.2736H563.579ZM576.775 51.2736V73.0918H571.036V51.2736H576.775ZM591.327 73.5179C589.121 73.5179 587.213 73.0492 585.603 72.1117C584.003 71.1647 582.767 69.8484 581.896 68.1628C581.024 66.4677 580.589 64.5028 580.589 62.2679C580.589 60.0141 581.024 58.0444 581.896 56.3588C582.767 54.6638 584.003 53.3475 585.603 52.41C587.213 51.463 589.121 50.9895 591.327 50.9895C593.534 50.9895 595.437 51.463 597.038 52.41C598.647 53.3475 599.888 54.6638 600.759 56.3588C601.63 58.0444 602.066 60.0141 602.066 62.2679C602.066 64.5028 601.63 66.4677 600.759 68.1628C599.888 69.8484 598.647 71.1647 597.038 72.1117C595.437 73.0492 593.534 73.5179 591.327 73.5179ZM591.356 68.8304C592.36 68.8304 593.198 68.5463 593.87 67.9782C594.542 67.4005 595.049 66.6145 595.39 65.6202C595.74 64.6259 595.915 63.4943 595.915 62.2253C595.915 60.9564 595.74 59.8248 595.39 58.8304C595.049 57.8361 594.542 57.0501 593.87 56.4725C593.198 55.8948 592.36 55.606 591.356 55.606C590.343 55.606 589.49 55.8948 588.799 56.4725C588.117 57.0501 587.601 57.8361 587.251 58.8304C586.91 59.8248 586.739 60.9564 586.739 62.2253C586.739 63.4943 586.91 64.6259 587.251 65.6202C587.601 66.6145 588.117 67.4005 588.799 67.9782C589.49 68.5463 590.343 68.8304 591.356 68.8304ZM606.001 73.0918V51.2736H615.305C617.994 51.2736 620.12 51.785 621.683 52.8077C623.245 53.8304 624.026 55.284 624.026 57.1685C624.026 58.3522 623.586 59.3371 622.705 60.123C621.825 60.909 620.603 61.4393 619.04 61.714C620.347 61.8087 621.46 62.1069 622.379 62.6088C623.307 63.1013 624.012 63.7405 624.495 64.5265C624.987 65.3124 625.234 66.1837 625.234 67.1401C625.234 68.3806 624.902 69.446 624.239 70.3361C623.586 71.2263 622.625 71.9081 621.356 72.3816C620.096 72.8551 618.558 73.0918 616.739 73.0918H606.001ZM611.64 68.5605H616.739C617.582 68.5605 618.24 68.3617 618.714 67.964C619.197 67.5568 619.438 67.0028 619.438 66.302C619.438 65.5255 619.197 64.9147 618.714 64.4696C618.24 64.0246 617.582 63.802 616.739 63.802H611.64V68.5605ZM611.64 60.2509H615.433C616.039 60.2509 616.555 60.1657 616.981 59.9952C617.416 59.8153 617.748 59.5596 617.975 59.2282C618.212 58.8967 618.33 58.5037 618.33 58.0492C618.33 57.3768 618.06 56.8513 617.521 56.4725C616.981 56.0937 616.242 55.9043 615.305 55.9043H611.64V60.2509ZM6.86009 109.109L14.7152 95.2736H20.6811V117.092H14.9141V103.214L7.08736 117.092H1.07884V95.2736H6.86009V109.109ZM34.7898 117.092V95.2736H40.8409V103.74H42.5455L48.483 95.2736H55.5852L47.8722 106.097L55.6705 117.092H48.483L43.0994 109.35H40.8409V117.092H34.7898ZM67.1868 117.518C64.9804 117.518 63.0722 117.049 61.4624 116.112C59.862 115.165 58.6262 113.848 57.755 112.163C56.8838 110.468 56.4482 108.503 56.4482 106.268C56.4482 104.014 56.8838 102.044 57.755 100.359C58.6262 98.6638 59.862 97.3475 61.4624 96.41C63.0722 95.463 64.9804 94.9895 67.1868 94.9895C69.3932 94.9895 71.2966 95.463 72.897 96.41C74.5069 97.3475 75.7474 98.6638 76.6186 100.359C77.4898 102.044 77.9254 104.014 77.9254 106.268C77.9254 108.503 77.4898 110.468 76.6186 112.163C75.7474 113.848 74.5069 115.165 72.897 116.112C71.2966 117.049 69.3932 117.518 67.1868 117.518ZM67.2152 112.83C68.219 112.83 69.0571 112.546 69.7294 111.978C70.4018 111.401 70.9084 110.615 71.2493 109.62C71.5997 108.626 71.7749 107.494 71.7749 106.225C71.7749 104.956 71.5997 103.825 71.2493 102.83C70.9084 101.836 70.4018 101.05 69.7294 100.472C69.0571 99.8948 68.219 99.606 67.2152 99.606C66.2019 99.606 65.3497 99.8948 64.6584 100.472C63.9766 101.05 63.4605 101.836 63.1101 102.83C62.7692 103.825 62.5987 104.956 62.5987 106.225C62.5987 107.494 62.7692 108.626 63.1101 109.62C63.4605 110.615 63.9766 111.401 64.6584 111.978C65.3497 112.546 66.2019 112.83 67.2152 112.83ZM80.5817 117.092L80.5533 112.291H81.2777C81.7891 112.291 82.2294 112.168 82.5987 111.921C82.9775 111.666 83.29 111.254 83.5362 110.686C83.7824 110.117 83.9766 109.365 84.1186 108.427C84.2607 107.48 84.3554 106.315 84.4027 104.933L84.7578 95.2736H101.349V117.092H95.5817V100.032H90.1982L89.8572 106.694C89.772 108.522 89.5495 110.094 89.1896 111.41C88.8393 112.726 88.3516 113.806 87.7266 114.649C87.1016 115.482 86.3487 116.097 85.468 116.495C84.5874 116.893 83.5646 117.092 82.3999 117.092H80.5817ZM115.983 117.518C113.739 117.518 111.807 117.063 110.188 116.154C108.578 115.236 107.337 113.938 106.466 112.262C105.595 110.577 105.159 108.583 105.159 106.282C105.159 104.038 105.595 102.068 106.466 100.373C107.337 98.678 108.563 97.3569 110.145 96.41C111.736 95.463 113.601 94.9895 115.741 94.9895C117.181 94.9895 118.521 95.2215 119.761 95.6855C121.011 96.1401 122.1 96.8266 123.028 97.7452C123.966 98.6638 124.695 99.8191 125.216 101.211C125.737 102.594 125.997 104.213 125.997 106.069V107.731H107.574V103.981H120.301C120.301 103.11 120.112 102.338 119.733 101.666C119.354 100.993 118.829 100.468 118.156 100.089C117.493 99.7007 116.722 99.5066 115.841 99.5066C114.922 99.5066 114.108 99.7196 113.398 100.146C112.697 100.562 112.148 101.126 111.75 101.836C111.352 102.537 111.149 103.318 111.139 104.18V107.745C111.139 108.825 111.338 109.758 111.736 110.544C112.143 111.329 112.716 111.936 113.455 112.362C114.193 112.788 115.069 113.001 116.082 113.001C116.755 113.001 117.37 112.906 117.929 112.717C118.488 112.527 118.966 112.243 119.364 111.865C119.761 111.486 120.064 111.022 120.273 110.472L125.869 110.842C125.585 112.186 125.003 113.361 124.122 114.365C123.251 115.359 122.124 116.135 120.741 116.694C119.368 117.243 117.782 117.518 115.983 117.518ZM139.804 117.518C137.569 117.518 135.647 117.044 134.037 116.097C132.437 115.141 131.205 113.815 130.344 112.12C129.491 110.425 129.065 108.474 129.065 106.268C129.065 104.033 129.496 102.073 130.358 100.387C131.229 98.6922 132.465 97.3712 134.065 96.4242C135.666 95.4677 137.569 94.9895 139.776 94.9895C141.679 94.9895 143.346 95.3352 144.776 96.0265C146.205 96.7177 147.337 97.6884 148.17 98.9384C149.004 100.188 149.463 101.656 149.548 103.342H143.838C143.677 102.253 143.251 101.377 142.56 100.714C141.878 100.042 140.983 99.7054 139.875 99.7054C138.938 99.7054 138.118 99.9611 137.418 100.472C136.726 100.974 136.187 101.708 135.798 102.674C135.41 103.64 135.216 104.81 135.216 106.183C135.216 107.575 135.405 108.758 135.784 109.734C136.172 110.709 136.717 111.453 137.418 111.964C138.118 112.475 138.938 112.731 139.875 112.731C140.566 112.731 141.187 112.589 141.736 112.305C142.295 112.021 142.754 111.609 143.114 111.069C143.483 110.52 143.724 109.862 143.838 109.095H149.548C149.454 110.761 148.999 112.229 148.185 113.498C147.38 114.758 146.267 115.742 144.847 116.453C143.426 117.163 141.745 117.518 139.804 117.518ZM168.607 103.768V108.526H157.215V103.768H168.607ZM159.204 95.2736V117.092H153.423V95.2736H159.204ZM172.4 95.2736V117.092H166.661V95.2736H172.4ZM182.876 109.109L190.731 95.2736H196.697V117.092H190.93V103.214L183.103 117.092H177.094V95.2736H182.876V109.109ZM220.624 95.2736V112.916H224.104V124.109H218.224V117.092H201.548V95.2736H207.329V112.333H214.914V95.2736H220.624ZM235.39 123.484V112.291H237.066C237.549 111.988 237.937 111.505 238.231 110.842C238.534 110.179 238.78 109.398 238.969 108.498C239.168 107.598 239.32 106.628 239.424 105.586C239.538 104.535 239.637 103.474 239.722 102.404L240.29 95.2736H257.023V112.291H260.404V123.484H254.637V117.092H241.299V123.484H235.39ZM243.089 112.291H251.313V99.9327H245.433L245.205 102.404C245.044 104.734 244.812 106.713 244.509 108.342C244.206 109.961 243.733 111.277 243.089 112.291ZM273.788 117.518C271.582 117.518 269.674 117.049 268.064 116.112C266.464 115.165 265.228 113.848 264.357 112.163C263.485 110.468 263.05 108.503 263.05 106.268C263.05 104.014 263.485 102.044 264.357 100.359C265.228 98.6638 266.464 97.3475 268.064 96.41C269.674 95.463 271.582 94.9895 273.788 94.9895C275.995 94.9895 277.898 95.463 279.499 96.41C281.108 97.3475 282.349 98.6638 283.22 100.359C284.091 102.044 284.527 104.014 284.527 106.268C284.527 108.503 284.091 110.468 283.22 112.163C282.349 113.848 281.108 115.165 279.499 116.112C277.898 117.049 275.995 117.518 273.788 117.518ZM273.817 112.83C274.821 112.83 275.659 112.546 276.331 111.978C277.003 111.401 277.51 110.615 277.851 109.62C278.201 108.626 278.376 107.494 278.376 106.225C278.376 104.956 278.201 103.825 277.851 102.83C277.51 101.836 277.003 101.05 276.331 100.472C275.659 99.8948 274.821 99.606 273.817 99.606C272.804 99.606 271.951 99.8948 271.26 100.472C270.578 101.05 270.062 101.836 269.712 102.83C269.371 103.825 269.2 104.956 269.2 106.225C269.2 107.494 269.371 108.626 269.712 109.62C270.062 110.615 270.578 111.401 271.26 111.978C271.951 112.546 272.804 112.83 273.817 112.83ZM303.941 117.504C302.549 117.504 301.308 117.262 300.219 116.779C299.13 116.287 298.269 115.562 297.634 114.606C297.009 113.64 296.697 112.437 296.697 110.998C296.697 109.786 296.919 108.768 297.364 107.944C297.809 107.12 298.415 106.457 299.183 105.955C299.95 105.454 300.821 105.075 301.796 104.819C302.781 104.563 303.813 104.383 304.893 104.279C306.162 104.147 307.184 104.024 307.961 103.91C308.737 103.787 309.301 103.607 309.651 103.37C310.002 103.133 310.177 102.783 310.177 102.319V102.234C310.177 101.334 309.893 100.638 309.325 100.146C308.766 99.6533 307.97 99.4071 306.938 99.4071C305.849 99.4071 304.983 99.6486 304.339 100.132C303.695 100.605 303.269 101.202 303.06 101.921L297.464 101.467C297.748 100.141 298.307 98.9952 299.14 98.0293C299.973 97.0539 301.048 96.3058 302.364 95.785C303.69 95.2547 305.224 94.9895 306.967 94.9895C308.179 94.9895 309.339 95.1316 310.447 95.4157C311.564 95.6998 312.554 96.1401 313.415 96.7367C314.287 97.3333 314.973 98.1003 315.475 99.0378C315.977 99.9658 316.228 101.079 316.228 102.376V117.092H310.489V114.066H310.319C309.969 114.748 309.5 115.349 308.913 115.87C308.326 116.382 307.62 116.784 306.796 117.078C305.972 117.362 305.021 117.504 303.941 117.504ZM305.674 113.328C306.564 113.328 307.35 113.152 308.032 112.802C308.714 112.442 309.249 111.959 309.637 111.353C310.025 110.747 310.219 110.061 310.219 109.294V106.978C310.03 107.101 309.77 107.215 309.438 107.319C309.116 107.414 308.752 107.504 308.344 107.589C307.937 107.665 307.53 107.736 307.123 107.802C306.716 107.859 306.346 107.911 306.015 107.958C305.305 108.062 304.684 108.228 304.154 108.455C303.624 108.683 303.212 108.99 302.918 109.379C302.625 109.758 302.478 110.231 302.478 110.799C302.478 111.623 302.776 112.253 303.373 112.688C303.979 113.115 304.746 113.328 305.674 113.328ZM339.062 87.2622L340.908 91.2111C340.293 91.7225 339.611 92.1013 338.863 92.3475C338.115 92.5842 337.22 92.7405 336.178 92.8162C335.146 92.892 333.887 92.9441 332.4 92.9725C330.714 92.9914 329.341 93.2613 328.281 93.7821C327.22 94.303 326.415 95.1221 325.866 96.2395C325.317 97.3475 324.957 98.7963 324.786 100.586H324.999C325.653 99.2509 326.571 98.2187 327.755 97.4895C328.948 96.7604 330.421 96.3958 332.173 96.3958C334.029 96.3958 335.653 96.803 337.045 97.6174C338.446 98.4318 339.535 99.6013 340.312 101.126C341.088 102.651 341.477 104.478 341.477 106.609C341.477 108.825 341.041 110.752 340.17 112.39C339.308 114.019 338.082 115.283 336.491 116.183C334.9 117.073 333.006 117.518 330.809 117.518C328.603 117.518 326.699 117.054 325.099 116.126C323.508 115.198 322.277 113.829 321.406 112.021C320.544 110.212 320.113 107.987 320.113 105.345V103.555C320.113 98.2992 321.136 94.4024 323.181 91.8645C325.227 89.3266 328.233 88.0388 332.201 88.0009C333.281 87.9819 334.256 87.9772 335.127 87.9867C335.998 87.9962 336.761 87.9535 337.414 87.8588C338.077 87.7641 338.626 87.5653 339.062 87.2622ZM330.837 112.83C331.765 112.83 332.561 112.589 333.224 112.106C333.896 111.623 334.412 110.932 334.772 110.032C335.141 109.133 335.326 108.058 335.326 106.808C335.326 105.567 335.141 104.516 334.772 103.654C334.412 102.783 333.896 102.12 333.224 101.666C332.551 101.211 331.746 100.984 330.809 100.984C330.108 100.984 329.478 101.112 328.92 101.367C328.361 101.623 327.883 102.002 327.485 102.504C327.097 102.996 326.794 103.607 326.576 104.336C326.368 105.056 326.263 105.88 326.263 106.808C326.263 108.673 326.666 110.146 327.471 111.225C328.285 112.295 329.407 112.83 330.837 112.83ZM355.351 117.518C353.116 117.518 351.194 117.044 349.584 116.097C347.983 115.141 346.752 113.815 345.891 112.12C345.038 110.425 344.612 108.474 344.612 106.268C344.612 104.033 345.043 102.073 345.905 100.387C346.776 98.6922 348.012 97.3712 349.612 96.4242C351.213 95.4677 353.116 94.9895 355.322 94.9895C357.226 94.9895 358.893 95.3352 360.322 96.0265C361.752 96.7177 362.884 97.6884 363.717 98.9384C364.551 100.188 365.01 101.656 365.095 103.342H359.385C359.224 102.253 358.798 101.377 358.107 100.714C357.425 100.042 356.53 99.7054 355.422 99.7054C354.484 99.7054 353.665 99.9611 352.964 100.472C352.273 100.974 351.733 101.708 351.345 102.674C350.957 103.64 350.763 104.81 350.763 106.183C350.763 107.575 350.952 108.758 351.331 109.734C351.719 110.709 352.264 111.453 352.964 111.964C353.665 112.475 354.484 112.731 355.422 112.731C356.113 112.731 356.733 112.589 357.283 112.305C357.841 112.021 358.301 111.609 358.661 111.069C359.03 110.52 359.271 109.862 359.385 109.095H365.095C365 110.761 364.546 112.229 363.732 113.498C362.927 114.758 361.814 115.742 360.393 116.453C358.973 117.163 357.292 117.518 355.351 117.518ZM367.482 100.032V95.2736H387.254V100.032H380.223V117.092H374.456V100.032H367.482ZM390.923 125.274V95.2736H396.888V98.9384H397.158C397.424 98.3513 397.807 97.7547 398.309 97.1486C398.82 96.5331 399.483 96.0217 400.298 95.6145C401.121 95.1979 402.144 94.9895 403.366 94.9895C404.957 94.9895 406.424 95.4062 407.769 96.2395C409.114 97.0634 410.189 98.3087 410.994 99.9753C411.799 101.633 412.201 103.711 412.201 106.211C412.201 108.645 411.808 110.7 411.022 112.376C410.246 114.043 409.185 115.307 407.84 116.169C406.505 117.021 405.009 117.447 403.352 117.447C402.177 117.447 401.178 117.253 400.354 116.865C399.54 116.476 398.872 115.989 398.352 115.401C397.831 114.805 397.433 114.204 397.158 113.597H396.974V125.274H390.923ZM396.846 106.183C396.846 107.48 397.026 108.612 397.386 109.578C397.746 110.544 398.266 111.296 398.948 111.836C399.63 112.366 400.459 112.632 401.434 112.632C402.419 112.632 403.252 112.362 403.934 111.822C404.616 111.273 405.132 110.515 405.482 109.549C405.842 108.574 406.022 107.452 406.022 106.183C406.022 104.923 405.847 103.815 405.496 102.859C405.146 101.902 404.63 101.154 403.948 100.615C403.266 100.075 402.428 99.8049 401.434 99.8049C400.449 99.8049 399.616 100.065 398.934 100.586C398.262 101.107 397.746 101.846 397.386 102.802C397.026 103.758 396.846 104.885 396.846 106.183ZM422.457 117.504C421.065 117.504 419.824 117.262 418.735 116.779C417.646 116.287 416.784 115.562 416.15 114.606C415.525 113.64 415.212 112.437 415.212 110.998C415.212 109.786 415.435 108.768 415.88 107.944C416.325 107.12 416.931 106.457 417.698 105.955C418.465 105.454 419.336 105.075 420.312 104.819C421.297 104.563 422.329 104.383 423.408 104.279C424.677 104.147 425.7 104.024 426.477 103.91C427.253 103.787 427.817 103.607 428.167 103.37C428.517 103.133 428.692 102.783 428.692 102.319V102.234C428.692 101.334 428.408 100.638 427.84 100.146C427.281 99.6533 426.486 99.4071 425.454 99.4071C424.365 99.4071 423.498 99.6486 422.854 100.132C422.21 100.605 421.784 101.202 421.576 101.921L415.979 101.467C416.263 100.141 416.822 98.9952 417.656 98.0293C418.489 97.0539 419.564 96.3058 420.88 95.785C422.206 95.2547 423.74 94.9895 425.482 94.9895C426.694 94.9895 427.854 95.1316 428.962 95.4157C430.08 95.6998 431.069 96.1401 431.931 96.7367C432.802 97.3333 433.489 98.1003 433.991 99.0378C434.493 99.9658 434.744 101.079 434.744 102.376V117.092H429.005V114.066H428.835C428.484 114.748 428.015 115.349 427.428 115.87C426.841 116.382 426.136 116.784 425.312 117.078C424.488 117.362 423.536 117.504 422.457 117.504ZM424.19 113.328C425.08 113.328 425.866 113.152 426.548 112.802C427.229 112.442 427.764 111.959 428.153 111.353C428.541 110.747 428.735 110.061 428.735 109.294V106.978C428.546 107.101 428.285 107.215 427.954 107.319C427.632 107.414 427.267 107.504 426.86 107.589C426.453 107.665 426.046 107.736 425.638 107.802C425.231 107.859 424.862 107.911 424.531 107.958C423.82 108.062 423.2 108.228 422.67 108.455C422.139 108.683 421.728 108.99 421.434 109.379C421.14 109.758 420.994 110.231 420.994 110.799C420.994 111.623 421.292 112.253 421.888 112.688C422.495 113.115 423.262 113.328 424.19 113.328ZM439.438 117.092V95.2736H445.489V103.74H447.194L453.131 95.2736H460.234L452.521 106.097L460.319 117.092H453.131L447.748 109.35H445.489V117.092H439.438ZM461.739 100.032V95.2736H481.512V100.032H474.481V117.092H468.714V100.032H461.739ZM500.365 103.768V108.526H488.973V103.768H500.365ZM490.962 95.2736V117.092H485.18V95.2736H490.962ZM504.158 95.2736V117.092H498.419V95.2736H504.158ZM518.71 117.518C516.504 117.518 514.596 117.049 512.986 116.112C511.385 115.165 510.15 113.848 509.278 112.163C508.407 110.468 507.972 108.503 507.972 106.268C507.972 104.014 508.407 102.044 509.278 100.359C510.15 98.6638 511.385 97.3475 512.986 96.41C514.596 95.463 516.504 94.9895 518.71 94.9895C520.917 94.9895 522.82 95.463 524.42 96.41C526.03 97.3475 527.271 98.6638 528.142 100.359C529.013 102.044 529.449 104.014 529.449 106.268C529.449 108.503 529.013 110.468 528.142 112.163C527.271 113.848 526.03 115.165 524.42 116.112C522.82 117.049 520.917 117.518 518.71 117.518ZM518.739 112.83C519.742 112.83 520.58 112.546 521.253 111.978C521.925 111.401 522.432 110.615 522.773 109.62C523.123 108.626 523.298 107.494 523.298 106.225C523.298 104.956 523.123 103.825 522.773 102.83C522.432 101.836 521.925 101.05 521.253 100.472C520.58 99.8948 519.742 99.606 518.739 99.606C517.725 99.606 516.873 99.8948 516.182 100.472C515.5 101.05 514.984 101.836 514.634 102.83C514.293 103.825 514.122 104.956 514.122 106.225C514.122 107.494 514.293 108.626 514.634 109.62C514.984 110.615 515.5 111.401 516.182 111.978C516.873 112.546 517.725 112.83 518.739 112.83ZM548.327 95.2736V100.032H539.264V117.092H533.384V95.2736H548.327ZM561.093 117.518C558.887 117.518 556.978 117.049 555.369 116.112C553.768 115.165 552.532 113.848 551.661 112.163C550.79 110.468 550.354 108.503 550.354 106.268C550.354 104.014 550.79 102.044 551.661 100.359C552.532 98.6638 553.768 97.3475 555.369 96.41C556.978 95.463 558.887 94.9895 561.093 94.9895C563.299 94.9895 565.203 95.463 566.803 96.41C568.413 97.3475 569.654 98.6638 570.525 100.359C571.396 102.044 571.832 104.014 571.832 106.268C571.832 108.503 571.396 110.468 570.525 112.163C569.654 113.848 568.413 115.165 566.803 116.112C565.203 117.049 563.299 117.518 561.093 117.518ZM561.121 112.83C562.125 112.83 562.963 112.546 563.636 111.978C564.308 111.401 564.815 110.615 565.156 109.62C565.506 108.626 565.681 107.494 565.681 106.225C565.681 104.956 565.506 103.825 565.156 102.83C564.815 101.836 564.308 101.05 563.636 100.472C562.963 99.8948 562.125 99.606 561.121 99.606C560.108 99.606 559.256 99.8948 558.565 100.472C557.883 101.05 557.367 101.836 557.016 102.83C556.675 103.825 556.505 104.956 556.505 106.225C556.505 107.494 556.675 108.626 557.016 109.62C557.367 110.615 557.883 111.401 558.565 111.978C559.256 112.546 560.108 112.83 561.121 112.83ZM13.8629 161.092V144.018H9.77202C8.66406 144.018 7.82126 144.274 7.24361 144.785C6.66596 145.296 6.38187 145.902 6.39134 146.603C6.38187 147.313 6.65649 147.915 7.2152 148.407C7.78338 148.89 8.61671 149.132 9.7152 149.132H15.88V153.222H9.7152C7.84967 153.222 6.23509 152.938 4.87145 152.37C3.50781 151.802 2.45668 151.011 1.71804 149.998C0.979404 148.975 0.61482 147.787 0.62429 146.433C0.61482 145.012 0.979404 143.767 1.71804 142.697C2.45668 141.617 3.51255 140.779 4.88565 140.183C6.26823 139.577 7.89702 139.274 9.77202 139.274H19.5021V161.092H13.8629ZM-0.00071016 161.092L6.06463 149.728H11.8459L5.79474 161.092H-0.00071016ZM23.0817 154.913H28.9482C28.9766 155.633 29.2985 156.201 29.9141 156.617C30.5296 157.034 31.325 157.242 32.3004 157.242C33.2853 157.242 34.1139 157.015 34.7862 156.561C35.4586 156.097 35.7947 155.434 35.7947 154.572C35.7947 154.042 35.6622 153.582 35.397 153.194C35.1319 152.796 34.7625 152.484 34.2891 152.257C33.8156 152.029 33.2663 151.916 32.6413 151.916H29.5021V147.953H32.6413C33.5788 147.953 34.2985 147.735 34.8004 147.299C35.3118 146.864 35.5675 146.319 35.5675 145.666C35.5675 144.927 35.3023 144.335 34.772 143.89C34.2512 143.436 33.5457 143.208 32.6555 143.208C31.7559 143.208 31.0078 143.412 30.4112 143.819C29.8241 144.217 29.5211 144.738 29.5021 145.382H23.6641C23.683 144.075 24.076 142.943 24.843 141.987C25.6196 141.03 26.6612 140.292 27.968 139.771C29.2843 139.25 30.7569 138.99 32.3857 138.99C34.166 138.99 35.7 139.24 36.9879 139.742C38.2853 140.235 39.2796 140.94 39.9709 141.859C40.6716 142.777 41.022 143.871 41.022 145.14C41.022 146.295 40.6432 147.261 39.8857 148.038C39.1281 148.814 38.0675 149.368 36.7038 149.7V149.927C37.6035 149.984 38.4179 150.225 39.147 150.651C39.8762 151.078 40.4586 151.665 40.8942 152.413C41.3298 153.151 41.5476 154.027 41.5476 155.041C41.5476 156.395 41.1499 157.555 40.3544 158.521C39.5684 159.487 38.4794 160.23 37.0874 160.751C35.7048 161.262 34.1186 161.518 32.3288 161.518C30.5864 161.518 29.0239 161.267 27.6413 160.765C26.2682 160.254 25.1745 159.506 24.3601 158.521C23.5552 157.536 23.129 156.333 23.0817 154.913ZM49.0511 145.978H55.571C58.4593 145.978 60.7131 146.669 62.3324 148.052C63.9517 149.425 64.7614 151.262 64.7614 153.563C64.7614 155.06 64.3968 156.376 63.6676 157.512C62.9384 158.639 61.8873 159.52 60.5142 160.154C59.1411 160.779 57.4934 161.092 55.571 161.092H45.2585V139.274H51.0398V156.333H55.571C56.5843 156.333 57.4176 156.078 58.071 155.566C58.7244 155.055 59.0559 154.401 59.0653 153.606C59.0559 152.763 58.7244 152.077 58.071 151.546C57.4176 151.007 56.5843 150.737 55.571 150.737H49.0511V145.978ZM67.1051 161.092V139.274H73.1562V161.092H67.1051ZM77.9929 161.092V139.274H84.044V147.74H85.7486L91.6861 139.274H98.7884L91.0753 150.097L98.8736 161.092H91.6861L86.3026 153.35H84.044V161.092H77.9929ZM107.652 161.504C106.26 161.504 105.019 161.262 103.93 160.779C102.841 160.287 101.98 159.562 101.345 158.606C100.72 157.64 100.408 156.437 100.408 154.998C100.408 153.786 100.63 152.768 101.075 151.944C101.52 151.12 102.126 150.457 102.893 149.955C103.661 149.454 104.532 149.075 105.507 148.819C106.492 148.563 107.524 148.383 108.604 148.279C109.873 148.147 110.895 148.024 111.672 147.91C112.448 147.787 113.012 147.607 113.362 147.37C113.713 147.133 113.888 146.783 113.888 146.319V146.234C113.888 145.334 113.604 144.638 113.036 144.146C112.477 143.653 111.681 143.407 110.649 143.407C109.56 143.407 108.694 143.649 108.05 144.132C107.406 144.605 106.98 145.202 106.771 145.921L101.175 145.467C101.459 144.141 102.018 142.995 102.851 142.029C103.684 141.054 104.759 140.306 106.075 139.785C107.401 139.255 108.935 138.99 110.678 138.99C111.89 138.99 113.05 139.132 114.158 139.416C115.275 139.7 116.265 140.14 117.126 140.737C117.998 141.333 118.684 142.1 119.186 143.038C119.688 143.966 119.939 145.079 119.939 146.376V161.092H114.2V158.066H114.03C113.679 158.748 113.211 159.349 112.624 159.87C112.036 160.382 111.331 160.784 110.507 161.078C109.683 161.362 108.732 161.504 107.652 161.504ZM109.385 157.328C110.275 157.328 111.061 157.152 111.743 156.802C112.425 156.442 112.96 155.959 113.348 155.353C113.736 154.747 113.93 154.061 113.93 153.294V150.978C113.741 151.101 113.481 151.215 113.149 151.319C112.827 151.414 112.463 151.504 112.055 151.589C111.648 151.665 111.241 151.736 110.834 151.802C110.427 151.859 110.057 151.911 109.726 151.958C109.016 152.062 108.395 152.228 107.865 152.455C107.335 152.683 106.923 152.99 106.629 153.379C106.336 153.758 106.189 154.231 106.189 154.799C106.189 155.623 106.487 156.253 107.084 156.688C107.69 157.115 108.457 157.328 109.385 157.328ZM131.21 157.115L131.054 158.677C130.931 159.927 130.694 161.172 130.344 162.413C130.003 163.663 129.643 164.794 129.264 165.808C128.895 166.821 128.597 167.616 128.369 168.194H124.449C124.591 167.635 124.785 166.854 125.031 165.85C125.277 164.856 125.509 163.739 125.727 162.498C125.945 161.258 126.082 159.993 126.139 158.705L126.21 157.115H131.21ZM159.818 147.768V152.526H148.426V147.768H159.818ZM150.415 139.274V161.092H144.634V139.274H150.415ZM163.611 139.274V161.092H157.872V139.274H163.611ZM174.527 161.504C173.135 161.504 171.894 161.262 170.805 160.779C169.716 160.287 168.855 159.562 168.22 158.606C167.595 157.64 167.283 156.437 167.283 154.998C167.283 153.786 167.505 152.768 167.95 151.944C168.395 151.12 169.001 150.457 169.768 149.955C170.536 149.454 171.407 149.075 172.382 148.819C173.367 148.563 174.399 148.383 175.479 148.279C176.748 148.147 177.77 148.024 178.547 147.91C179.323 147.787 179.887 147.607 180.237 147.37C180.588 147.133 180.763 146.783 180.763 146.319V146.234C180.763 145.334 180.479 144.638 179.911 144.146C179.352 143.653 178.556 143.407 177.524 143.407C176.435 143.407 175.569 143.649 174.925 144.132C174.281 144.605 173.855 145.202 173.646 145.921L168.05 145.467C168.334 144.141 168.893 142.995 169.726 142.029C170.559 141.054 171.634 140.306 172.95 139.785C174.276 139.255 175.81 138.99 177.553 138.99C178.765 138.99 179.925 139.132 181.033 139.416C182.15 139.7 183.14 140.14 184.001 140.737C184.873 141.333 185.559 142.1 186.061 143.038C186.563 143.966 186.814 145.079 186.814 146.376V161.092H181.075V158.066H180.905C180.554 158.748 180.086 159.349 179.499 159.87C178.911 160.382 178.206 160.784 177.382 161.078C176.558 161.362 175.607 161.504 174.527 161.504ZM176.26 157.328C177.15 157.328 177.936 157.152 178.618 156.802C179.3 156.442 179.835 155.959 180.223 155.353C180.611 154.747 180.805 154.061 180.805 153.294V150.978C180.616 151.101 180.356 151.215 180.024 151.319C179.702 151.414 179.338 151.504 178.93 151.589C178.523 151.665 178.116 151.736 177.709 151.802C177.302 151.859 176.932 151.911 176.601 151.958C175.891 152.062 175.27 152.228 174.74 152.455C174.21 152.683 173.798 152.99 173.504 153.379C173.211 153.758 173.064 154.231 173.064 154.799C173.064 155.623 173.362 156.253 173.959 156.688C174.565 157.115 175.332 157.328 176.26 157.328ZM200.766 161.092V139.274H206.817V147.74H208.522L214.46 139.274H221.562L213.849 150.097L221.647 161.092H214.46L209.076 153.35H206.817V161.092H200.766ZM233.163 161.518C230.957 161.518 229.049 161.049 227.439 160.112C225.839 159.165 224.603 157.848 223.732 156.163C222.86 154.468 222.425 152.503 222.425 150.268C222.425 148.014 222.86 146.044 223.732 144.359C224.603 142.664 225.839 141.347 227.439 140.41C229.049 139.463 230.957 138.99 233.163 138.99C235.37 138.99 237.273 139.463 238.874 140.41C240.483 141.347 241.724 142.664 242.595 144.359C243.466 146.044 243.902 148.014 243.902 150.268C243.902 152.503 243.466 154.468 242.595 156.163C241.724 157.848 240.483 159.165 238.874 160.112C237.273 161.049 235.37 161.518 233.163 161.518ZM233.192 156.83C234.196 156.83 235.034 156.546 235.706 155.978C236.378 155.401 236.885 154.615 237.226 153.62C237.576 152.626 237.751 151.494 237.751 150.225C237.751 148.956 237.576 147.825 237.226 146.83C236.885 145.836 236.378 145.05 235.706 144.472C235.034 143.895 234.196 143.606 233.192 143.606C232.179 143.606 231.326 143.895 230.635 144.472C229.953 145.05 229.437 145.836 229.087 146.83C228.746 147.825 228.575 148.956 228.575 150.225C228.575 151.494 228.746 152.626 229.087 153.62C229.437 154.615 229.953 155.401 230.635 155.978C231.326 156.546 232.179 156.83 233.192 156.83ZM245.724 144.032V139.274H265.496V144.032H258.465V161.092H252.698V144.032H245.724ZM278.241 161.518C276.035 161.518 274.127 161.049 272.517 160.112C270.917 159.165 269.681 157.848 268.81 156.163C267.938 154.468 267.503 152.503 267.503 150.268C267.503 148.014 267.938 146.044 268.81 144.359C269.681 142.664 270.917 141.347 272.517 140.41C274.127 139.463 276.035 138.99 278.241 138.99C280.448 138.99 282.351 139.463 283.952 140.41C285.562 141.347 286.802 142.664 287.673 144.359C288.545 146.044 288.98 148.014 288.98 150.268C288.98 152.503 288.545 154.468 287.673 156.163C286.802 157.848 285.562 159.165 283.952 160.112C282.351 161.049 280.448 161.518 278.241 161.518ZM278.27 156.83C279.274 156.83 280.112 156.546 280.784 155.978C281.456 155.401 281.963 154.615 282.304 153.62C282.654 152.626 282.83 151.494 282.83 150.225C282.83 148.956 282.654 147.825 282.304 146.83C281.963 145.836 281.456 145.05 280.784 144.472C280.112 143.895 279.274 143.606 278.27 143.606C277.257 143.606 276.404 143.895 275.713 144.472C275.031 145.05 274.515 145.836 274.165 146.83C273.824 147.825 273.653 148.956 273.653 150.225C273.653 151.494 273.824 152.626 274.165 153.62C274.515 154.615 275.031 155.401 275.713 155.978C276.404 156.546 277.257 156.83 278.27 156.83ZM292.915 169.274V139.274H298.881V142.938H299.151C299.416 142.351 299.799 141.755 300.301 141.149C300.813 140.533 301.475 140.022 302.29 139.615C303.114 139.198 304.136 138.99 305.358 138.99C306.949 138.99 308.417 139.406 309.761 140.24C311.106 141.063 312.181 142.309 312.986 143.975C313.791 145.633 314.193 147.711 314.193 150.211C314.193 152.645 313.8 154.7 313.014 156.376C312.238 158.043 311.177 159.307 309.832 160.169C308.497 161.021 307.001 161.447 305.344 161.447C304.17 161.447 303.17 161.253 302.347 160.865C301.532 160.476 300.865 159.989 300.344 159.401C299.823 158.805 299.425 158.204 299.151 157.597H298.966V169.274H292.915ZM298.838 150.183C298.838 151.48 299.018 152.612 299.378 153.578C299.738 154.544 300.259 155.296 300.94 155.836C301.622 156.366 302.451 156.632 303.426 156.632C304.411 156.632 305.244 156.362 305.926 155.822C306.608 155.273 307.124 154.515 307.474 153.549C307.834 152.574 308.014 151.452 308.014 150.183C308.014 148.923 307.839 147.815 307.489 146.859C307.138 145.902 306.622 145.154 305.94 144.615C305.259 144.075 304.42 143.805 303.426 143.805C302.441 143.805 301.608 144.065 300.926 144.586C300.254 145.107 299.738 145.846 299.378 146.802C299.018 147.758 298.838 148.885 298.838 150.183ZM328.085 161.518C325.879 161.518 323.971 161.049 322.361 160.112C320.76 159.165 319.525 157.848 318.653 156.163C317.782 154.468 317.347 152.503 317.347 150.268C317.347 148.014 317.782 146.044 318.653 144.359C319.525 142.664 320.76 141.347 322.361 140.41C323.971 139.463 325.879 138.99 328.085 138.99C330.292 138.99 332.195 139.463 333.795 140.41C335.405 141.347 336.646 142.664 337.517 144.359C338.388 146.044 338.824 148.014 338.824 150.268C338.824 152.503 338.388 154.468 337.517 156.163C336.646 157.848 335.405 159.165 333.795 160.112C332.195 161.049 330.292 161.518 328.085 161.518ZM328.114 156.83C329.117 156.83 329.955 156.546 330.628 155.978C331.3 155.401 331.807 154.615 332.148 153.62C332.498 152.626 332.673 151.494 332.673 150.225C332.673 148.956 332.498 147.825 332.148 146.83C331.807 145.836 331.3 145.05 330.628 144.472C329.955 143.895 329.117 143.606 328.114 143.606C327.1 143.606 326.248 143.895 325.557 144.472C324.875 145.05 324.359 145.836 324.009 146.83C323.668 147.825 323.497 148.956 323.497 150.225C323.497 151.494 323.668 152.626 324.009 153.62C324.359 154.615 324.875 155.401 325.557 155.978C326.248 156.546 327.1 156.83 328.114 156.83ZM355.656 154.401L361.565 139.274H366.168L357.659 161.092H353.639L345.33 139.274H349.918L355.656 154.401ZM348.54 139.274V161.092H342.759V139.274H348.54ZM363.071 161.092V139.274H368.781V161.092H363.071ZM395.617 154.401L401.526 139.274H406.129L397.62 161.092H393.6L385.29 139.274H389.879L395.617 154.401ZM388.501 139.274V161.092H382.719V139.274H388.501ZM403.032 161.092V139.274H408.742V161.092H403.032ZM423.281 161.518C421.074 161.518 419.166 161.049 417.556 160.112C415.956 159.165 414.72 157.848 413.849 156.163C412.978 154.468 412.542 152.503 412.542 150.268C412.542 148.014 412.978 146.044 413.849 144.359C414.72 142.664 415.956 141.347 417.556 140.41C419.166 139.463 421.074 138.99 423.281 138.99C425.487 138.99 427.39 139.463 428.991 140.41C430.601 141.347 431.841 142.664 432.712 144.359C433.584 146.044 434.019 148.014 434.019 150.268C434.019 152.503 433.584 154.468 432.712 156.163C431.841 157.848 430.601 159.165 428.991 160.112C427.39 161.049 425.487 161.518 423.281 161.518ZM423.309 156.83C424.313 156.83 425.151 156.546 425.823 155.978C426.496 155.401 427.002 154.615 427.343 153.62C427.693 152.626 427.869 151.494 427.869 150.225C427.869 148.956 427.693 147.825 427.343 146.83C427.002 145.836 426.496 145.05 425.823 144.472C425.151 143.895 424.313 143.606 423.309 143.606C422.296 143.606 421.443 143.895 420.752 144.472C420.07 145.05 419.554 145.836 419.204 146.83C418.863 147.825 418.692 148.956 418.692 150.225C418.692 151.494 418.863 152.626 419.204 153.62C419.554 154.615 420.07 155.401 420.752 155.978C421.443 156.546 422.296 156.83 423.309 156.83ZM435.752 161.092L443.38 149.742L435.795 139.274H442.698L448.366 147.811H449.303V139.274H455.354V147.811H456.263L461.931 139.274H468.835L461.263 149.742L468.877 161.092H461.817L456.207 152.569H455.354V161.092H449.303V152.569H448.451L442.812 161.092H435.752ZM487.474 147.768V152.526H476.082V147.768H487.474ZM478.071 139.274V161.092H472.29V139.274H478.071ZM491.267 139.274V161.092H485.528V139.274H491.267ZM505.82 161.518C503.613 161.518 501.705 161.049 500.095 160.112C498.495 159.165 497.259 157.848 496.388 156.163C495.517 154.468 495.081 152.503 495.081 150.268C495.081 148.014 495.517 146.044 496.388 144.359C497.259 142.664 498.495 141.347 500.095 140.41C501.705 139.463 503.613 138.99 505.82 138.99C508.026 138.99 509.929 139.463 511.53 140.41C513.14 141.347 514.38 142.664 515.251 144.359C516.123 146.044 516.558 148.014 516.558 150.268C516.558 152.503 516.123 154.468 515.251 156.163C514.38 157.848 513.14 159.165 511.53 160.112C509.929 161.049 508.026 161.518 505.82 161.518ZM505.848 156.83C506.852 156.83 507.69 156.546 508.362 155.978C509.035 155.401 509.541 154.615 509.882 153.62C510.232 152.626 510.408 151.494 510.408 150.225C510.408 148.956 510.232 147.825 509.882 146.83C509.541 145.836 509.035 145.05 508.362 144.472C507.69 143.895 506.852 143.606 505.848 143.606C504.835 143.606 503.982 143.895 503.291 144.472C502.609 145.05 502.093 145.836 501.743 146.83C501.402 147.825 501.232 148.956 501.232 150.225C501.232 151.494 501.402 152.626 501.743 153.62C502.093 154.615 502.609 155.401 503.291 155.978C503.982 156.546 504.835 156.83 505.848 156.83ZM10.9368 205.518C8.73035 205.518 6.82221 205.049 5.21236 204.112C3.61198 203.165 2.37618 201.848 1.50497 200.163C0.633759 198.468 0.198153 196.503 0.198153 194.268C0.198153 192.014 0.633759 190.044 1.50497 188.359C2.37618 186.664 3.61198 185.347 5.21236 184.41C6.82221 183.463 8.73035 182.99 10.9368 182.99C13.1432 182.99 15.0466 183.463 16.647 184.41C18.2569 185.347 19.4974 186.664 20.3686 188.359C21.2398 190.044 21.6754 192.014 21.6754 194.268C21.6754 196.503 21.2398 198.468 20.3686 200.163C19.4974 201.848 18.2569 203.165 16.647 204.112C15.0466 205.049 13.1432 205.518 10.9368 205.518ZM10.9652 200.83C11.969 200.83 12.8071 200.546 13.4794 199.978C14.1518 199.401 14.6584 198.615 14.9993 197.62C15.3497 196.626 15.5249 195.494 15.5249 194.225C15.5249 192.956 15.3497 191.825 14.9993 190.83C14.6584 189.836 14.1518 189.05 13.4794 188.472C12.8071 187.895 11.969 187.606 10.9652 187.606C9.95194 187.606 9.09967 187.895 8.40838 188.472C7.72656 189.05 7.21046 189.836 6.86009 190.83C6.51918 191.825 6.34872 192.956 6.34872 194.225C6.34872 195.494 6.51918 196.626 6.86009 197.62C7.21046 198.615 7.72656 199.401 8.40838 199.978C9.09967 200.546 9.95194 200.83 10.9652 200.83ZM25.6101 205.092V183.274H44.6868V205.092H38.9055V188.032H31.3203V205.092H25.6101ZM55.2976 197.109L63.1527 183.274H69.1186V205.092H63.3516V191.214L55.5249 205.092H49.5163V183.274H55.2976V197.109ZM83.8274 205.518C81.5926 205.518 79.6702 205.044 78.0604 204.097C76.46 203.141 75.2289 201.815 74.3672 200.12C73.5149 198.425 73.0888 196.474 73.0888 194.268C73.0888 192.033 73.5196 190.073 74.3814 188.387C75.2526 186.692 76.4884 185.371 78.0888 184.424C79.6892 183.468 81.5926 182.99 83.799 182.99C85.7024 182.99 87.3691 183.335 88.799 184.026C90.2289 184.718 91.3606 185.688 92.1939 186.938C93.0272 188.188 93.4865 189.656 93.5717 191.342H87.8615C87.7005 190.253 87.2744 189.377 86.5831 188.714C85.9013 188.042 85.0064 187.705 83.8984 187.705C82.9609 187.705 82.1418 187.961 81.4411 188.472C80.7498 188.974 80.21 189.708 79.8217 190.674C79.4335 191.64 79.2393 192.81 79.2393 194.183C79.2393 195.575 79.4287 196.758 79.8075 197.734C80.1958 198.709 80.7403 199.453 81.4411 199.964C82.1418 200.475 82.9609 200.731 83.8984 200.731C84.5897 200.731 85.21 200.589 85.7592 200.305C86.3179 200.021 86.7772 199.609 87.1371 199.069C87.5064 198.52 87.7479 197.862 87.8615 197.095H93.5717C93.477 198.761 93.0225 200.229 92.2081 201.498C91.4032 202.758 90.2905 203.742 88.87 204.453C87.4496 205.163 85.7687 205.518 83.8274 205.518ZM103.668 205.504C102.276 205.504 101.035 205.262 99.946 204.779C98.857 204.287 97.9953 203.562 97.3608 202.606C96.7358 201.64 96.4233 200.437 96.4233 198.998C96.4233 197.786 96.6458 196.768 97.0909 195.944C97.536 195.12 98.142 194.457 98.9091 193.955C99.6761 193.454 100.547 193.075 101.523 192.819C102.508 192.563 103.54 192.383 104.619 192.279C105.888 192.147 106.911 192.024 107.688 191.91C108.464 191.787 109.027 191.607 109.378 191.37C109.728 191.133 109.903 190.783 109.903 190.319V190.234C109.903 189.334 109.619 188.638 109.051 188.146C108.492 187.653 107.697 187.407 106.665 187.407C105.576 187.407 104.709 187.649 104.065 188.132C103.421 188.605 102.995 189.202 102.787 189.921L97.1903 189.467C97.4744 188.141 98.0331 186.995 98.8665 186.029C99.6998 185.054 100.775 184.306 102.091 183.785C103.417 183.255 104.951 182.99 106.693 182.99C107.905 182.99 109.065 183.132 110.173 183.416C111.291 183.7 112.28 184.14 113.142 184.737C114.013 185.333 114.7 186.1 115.202 187.038C115.704 187.966 115.955 189.079 115.955 190.376V205.092H110.216V202.066H110.045C109.695 202.748 109.226 203.349 108.639 203.87C108.052 204.382 107.347 204.784 106.523 205.078C105.699 205.362 104.747 205.504 103.668 205.504ZM105.401 201.328C106.291 201.328 107.077 201.152 107.759 200.802C108.44 200.442 108.975 199.959 109.364 199.353C109.752 198.747 109.946 198.061 109.946 197.294V194.978C109.757 195.101 109.496 195.215 109.165 195.319C108.843 195.414 108.478 195.504 108.071 195.589C107.664 195.665 107.257 195.736 106.849 195.802C106.442 195.859 106.073 195.911 105.741 195.958C105.031 196.062 104.411 196.228 103.881 196.455C103.35 196.683 102.938 196.99 102.645 197.379C102.351 197.758 102.205 198.231 102.205 198.799C102.205 199.623 102.503 200.253 103.099 200.688C103.705 201.115 104.473 201.328 105.401 201.328ZM118.458 188.032V183.274H138.231V188.032H131.2V205.092H125.433V188.032H118.458ZM145.692 189.978H152.212C155.1 189.978 157.354 190.669 158.973 192.052C160.592 193.425 161.402 195.262 161.402 197.563C161.402 199.06 161.037 200.376 160.308 201.512C159.579 202.639 158.528 203.52 157.155 204.154C155.782 204.779 154.134 205.092 152.212 205.092H141.899V183.274H147.68V200.333H152.212C153.225 200.333 154.058 200.078 154.712 199.566C155.365 199.055 155.696 198.401 155.706 197.606C155.696 196.763 155.365 196.077 154.712 195.546C154.058 195.007 153.225 194.737 152.212 194.737H145.692V189.978ZM173.394 205.092L173.366 200.291H174.09C174.602 200.291 175.042 200.168 175.411 199.921C175.79 199.666 176.103 199.254 176.349 198.686C176.595 198.117 176.789 197.365 176.931 196.427C177.073 195.48 177.168 194.315 177.215 192.933L177.57 183.274H194.161V205.092H188.394V188.032H183.011L182.67 194.694C182.585 196.522 182.362 198.094 182.002 199.41C181.652 200.726 181.164 201.806 180.539 202.649C179.914 203.482 179.161 204.097 178.281 204.495C177.4 204.893 176.377 205.092 175.212 205.092H173.394ZM210.912 191.896V196.697H199.08V191.896H210.912ZM203.753 183.274V205.092H197.716V183.274H203.753ZM217.446 205.518C215.287 205.518 213.421 205.035 211.849 204.069C210.277 203.103 209.065 201.768 208.213 200.063C207.37 198.359 206.949 196.403 206.949 194.197C206.949 191.99 207.37 190.044 208.213 188.359C209.065 186.673 210.277 185.357 211.849 184.41C213.421 183.463 215.287 182.99 217.446 182.99C219.615 182.99 221.48 183.463 223.043 184.41C224.615 185.357 225.822 186.673 226.665 188.359C227.517 190.044 227.943 191.99 227.943 194.197C227.943 196.403 227.517 198.359 226.665 200.063C225.822 201.768 224.615 203.103 223.043 204.069C221.48 205.035 219.615 205.518 217.446 205.518ZM217.446 200.632C218.573 200.632 219.482 200.357 220.173 199.808C220.865 199.249 221.371 198.487 221.693 197.521C222.015 196.545 222.176 195.437 222.176 194.197C222.176 192.956 222.015 191.858 221.693 190.901C221.371 189.936 220.865 189.178 220.173 188.629C219.482 188.079 218.573 187.805 217.446 187.805C216.329 187.805 215.42 188.079 214.719 188.629C214.018 189.169 213.502 189.917 213.17 190.873C212.848 191.829 212.688 192.937 212.688 194.197C212.688 195.447 212.848 196.555 213.17 197.521C213.502 198.487 214.018 199.249 214.719 199.808C215.42 200.357 216.329 200.632 217.446 200.632ZM250.195 175.262L252.041 179.211C251.426 179.722 250.744 180.101 249.996 180.347C249.248 180.584 248.353 180.74 247.311 180.816C246.279 180.892 245.019 180.944 243.533 180.972C241.847 180.991 240.474 181.261 239.413 181.782C238.353 182.303 237.548 183.122 236.999 184.24C236.449 185.347 236.089 186.796 235.919 188.586H236.132C236.786 187.251 237.704 186.219 238.888 185.49C240.081 184.76 241.554 184.396 243.305 184.396C245.161 184.396 246.786 184.803 248.178 185.617C249.579 186.432 250.668 187.601 251.445 189.126C252.221 190.651 252.609 192.478 252.609 194.609C252.609 196.825 252.174 198.752 251.303 200.39C250.441 202.019 249.214 203.283 247.624 204.183C246.033 205.073 244.139 205.518 241.942 205.518C239.735 205.518 237.832 205.054 236.232 204.126C234.641 203.198 233.41 201.829 232.538 200.021C231.677 198.212 231.246 195.987 231.246 193.345V191.555C231.246 186.299 232.268 182.402 234.314 179.865C236.359 177.327 239.366 176.039 243.334 176.001C244.413 175.982 245.389 175.977 246.26 175.987C247.131 175.996 247.893 175.954 248.547 175.859C249.21 175.764 249.759 175.565 250.195 175.262ZM241.97 200.83C242.898 200.83 243.694 200.589 244.357 200.106C245.029 199.623 245.545 198.932 245.905 198.032C246.274 197.133 246.459 196.058 246.459 194.808C246.459 193.567 246.274 192.516 245.905 191.654C245.545 190.783 245.029 190.12 244.357 189.666C243.684 189.211 242.879 188.984 241.942 188.984C241.241 188.984 240.611 189.112 240.053 189.367C239.494 189.623 239.016 190.002 238.618 190.504C238.23 190.996 237.927 191.607 237.709 192.336C237.5 193.056 237.396 193.88 237.396 194.808C237.396 196.673 237.799 198.146 238.604 199.225C239.418 200.295 240.54 200.83 241.97 200.83ZM260.362 213.274C259.594 213.274 258.875 213.212 258.202 213.089C257.54 212.975 256.99 212.829 256.555 212.649L257.918 208.132C258.629 208.349 259.268 208.468 259.836 208.487C260.414 208.506 260.911 208.373 261.327 208.089C261.754 207.805 262.099 207.322 262.364 206.64L262.719 205.717L254.893 183.274H261.256L265.773 199.296H266.001L270.56 183.274H276.967L268.487 207.45C268.079 208.624 267.525 209.647 266.825 210.518C266.133 211.399 265.257 212.076 264.197 212.549C263.136 213.032 261.858 213.274 260.362 213.274ZM292.123 191.896V196.697H280.29V191.896H292.123ZM284.964 183.274V205.092H278.927V183.274H284.964ZM298.657 205.518C296.498 205.518 294.632 205.035 293.06 204.069C291.488 203.103 290.276 201.768 289.424 200.063C288.581 198.359 288.16 196.403 288.16 194.197C288.16 191.99 288.581 190.044 289.424 188.359C290.276 186.673 291.488 185.357 293.06 184.41C294.632 183.463 296.498 182.99 298.657 182.99C300.826 182.99 302.691 183.463 304.254 184.41C305.826 185.357 307.033 186.673 307.876 188.359C308.728 190.044 309.154 191.99 309.154 194.197C309.154 196.403 308.728 198.359 307.876 200.063C307.033 201.768 305.826 203.103 304.254 204.069C302.691 205.035 300.826 205.518 298.657 205.518ZM298.657 200.632C299.784 200.632 300.693 200.357 301.384 199.808C302.076 199.249 302.582 198.487 302.904 197.521C303.226 196.545 303.387 195.437 303.387 194.197C303.387 192.956 303.226 191.858 302.904 190.901C302.582 189.936 302.076 189.178 301.384 188.629C300.693 188.079 299.784 187.805 298.657 187.805C297.54 187.805 296.63 188.079 295.93 188.629C295.229 189.169 294.713 189.917 294.381 190.873C294.059 191.829 293.898 192.937 293.898 194.197C293.898 195.447 294.059 196.555 294.381 197.521C294.713 198.487 295.229 199.249 295.93 199.808C296.63 200.357 297.54 200.632 298.657 200.632ZM322.524 205.092V183.274H328.575V191.74H330.28L336.217 183.274H343.32L335.607 194.097L343.405 205.092H336.217L330.834 197.35H328.575V205.092H322.524ZM354.921 205.518C352.715 205.518 350.807 205.049 349.197 204.112C347.596 203.165 346.361 201.848 345.489 200.163C344.618 198.468 344.183 196.503 344.183 194.268C344.183 192.014 344.618 190.044 345.489 188.359C346.361 186.664 347.596 185.347 349.197 184.41C350.807 183.463 352.715 182.99 354.921 182.99C357.128 182.99 359.031 183.463 360.631 184.41C362.241 185.347 363.482 186.664 364.353 188.359C365.224 190.044 365.66 192.014 365.66 194.268C365.66 196.503 365.224 198.468 364.353 200.163C363.482 201.848 362.241 203.165 360.631 204.112C359.031 205.049 357.128 205.518 354.921 205.518ZM354.95 200.83C355.953 200.83 356.791 200.546 357.464 199.978C358.136 199.401 358.643 198.615 358.984 197.62C359.334 196.626 359.509 195.494 359.509 194.225C359.509 192.956 359.334 191.825 358.984 190.83C358.643 189.836 358.136 189.05 357.464 188.472C356.791 187.895 355.953 187.606 354.95 187.606C353.936 187.606 353.084 187.895 352.393 188.472C351.711 189.05 351.195 189.836 350.844 190.83C350.504 191.825 350.333 192.956 350.333 194.225C350.333 195.494 350.504 196.626 350.844 197.62C351.195 198.615 351.711 199.401 352.393 199.978C353.084 200.546 353.936 200.83 354.95 200.83ZM384.779 191.768V196.526H373.387V191.768H384.779ZM375.376 183.274V205.092H369.594V183.274H375.376ZM388.572 183.274V205.092H382.833V183.274H388.572ZM403.707 212.507V176.001H409.744V212.507H403.707ZM403.707 205.518C402.031 205.518 400.501 205.248 399.119 204.708C397.736 204.159 396.543 203.387 395.539 202.393C394.535 201.389 393.759 200.201 393.21 198.828C392.66 197.445 392.386 195.925 392.386 194.268C392.386 192.592 392.66 191.067 393.21 189.694C393.759 188.311 394.535 187.123 395.539 186.129C396.543 185.125 397.736 184.353 399.119 183.813C400.501 183.264 402.031 182.99 403.707 182.99H404.829V205.518H403.707ZM403.707 200.802H404.374V187.705H403.707C402.892 187.705 402.168 187.876 401.533 188.217C400.899 188.558 400.364 189.026 399.928 189.623C399.493 190.21 399.161 190.901 398.934 191.697C398.716 192.492 398.607 193.349 398.607 194.268C398.607 195.48 398.806 196.583 399.204 197.578C399.602 198.562 400.184 199.348 400.951 199.936C401.718 200.513 402.637 200.802 403.707 200.802ZM409.744 205.518H408.621V182.99H409.744C411.42 182.99 412.949 183.264 414.332 183.813C415.714 184.353 416.907 185.125 417.911 186.129C418.915 187.123 419.692 188.311 420.241 189.694C420.79 191.067 421.065 192.592 421.065 194.268C421.065 195.925 420.79 197.445 420.241 198.828C419.692 200.201 418.915 201.389 417.911 202.393C416.907 203.387 415.714 204.159 414.332 204.708C412.949 205.248 411.42 205.518 409.744 205.518ZM409.744 200.802C410.558 200.802 411.282 200.636 411.917 200.305C412.551 199.964 413.086 199.495 413.522 198.899C413.958 198.302 414.289 197.611 414.516 196.825C414.744 196.029 414.857 195.177 414.857 194.268C414.857 193.046 414.654 191.943 414.246 190.958C413.849 189.964 413.271 189.173 412.513 188.586C411.756 187.999 410.833 187.705 409.744 187.705H409.076V200.802H409.744ZM423.746 205.092L423.717 200.291H424.442C424.953 200.291 425.393 200.168 425.763 199.921C426.142 199.666 426.454 199.254 426.7 198.686C426.946 198.117 427.141 197.365 427.283 196.427C427.425 195.48 427.519 194.315 427.567 192.933L427.922 183.274H444.513V205.092H438.746V188.032H433.362L433.021 194.694C432.936 196.522 432.714 198.094 432.354 199.41C432.003 200.726 431.516 201.806 430.891 202.649C430.266 203.482 429.513 204.097 428.632 204.495C427.751 204.893 426.729 205.092 425.564 205.092H423.746ZM454.985 197.109L462.84 183.274H468.806V205.092H463.039V191.214L455.212 205.092H449.204V183.274H454.985V197.109ZM473.657 205.092V183.274H479.708V191.74H481.413L487.35 183.274H494.452L486.739 194.097L494.538 205.092H487.35L481.967 197.35H479.708V205.092H473.657ZM495.958 188.032V183.274H515.731V188.032H508.7V205.092H502.933V188.032H495.958ZM534.584 191.768V196.526H523.192V191.768H534.584ZM525.18 183.274V205.092H519.399V183.274H525.18ZM538.376 183.274V205.092H532.638V183.274H538.376ZM546.026 213.274C545.259 213.274 544.539 213.212 543.866 213.089C543.204 212.975 542.654 212.829 542.219 212.649L543.582 208.132C544.293 208.349 544.932 208.468 545.5 208.487C546.078 208.506 546.575 208.373 546.991 208.089C547.418 207.805 547.763 207.322 548.028 206.64L548.384 205.717L540.557 183.274H546.92L551.438 199.296H551.665L556.224 183.274H562.631L554.151 207.45C553.743 208.624 553.189 209.647 552.489 210.518C551.797 211.399 550.921 212.076 549.861 212.549C548.8 213.032 547.522 213.274 546.026 213.274ZM577.787 191.896V196.697H565.955V191.896H577.787ZM570.628 183.274V205.092H564.591V183.274H570.628ZM584.321 205.518C582.162 205.518 580.296 205.035 578.724 204.069C577.152 203.103 575.94 201.768 575.088 200.063C574.245 198.359 573.824 196.403 573.824 194.197C573.824 191.99 574.245 190.044 575.088 188.359C575.94 186.673 577.152 185.357 578.724 184.41C580.296 183.463 582.162 182.99 584.321 182.99C586.49 182.99 588.355 183.463 589.918 184.41C591.49 185.357 592.697 186.673 593.54 188.359C594.392 190.044 594.818 191.99 594.818 194.197C594.818 196.403 594.392 198.359 593.54 200.063C592.697 201.768 591.49 203.103 589.918 204.069C588.355 205.035 586.49 205.518 584.321 205.518ZM584.321 200.632C585.448 200.632 586.357 200.357 587.048 199.808C587.74 199.249 588.246 198.487 588.568 197.521C588.89 196.545 589.051 195.437 589.051 194.197C589.051 192.956 588.89 191.858 588.568 190.901C588.246 189.936 587.74 189.178 587.048 188.629C586.357 188.079 585.448 187.805 584.321 187.805C583.204 187.805 582.295 188.079 581.594 188.629C580.893 189.169 580.377 189.917 580.045 190.873C579.723 191.829 579.562 192.937 579.562 194.197C579.562 195.447 579.723 196.555 580.045 197.521C580.377 198.487 580.893 199.249 581.594 199.808C582.295 200.357 583.204 200.632 584.321 200.632ZM10.9368 249.518C8.70194 249.518 6.77959 249.044 5.16974 248.097C3.56937 247.141 2.3383 245.815 1.47656 244.12C0.62429 242.425 0.198153 240.474 0.198153 238.268C0.198153 236.033 0.629025 234.073 1.49077 232.387C2.36198 230.692 3.59777 229.371 5.19815 228.424C6.79853 227.468 8.70194 226.99 10.9084 226.99C12.8118 226.99 14.4785 227.335 15.9084 228.026C17.3383 228.718 18.4699 229.688 19.3033 230.938C20.1366 232.188 20.5959 233.656 20.6811 235.342H14.9709C14.8099 234.253 14.3838 233.377 13.6925 232.714C13.0107 232.042 12.1158 231.705 11.0078 231.705C10.0703 231.705 9.25118 231.961 8.55043 232.472C7.85914 232.974 7.31937 233.708 6.93111 234.674C6.54285 235.64 6.34872 236.81 6.34872 238.183C6.34872 239.575 6.53812 240.758 6.9169 241.734C7.30516 242.709 7.84967 243.453 8.55043 243.964C9.25118 244.475 10.0703 244.731 11.0078 244.731C11.6991 244.731 12.3194 244.589 12.8686 244.305C13.4273 244.021 13.8866 243.609 14.2464 243.069C14.6158 242.52 14.8572 241.862 14.9709 241.095H20.6811C20.5864 242.761 20.1319 244.229 19.3175 245.498C18.5125 246.758 17.3999 247.742 15.9794 248.453C14.5589 249.163 12.8781 249.518 10.9368 249.518ZM30.3366 241.109L38.1918 227.274H44.1577V249.092H38.3906V235.214L30.5639 249.092H24.5554V227.274H30.3366V241.109ZM46.8175 232.032V227.274H66.5902V232.032H59.5589V249.092H53.7919V232.032H46.8175ZM73.9943 257.274C73.2273 257.274 72.5076 257.212 71.8352 257.089C71.1723 256.975 70.6231 256.829 70.1875 256.649L71.5511 252.132C72.2614 252.349 72.9006 252.468 73.4688 252.487C74.0464 252.506 74.5436 252.373 74.9602 252.089C75.3864 251.805 75.732 251.322 75.9972 250.64L76.3523 249.717L68.5256 227.274H74.8892L79.4062 243.296H79.6335L84.1932 227.274H90.5994L82.1193 251.45C81.7121 252.624 81.1581 253.647 80.4574 254.518C79.7661 255.399 78.8902 256.076 77.8295 256.549C76.7689 257.032 75.4905 257.274 73.9943 257.274ZM99.3317 249.504C97.9396 249.504 96.6991 249.262 95.6101 248.779C94.5211 248.287 93.6593 247.562 93.0249 246.606C92.3999 245.64 92.0874 244.437 92.0874 242.998C92.0874 241.786 92.3099 240.768 92.755 239.944C93.2 239.12 93.8061 238.457 94.5732 237.955C95.3402 237.454 96.2114 237.075 97.1868 236.819C98.1716 236.563 99.2038 236.383 100.283 236.279C101.552 236.147 102.575 236.024 103.352 235.91C104.128 235.787 104.692 235.607 105.042 235.37C105.392 235.133 105.567 234.783 105.567 234.319V234.234C105.567 233.334 105.283 232.638 104.715 232.146C104.156 231.653 103.361 231.407 102.329 231.407C101.24 231.407 100.373 231.649 99.7294 232.132C99.0855 232.605 98.6593 233.202 98.451 233.921L92.8544 233.467C93.1385 232.141 93.6972 230.995 94.5305 230.029C95.3639 229.054 96.4387 228.306 97.755 227.785C99.0807 227.255 100.615 226.99 102.357 226.99C103.569 226.99 104.729 227.132 105.837 227.416C106.955 227.7 107.944 228.14 108.806 228.737C109.677 229.333 110.364 230.1 110.866 231.038C111.368 231.966 111.619 233.079 111.619 234.376V249.092H105.88V246.066H105.71C105.359 246.748 104.89 247.349 104.303 247.87C103.716 248.382 103.011 248.784 102.187 249.078C101.363 249.362 100.411 249.504 99.3317 249.504ZM101.065 245.328C101.955 245.328 102.741 245.152 103.423 244.802C104.104 244.442 104.639 243.959 105.028 243.353C105.416 242.747 105.61 242.061 105.61 241.294V238.978C105.421 239.101 105.16 239.215 104.829 239.319C104.507 239.414 104.142 239.504 103.735 239.589C103.328 239.665 102.921 239.736 102.513 239.802C102.106 239.859 101.737 239.911 101.406 239.958C100.695 240.062 100.075 240.228 99.5447 240.455C99.0144 240.683 98.6025 240.99 98.3089 241.379C98.0154 241.758 97.8686 242.231 97.8686 242.799C97.8686 243.623 98.1669 244.253 98.7635 244.688C99.3696 245.115 100.137 245.328 101.065 245.328ZM135.39 227.274V244.916H138.87V256.109H132.989V249.092H116.313V227.274H122.094V244.333H129.68V227.274H135.39ZM148.384 241.109L156.239 227.274H162.205V249.092H156.438V235.214L148.611 249.092H142.602V227.274H148.384V241.109ZM179.115 235.896V240.697H167.283V235.896H179.115ZM171.956 227.274V249.092H165.919V227.274H171.956ZM185.649 249.518C183.49 249.518 181.625 249.035 180.053 248.069C178.481 247.103 177.268 245.768 176.416 244.063C175.573 242.359 175.152 240.403 175.152 238.197C175.152 235.99 175.573 234.044 176.416 232.359C177.268 230.673 178.481 229.357 180.053 228.41C181.625 227.463 183.49 226.99 185.649 226.99C187.818 226.99 189.683 227.463 191.246 228.41C192.818 229.357 194.025 230.673 194.868 232.359C195.72 234.044 196.146 235.99 196.146 238.197C196.146 240.403 195.72 242.359 194.868 244.063C194.025 245.768 192.818 247.103 191.246 248.069C189.683 249.035 187.818 249.518 185.649 249.518ZM185.649 244.632C186.776 244.632 187.685 244.357 188.376 243.808C189.068 243.249 189.574 242.487 189.896 241.521C190.218 240.545 190.379 239.437 190.379 238.197C190.379 236.956 190.218 235.858 189.896 234.901C189.574 233.936 189.068 233.178 188.376 232.629C187.685 232.079 186.776 231.805 185.649 231.805C184.532 231.805 183.623 232.079 182.922 232.629C182.221 233.169 181.705 233.917 181.374 234.873C181.052 235.829 180.891 236.937 180.891 238.197C180.891 239.447 181.052 240.555 181.374 241.521C181.705 242.487 182.221 243.249 182.922 243.808C183.623 244.357 184.532 244.632 185.649 244.632ZM203.795 249.461C202.858 249.461 202.053 249.13 201.381 248.467C200.718 247.794 200.386 246.99 200.386 246.052C200.386 245.124 200.718 244.329 201.381 243.666C202.053 243.003 202.858 242.671 203.795 242.671C204.705 242.671 205.5 243.003 206.182 243.666C206.864 244.329 207.205 245.124 207.205 246.052C207.205 246.677 207.044 247.25 206.722 247.771C206.409 248.282 205.997 248.694 205.486 249.007C204.974 249.31 204.411 249.461 203.795 249.461Z" fill="#2C3E50"/>
</svg>
