<svg width="240" height="382" viewBox="0 0 240 382" fill="none" xmlns="http://www.w3.org/2000/svg">
<path d="M12.13 29.4746H1.81747V0.383699H12.2152C15.1413 0.383699 17.6603 0.966086 19.772 2.13086C21.8838 3.28616 23.5078 4.94809 24.6442 7.11665C25.79 9.28522 26.3629 11.8799 26.3629 14.9007C26.3629 17.931 25.79 20.5352 24.6442 22.7132C23.5078 24.8913 21.8743 26.5627 19.7436 27.7275C17.6224 28.8922 15.0845 29.4746 12.13 29.4746ZM7.96804 24.2047H11.8743C13.6925 24.2047 15.2218 23.8828 16.4624 23.2388C17.7124 22.5854 18.6499 21.5769 19.2749 20.2132C19.9093 18.8401 20.2266 17.0693 20.2266 14.9007C20.2266 12.7511 19.9093 10.9945 19.2749 9.63086C18.6499 8.26722 17.7171 7.26343 16.4766 6.61949C15.236 5.97556 13.7067 5.65359 11.8885 5.65359H7.96804V24.2047ZM39.7259 29.9007C37.7183 29.9007 35.9853 29.5409 34.527 28.8212C33.0687 28.1015 31.9465 27.1261 31.1605 25.8951C30.384 24.6545 29.9957 23.272 29.9957 21.7473C29.9957 20.611 30.223 19.6024 30.6776 18.7218C31.1321 17.8411 31.7666 17.0314 32.581 16.2928C33.3954 15.5447 34.3423 14.8013 35.4219 14.0627L41.0611 10.3553C41.7902 9.89128 42.3253 9.40359 42.6662 8.89222C43.0071 8.37139 43.1776 7.80794 43.1776 7.20188C43.1776 6.62423 42.9455 6.08919 42.4815 5.59677C42.0175 5.10434 41.3594 4.86287 40.5071 4.87234C39.9389 4.87234 39.4465 5.00018 39.0298 5.25586C38.6132 5.50207 38.2865 5.82878 38.0497 6.23597C37.8224 6.6337 37.7088 7.07878 37.7088 7.5712C37.7088 8.17726 37.8793 8.79279 38.2202 9.41779C38.5611 10.0428 39.0156 10.7057 39.5838 11.4064C40.152 12.0977 40.7723 12.8458 41.4446 13.6507L55.2372 29.4746H48.9304L37.4247 16.6621C36.6671 15.8004 35.9096 14.9007 35.152 13.9632C34.4039 13.0163 33.7789 12.0125 33.277 10.9519C32.7751 9.88181 32.5241 8.72177 32.5241 7.47177C32.5241 6.06078 32.8509 4.79184 33.5043 3.66495C34.1671 2.53806 35.0952 1.6479 36.2884 0.994494C37.4815 0.331616 38.8736 0.000176907 40.4645 0.000176907C42.0175 0.000176907 43.3575 0.317412 44.4844 0.951882C45.6207 1.57688 46.492 2.41022 47.098 3.45188C47.7135 4.48408 48.0213 5.62044 48.0213 6.86097C48.0213 8.23408 47.6804 9.47934 46.9986 10.5968C46.3262 11.7047 45.3793 12.699 44.1577 13.5797L38.2202 17.8553C37.4152 18.4424 36.8187 19.0437 36.4304 19.6593C36.0516 20.2653 35.8622 20.8477 35.8622 21.4064C35.8622 22.0977 36.0327 22.718 36.3736 23.2672C36.7145 23.8165 37.1974 24.2521 37.8224 24.574C38.4474 24.8865 39.1813 25.0428 40.0241 25.0428C41.0469 25.0428 42.0554 24.8108 43.0497 24.3468C44.0535 23.8733 44.9626 23.2057 45.777 22.3439C46.6009 21.4727 47.259 20.4405 47.7514 19.2473C48.2438 18.0542 48.4901 16.7331 48.4901 15.2843H53.5043C53.5043 17.0646 53.3101 18.6697 52.9219 20.0996C52.5336 21.5201 51.9938 22.7606 51.3026 23.8212C50.6113 24.8723 49.8205 25.7341 48.9304 26.4064C48.6463 26.5864 48.3717 26.7568 48.1065 26.9178C47.8414 27.0788 47.5668 27.2492 47.2827 27.4292C46.2031 28.3004 44.9957 28.9301 43.6605 29.3184C42.3348 29.7066 41.0232 29.9007 39.7259 29.9007ZM68.1847 29.4746H57.8722V0.383699H68.2699C71.196 0.383699 73.715 0.966086 75.8267 2.13086C77.9384 3.28616 79.5625 4.94809 80.6989 7.11665C81.8447 9.28522 82.4176 11.8799 82.4176 14.9007C82.4176 17.931 81.8447 20.5352 80.6989 22.7132C79.5625 24.8913 77.929 26.5627 75.7983 27.7275C73.6771 28.8922 71.1392 29.4746 68.1847 29.4746ZM64.0227 24.2047H67.929C69.7472 24.2047 71.2765 23.8828 72.517 23.2388C73.767 22.5854 74.7045 21.5769 75.3295 20.2132C75.964 18.8401 76.2812 17.0693 76.2812 14.9007C76.2812 12.7511 75.964 10.9945 75.3295 9.63086C74.7045 8.26722 73.7718 7.26343 72.5312 6.61949C71.2907 5.97556 69.7614 5.65359 67.9432 5.65359H64.0227V24.2047ZM96.1179 29.4746V7.65643H105.422C108.111 7.65643 110.237 8.16779 111.8 9.19052C113.362 10.2132 114.143 11.6668 114.143 13.5513C114.143 14.735 113.703 15.7199 112.822 16.5059C111.942 17.2918 110.72 17.8221 109.158 18.0968C110.464 18.1915 111.577 18.4898 112.496 18.9917C113.424 19.4841 114.129 20.1233 114.612 20.9093C115.105 21.6953 115.351 22.5665 115.351 23.5229C115.351 24.7634 115.019 25.8288 114.357 26.7189C113.703 27.6091 112.742 28.2909 111.473 28.7644C110.214 29.2379 108.675 29.4746 106.857 29.4746H96.1179ZM101.757 24.9434H106.857C107.699 24.9434 108.357 24.7445 108.831 24.3468C109.314 23.9396 109.555 23.3856 109.555 22.6848C109.555 21.9083 109.314 21.2975 108.831 20.8525C108.357 20.4074 107.699 20.1848 106.857 20.1848H101.757V24.9434ZM101.757 16.6337H105.55C106.156 16.6337 106.672 16.5485 107.098 16.378C107.534 16.1981 107.865 15.9424 108.092 15.611C108.329 15.2795 108.447 14.8865 108.447 14.432C108.447 13.7596 108.178 13.2341 107.638 12.8553C107.098 12.4765 106.359 12.2871 105.422 12.2871H101.757V16.6337ZM119.165 29.4746V7.65643H128.469C131.158 7.65643 133.284 8.16779 134.847 9.19052C136.409 10.2132 137.19 11.6668 137.19 13.5513C137.19 14.735 136.75 15.7199 135.869 16.5059C134.989 17.2918 133.767 17.8221 132.205 18.0968C133.511 18.1915 134.624 18.4898 135.543 18.9917C136.471 19.4841 137.176 20.1233 137.659 20.9093C138.152 21.6953 138.398 22.5665 138.398 23.5229C138.398 24.7634 138.066 25.8288 137.403 26.7189C136.75 27.6091 135.789 28.2909 134.52 28.7644C133.26 29.2379 131.722 29.4746 129.903 29.4746H119.165ZM124.804 24.9434H129.903C130.746 24.9434 131.404 24.7445 131.878 24.3468C132.361 23.9396 132.602 23.3856 132.602 22.6848C132.602 21.9083 132.361 21.2975 131.878 20.8525C131.404 20.4074 130.746 20.1848 129.903 20.1848H124.804V24.9434ZM124.804 16.6337H128.597C129.203 16.6337 129.719 16.5485 130.145 16.378C130.58 16.1981 130.912 15.9424 131.139 15.611C131.376 15.2795 131.494 14.8865 131.494 14.432C131.494 13.7596 131.224 13.2341 130.685 12.8553C130.145 12.4765 129.406 12.2871 128.469 12.2871H124.804V16.6337ZM152.155 29.9007C149.911 29.9007 147.979 29.4462 146.359 28.5371C144.75 27.6185 143.509 26.3212 142.638 24.6451C141.767 22.9595 141.331 20.9661 141.331 18.6649C141.331 16.4206 141.767 14.4509 142.638 12.7559C143.509 11.0608 144.735 9.73976 146.317 8.79279C147.908 7.84582 149.773 7.37234 151.913 7.37234C153.353 7.37234 154.693 7.60434 155.933 8.06836C157.183 8.5229 158.272 9.20946 159.2 10.128C160.138 11.0466 160.867 12.2019 161.388 13.5939C161.909 14.9765 162.169 16.5958 162.169 18.4519V20.1138H143.746V16.3638H156.473C156.473 15.4926 156.284 14.7208 155.905 14.0485C155.526 13.3761 155 12.8506 154.328 12.4718C153.665 12.0835 152.893 11.8894 152.013 11.8894C151.094 11.8894 150.28 12.1024 149.57 12.5286C148.869 12.9453 148.32 13.5087 147.922 14.2189C147.524 14.9197 147.321 15.7009 147.311 16.5627V20.128C147.311 21.2076 147.51 22.1403 147.908 22.9263C148.315 23.7123 148.888 24.3184 149.626 24.7445C150.365 25.1706 151.241 25.3837 152.254 25.3837C152.927 25.3837 153.542 25.289 154.101 25.0996C154.66 24.9102 155.138 24.6261 155.536 24.2473C155.933 23.8685 156.236 23.4045 156.445 22.8553L162.041 23.2246C161.757 24.5693 161.175 25.7435 160.294 26.7473C159.423 27.7417 158.296 28.5182 156.913 29.0769C155.54 29.6261 153.954 29.9007 152.155 29.9007ZM164.839 29.4746L164.811 24.6735H165.536C166.047 24.6735 166.487 24.5504 166.857 24.3042C167.235 24.0485 167.548 23.6365 167.794 23.0684C168.04 22.5002 168.234 21.7473 168.376 20.8098C168.518 19.8629 168.613 18.6981 168.661 17.3155L169.016 7.65643H185.607V29.4746H179.839V12.4149H174.456L174.115 19.0769C174.03 20.9045 173.807 22.4765 173.447 23.7928C173.097 25.1091 172.609 26.1886 171.984 27.0314C171.359 27.8648 170.607 28.4803 169.726 28.878C168.845 29.2757 167.822 29.4746 166.658 29.4746H164.839ZM196.519 29.8865C195.127 29.8865 193.887 29.6451 192.798 29.1621C191.709 28.6697 190.847 27.9453 190.212 26.9888C189.587 26.0229 189.275 24.8203 189.275 23.3809C189.275 22.1687 189.497 21.1507 189.942 20.3269C190.388 19.503 190.994 18.8401 191.761 18.3382C192.528 17.8364 193.399 17.4576 194.374 17.2019C195.359 16.9462 196.391 16.7663 197.471 16.6621C198.74 16.5295 199.763 16.4064 200.539 16.2928C201.316 16.1697 201.879 15.9898 202.229 15.753C202.58 15.5163 202.755 15.1659 202.755 14.7019V14.6167C202.755 13.717 202.471 13.021 201.903 12.5286C201.344 12.0362 200.549 11.7899 199.516 11.7899C198.427 11.7899 197.561 12.0314 196.917 12.5144C196.273 12.9879 195.847 13.5845 195.638 14.3042L190.042 13.8496C190.326 12.5239 190.885 11.378 191.718 10.4121C192.551 9.43673 193.626 8.68862 194.942 8.16779C196.268 7.63749 197.802 7.37234 199.545 7.37234C200.757 7.37234 201.917 7.51438 203.025 7.79847C204.142 8.08256 205.132 8.5229 205.994 9.11949C206.865 9.71609 207.551 10.4831 208.053 11.4206C208.555 12.3487 208.806 13.4614 208.806 14.7587V29.4746H203.067V26.449H202.897C202.547 27.1309 202.078 27.7322 201.491 28.253C200.904 28.7644 200.198 29.1668 199.374 29.4604C198.55 29.7445 197.599 29.8865 196.519 29.8865ZM198.252 25.7104C199.142 25.7104 199.928 25.5352 200.61 25.1848C201.292 24.825 201.827 24.342 202.215 23.736C202.603 23.1299 202.798 22.4434 202.798 21.6763V19.361C202.608 19.4841 202.348 19.5977 202.016 19.7019C201.694 19.7966 201.33 19.8865 200.923 19.9718C200.515 20.0475 200.108 20.1185 199.701 20.1848C199.294 20.2417 198.924 20.2937 198.593 20.3411C197.883 20.4453 197.263 20.611 196.732 20.8382C196.202 21.0655 195.79 21.3733 195.496 21.7615C195.203 22.1403 195.056 22.6138 195.056 23.182C195.056 24.0059 195.354 24.6356 195.951 25.0712C196.557 25.4973 197.324 25.7104 198.252 25.7104ZM11.5618 73.9007C9.32694 73.9007 7.40459 73.4273 5.79474 72.4803C4.19437 71.5239 2.9633 70.1981 2.10156 68.503C1.24929 66.8079 0.823153 64.8572 0.823153 62.6507C0.823153 60.4159 1.25402 58.4557 2.11577 56.7701C2.98698 55.075 4.22277 53.754 5.82315 52.807C7.42353 51.8506 9.32694 51.3723 11.5334 51.3723C13.4368 51.3723 15.1035 51.718 16.5334 52.4093C17.9633 53.1006 19.0949 54.0712 19.9283 55.3212C20.7616 56.5712 21.2209 58.039 21.3061 59.7246H15.5959C15.4349 58.6356 15.0088 57.7596 14.3175 57.0968C13.6357 56.4244 12.7408 56.0882 11.6328 56.0882C10.6953 56.0882 9.87618 56.3439 9.17543 56.8553C8.48414 57.3572 7.94437 58.0911 7.55611 59.057C7.16785 60.0229 6.97372 61.1924 6.97372 62.5655C6.97372 63.9576 7.16312 65.1413 7.5419 66.1167C7.93016 67.092 8.47467 67.8354 9.17543 68.3468C9.87618 68.8581 10.6953 69.1138 11.6328 69.1138C12.3241 69.1138 12.9444 68.9718 13.4936 68.6877C14.0523 68.4036 14.5116 67.9917 14.8714 67.4519C15.2408 66.9026 15.4822 66.2445 15.5959 65.4775H21.3061C21.2114 67.1441 20.7569 68.6119 19.9425 69.8809C19.1375 71.1403 18.0249 72.1252 16.6044 72.8354C15.1839 73.5456 13.5031 73.9007 11.5618 73.9007ZM30.9616 65.4917L38.8168 51.6564H44.7827V73.4746H39.0156V59.5968L31.1889 73.4746H25.1804V51.6564H30.9616V65.4917ZM59.4915 73.9007C57.2566 73.9007 55.3343 73.4273 53.7244 72.4803C52.1241 71.5239 50.893 70.1981 50.0312 68.503C49.179 66.8079 48.7528 64.8572 48.7528 62.6507C48.7528 60.4159 49.1837 58.4557 50.0455 56.7701C50.9167 55.075 52.1525 53.754 53.7528 52.807C55.3532 51.8506 57.2566 51.3723 59.4631 51.3723C61.3665 51.3723 63.0331 51.718 64.4631 52.4093C65.893 53.1006 67.0246 54.0712 67.858 55.3212C68.6913 56.5712 69.1506 58.039 69.2358 59.7246H63.5256C63.3646 58.6356 62.9384 57.7596 62.2472 57.0968C61.5653 56.4244 60.6705 56.0882 59.5625 56.0882C58.625 56.0882 57.8059 56.3439 57.1051 56.8553C56.4138 57.3572 55.8741 58.0911 55.4858 59.057C55.0975 60.0229 54.9034 61.1924 54.9034 62.5655C54.9034 63.9576 55.0928 65.1413 55.4716 66.1167C55.8598 67.092 56.4044 67.8354 57.1051 68.3468C57.8059 68.8581 58.625 69.1138 59.5625 69.1138C60.2538 69.1138 60.8741 68.9718 61.4233 68.6877C61.982 68.4036 62.4413 67.9917 62.8011 67.4519C63.1705 66.9026 63.4119 66.2445 63.5256 65.4775H69.2358C69.1411 67.1441 68.6866 68.6119 67.8722 69.8809C67.0672 71.1403 65.9545 72.1252 64.5341 72.8354C63.1136 73.5456 61.4328 73.9007 59.4915 73.9007ZM71.6222 56.4149V51.6564H91.3949V56.4149H84.3636V73.4746H78.5966V56.4149H71.6222ZM104.225 73.9007C101.981 73.9007 100.049 73.4462 98.4297 72.5371C96.8198 71.6185 95.5793 70.3212 94.7081 68.6451C93.8369 66.9595 93.4013 64.9661 93.4013 62.6649C93.4013 60.4206 93.8369 58.4509 94.7081 56.7559C95.5793 55.0608 96.8056 53.7398 98.3871 52.7928C99.978 51.8458 101.844 51.3723 103.984 51.3723C105.423 51.3723 106.763 51.6043 108.004 52.0684C109.254 52.5229 110.343 53.2095 111.271 54.128C112.208 55.0466 112.937 56.2019 113.458 57.5939C113.979 58.9765 114.239 60.5958 114.239 62.4519V64.1138H95.8161V60.3638H108.543C108.543 59.4926 108.354 58.7208 107.975 58.0485C107.596 57.3761 107.071 56.8506 106.398 56.4718C105.736 56.0835 104.964 55.8894 104.083 55.8894C103.165 55.8894 102.35 56.1024 101.64 56.5286C100.939 56.9453 100.39 57.5087 99.9922 58.2189C99.5945 58.9197 99.3909 59.7009 99.3814 60.5627V64.128C99.3814 65.2076 99.5803 66.1403 99.978 66.9263C100.385 67.7123 100.958 68.3184 101.697 68.7445C102.435 69.1706 103.311 69.3837 104.325 69.3837C104.997 69.3837 105.612 69.289 106.171 69.0996C106.73 68.9102 107.208 68.6261 107.606 68.2473C108.004 67.8685 108.307 67.4045 108.515 66.8553L114.112 67.2246C113.827 68.5693 113.245 69.7435 112.364 70.7473C111.493 71.7417 110.366 72.5182 108.984 73.0769C107.611 73.6261 106.024 73.9007 104.225 73.9007ZM131.086 66.7843L136.995 51.6564H141.597L133.089 73.4746H129.069L120.759 51.6564H125.347L131.086 66.7843ZM123.969 51.6564V73.4746H118.188V51.6564H123.969ZM138.501 73.4746V51.6564H144.211V73.4746H138.501ZM151.846 81.6564C151.079 81.6564 150.359 81.5949 149.687 81.4718C149.024 81.3581 148.475 81.2114 148.039 81.0314L149.403 76.5144C150.113 76.7322 150.752 76.8506 151.32 76.8695C151.898 76.8884 152.395 76.7559 152.812 76.4718C153.238 76.1877 153.584 75.7047 153.849 75.0229L154.204 74.0996L146.377 51.6564H152.741L157.258 67.6792H157.485L162.045 51.6564H168.451L159.971 75.8326C159.564 77.0068 159.01 78.0295 158.309 78.9007C157.618 79.7814 156.742 80.4585 155.681 80.932C154.621 81.415 153.342 81.6564 151.846 81.6564ZM1.70384 117.475V95.6564H7.75497V104.122H9.45952L15.397 95.6564H22.4993L14.7862 106.48L22.5845 117.475H15.397L10.0135 109.733H7.75497V117.475H1.70384ZM23.8629 117.475L23.8345 112.673H24.5589C25.0703 112.673 25.5107 112.55 25.88 112.304C26.2588 112.048 26.5713 111.637 26.8175 111.068C27.0637 110.5 27.2578 109.747 27.3999 108.81C27.5419 107.863 27.6366 106.698 27.6839 105.316L28.0391 95.6564H44.63V117.475H38.8629V100.415H33.4794L33.1385 107.077C33.0533 108.905 32.8307 110.477 32.4709 111.793C32.1205 113.109 31.6328 114.189 31.0078 115.031C30.3828 115.865 29.63 116.48 28.7493 116.878C27.8686 117.276 26.8459 117.475 25.6811 117.475H23.8629ZM55.5426 117.887C54.1506 117.887 52.91 117.645 51.821 117.162C50.732 116.67 49.8703 115.945 49.2358 114.989C48.6108 114.023 48.2983 112.82 48.2983 111.381C48.2983 110.169 48.5208 109.151 48.9659 108.327C49.411 107.503 50.017 106.84 50.7841 106.338C51.5511 105.836 52.4223 105.458 53.3977 105.202C54.3826 104.946 55.4148 104.766 56.4943 104.662C57.7633 104.53 58.786 104.406 59.5625 104.293C60.339 104.17 60.9025 103.99 61.2528 103.753C61.6032 103.516 61.7784 103.166 61.7784 102.702V102.617C61.7784 101.717 61.4943 101.021 60.9261 100.529C60.3674 100.036 59.572 99.7899 58.5398 99.7899C57.4508 99.7899 56.5843 100.031 55.9403 100.514C55.2964 100.988 54.8703 101.584 54.6619 102.304L49.0653 101.85C49.3494 100.524 49.9081 99.378 50.7415 98.4121C51.5748 97.4367 52.6496 96.6886 53.9659 96.1678C55.2917 95.6375 56.8258 95.3723 58.5682 95.3723C59.7803 95.3723 60.9403 95.5144 62.0483 95.7985C63.1657 96.0826 64.1553 96.5229 65.017 97.1195C65.8883 97.7161 66.5748 98.4831 67.0767 99.4206C67.5786 100.349 67.8295 101.461 67.8295 102.759V117.475H62.0909V114.449H61.9205C61.5701 115.131 61.1013 115.732 60.5142 116.253C59.9271 116.764 59.2216 117.167 58.3977 117.46C57.5739 117.744 56.6222 117.887 55.5426 117.887ZM57.2756 113.71C58.1657 113.71 58.9517 113.535 59.6335 113.185C60.3153 112.825 60.8504 112.342 61.2386 111.736C61.6269 111.13 61.821 110.443 61.821 109.676V107.361C61.6316 107.484 61.3712 107.598 61.0398 107.702C60.7178 107.797 60.3532 107.887 59.946 107.972C59.5388 108.048 59.1316 108.119 58.7244 108.185C58.3172 108.242 57.9479 108.294 57.6165 108.341C56.9063 108.445 56.286 108.611 55.7557 108.838C55.2254 109.066 54.8134 109.373 54.5199 109.762C54.2263 110.14 54.0795 110.614 54.0795 111.182C54.0795 112.006 54.3778 112.636 54.9744 113.071C55.5805 113.497 56.3475 113.71 57.2756 113.71ZM82.3821 117.901C80.1473 117.901 78.2249 117.427 76.6151 116.48C75.0147 115.524 73.7836 114.198 72.9219 112.503C72.0696 110.808 71.6435 108.857 71.6435 106.651C71.6435 104.416 72.0743 102.456 72.9361 100.77C73.8073 99.075 75.0431 97.754 76.6435 96.807C78.2438 95.8506 80.1473 95.3723 82.3537 95.3723C84.2571 95.3723 85.9238 95.718 87.3537 96.4093C88.7836 97.1006 89.9152 98.0712 90.7486 99.3212C91.5819 100.571 92.0412 102.039 92.1264 103.725H86.4162C86.2552 102.636 85.8291 101.76 85.1378 101.097C84.456 100.424 83.5611 100.088 82.4531 100.088C81.5156 100.088 80.6965 100.344 79.9957 100.855C79.3045 101.357 78.7647 102.091 78.3764 103.057C77.9882 104.023 77.794 105.192 77.794 106.566C77.794 107.958 77.9834 109.141 78.3622 110.117C78.7505 111.092 79.295 111.835 79.9957 112.347C80.6965 112.858 81.5156 113.114 82.4531 113.114C83.1444 113.114 83.7647 112.972 84.3139 112.688C84.8726 112.404 85.3319 111.992 85.6918 111.452C86.0611 110.903 86.3026 110.244 86.4162 109.477H92.1264C92.0317 111.144 91.5772 112.612 90.7628 113.881C89.9579 115.14 88.8452 116.125 87.4247 116.835C86.0043 117.546 84.3234 117.901 82.3821 117.901ZM105.859 117.901C103.624 117.901 101.701 117.427 100.092 116.48C98.4912 115.524 97.2602 114.198 96.3984 112.503C95.5462 110.808 95.12 108.857 95.12 106.651C95.12 104.416 95.5509 102.456 96.4126 100.77C97.2839 99.075 98.5196 97.754 100.12 96.807C101.72 95.8506 103.624 95.3723 105.83 95.3723C107.734 95.3723 109.4 95.718 110.83 96.4093C112.26 97.1006 113.392 98.0712 114.225 99.3212C115.058 100.571 115.518 102.039 115.603 103.725H109.893C109.732 102.636 109.306 101.76 108.614 101.097C107.933 100.424 107.038 100.088 105.93 100.088C104.992 100.088 104.173 100.344 103.472 100.855C102.781 101.357 102.241 102.091 101.853 103.057C101.465 104.023 101.271 105.192 101.271 106.566C101.271 107.958 101.46 109.141 101.839 110.117C102.227 111.092 102.772 111.835 103.472 112.347C104.173 112.858 104.992 113.114 105.93 113.114C106.621 113.114 107.241 112.972 107.79 112.688C108.349 112.404 108.808 111.992 109.168 111.452C109.538 110.903 109.779 110.244 109.893 109.477H115.603C115.508 111.144 115.054 112.612 114.239 113.881C113.434 115.14 112.322 116.125 110.901 116.835C109.481 117.546 107.8 117.901 105.859 117.901ZM129.335 117.901C127.129 117.901 125.221 117.432 123.611 116.494C122.01 115.548 120.775 114.231 119.903 112.546C119.032 110.851 118.597 108.886 118.597 106.651C118.597 104.397 119.032 102.427 119.903 100.742C120.775 99.0466 122.01 97.7303 123.611 96.7928C125.221 95.8458 127.129 95.3723 129.335 95.3723C131.542 95.3723 133.445 95.8458 135.045 96.7928C136.655 97.7303 137.896 99.0466 138.767 100.742C139.638 102.427 140.074 104.397 140.074 106.651C140.074 108.886 139.638 110.851 138.767 112.546C137.896 114.231 136.655 115.548 135.045 116.494C133.445 117.432 131.542 117.901 129.335 117.901ZM129.364 113.213C130.367 113.213 131.205 112.929 131.878 112.361C132.55 111.783 133.057 110.997 133.398 110.003C133.748 109.009 133.923 107.877 133.923 106.608C133.923 105.339 133.748 104.208 133.398 103.213C133.057 102.219 132.55 101.433 131.878 100.855C131.205 100.278 130.367 99.9888 129.364 99.9888C128.35 99.9888 127.498 100.278 126.807 100.855C126.125 101.433 125.609 102.219 125.259 103.213C124.918 104.208 124.747 105.339 124.747 106.608C124.747 107.877 124.918 109.009 125.259 110.003C125.609 110.997 126.125 111.783 126.807 112.361C127.498 112.929 128.35 113.213 129.364 113.213ZM144.009 117.475V95.6564H153.312C156.002 95.6564 158.128 96.1678 159.69 97.1905C161.253 98.2132 162.034 99.6668 162.034 101.551C162.034 102.735 161.594 103.72 160.713 104.506C159.832 105.292 158.611 105.822 157.048 106.097C158.355 106.191 159.468 106.49 160.386 106.992C161.314 107.484 162.02 108.123 162.503 108.909C162.995 109.695 163.241 110.566 163.241 111.523C163.241 112.763 162.91 113.829 162.247 114.719C161.594 115.609 160.633 116.291 159.364 116.764C158.104 117.238 156.565 117.475 154.747 117.475H144.009ZM149.648 112.943H154.747C155.59 112.943 156.248 112.744 156.722 112.347C157.205 111.94 157.446 111.386 157.446 110.685C157.446 109.908 157.205 109.298 156.722 108.852C156.248 108.407 155.59 108.185 154.747 108.185H149.648V112.943ZM149.648 104.634H153.44C154.046 104.634 154.563 104.548 154.989 104.378C155.424 104.198 155.756 103.942 155.983 103.611C156.22 103.28 156.338 102.887 156.338 102.432C156.338 101.76 156.068 101.234 155.528 100.855C154.989 100.477 154.25 100.287 153.312 100.287H149.648V104.634ZM7.48509 153.492L15.3402 139.656H21.3061V161.475H15.5391V147.597L7.71236 161.475H1.70384V139.656H7.48509V153.492ZM39.1506 169.656C38.3835 169.656 37.6638 169.595 36.9915 169.472C36.3286 169.358 35.7794 169.211 35.3438 169.031L36.7074 164.514C37.4176 164.732 38.0568 164.851 38.625 164.869C39.2027 164.888 39.6998 164.756 40.1165 164.472C40.5426 164.188 40.8883 163.705 41.1534 163.023L41.5085 162.1L33.6818 139.656H40.0455L44.5625 155.679H44.7898L49.3494 139.656H55.7557L47.2756 163.833C46.8684 165.007 46.3144 166.03 45.6136 166.901C44.9223 167.781 44.0464 168.459 42.9858 168.932C41.9252 169.415 40.6468 169.656 39.1506 169.656ZM58.8523 169.656V139.656H64.8182V143.321H65.0881C65.3532 142.734 65.7367 142.137 66.2386 141.531C66.75 140.916 67.4129 140.405 68.2273 139.997C69.0511 139.581 70.0739 139.372 71.2955 139.372C72.8864 139.372 74.3542 139.789 75.6989 140.622C77.0436 141.446 78.1184 142.691 78.9233 144.358C79.7282 146.015 80.1307 148.094 80.1307 150.594C80.1307 153.028 79.7377 155.083 78.9517 156.759C78.1752 158.425 77.1146 159.69 75.7699 160.551C74.4347 161.404 72.9384 161.83 71.2812 161.83C70.107 161.83 69.108 161.636 68.2841 161.247C67.4697 160.859 66.8021 160.371 66.2812 159.784C65.7604 159.188 65.3627 158.586 65.0881 157.98H64.9034V169.656H58.8523ZM64.7756 150.566C64.7756 151.863 64.9555 152.994 65.3153 153.96C65.6752 154.926 66.196 155.679 66.8778 156.219C67.5597 156.749 68.3883 157.014 69.3636 157.014C70.3485 157.014 71.1818 156.744 71.8636 156.205C72.5455 155.655 73.0616 154.898 73.4119 153.932C73.7718 152.957 73.9517 151.834 73.9517 150.566C73.9517 149.306 73.7765 148.198 73.4261 147.242C73.0758 146.285 72.5597 145.537 71.8778 144.997C71.196 144.458 70.358 144.188 69.3636 144.188C68.3788 144.188 67.5455 144.448 66.8636 144.969C66.1913 145.49 65.6752 146.228 65.3153 147.185C64.9555 148.141 64.7756 149.268 64.7756 150.566ZM94.0227 161.901C91.8163 161.901 89.9081 161.432 88.2983 160.494C86.6979 159.548 85.4621 158.231 84.5909 156.546C83.7197 154.851 83.2841 152.886 83.2841 150.651C83.2841 148.397 83.7197 146.427 84.5909 144.742C85.4621 143.047 86.6979 141.73 88.2983 140.793C89.9081 139.846 91.8163 139.372 94.0227 139.372C96.2292 139.372 98.1326 139.846 99.733 140.793C101.343 141.73 102.583 143.047 103.455 144.742C104.326 146.427 104.761 148.397 104.761 150.651C104.761 152.886 104.326 154.851 103.455 156.546C102.583 158.231 101.343 159.548 99.733 160.494C98.1326 161.432 96.2292 161.901 94.0227 161.901ZM94.0511 157.213C95.0549 157.213 95.893 156.929 96.5653 156.361C97.2377 155.783 97.7443 154.997 98.0852 154.003C98.4356 153.009 98.6108 151.877 98.6108 150.608C98.6108 149.339 98.4356 148.208 98.0852 147.213C97.7443 146.219 97.2377 145.433 96.5653 144.855C95.893 144.278 95.0549 143.989 94.0511 143.989C93.0379 143.989 92.1856 144.278 91.4943 144.855C90.8125 145.433 90.2964 146.219 89.946 147.213C89.6051 148.208 89.4347 149.339 89.4347 150.608C89.4347 151.877 89.6051 153.009 89.946 154.003C90.2964 154.997 90.8125 155.783 91.4943 156.361C92.1856 156.929 93.0379 157.213 94.0511 157.213ZM108.696 161.475V139.656H118C120.689 139.656 122.815 140.168 124.378 141.191C125.94 142.213 126.722 143.667 126.722 145.551C126.722 146.735 126.281 147.72 125.401 148.506C124.52 149.292 123.298 149.822 121.736 150.097C123.043 150.191 124.155 150.49 125.074 150.992C126.002 151.484 126.707 152.123 127.19 152.909C127.683 153.695 127.929 154.566 127.929 155.523C127.929 156.763 127.598 157.829 126.935 158.719C126.281 159.609 125.32 160.291 124.051 160.764C122.792 161.238 121.253 161.475 119.435 161.475H108.696ZM114.335 156.943H119.435C120.277 156.943 120.936 156.744 121.409 156.347C121.892 155.94 122.134 155.386 122.134 154.685C122.134 153.908 121.892 153.298 121.409 152.852C120.936 152.407 120.277 152.185 119.435 152.185H114.335V156.943ZM114.335 148.634H118.128C118.734 148.634 119.25 148.548 119.676 148.378C120.112 148.198 120.443 147.942 120.67 147.611C120.907 147.28 121.026 146.887 121.026 146.432C121.026 145.76 120.756 145.234 120.216 144.855C119.676 144.477 118.938 144.287 118 144.287H114.335V148.634ZM146.928 148.151V152.909H135.536V148.151H146.928ZM137.524 139.656V161.475H131.743V139.656H137.524ZM150.72 139.656V161.475H144.982V139.656H150.72ZM165.358 161.901C163.114 161.901 161.182 161.446 159.562 160.537C157.953 159.619 156.712 158.321 155.841 156.645C154.97 154.959 154.534 152.966 154.534 150.665C154.534 148.421 154.97 146.451 155.841 144.756C156.712 143.061 157.938 141.74 159.52 140.793C161.111 139.846 162.976 139.372 165.116 139.372C166.556 139.372 167.896 139.604 169.136 140.068C170.386 140.523 171.475 141.209 172.403 142.128C173.341 143.047 174.07 144.202 174.591 145.594C175.112 146.977 175.372 148.596 175.372 150.452V152.114H156.949V148.364H169.676C169.676 147.493 169.487 146.721 169.108 146.048C168.729 145.376 168.204 144.851 167.531 144.472C166.868 144.084 166.097 143.889 165.216 143.889C164.297 143.889 163.483 144.102 162.773 144.529C162.072 144.945 161.523 145.509 161.125 146.219C160.727 146.92 160.524 147.701 160.514 148.563V152.128C160.514 153.208 160.713 154.14 161.111 154.926C161.518 155.712 162.091 156.318 162.83 156.744C163.568 157.171 164.444 157.384 165.457 157.384C166.13 157.384 166.745 157.289 167.304 157.1C167.863 156.91 168.341 156.626 168.739 156.247C169.136 155.869 169.439 155.405 169.648 154.855L175.244 155.225C174.96 156.569 174.378 157.744 173.497 158.747C172.626 159.742 171.499 160.518 170.116 161.077C168.743 161.626 167.157 161.901 165.358 161.901ZM185.102 153.492L192.957 139.656H198.923V161.475H193.156V147.597L185.33 161.475H179.321V139.656H185.102V153.492ZM191.92 132.043H196.139C196.13 133.766 195.491 135.154 194.222 136.205C192.962 137.256 191.258 137.781 189.108 137.781C186.949 137.781 185.24 137.256 183.98 136.205C182.721 135.154 182.091 133.766 182.091 132.043H186.281C186.272 132.696 186.48 133.283 186.906 133.804C187.342 134.325 188.076 134.585 189.108 134.585C190.112 134.585 190.831 134.33 191.267 133.818C191.703 133.307 191.92 132.715 191.92 132.043ZM210.351 157.497L210.195 159.06C210.071 160.31 209.835 161.555 209.484 162.796C209.143 164.046 208.784 165.177 208.405 166.191C208.036 167.204 207.737 167.999 207.51 168.577H203.589C203.732 168.018 203.926 167.237 204.172 166.233C204.418 165.239 204.65 164.121 204.868 162.881C205.086 161.64 205.223 160.376 205.28 159.088L205.351 157.497H210.351ZM1.70384 205.475V183.656H7.75497V192.122H9.45952L15.397 183.656H22.4993L14.7862 194.48L22.5845 205.475H15.397L10.0135 197.733H7.75497V205.475H1.70384ZM34.1009 205.901C31.8944 205.901 29.9863 205.432 28.3764 204.494C26.776 203.548 25.5402 202.231 24.669 200.546C23.7978 198.851 23.3622 196.886 23.3622 194.651C23.3622 192.397 23.7978 190.427 24.669 188.742C25.5402 187.047 26.776 185.73 28.3764 184.793C29.9863 183.846 31.8944 183.372 34.1009 183.372C36.3073 183.372 38.2107 183.846 39.8111 184.793C41.4209 185.73 42.6615 187.047 43.5327 188.742C44.4039 190.427 44.8395 192.397 44.8395 194.651C44.8395 196.886 44.4039 198.851 43.5327 200.546C42.6615 202.231 41.4209 203.548 39.8111 204.494C38.2107 205.432 36.3073 205.901 34.1009 205.901ZM34.1293 201.213C35.133 201.213 35.9711 200.929 36.6435 200.361C37.3158 199.783 37.8224 198.997 38.1634 198.003C38.5137 197.009 38.6889 195.877 38.6889 194.608C38.6889 193.339 38.5137 192.208 38.1634 191.213C37.8224 190.219 37.3158 189.433 36.6435 188.855C35.9711 188.278 35.133 187.989 34.1293 187.989C33.116 187.989 32.2637 188.278 31.5724 188.855C30.8906 189.433 30.3745 190.219 30.0241 191.213C29.6832 192.208 29.5128 193.339 29.5128 194.608C29.5128 195.877 29.6832 197.009 30.0241 198.003C30.3745 198.997 30.8906 199.783 31.5724 200.361C32.2637 200.929 33.116 201.213 34.1293 201.213ZM46.6612 188.415V183.656H66.4339V188.415H59.4027V205.475H53.6357V188.415H46.6612ZM79.179 205.901C76.9725 205.901 75.0644 205.432 73.4545 204.494C71.8542 203.548 70.6184 202.231 69.7472 200.546C68.8759 198.851 68.4403 196.886 68.4403 194.651C68.4403 192.397 68.8759 190.427 69.7472 188.742C70.6184 187.047 71.8542 185.73 73.4545 184.793C75.0644 183.846 76.9725 183.372 79.179 183.372C81.3854 183.372 83.2888 183.846 84.8892 184.793C86.4991 185.73 87.7396 187.047 88.6108 188.742C89.482 190.427 89.9176 192.397 89.9176 194.651C89.9176 196.886 89.482 198.851 88.6108 200.546C87.7396 202.231 86.4991 203.548 84.8892 204.494C83.2888 205.432 81.3854 205.901 79.179 205.901ZM79.2074 201.213C80.2112 201.213 81.0492 200.929 81.7216 200.361C82.3939 199.783 82.9006 198.997 83.2415 198.003C83.5919 197.009 83.767 195.877 83.767 194.608C83.767 193.339 83.5919 192.208 83.2415 191.213C82.9006 190.219 82.3939 189.433 81.7216 188.855C81.0492 188.278 80.2112 187.989 79.2074 187.989C78.1941 187.989 77.3419 188.278 76.6506 188.855C75.9688 189.433 75.4527 190.219 75.1023 191.213C74.7614 192.208 74.5909 193.339 74.5909 194.608C74.5909 195.877 74.7614 197.009 75.1023 198.003C75.4527 198.997 75.9688 199.783 76.6506 200.361C77.3419 200.929 78.1941 201.213 79.2074 201.213ZM93.8523 213.656V183.656H99.8182V187.321H100.088C100.353 186.734 100.737 186.137 101.239 185.531C101.75 184.916 102.413 184.405 103.227 183.997C104.051 183.581 105.074 183.372 106.295 183.372C107.886 183.372 109.354 183.789 110.699 184.622C112.044 185.446 113.118 186.691 113.923 188.358C114.728 190.015 115.131 192.094 115.131 194.594C115.131 197.028 114.738 199.083 113.952 200.759C113.175 202.425 112.115 203.69 110.77 204.551C109.435 205.404 107.938 205.83 106.281 205.83C105.107 205.83 104.108 205.636 103.284 205.247C102.47 204.859 101.802 204.371 101.281 203.784C100.76 203.188 100.363 202.586 100.088 201.98H99.9034V213.656H93.8523ZM99.7756 194.566C99.7756 195.863 99.9555 196.994 100.315 197.96C100.675 198.926 101.196 199.679 101.878 200.219C102.56 200.749 103.388 201.014 104.364 201.014C105.348 201.014 106.182 200.744 106.864 200.205C107.545 199.655 108.062 198.898 108.412 197.932C108.772 196.957 108.952 195.834 108.952 194.566C108.952 193.306 108.777 192.198 108.426 191.242C108.076 190.285 107.56 189.537 106.878 188.997C106.196 188.458 105.358 188.188 104.364 188.188C103.379 188.188 102.545 188.448 101.864 188.969C101.191 189.49 100.675 190.228 100.315 191.185C99.9555 192.141 99.7756 193.268 99.7756 194.566ZM125.386 205.887C123.994 205.887 122.754 205.645 121.665 205.162C120.576 204.67 119.714 203.945 119.08 202.989C118.455 202.023 118.142 200.82 118.142 199.381C118.142 198.169 118.365 197.151 118.81 196.327C119.255 195.503 119.861 194.84 120.628 194.338C121.395 193.836 122.266 193.458 123.241 193.202C124.226 192.946 125.259 192.766 126.338 192.662C127.607 192.53 128.63 192.406 129.406 192.293C130.183 192.17 130.746 191.99 131.097 191.753C131.447 191.516 131.622 191.166 131.622 190.702V190.617C131.622 189.717 131.338 189.021 130.77 188.529C130.211 188.036 129.416 187.79 128.384 187.79C127.295 187.79 126.428 188.031 125.784 188.514C125.14 188.988 124.714 189.584 124.506 190.304L118.909 189.85C119.193 188.524 119.752 187.378 120.585 186.412C121.419 185.437 122.493 184.689 123.81 184.168C125.135 183.637 126.67 183.372 128.412 183.372C129.624 183.372 130.784 183.514 131.892 183.798C133.009 184.083 133.999 184.523 134.861 185.119C135.732 185.716 136.419 186.483 136.92 187.421C137.422 188.349 137.673 189.461 137.673 190.759V205.475H131.935V202.449H131.764C131.414 203.131 130.945 203.732 130.358 204.253C129.771 204.764 129.065 205.167 128.241 205.46C127.418 205.744 126.466 205.887 125.386 205.887ZM127.119 201.71C128.009 201.71 128.795 201.535 129.477 201.185C130.159 200.825 130.694 200.342 131.082 199.736C131.471 199.13 131.665 198.443 131.665 197.676V195.361C131.475 195.484 131.215 195.598 130.884 195.702C130.562 195.797 130.197 195.887 129.79 195.972C129.383 196.048 128.975 196.119 128.568 196.185C128.161 196.242 127.792 196.294 127.46 196.341C126.75 196.445 126.13 196.611 125.599 196.838C125.069 197.066 124.657 197.373 124.364 197.762C124.07 198.14 123.923 198.614 123.923 199.182C123.923 200.006 124.222 200.636 124.818 201.071C125.424 201.497 126.191 201.71 127.119 201.71ZM155.152 205.475V188.401H151.061C149.953 188.401 149.11 188.656 148.533 189.168C147.955 189.679 147.671 190.285 147.68 190.986C147.671 191.696 147.946 192.298 148.504 192.79C149.072 193.273 149.906 193.514 151.004 193.514H157.169V197.605H151.004C149.139 197.605 147.524 197.321 146.161 196.753C144.797 196.185 143.746 195.394 143.007 194.381C142.268 193.358 141.904 192.17 141.913 190.816C141.904 189.395 142.268 188.15 143.007 187.08C143.746 186 144.802 185.162 146.175 184.566C147.557 183.959 149.186 183.656 151.061 183.656H160.791V205.475H155.152ZM141.288 205.475L147.354 194.111H153.135L147.084 205.475H141.288ZM11.5618 249.901C9.32694 249.901 7.40459 249.427 5.79474 248.48C4.19437 247.524 2.9633 246.198 2.10156 244.503C1.24929 242.808 0.823153 240.857 0.823153 238.651C0.823153 236.416 1.25402 234.456 2.11577 232.77C2.98698 231.075 4.22277 229.754 5.82315 228.807C7.42353 227.851 9.32694 227.372 11.5334 227.372C13.4368 227.372 15.1035 227.718 16.5334 228.409C17.9633 229.101 19.0949 230.071 19.9283 231.321C20.7616 232.571 21.2209 234.039 21.3061 235.725H15.5959C15.4349 234.636 15.0088 233.76 14.3175 233.097C13.6357 232.424 12.7408 232.088 11.6328 232.088C10.6953 232.088 9.87618 232.344 9.17543 232.855C8.48414 233.357 7.94437 234.091 7.55611 235.057C7.16785 236.023 6.97372 237.192 6.97372 238.566C6.97372 239.958 7.16312 241.141 7.5419 242.117C7.93016 243.092 8.47467 243.835 9.17543 244.347C9.87618 244.858 10.6953 245.114 11.6328 245.114C12.3241 245.114 12.9444 244.972 13.4936 244.688C14.0523 244.404 14.5116 243.992 14.8714 243.452C15.2408 242.903 15.4822 242.244 15.5959 241.477H21.3061C21.2114 243.144 20.7569 244.612 19.9425 245.881C19.1375 247.14 18.0249 248.125 16.6044 248.835C15.1839 249.546 13.5031 249.901 11.5618 249.901ZM23.6925 232.415V227.656H43.4652V232.415H36.4339V249.475H30.6669V232.415H23.6925ZM52.5739 249.887C51.1818 249.887 49.9413 249.645 48.8523 249.162C47.7633 248.67 46.9015 247.945 46.267 246.989C45.642 246.023 45.3295 244.82 45.3295 243.381C45.3295 242.169 45.5521 241.151 45.9972 240.327C46.4422 239.503 47.0483 238.84 47.8153 238.338C48.5824 237.836 49.4536 237.458 50.429 237.202C51.4138 236.946 52.446 236.766 53.5256 236.662C54.7945 236.53 55.8172 236.406 56.5938 236.293C57.3703 236.17 57.9337 235.99 58.2841 235.753C58.6345 235.516 58.8097 235.166 58.8097 234.702V234.617C58.8097 233.717 58.5256 233.021 57.9574 232.529C57.3987 232.036 56.6032 231.79 55.571 231.79C54.482 231.79 53.6155 232.031 52.9716 232.514C52.3277 232.988 51.9015 233.584 51.6932 234.304L46.0966 233.85C46.3807 232.524 46.9394 231.378 47.7727 230.412C48.6061 229.437 49.6809 228.689 50.9972 228.168C52.3229 227.637 53.857 227.372 55.5994 227.372C56.8116 227.372 57.9716 227.514 59.0795 227.798C60.197 228.083 61.1866 228.523 62.0483 229.119C62.9195 229.716 63.6061 230.483 64.108 231.421C64.6098 232.349 64.8608 233.461 64.8608 234.759V249.475H59.1222V246.449H58.9517C58.6013 247.131 58.1326 247.732 57.5455 248.253C56.9583 248.764 56.2528 249.167 55.429 249.46C54.6051 249.744 53.6534 249.887 52.5739 249.887ZM54.3068 245.71C55.197 245.71 55.983 245.535 56.6648 245.185C57.3466 244.825 57.8816 244.342 58.2699 243.736C58.6581 243.13 58.8523 242.443 58.8523 241.676V239.361C58.6629 239.484 58.4025 239.598 58.071 239.702C57.7491 239.797 57.3845 239.887 56.9773 239.972C56.5701 240.048 56.1629 240.119 55.7557 240.185C55.3485 240.242 54.9792 240.294 54.6477 240.341C53.9375 240.445 53.3172 240.611 52.7869 240.838C52.2566 241.066 51.8447 241.373 51.5511 241.762C51.2576 242.14 51.1108 242.614 51.1108 243.182C51.1108 244.006 51.4091 244.636 52.0057 245.071C52.6117 245.497 53.3788 245.71 54.3068 245.71ZM68.277 249.475L68.2486 244.673H68.973C69.4844 244.673 69.9247 244.55 70.294 244.304C70.6728 244.048 70.9853 243.637 71.2315 243.068C71.4777 242.5 71.6719 241.747 71.8139 240.81C71.956 239.863 72.0507 238.698 72.098 237.316L72.4531 227.656H89.044V249.475H83.277V232.415H77.8935L77.5526 239.077C77.4673 240.905 77.2448 242.477 76.8849 243.793C76.5346 245.109 76.0469 246.189 75.4219 247.031C74.7969 247.865 74.044 248.48 73.1634 248.878C72.2827 249.276 71.2599 249.475 70.0952 249.475H68.277ZM99.9567 249.887C98.5646 249.887 97.3241 249.645 96.2351 249.162C95.1461 248.67 94.2843 247.945 93.6499 246.989C93.0249 246.023 92.7124 244.82 92.7124 243.381C92.7124 242.169 92.9349 241.151 93.38 240.327C93.825 239.503 94.4311 238.84 95.1982 238.338C95.9652 237.836 96.8364 237.458 97.8118 237.202C98.7966 236.946 99.8288 236.766 100.908 236.662C102.177 236.53 103.2 236.406 103.977 236.293C104.753 236.17 105.317 235.99 105.667 235.753C106.017 235.516 106.192 235.166 106.192 234.702V234.617C106.192 233.717 105.908 233.021 105.34 232.529C104.781 232.036 103.986 231.79 102.954 231.79C101.865 231.79 100.998 232.031 100.354 232.514C99.7105 232.988 99.2843 233.584 99.076 234.304L93.4794 233.85C93.7635 232.524 94.3222 231.378 95.1555 230.412C95.9889 229.437 97.0637 228.689 98.38 228.168C99.7057 227.637 101.24 227.372 102.982 227.372C104.194 227.372 105.354 227.514 106.462 227.798C107.58 228.083 108.569 228.523 109.431 229.119C110.302 229.716 110.989 230.483 111.491 231.421C111.993 232.349 112.244 233.461 112.244 234.759V249.475H106.505V246.449H106.335C105.984 247.131 105.515 247.732 104.928 248.253C104.341 248.764 103.636 249.167 102.812 249.46C101.988 249.744 101.036 249.887 99.9567 249.887ZM101.69 245.71C102.58 245.71 103.366 245.535 104.048 245.185C104.729 244.825 105.264 244.342 105.653 243.736C106.041 243.13 106.235 242.443 106.235 241.676V239.361C106.046 239.484 105.785 239.598 105.454 239.702C105.132 239.797 104.767 239.887 104.36 239.972C103.953 240.048 103.546 240.119 103.138 240.185C102.731 240.242 102.362 240.294 102.031 240.341C101.32 240.445 100.7 240.611 100.17 240.838C99.6394 241.066 99.2275 241.373 98.9339 241.762C98.6404 242.14 98.4936 242.614 98.4936 243.182C98.4936 244.006 98.7919 244.636 99.3885 245.071C99.9946 245.497 100.762 245.71 101.69 245.71ZM11.5618 293.901C9.32694 293.901 7.40459 293.427 5.79474 292.48C4.19437 291.524 2.9633 290.198 2.10156 288.503C1.24929 286.808 0.823153 284.857 0.823153 282.651C0.823153 280.416 1.25402 278.456 2.11577 276.77C2.98698 275.075 4.22277 273.754 5.82315 272.807C7.42353 271.851 9.32694 271.372 11.5334 271.372C13.4368 271.372 15.1035 271.718 16.5334 272.409C17.9633 273.101 19.0949 274.071 19.9283 275.321C20.7616 276.571 21.2209 278.039 21.3061 279.725H15.5959C15.4349 278.636 15.0088 277.76 14.3175 277.097C13.6357 276.424 12.7408 276.088 11.6328 276.088C10.6953 276.088 9.87618 276.344 9.17543 276.855C8.48414 277.357 7.94437 278.091 7.55611 279.057C7.16785 280.023 6.97372 281.192 6.97372 282.566C6.97372 283.958 7.16312 285.141 7.5419 286.117C7.93016 287.092 8.47467 287.835 9.17543 288.347C9.87618 288.858 10.6953 289.114 11.6328 289.114C12.3241 289.114 12.9444 288.972 13.4936 288.688C14.0523 288.404 14.5116 287.992 14.8714 287.452C15.2408 286.903 15.4822 286.244 15.5959 285.477H21.3061C21.2114 287.144 20.7569 288.612 19.9425 289.881C19.1375 291.14 18.0249 292.125 16.6044 292.835C15.1839 293.546 13.5031 293.901 11.5618 293.901ZM23.6925 276.415V271.656H43.4652V276.415H36.4339V293.475H30.6669V276.415H23.6925ZM52.5739 293.887C51.1818 293.887 49.9413 293.645 48.8523 293.162C47.7633 292.67 46.9015 291.945 46.267 290.989C45.642 290.023 45.3295 288.82 45.3295 287.381C45.3295 286.169 45.5521 285.151 45.9972 284.327C46.4422 283.503 47.0483 282.84 47.8153 282.338C48.5824 281.836 49.4536 281.458 50.429 281.202C51.4138 280.946 52.446 280.766 53.5256 280.662C54.7945 280.53 55.8172 280.406 56.5938 280.293C57.3703 280.17 57.9337 279.99 58.2841 279.753C58.6345 279.516 58.8097 279.166 58.8097 278.702V278.617C58.8097 277.717 58.5256 277.021 57.9574 276.529C57.3987 276.036 56.6032 275.79 55.571 275.79C54.482 275.79 53.6155 276.031 52.9716 276.514C52.3277 276.988 51.9015 277.584 51.6932 278.304L46.0966 277.85C46.3807 276.524 46.9394 275.378 47.7727 274.412C48.6061 273.437 49.6809 272.689 50.9972 272.168C52.3229 271.637 53.857 271.372 55.5994 271.372C56.8116 271.372 57.9716 271.514 59.0795 271.798C60.197 272.083 61.1866 272.523 62.0483 273.119C62.9195 273.716 63.6061 274.483 64.108 275.421C64.6098 276.349 64.8608 277.461 64.8608 278.759V293.475H59.1222V290.449H58.9517C58.6013 291.131 58.1326 291.732 57.5455 292.253C56.9583 292.764 56.2528 293.167 55.429 293.46C54.6051 293.744 53.6534 293.887 52.5739 293.887ZM54.3068 289.71C55.197 289.71 55.983 289.535 56.6648 289.185C57.3466 288.825 57.8816 288.342 58.2699 287.736C58.6581 287.13 58.8523 286.443 58.8523 285.676V283.361C58.6629 283.484 58.4025 283.598 58.071 283.702C57.7491 283.797 57.3845 283.887 56.9773 283.972C56.5701 284.048 56.1629 284.119 55.7557 284.185C55.3485 284.242 54.9792 284.294 54.6477 284.341C53.9375 284.445 53.3172 284.611 52.7869 284.838C52.2566 285.066 51.8447 285.373 51.5511 285.762C51.2576 286.14 51.1108 286.614 51.1108 287.182C51.1108 288.006 51.4091 288.636 52.0057 289.071C52.6117 289.497 53.3788 289.71 54.3068 289.71ZM84.7401 280.151V284.909H73.348V280.151H84.7401ZM75.3366 271.656V293.475H69.5554V271.656H75.3366ZM88.5327 271.656V293.475H82.794V271.656H88.5327ZM91.5227 299.867V288.673H93.1989C93.6818 288.37 94.0701 287.887 94.3636 287.225C94.6667 286.562 94.9129 285.78 95.1023 284.881C95.3011 283.981 95.4527 283.011 95.5568 281.969C95.6705 280.918 95.7699 279.857 95.8551 278.787L96.4233 271.656H113.156V288.673H116.537V299.867H110.77V293.475H97.4318V299.867H91.5227ZM99.2216 288.673H107.446V276.316H101.565L101.338 278.787C101.177 281.117 100.945 283.096 100.642 284.725C100.339 286.344 99.8655 287.66 99.2216 288.673ZM126.285 293.887C124.893 293.887 123.652 293.645 122.563 293.162C121.474 292.67 120.612 291.945 119.978 290.989C119.353 290.023 119.04 288.82 119.04 287.381C119.04 286.169 119.263 285.151 119.708 284.327C120.153 283.503 120.759 282.84 121.526 282.338C122.293 281.836 123.165 281.458 124.14 281.202C125.125 280.946 126.157 280.766 127.237 280.662C128.505 280.53 129.528 280.406 130.305 280.293C131.081 280.17 131.645 279.99 131.995 279.753C132.345 279.516 132.521 279.166 132.521 278.702V278.617C132.521 277.717 132.237 277.021 131.668 276.529C131.11 276.036 130.314 275.79 129.282 275.79C128.193 275.79 127.326 276.031 126.683 276.514C126.039 276.988 125.612 277.584 125.404 278.304L119.808 277.85C120.092 276.524 120.65 275.378 121.484 274.412C122.317 273.437 123.392 272.689 124.708 272.168C126.034 271.637 127.568 271.372 129.31 271.372C130.522 271.372 131.683 271.514 132.79 271.798C133.908 272.083 134.897 272.523 135.759 273.119C136.63 273.716 137.317 274.483 137.819 275.421C138.321 276.349 138.572 277.461 138.572 278.759V293.475H132.833V290.449H132.663C132.312 291.131 131.844 291.732 131.256 292.253C130.669 292.764 129.964 293.167 129.14 293.46C128.316 293.744 127.364 293.887 126.285 293.887ZM128.018 289.71C128.908 289.71 129.694 289.535 130.376 289.185C131.058 288.825 131.593 288.342 131.981 287.736C132.369 287.13 132.563 286.443 132.563 285.676V283.361C132.374 283.484 132.113 283.598 131.782 283.702C131.46 283.797 131.095 283.887 130.688 283.972C130.281 284.048 129.874 284.119 129.467 284.185C129.059 284.242 128.69 284.294 128.359 284.341C127.648 284.445 127.028 284.611 126.498 284.838C125.968 285.066 125.556 285.373 125.262 285.762C124.969 286.14 124.822 286.614 124.822 287.182C124.822 288.006 125.12 288.636 125.717 289.071C126.323 289.497 127.09 289.71 128.018 289.71ZM143.266 301.656V271.656H149.232V275.321H149.502C149.767 274.734 150.151 274.137 150.653 273.531C151.164 272.916 151.827 272.405 152.641 271.997C153.465 271.581 154.488 271.372 155.71 271.372C157.3 271.372 158.768 271.789 160.113 272.622C161.458 273.446 162.532 274.691 163.337 276.358C164.142 278.015 164.545 280.094 164.545 282.594C164.545 285.028 164.152 287.083 163.366 288.759C162.589 290.425 161.529 291.69 160.184 292.551C158.849 293.404 157.353 293.83 155.695 293.83C154.521 293.83 153.522 293.636 152.698 293.247C151.884 292.859 151.216 292.371 150.695 291.784C150.174 291.188 149.777 290.586 149.502 289.98H149.317V301.656H143.266ZM149.19 282.566C149.19 283.863 149.37 284.994 149.729 285.96C150.089 286.926 150.61 287.679 151.292 288.219C151.974 288.749 152.802 289.014 153.778 289.014C154.763 289.014 155.596 288.744 156.278 288.205C156.96 287.655 157.476 286.898 157.826 285.932C158.186 284.957 158.366 283.834 158.366 282.566C158.366 281.306 158.191 280.198 157.84 279.242C157.49 278.285 156.974 277.537 156.292 276.997C155.61 276.458 154.772 276.188 153.778 276.188C152.793 276.188 151.96 276.448 151.278 276.969C150.605 277.49 150.089 278.228 149.729 279.185C149.37 280.141 149.19 281.268 149.19 282.566ZM166.466 276.415V271.656H186.239V276.415H179.207V293.475H173.44V276.415H166.466ZM198.984 293.901C196.777 293.901 194.869 293.432 193.259 292.494C191.659 291.548 190.423 290.231 189.552 288.546C188.681 286.851 188.245 284.886 188.245 282.651C188.245 280.397 188.681 278.427 189.552 276.742C190.423 275.047 191.659 273.73 193.259 272.793C194.869 271.846 196.777 271.372 198.984 271.372C201.19 271.372 203.094 271.846 204.694 272.793C206.304 273.73 207.544 275.047 208.415 276.742C209.287 278.427 209.722 280.397 209.722 282.651C209.722 284.886 209.287 286.851 208.415 288.546C207.544 290.231 206.304 291.548 204.694 292.494C203.094 293.432 201.19 293.901 198.984 293.901ZM199.012 289.213C200.016 289.213 200.854 288.929 201.526 288.361C202.199 287.783 202.705 286.997 203.046 286.003C203.397 285.009 203.572 283.877 203.572 282.608C203.572 281.339 203.397 280.208 203.046 279.213C202.705 278.219 202.199 277.433 201.526 276.855C200.854 276.278 200.016 275.989 199.012 275.989C197.999 275.989 197.147 276.278 196.455 276.855C195.773 277.433 195.257 278.219 194.907 279.213C194.566 280.208 194.396 281.339 194.396 282.608C194.396 283.877 194.566 285.009 194.907 286.003C195.257 286.997 195.773 287.783 196.455 288.361C197.147 288.929 197.999 289.213 199.012 289.213ZM226.555 286.784L232.464 271.656H237.066L228.558 293.475H224.538L216.228 271.656H220.816L226.555 286.784ZM219.438 271.656V293.475H213.657V271.656H219.438ZM233.969 293.475V271.656H239.68V293.475H233.969ZM-0.000710234 343.867V332.673H1.67543C2.15838 332.37 2.54664 331.887 2.8402 331.225C3.14323 330.562 3.38944 329.78 3.57884 328.881C3.7777 327.981 3.92921 327.011 4.03338 325.969C4.14702 324.918 4.24645 323.857 4.33168 322.787L4.89986 315.656H21.6328V332.673H25.0135V343.867H19.2464V337.475H5.90838V343.867H-0.000710234ZM7.69815 332.673H15.9226V320.316H10.0419L9.81463 322.787C9.65365 325.117 9.42164 327.096 9.11861 328.725C8.81558 330.344 8.34209 331.66 7.69815 332.673ZM27.2614 337.475L27.233 332.673H27.9574C28.4688 332.673 28.9091 332.55 29.2784 332.304C29.6572 332.048 29.9697 331.637 30.2159 331.068C30.4621 330.5 30.6563 329.747 30.7983 328.81C30.9403 327.863 31.035 326.698 31.0824 325.316L31.4375 315.656H48.0284V337.475H42.2614V320.415H36.8778L36.5369 327.077C36.4517 328.905 36.2292 330.477 35.8693 331.793C35.5189 333.109 35.0312 334.189 34.4062 335.031C33.7812 335.865 33.0284 336.48 32.1477 336.878C31.267 337.276 30.2443 337.475 29.0795 337.475H27.2614ZM65.5036 337.475V320.401H61.4126C60.3047 320.401 59.4619 320.656 58.8842 321.168C58.3066 321.679 58.0225 322.285 58.032 322.986C58.0225 323.696 58.2971 324.298 58.8558 324.79C59.424 325.273 60.2573 325.514 61.3558 325.514H67.5206V329.605H61.3558C59.4903 329.605 57.8757 329.321 56.5121 328.753C55.1484 328.185 54.0973 327.394 53.3587 326.381C52.62 325.358 52.2554 324.17 52.2649 322.816C52.2554 321.395 52.62 320.15 53.3587 319.08C54.0973 318 55.1532 317.162 56.5263 316.566C57.9089 315.959 59.5376 315.656 61.4126 315.656H71.1428V337.475H65.5036ZM51.6399 337.475L57.7053 326.111H63.4865L57.4354 337.475H51.6399ZM98 330.784L103.909 315.656H108.511L100.003 337.475H95.983L87.6733 315.656H92.2614L98 330.784ZM90.8835 315.656V337.475H85.1023V315.656H90.8835ZM105.415 337.475V315.656H111.125V337.475H105.415ZM130.99 324.151V328.909H119.598V324.151H130.99ZM121.587 315.656V337.475H115.805V315.656H121.587ZM134.783 315.656V337.475H129.044V315.656H134.783ZM149.335 337.901C147.129 337.901 145.221 337.432 143.611 336.494C142.01 335.548 140.775 334.231 139.903 332.546C139.032 330.851 138.597 328.886 138.597 326.651C138.597 324.397 139.032 322.427 139.903 320.742C140.775 319.047 142.01 317.73 143.611 316.793C145.221 315.846 147.129 315.372 149.335 315.372C151.542 315.372 153.445 315.846 155.045 316.793C156.655 317.73 157.896 319.047 158.767 320.742C159.638 322.427 160.074 324.397 160.074 326.651C160.074 328.886 159.638 330.851 158.767 332.546C157.896 334.231 156.655 335.548 155.045 336.494C153.445 337.432 151.542 337.901 149.335 337.901ZM149.364 333.213C150.367 333.213 151.205 332.929 151.878 332.361C152.55 331.783 153.057 330.997 153.398 330.003C153.748 329.009 153.923 327.877 153.923 326.608C153.923 325.339 153.748 324.208 153.398 323.213C153.057 322.219 152.55 321.433 151.878 320.855C151.205 320.278 150.367 319.989 149.364 319.989C148.35 319.989 147.498 320.278 146.807 320.855C146.125 321.433 145.609 322.219 145.259 323.213C144.918 324.208 144.747 325.339 144.747 326.608C144.747 327.877 144.918 329.009 145.259 330.003C145.609 330.997 146.125 331.783 146.807 332.361C147.498 332.929 148.35 333.213 149.364 333.213ZM178.952 315.656V320.415H169.889V337.475H164.009V315.656H178.952ZM188.423 329.492L196.278 315.656H202.244V337.475H196.477V323.597L188.65 337.475H182.641V315.656H188.423V329.492ZM212.151 315.656L216.157 323.284L220.262 315.656H226.469L220.148 326.566L226.64 337.475H220.461L216.157 329.932L211.924 337.475H205.674L212.151 326.566L205.901 315.656H212.151ZM1.81747 381.475V352.384H13.2947C15.4917 352.384 17.3667 352.777 18.9197 353.563C20.4822 354.339 21.6707 355.442 22.4851 356.872C23.3089 358.293 23.7209 359.964 23.7209 361.887C23.7209 363.818 23.3042 365.48 22.4709 366.872C21.6375 368.255 20.4302 369.316 18.8487 370.054C17.2768 370.793 15.3733 371.162 13.1385 371.162H5.45384V366.219H12.1442C13.3184 366.219 14.2938 366.058 15.0703 365.736C15.8468 365.414 16.4245 364.931 16.8033 364.287C17.1915 363.643 17.3857 362.843 17.3857 361.887C17.3857 360.921 17.1915 360.106 16.8033 359.443C16.4245 358.78 15.8421 358.279 15.0561 357.938C14.2796 357.587 13.2995 357.412 12.1158 357.412H7.96804V381.475H1.81747ZM17.5277 368.236L24.7578 381.475H17.968L10.8942 368.236H17.5277ZM28.0675 381.475V352.384H39.5447C41.7512 352.384 43.6309 352.805 45.1839 353.648C46.737 354.481 47.9207 355.641 48.7351 357.128C49.5589 358.605 49.9709 360.31 49.9709 362.242C49.9709 364.173 49.5542 365.878 48.7209 367.355C47.8875 368.833 46.6802 369.983 45.0987 370.807C43.5268 371.631 41.6233 372.043 39.3885 372.043H32.0732V367.114H38.3942C39.5779 367.114 40.5533 366.91 41.3203 366.503C42.0968 366.086 42.6745 365.513 43.0533 364.784C43.4415 364.046 43.6357 363.198 43.6357 362.242C43.6357 361.276 43.4415 360.433 43.0533 359.713C42.6745 358.984 42.0968 358.421 41.3203 358.023C40.5438 357.616 39.5589 357.412 38.3658 357.412H34.218V381.475H28.0675ZM73.2557 361.787C73.0568 361.096 72.7775 360.485 72.4176 359.955C72.0578 359.415 71.6174 358.96 71.0966 358.591C70.5852 358.212 69.9981 357.923 69.3352 357.725C68.6818 357.526 67.9574 357.426 67.1619 357.426C65.6752 357.426 64.3684 357.796 63.2415 358.534C62.1241 359.273 61.2528 360.348 60.6278 361.759C60.0028 363.16 59.6903 364.874 59.6903 366.901C59.6903 368.927 59.9981 370.651 60.6136 372.071C61.2292 373.492 62.1004 374.576 63.2273 375.324C64.3542 376.063 65.6847 376.432 67.2188 376.432C68.6108 376.432 69.7992 376.186 70.7841 375.693C71.7784 375.191 72.536 374.486 73.0568 373.577C73.5871 372.668 73.8523 371.593 73.8523 370.352L75.1023 370.537H67.6023V365.906H79.7756V369.571C79.7756 372.128 79.2358 374.325 78.1562 376.162C77.0767 377.99 75.59 379.401 73.696 380.395C71.8021 381.38 69.6335 381.872 67.1903 381.872C64.4631 381.872 62.0672 381.271 60.0028 380.068C57.9384 378.856 56.3286 377.137 55.1733 374.912C54.0275 372.677 53.4545 370.026 53.4545 366.958C53.4545 364.6 53.7955 362.497 54.4773 360.651C55.1686 358.795 56.1345 357.223 57.375 355.935C58.6155 354.647 60.0597 353.667 61.7074 352.994C63.3551 352.322 65.1402 351.986 67.0625 351.986C68.7102 351.986 70.2443 352.227 71.6648 352.71C73.0852 353.184 74.3447 353.856 75.4432 354.727C76.5511 355.599 77.4555 356.636 78.1562 357.838C78.857 359.031 79.3068 360.348 79.5057 361.787H73.2557ZM87.8189 381.844C86.8814 381.844 86.0765 381.512 85.4041 380.85C84.7412 380.177 84.4098 379.372 84.4098 378.435C84.4098 377.507 84.7412 376.711 85.4041 376.048C86.0765 375.386 86.8814 375.054 87.8189 375.054C88.728 375.054 89.5234 375.386 90.2053 376.048C90.8871 376.711 91.228 377.507 91.228 378.435C91.228 379.06 91.067 379.633 90.745 380.154C90.4325 380.665 90.0206 381.077 89.5092 381.389C88.9979 381.692 88.4344 381.844 87.8189 381.844Z" fill="#B8860B"/>
</svg>
