<svg width="185" height="451" viewBox="0 0 185 451" fill="none" xmlns="http://www.w3.org/2000/svg">
<path d="M137.116 104.055L136.959 94.6613L138.906 90.4038C158.135 97.9365 165.073 102.321 170.126 110.507L184.033 109.411C169.504 99.1684 160.223 94.2088 140.884 87.151C147.244 69.8107 150.022 59.8721 154.342 41.9902C157.301 39.6512 158.219 38.1291 156.848 34.5591C156.562 33.1436 157.096 32.5981 158.635 31.8326C159.738 31.0303 160.29 25.7234 161.349 21.1003L164.094 13.5577C166.368 10.1146 168.532 9.32228 172.74 8.36124C170.968 5.61564 169.55 4.26518 166.41 2.28318C164.511 1.1071 163.332 0.770619 161.148 0.367869C157.17 -0.351885 155.421 0.0618967 152.392 0.955364C155.44 4.97629 156.322 7.08991 155.675 10.4932L152.929 18.0358C150.634 22.3973 147.588 27.3963 147.935 27.9381C148.857 29.4198 148.914 30.13 147.966 31.1277C144.573 33.2287 144.286 34.9943 145.221 38.6703C136.57 55.1782 132.46 64.6384 126.15 81.7881C104.809 74.2286 94.4423 71.8942 78.7875 71.1049L88.8 80.7086C99.022 77.7789 105.356 78.3214 125.575 85.5517L124.329 90.0646L117.996 97.0958L2.65996 421.62C0.229951 432.62 -0.515807 438.878 0.33902 450.373C7.8018 443.019 11.6499 438.291 16.8681 426.791L137.116 104.055Z" fill="#FAF8F3"/>
</svg>
