<svg width="223" height="459" viewBox="0 0 223 459" fill="none" xmlns="http://www.w3.org/2000/svg">
<rect width="14.0659" height="304.003" transform="matrix(0.939693 0.34202 0.34202 -0.939693 60.7578 348.376)" fill="#B8860B"/>
<ellipse cx="12.9315" cy="7.0329" rx="12.9315" ry="7.0329" transform="matrix(0.939693 0.34202 0.34202 -0.939693 51.1797 357.443)" fill="#B8860B"/>
<ellipse cx="26.5437" cy="23.3674" rx="26.5437" ry="23.3674" transform="matrix(0.939693 0.34202 0.34202 -0.939693 16.0781 412.753)" fill="#B8860B"/>
<path d="M77.2639 372.009C79.1923 366.711 73.9431 359.454 65.3481 356.325C56.7531 353.197 47.9894 355.595 46.0609 360.894C44.1325 366.192 49.3817 373.45 57.9767 376.578C66.5718 379.706 75.3355 377.308 77.2639 372.009Z" fill="#B8860B"/>
<path d="M73.4688 363.869L76.2402 364.877C75.7858 362.527 76.9777 361.524 77.8116 359.896L75.1758 359.178L73.4688 363.869Z" fill="#B8860B"/>
<path d="M54.7812 356.826L52.3006 355.681C53.5127 355.421 53.6523 354.689 53.3672 352.616L55.9688 353.563L54.7812 356.826Z" fill="#B8860B"/>
<path d="M32.3662 446.685C24.3422 424.644 22.4018 413.952 22.8854 397.363L70.6394 414.744C59.7474 429.301 51.24 436.224 32.3662 446.685Z" fill="#B8860B"/>
<ellipse cx="182.316" cy="35.6734" rx="15.5673" ry="11.9014" transform="rotate(20 182.316 35.6734)" fill="#B8860B"/>
<path d="M191.176 11.9692C179.736 17.5439 175.082 20.9354 169.461 27.4285L197.467 37.6221C197.603 28.2377 196.142 22.603 191.176 11.9692Z" fill="#B8860B"/>
<rect width="21.3257" height="16.7882" rx="8.3941" transform="matrix(0.939693 0.34202 0.34202 -0.939693 161.633 60.6068)" fill="#B8860B"/>
</svg>
