<svg width="272" height="171" viewBox="0 0 272 171" fill="none" xmlns="http://www.w3.org/2000/svg">
<path d="M20.1278 29.8301L10.7812 17.4295H8.67898V29.8301H2.52841V0.739168H8.67898V12.3585H9.91477L19.5739 0.739168H27.2301L15.8807 14.2335L27.7557 29.8301H20.1278ZM32.8693 38.0119C32.1023 38.0119 31.3826 37.9503 30.7102 37.8272C30.0473 37.7136 29.4981 37.5668 29.0625 37.3869L30.4261 32.8699C31.1364 33.0877 31.7756 33.206 32.3438 33.225C32.9214 33.2439 33.4186 33.1113 33.8352 32.8272C34.2614 32.5431 34.607 32.0602 34.8722 31.3784L35.2273 30.4551L27.4006 8.0119H33.7642L38.2812 24.0346H38.5085L43.0682 8.0119H49.4744L40.9943 32.188C40.5871 33.3623 40.0331 34.385 39.3324 35.2562C38.6411 36.1369 37.7652 36.814 36.7045 37.2875C35.6439 37.7704 34.3655 38.0119 32.8693 38.0119ZM70.7102 0.00053072L72.5568 3.9494C71.9413 4.46076 71.2595 4.83955 70.5114 5.08576C69.7633 5.3225 68.8684 5.47875 67.8267 5.55451C66.7945 5.63027 65.535 5.68235 64.0483 5.71076C62.3627 5.7297 60.9896 5.99958 59.929 6.52042C58.8684 7.04125 58.0634 7.86038 57.5142 8.97781C56.965 10.0858 56.6051 11.5346 56.4347 13.3244H56.6477C57.3011 11.9892 58.2197 10.957 59.4034 10.2278C60.5966 9.49864 62.0691 9.13406 63.821 9.13406C65.6771 9.13406 67.3011 9.54125 68.6932 10.3556C70.0947 11.17 71.1837 12.3395 71.9602 13.8642C72.7367 15.3888 73.125 17.2164 73.125 19.3471C73.125 21.563 72.6894 23.4901 71.8182 25.1284C70.9564 26.7572 69.7301 28.0214 68.1392 28.921C66.5483 29.8111 64.6544 30.2562 62.4574 30.2562C60.2509 30.2562 58.3475 29.7922 56.7472 28.8642C55.1563 27.9361 53.9252 26.5678 53.054 24.7591C52.1922 22.9503 51.7614 20.725 51.7614 18.0829V16.2931C51.7614 11.0375 52.7841 7.14068 54.8295 4.60281C56.875 2.06493 59.8816 0.777047 63.8494 0.739168C64.929 0.720228 65.9044 0.715493 66.7756 0.724963C67.6468 0.734433 68.4091 0.69182 69.0625 0.597123C69.7254 0.502426 70.2746 0.303562 70.7102 0.00053072ZM62.4858 25.5687C63.4138 25.5687 64.2093 25.3272 64.8722 24.8443C65.5445 24.3613 66.0606 23.67 66.4205 22.7704C66.7898 21.8708 66.9744 20.796 66.9744 19.546C66.9744 18.3055 66.7898 17.2543 66.4205 16.3926C66.0606 15.5214 65.5445 14.8585 64.8722 14.4039C64.1998 13.9494 63.3949 13.7221 62.4574 13.7221C61.7566 13.7221 61.1269 13.85 60.5682 14.1056C60.0095 14.3613 59.5313 14.7401 59.1335 15.242C58.7453 15.7344 58.4422 16.3452 58.2244 17.0744C58.0161 17.7941 57.9119 18.618 57.9119 19.546C57.9119 21.4115 58.3144 22.8841 59.1193 23.9636C59.9337 25.0337 61.0559 25.5687 62.4858 25.5687ZM82.9226 21.8471L90.7777 8.0119H96.7436V29.8301H90.9766V15.9522L83.1499 29.8301H77.1413V8.0119H82.9226V21.8471ZM101.594 29.8301V8.0119H107.646V16.4778H109.35L115.288 8.0119H122.39L114.677 18.8358L122.475 29.8301H115.288L109.904 22.0886H107.646V29.8301H101.594ZM142.33 30.1852C140.672 30.1852 139.171 29.7591 137.827 28.9068C136.491 28.045 135.431 26.7808 134.645 25.1142C133.868 23.438 133.48 21.3831 133.48 18.9494C133.48 16.4494 133.883 14.3708 134.688 12.7136C135.492 11.0469 136.563 9.80167 137.898 8.97781C139.242 8.14447 140.715 7.72781 142.315 7.72781C143.537 7.72781 144.555 7.93614 145.369 8.35281C146.193 8.76 146.856 9.27137 147.358 9.8869C147.869 10.493 148.258 11.0895 148.523 11.6767H148.707V0.739168H154.744V29.8301H148.778V26.3358H148.523C148.239 26.9418 147.836 27.5431 147.315 28.1397C146.804 28.7269 146.136 29.2145 145.312 29.6028C144.498 29.9911 143.504 30.1852 142.33 30.1852ZM144.247 25.3699C145.223 25.3699 146.046 25.1047 146.719 24.5744C147.401 24.0346 147.921 23.2818 148.281 22.3159C148.651 21.35 148.835 20.2183 148.835 18.921C148.835 17.6236 148.655 16.4967 148.295 15.5403C147.936 14.5839 147.415 13.8452 146.733 13.3244C146.051 12.8036 145.223 12.5431 144.247 12.5431C143.253 12.5431 142.415 12.813 141.733 13.3528C141.051 13.8926 140.535 14.6407 140.185 15.5971C139.834 16.5536 139.659 17.6615 139.659 18.921C139.659 20.1899 139.834 21.3121 140.185 22.2875C140.545 23.2534 141.061 24.0109 141.733 24.5602C142.415 25.1 143.253 25.3699 144.247 25.3699ZM159.663 29.8301V25.3983L170.018 15.8102C170.898 14.9579 171.637 14.1909 172.234 13.5091C172.84 12.8272 173.299 12.1596 173.612 11.5062C173.924 10.8433 174.08 10.1284 174.08 9.36133C174.08 8.50905 173.886 7.77515 173.498 7.15962C173.11 6.53462 172.579 6.0564 171.907 5.72496C171.235 5.38405 170.472 5.2136 169.62 5.2136C168.73 5.2136 167.953 5.39352 167.29 5.75337C166.628 6.11322 166.116 6.62932 165.756 7.30167C165.397 7.97402 165.217 8.77421 165.217 9.70224H159.379C159.379 7.79883 159.809 6.14637 160.671 4.74485C161.533 3.34334 162.74 2.25905 164.293 1.49201C165.846 0.724963 167.636 0.341441 169.663 0.341441C171.746 0.341441 173.559 0.710759 175.103 1.4494C176.656 2.17856 177.863 3.19182 178.725 4.48917C179.587 5.78652 180.018 7.27326 180.018 8.9494C180.018 10.0479 179.8 11.1322 179.364 12.2022C178.938 13.2723 178.176 14.4608 177.077 15.7676C175.979 17.0649 174.431 18.6227 172.433 20.4409L168.185 24.6028V24.8017H180.401V29.8301H159.663ZM196.264 30.4693C193.821 30.4598 191.719 29.8585 189.957 28.6653C188.205 27.4721 186.856 25.7439 185.909 23.4806C184.972 21.2174 184.508 18.4949 184.517 15.313C184.517 12.1407 184.986 9.43708 185.923 7.20224C186.87 4.96739 188.22 3.26758 189.972 2.10281C191.733 0.928562 193.83 0.341441 196.264 0.341441C198.698 0.341441 200.791 0.928562 202.543 2.10281C204.304 3.27705 205.658 4.98159 206.605 7.21644C207.552 9.44182 208.021 12.1407 208.011 15.313C208.011 18.5043 207.538 21.2316 206.591 23.4949C205.653 25.7581 204.309 27.4863 202.557 28.6795C200.805 29.8727 198.707 30.4693 196.264 30.4693ZM196.264 25.3699C197.931 25.3699 199.261 24.5318 200.256 22.8556C201.25 21.1795 201.742 18.6653 201.733 15.313C201.733 13.1066 201.506 11.2695 201.051 9.80167C200.606 8.33386 199.972 7.23064 199.148 6.49201C198.333 5.75337 197.372 5.38406 196.264 5.38406C194.607 5.38406 193.281 6.21265 192.287 7.86985C191.293 9.52705 190.791 12.0081 190.781 15.313C190.781 17.5479 191.004 19.4134 191.449 20.9096C191.903 22.3964 192.543 23.5138 193.366 24.2619C194.19 25.0005 195.156 25.3699 196.264 25.3699ZM20 59.4835V64.2846H0V59.4835H20ZM41.5305 74.2562C39.2957 74.2562 37.3733 73.7827 35.7635 72.8358C34.1631 71.8793 32.9321 70.5536 32.0703 68.8585C31.218 67.1634 30.7919 65.2127 30.7919 63.0062C30.7919 60.7714 31.2228 58.8111 32.0845 57.1255C32.9557 55.4305 34.1915 54.1094 35.7919 53.1625C37.3923 52.206 39.2957 51.7278 41.5021 51.7278C43.4055 51.7278 45.0722 52.0734 46.5021 52.7647C47.9321 53.456 49.0637 54.4267 49.897 55.6767C50.7304 56.9267 51.1896 58.3945 51.2749 60.0801H45.5646C45.4036 58.9911 44.9775 58.1151 44.2862 57.4522C43.6044 56.7799 42.7095 56.4437 41.6016 56.4437C40.6641 56.4437 39.8449 56.6994 39.1442 57.2108C38.4529 57.7127 37.9131 58.4466 37.5249 59.4125C37.1366 60.3784 36.9425 61.5479 36.9425 62.921C36.9425 64.313 37.1319 65.4967 37.5107 66.4721C37.8989 67.4475 38.4434 68.1909 39.1442 68.7022C39.8449 69.2136 40.6641 69.4693 41.6016 69.4693C42.2929 69.4693 42.9131 69.3272 43.4624 69.0431C44.0211 68.7591 44.4804 68.3471 44.8402 67.8074C45.2095 67.2581 45.451 66.6 45.5646 65.8329H51.2749C51.1802 67.4996 50.7256 68.9674 49.9112 70.2363C49.1063 71.4958 47.9936 72.4806 46.5732 73.1909C45.1527 73.9011 43.4718 74.2562 41.5305 74.2562ZM60.9304 65.8471L68.7855 52.0119H74.7514V73.8301H68.9844V59.9522L61.1577 73.8301H55.1491V52.0119H60.9304V65.8471ZM92.5 67.1397L98.4091 52.0119H103.011L94.5028 73.8301H90.483L82.1733 52.0119H86.7614L92.5 67.1397ZM85.3835 52.0119V73.8301H79.6023V52.0119H85.3835ZM99.9148 73.8301V52.0119H105.625V73.8301H99.9148ZM110.305 73.8301V52.0119H119.609C122.299 52.0119 124.425 52.5233 125.987 53.546C127.55 54.5687 128.331 56.0223 128.331 57.9068C128.331 59.0905 127.891 60.0753 127.01 60.8613C126.129 61.6473 124.908 62.1776 123.345 62.4522C124.652 62.5469 125.765 62.8452 126.683 63.3471C127.611 63.8395 128.317 64.4788 128.8 65.2647C129.292 66.0507 129.538 66.9219 129.538 67.8784C129.538 69.1189 129.207 70.1842 128.544 71.0744C127.891 71.9645 126.929 72.6464 125.661 73.1199C124.401 73.5933 122.862 73.8301 121.044 73.8301H110.305ZM115.945 69.2988H121.044C121.887 69.2988 122.545 69.1 123.018 68.7022C123.501 68.295 123.743 67.7411 123.743 67.0403C123.743 66.2638 123.501 65.653 123.018 65.2079C122.545 64.7628 121.887 64.5403 121.044 64.5403H115.945V69.2988ZM115.945 60.9892H119.737C120.343 60.9892 120.859 60.9039 121.286 60.7335C121.721 60.5536 122.053 60.2979 122.28 59.9664C122.517 59.635 122.635 59.242 122.635 58.7875C122.635 58.1151 122.365 57.5895 121.825 57.2108C121.286 56.832 120.547 56.6426 119.609 56.6426H115.945V60.9892ZM143.21 74.2562C141.004 74.2562 139.096 73.7875 137.486 72.85C135.885 71.903 134.65 70.5867 133.778 68.9011C132.907 67.206 132.472 65.2411 132.472 63.0062C132.472 60.7524 132.907 58.7827 133.778 57.0971C134.65 55.402 135.885 54.0858 137.486 53.1483C139.096 52.2013 141.004 51.7278 143.21 51.7278C145.417 51.7278 147.32 52.2013 148.92 53.1483C150.53 54.0858 151.771 55.402 152.642 57.0971C153.513 58.7827 153.949 60.7524 153.949 63.0062C153.949 65.2411 153.513 67.206 152.642 68.9011C151.771 70.5867 150.53 71.903 148.92 72.85C147.32 73.7875 145.417 74.2562 143.21 74.2562ZM143.239 69.5687C144.242 69.5687 145.08 69.2846 145.753 68.7164C146.425 68.1388 146.932 67.3528 147.273 66.3585C147.623 65.3642 147.798 64.2325 147.798 62.9636C147.798 61.6947 147.623 60.563 147.273 59.5687C146.932 58.5744 146.425 57.7884 145.753 57.2108C145.08 56.6331 144.242 56.3443 143.239 56.3443C142.225 56.3443 141.373 56.6331 140.682 57.2108C140 57.7884 139.484 58.5744 139.134 59.5687C138.793 60.563 138.622 61.6947 138.622 62.9636C138.622 64.2325 138.793 65.3642 139.134 66.3585C139.484 67.3528 140 68.1388 140.682 68.7164C141.373 69.2846 142.225 69.5687 143.239 69.5687ZM156.605 73.8301L156.577 69.0289H157.301C157.813 69.0289 158.253 68.9058 158.622 68.6596C159.001 68.4039 159.313 67.992 159.56 67.4238C159.806 66.8556 160 66.1028 160.142 65.1653C160.284 64.2183 160.379 63.0536 160.426 61.671L160.781 52.0119H177.372V73.8301H171.605V56.7704H166.222L165.881 63.4324C165.795 65.26 165.573 66.832 165.213 68.1483C164.863 69.4645 164.375 70.5441 163.75 71.3869C163.125 72.2202 162.372 72.8358 161.491 73.2335C160.611 73.6312 159.588 73.8301 158.423 73.8301H156.605ZM2.41477 117.83V96.0119H11.7188C14.4081 96.0119 16.5341 96.5233 18.0966 97.546C19.6591 98.5687 20.4403 100.022 20.4403 101.907C20.4403 103.09 20 104.075 19.1193 104.861C18.2386 105.647 17.017 106.178 15.4545 106.452C16.7614 106.547 17.8741 106.845 18.7926 107.347C19.7206 107.84 20.4261 108.479 20.9091 109.265C21.4015 110.051 21.6477 110.922 21.6477 111.878C21.6477 113.119 21.3163 114.184 20.6534 115.074C20 115.965 19.0388 116.646 17.7699 117.12C16.5104 117.593 14.9716 117.83 13.1534 117.83H2.41477ZM8.05398 113.299H13.1534C13.9962 113.299 14.6544 113.1 15.1278 112.702C15.6108 112.295 15.8523 111.741 15.8523 111.04C15.8523 110.264 15.6108 109.653 15.1278 109.208C14.6544 108.763 13.9962 108.54 13.1534 108.54H8.05398V113.299ZM8.05398 104.989H11.8466C12.4527 104.989 12.9688 104.904 13.3949 104.733C13.8305 104.554 14.1619 104.298 14.3892 103.966C14.6259 103.635 14.7443 103.242 14.7443 102.787C14.7443 102.115 14.4744 101.59 13.9347 101.211C13.3949 100.832 12.6562 100.643 11.7188 100.643H8.05398V104.989ZM35.3196 118.256C33.0848 118.256 31.1624 117.783 29.5526 116.836C27.9522 115.879 26.7211 114.554 25.8594 112.858C25.0071 111.163 24.581 109.213 24.581 107.006C24.581 104.771 25.0118 102.811 25.8736 101.126C26.7448 99.4305 27.9806 98.1094 29.581 97.1625C31.1813 96.206 33.0848 95.7278 35.2912 95.7278C37.1946 95.7278 38.8613 96.0734 40.2912 96.7647C41.7211 97.456 42.8527 98.4267 43.6861 99.6767C44.5194 100.927 44.9787 102.394 45.0639 104.08H39.3537C39.1927 102.991 38.7666 102.115 38.0753 101.452C37.3935 100.78 36.4986 100.444 35.3906 100.444C34.4531 100.444 33.634 100.699 32.9332 101.211C32.242 101.713 31.7022 102.447 31.3139 103.412C30.9257 104.378 30.7315 105.548 30.7315 106.921C30.7315 108.313 30.9209 109.497 31.2997 110.472C31.688 111.448 32.2325 112.191 32.9332 112.702C33.634 113.214 34.4531 113.469 35.3906 113.469C36.0819 113.469 36.7022 113.327 37.2514 113.043C37.8101 112.759 38.2694 112.347 38.6293 111.807C38.9986 111.258 39.2401 110.6 39.3537 109.833H45.0639C44.9692 111.5 44.5147 112.967 43.7003 114.236C42.8954 115.496 41.7827 116.481 40.3622 117.191C38.9418 117.901 37.2609 118.256 35.3196 118.256ZM58.8814 118.256C56.6371 118.256 54.7053 117.802 53.0859 116.893C51.4761 115.974 50.2356 114.677 49.3643 113.001C48.4931 111.315 48.0575 109.322 48.0575 107.02C48.0575 104.776 48.4931 102.806 49.3643 101.111C50.2356 99.4163 51.4619 98.0952 53.0433 97.1483C54.6342 96.2013 56.4998 95.7278 58.6399 95.7278C60.0793 95.7278 61.4193 95.9598 62.6598 96.4238C63.9098 96.8784 64.9988 97.5649 65.9268 98.4835C66.8643 99.402 67.5935 100.557 68.1143 101.949C68.6352 103.332 68.8956 104.951 68.8956 106.807V108.469H50.4723V104.719H63.1996C63.1996 103.848 63.0102 103.076 62.6314 102.404C62.2526 101.732 61.727 101.206 61.0547 100.827C60.3918 100.439 59.62 100.245 58.7393 100.245C57.8208 100.245 57.0064 100.458 56.2962 100.884C55.5954 101.301 55.0462 101.864 54.6484 102.574C54.2507 103.275 54.0471 104.056 54.0376 104.918V108.483C54.0376 109.563 54.2365 110.496 54.6342 111.282C55.0414 112.068 55.6143 112.674 56.353 113.1C57.0916 113.526 57.9676 113.739 58.9808 113.739C59.6532 113.739 60.2687 113.644 60.8274 113.455C61.3861 113.266 61.8643 112.982 62.2621 112.603C62.6598 112.224 62.9628 111.76 63.1712 111.211L68.7678 111.58C68.4837 112.925 67.9013 114.099 67.0206 115.103C66.1494 116.097 65.0225 116.874 63.6399 117.432C62.2668 117.982 60.6806 118.256 58.8814 118.256ZM78.6257 109.847L86.4808 96.0119H92.4467V117.83H86.6797V103.952L78.853 117.83H72.8445V96.0119H78.6257V109.847ZM85.4439 88.3983H89.6626C89.6532 90.1217 89.014 91.5091 87.745 92.5602C86.4856 93.6113 84.781 94.1369 82.6314 94.1369C80.4723 94.1369 78.763 93.6113 77.5036 92.5602C76.2441 91.5091 75.6143 90.1217 75.6143 88.3983H79.8047C79.7952 89.0517 80.0036 89.6388 80.4297 90.1596C80.8653 90.6805 81.5992 90.9409 82.6314 90.9409C83.6352 90.9409 84.3549 90.6852 84.7905 90.1738C85.2261 89.6625 85.4439 89.0706 85.4439 88.3983ZM106.555 126.012V96.0119H112.521V99.6767H112.791C113.056 99.0895 113.44 98.493 113.942 97.8869C114.453 97.2714 115.116 96.76 115.93 96.3528C116.754 95.9361 117.777 95.7278 118.999 95.7278C120.589 95.7278 122.057 96.1445 123.402 96.9778C124.747 97.8017 125.821 99.0469 126.626 100.714C127.431 102.371 127.834 104.449 127.834 106.949C127.834 109.383 127.441 111.438 126.655 113.114C125.878 114.781 124.818 116.045 123.473 116.907C122.138 117.759 120.642 118.185 118.984 118.185C117.81 118.185 116.811 117.991 115.987 117.603C115.173 117.215 114.505 116.727 113.984 116.14C113.464 115.543 113.066 114.942 112.791 114.336H112.607V126.012H106.555ZM112.479 106.921C112.479 108.218 112.659 109.35 113.018 110.316C113.378 111.282 113.899 112.035 114.581 112.574C115.263 113.105 116.091 113.37 117.067 113.37C118.052 113.37 118.885 113.1 119.567 112.56C120.249 112.011 120.765 111.253 121.115 110.287C121.475 109.312 121.655 108.19 121.655 106.921C121.655 105.662 121.48 104.554 121.129 103.597C120.779 102.641 120.263 101.893 119.581 101.353C118.899 100.813 118.061 100.543 117.067 100.543C116.082 100.543 115.249 100.804 114.567 101.324C113.894 101.845 113.378 102.584 113.018 103.54C112.659 104.497 112.479 105.624 112.479 106.921ZM141.726 118.256C139.519 118.256 137.611 117.787 136.001 116.85C134.401 115.903 133.165 114.587 132.294 112.901C131.423 111.206 130.987 109.241 130.987 107.006C130.987 104.752 131.423 102.783 132.294 101.097C133.165 99.402 134.401 98.0858 136.001 97.1483C137.611 96.2013 139.519 95.7278 141.726 95.7278C143.932 95.7278 145.836 96.2013 147.436 97.1483C149.046 98.0858 150.286 99.402 151.158 101.097C152.029 102.783 152.464 104.752 152.464 107.006C152.464 109.241 152.029 111.206 151.158 112.901C150.286 114.587 149.046 115.903 147.436 116.85C145.836 117.787 143.932 118.256 141.726 118.256ZM141.754 113.569C142.758 113.569 143.596 113.285 144.268 112.716C144.941 112.139 145.447 111.353 145.788 110.358C146.139 109.364 146.314 108.233 146.314 106.964C146.314 105.695 146.139 104.563 145.788 103.569C145.447 102.574 144.941 101.788 144.268 101.211C143.596 100.633 142.758 100.344 141.754 100.344C140.741 100.344 139.889 100.633 139.197 101.211C138.516 101.788 138 102.574 137.649 103.569C137.308 104.563 137.138 105.695 137.138 106.964C137.138 108.233 137.308 109.364 137.649 110.358C138 111.353 138.516 112.139 139.197 112.716C139.889 113.285 140.741 113.569 141.754 113.569ZM155.121 117.83L155.092 113.029H155.817C156.328 113.029 156.768 112.906 157.138 112.66C157.517 112.404 157.829 111.992 158.075 111.424C158.321 110.856 158.516 110.103 158.658 109.165C158.8 108.218 158.894 107.054 158.942 105.671L159.297 96.0119H175.888V117.83H170.121V100.77H164.737L164.396 107.432C164.311 109.26 164.089 110.832 163.729 112.148C163.378 113.465 162.891 114.544 162.266 115.387C161.641 116.22 160.888 116.836 160.007 117.233C159.126 117.631 158.104 117.83 156.939 117.83H155.121ZM190.522 118.256C188.278 118.256 186.346 117.802 184.727 116.893C183.117 115.974 181.876 114.677 181.005 113.001C180.134 111.315 179.698 109.322 179.698 107.02C179.698 104.776 180.134 102.806 181.005 101.111C181.876 99.4163 183.103 98.0952 184.684 97.1483C186.275 96.2013 188.14 95.7278 190.281 95.7278C191.72 95.7278 193.06 95.9598 194.3 96.4238C195.55 96.8784 196.639 97.5649 197.567 98.4835C198.505 99.402 199.234 100.557 199.755 101.949C200.276 103.332 200.536 104.951 200.536 106.807V108.469H182.113V104.719H194.84C194.84 103.848 194.651 103.076 194.272 102.404C193.893 101.732 193.368 101.206 192.695 100.827C192.032 100.439 191.261 100.245 190.38 100.245C189.461 100.245 188.647 100.458 187.937 100.884C187.236 101.301 186.687 101.864 186.289 102.574C185.891 103.275 185.688 104.056 185.678 104.918V108.483C185.678 109.563 185.877 110.496 186.275 111.282C186.682 112.068 187.255 112.674 187.994 113.1C188.732 113.526 189.608 113.739 190.621 113.739C191.294 113.739 191.909 113.644 192.468 113.455C193.027 113.266 193.505 112.982 193.903 112.603C194.3 112.224 194.603 111.76 194.812 111.211L200.408 111.58C200.124 112.925 199.542 114.099 198.661 115.103C197.79 116.097 196.663 116.874 195.281 117.432C193.907 117.982 192.321 118.256 190.522 118.256ZM204.485 117.83V96.0119H213.789C216.478 96.0119 218.604 96.5233 220.167 97.546C221.729 98.5687 222.511 100.022 222.511 101.907C222.511 103.09 222.07 104.075 221.19 104.861C220.309 105.647 219.087 106.178 217.525 106.452C218.832 106.547 219.944 106.845 220.863 107.347C221.791 107.84 222.496 108.479 222.979 109.265C223.472 110.051 223.718 110.922 223.718 111.878C223.718 113.119 223.387 114.184 222.724 115.074C222.07 115.965 221.109 116.646 219.84 117.12C218.581 117.593 217.042 117.83 215.224 117.83H204.485ZM210.124 113.299H215.224C216.067 113.299 216.725 113.1 217.198 112.702C217.681 112.295 217.923 111.741 217.923 111.04C217.923 110.264 217.681 109.653 217.198 109.208C216.725 108.763 216.067 108.54 215.224 108.54H210.124V113.299ZM210.124 104.989H213.917C214.523 104.989 215.039 104.904 215.465 104.733C215.901 104.554 216.232 104.298 216.46 103.966C216.696 103.635 216.815 103.242 216.815 102.787C216.815 102.115 216.545 101.59 216.005 101.211C215.465 100.832 214.727 100.643 213.789 100.643H210.124V104.989ZM237.39 118.256C235.183 118.256 233.275 117.787 231.665 116.85C230.065 115.903 228.829 114.587 227.958 112.901C227.087 111.206 226.651 109.241 226.651 107.006C226.651 104.752 227.087 102.783 227.958 101.097C228.829 99.402 230.065 98.0858 231.665 97.1483C233.275 96.2013 235.183 95.7278 237.39 95.7278C239.596 95.7278 241.5 96.2013 243.1 97.1483C244.71 98.0858 245.951 99.402 246.822 101.097C247.693 102.783 248.129 104.752 248.129 107.006C248.129 109.241 247.693 111.206 246.822 112.901C245.951 114.587 244.71 115.903 243.1 116.85C241.5 117.787 239.596 118.256 237.39 118.256ZM237.418 113.569C238.422 113.569 239.26 113.285 239.933 112.716C240.605 112.139 241.112 111.353 241.452 110.358C241.803 109.364 241.978 108.233 241.978 106.964C241.978 105.695 241.803 104.563 241.452 103.569C241.112 102.574 240.605 101.788 239.933 101.211C239.26 100.633 238.422 100.344 237.418 100.344C236.405 100.344 235.553 100.633 234.862 101.211C234.18 101.788 233.664 102.574 233.313 103.569C232.972 104.563 232.802 105.695 232.802 106.964C232.802 108.233 232.972 109.364 233.313 110.358C233.664 111.353 234.18 112.139 234.862 112.716C235.553 113.285 236.405 113.569 237.418 113.569ZM257.844 109.847L265.7 96.0119H271.665V117.83H265.898V103.952L258.072 117.83H252.063V96.0119H257.844V109.847ZM264.663 88.3983H268.881C268.872 90.1217 268.233 91.5091 266.964 92.5602C265.704 93.6113 264 94.1369 261.85 94.1369C259.691 94.1369 257.982 93.6113 256.722 92.5602C255.463 91.5091 254.833 90.1217 254.833 88.3983H259.023C259.014 89.0517 259.222 89.6388 259.648 90.1596C260.084 90.6805 260.818 90.9409 261.85 90.9409C262.854 90.9409 263.574 90.6852 264.009 90.1738C264.445 89.6625 264.663 89.0706 264.663 88.3983ZM2.41477 161.83V140.012H8.46591V148.478H10.1705L16.108 140.012H23.2102L15.4972 150.836L23.2955 161.83H16.108L10.7244 154.089H8.46591V161.83H2.41477ZM29.9396 170.012C29.1726 170.012 28.4529 169.95 27.7805 169.827C27.1177 169.714 26.5684 169.567 26.1328 169.387L27.4964 164.87C28.2067 165.088 28.8459 165.206 29.4141 165.225C29.9917 165.244 30.4889 165.111 30.9055 164.827C31.3317 164.543 31.6773 164.06 31.9425 163.378L32.2976 162.455L24.4709 140.012H30.8345L35.3516 156.035H35.5788L40.1385 140.012H46.5447L38.0646 164.188C37.6574 165.362 37.1035 166.385 36.4027 167.256C35.7114 168.137 34.8355 168.814 33.7749 169.287C32.7143 169.77 31.4358 170.012 29.9396 170.012ZM46.6051 161.83L46.5767 157.029H47.3011C47.8125 157.029 48.2528 156.906 48.6222 156.66C49.0009 156.404 49.3134 155.992 49.5597 155.424C49.8059 154.856 50 154.103 50.142 153.165C50.2841 152.218 50.3788 151.054 50.4261 149.671L50.7812 140.012H67.3722V161.83H61.6051V144.77H56.2216L55.8807 151.432C55.7955 153.26 55.5729 154.832 55.2131 156.148C54.8627 157.465 54.375 158.544 53.75 159.387C53.125 160.22 52.3722 160.836 51.4915 161.233C50.6108 161.631 49.5881 161.83 48.4233 161.83H46.6051ZM75.8558 146.716H82.3757C85.264 146.716 87.5178 147.408 89.1371 148.79C90.7564 150.163 91.5661 152.001 91.5661 154.302C91.5661 155.798 91.2015 157.114 90.4723 158.251C89.7431 159.377 88.692 160.258 87.3189 160.893C85.9458 161.518 84.2981 161.83 82.3757 161.83H72.0632V140.012H77.8445V157.072H82.3757C83.389 157.072 84.2223 156.816 84.8757 156.305C85.5291 155.793 85.8606 155.14 85.87 154.344C85.8606 153.501 85.5291 152.815 84.8757 152.285C84.2223 151.745 83.389 151.475 82.3757 151.475H75.8558V146.716ZM92.1768 144.77V140.012H111.95V144.77H104.918V161.83H99.1513V144.77H92.1768ZM119.354 170.012C118.587 170.012 117.867 169.95 117.195 169.827C116.532 169.714 115.982 169.567 115.547 169.387L116.911 164.87C117.621 165.088 118.26 165.206 118.828 165.225C119.406 165.244 119.903 165.111 120.32 164.827C120.746 164.543 121.091 164.06 121.357 163.378L121.712 162.455L113.885 140.012H120.249L124.766 156.035H124.993L129.553 140.012H135.959L127.479 164.188C127.071 165.362 126.518 166.385 125.817 167.256C125.125 168.137 124.25 168.814 123.189 169.287C122.128 169.77 120.85 170.012 119.354 170.012ZM139.055 170.012V140.012H145.021V143.677H145.291C145.556 143.09 145.94 142.493 146.442 141.887C146.953 141.271 147.616 140.76 148.43 140.353C149.254 139.936 150.277 139.728 151.499 139.728C153.089 139.728 154.557 140.144 155.902 140.978C157.247 141.802 158.321 143.047 159.126 144.714C159.931 146.371 160.334 148.449 160.334 150.949C160.334 153.383 159.941 155.438 159.155 157.114C158.378 158.781 157.318 160.045 155.973 160.907C154.638 161.759 153.142 162.185 151.484 162.185C150.31 162.185 149.311 161.991 148.487 161.603C147.673 161.215 147.005 160.727 146.484 160.14C145.964 159.543 145.566 158.942 145.291 158.336H145.107V170.012H139.055ZM144.979 150.921C144.979 152.218 145.159 153.35 145.518 154.316C145.878 155.282 146.399 156.035 147.081 156.574C147.763 157.105 148.591 157.37 149.567 157.37C150.552 157.37 151.385 157.1 152.067 156.56C152.749 156.011 153.265 155.253 153.615 154.287C153.975 153.312 154.155 152.19 154.155 150.921C154.155 149.662 153.98 148.554 153.629 147.597C153.279 146.641 152.763 145.893 152.081 145.353C151.399 144.813 150.561 144.543 149.567 144.543C148.582 144.543 147.749 144.804 147.067 145.324C146.394 145.845 145.878 146.584 145.518 147.54C145.159 148.497 144.979 149.624 144.979 150.921ZM168.161 146.716H174.68C177.569 146.716 179.822 147.408 181.442 148.79C183.061 150.163 183.871 152.001 183.871 154.302C183.871 155.798 183.506 157.114 182.777 158.251C182.048 159.377 180.997 160.258 179.624 160.893C178.25 161.518 176.603 161.83 174.68 161.83H164.368V140.012H170.149V157.072H174.68C175.694 157.072 176.527 156.816 177.18 156.305C177.834 155.793 178.165 155.14 178.175 154.344C178.165 153.501 177.834 152.815 177.18 152.285C176.527 151.745 175.694 151.475 174.68 151.475H168.161V146.716ZM186.214 161.83V140.012H192.266V161.83H186.214ZM200.639 162.199C199.702 162.199 198.897 161.868 198.224 161.205C197.562 160.533 197.23 159.728 197.23 158.79C197.23 157.862 197.562 157.067 198.224 156.404C198.897 155.741 199.702 155.41 200.639 155.41C201.548 155.41 202.344 155.741 203.026 156.404C203.707 157.067 204.048 157.862 204.048 158.79C204.048 159.415 203.887 159.988 203.565 160.509C203.253 161.02 202.841 161.432 202.33 161.745C201.818 162.048 201.255 162.199 200.639 162.199Z" fill="#FAF8F3"/>
</svg>
