<svg width="323" height="256" viewBox="0 0 323 256" fill="none" xmlns="http://www.w3.org/2000/svg">
<path d="M12.13 29.4746H1.81747V0.383699H12.2152C15.1413 0.383699 17.6603 0.966086 19.772 2.13086C21.8838 3.28616 23.5078 4.94809 24.6442 7.11665C25.79 9.28522 26.3629 11.8799 26.3629 14.9007C26.3629 17.931 25.79 20.5352 24.6442 22.7132C23.5078 24.8913 21.8743 26.5627 19.7436 27.7275C17.6224 28.8922 15.0845 29.4746 12.13 29.4746ZM7.96804 24.2047H11.8743C13.6925 24.2047 15.2218 23.8828 16.4624 23.2388C17.7124 22.5854 18.6499 21.5769 19.2749 20.2132C19.9093 18.8401 20.2266 17.0693 20.2266 14.9007C20.2266 12.7511 19.9093 10.9945 19.2749 9.63086C18.6499 8.26722 17.7171 7.26343 16.4766 6.61949C15.236 5.97556 13.7067 5.65359 11.8885 5.65359H7.96804V24.2047ZM39.7259 29.9007C37.7183 29.9007 35.9853 29.5409 34.527 28.8212C33.0687 28.1015 31.9465 27.1261 31.1605 25.8951C30.384 24.6545 29.9957 23.272 29.9957 21.7473C29.9957 20.611 30.223 19.6024 30.6776 18.7218C31.1321 17.8411 31.7666 17.0314 32.581 16.2928C33.3954 15.5447 34.3423 14.8013 35.4219 14.0627L41.0611 10.3553C41.7902 9.89128 42.3253 9.40359 42.6662 8.89222C43.0071 8.37139 43.1776 7.80794 43.1776 7.20188C43.1776 6.62423 42.9455 6.08919 42.4815 5.59677C42.0175 5.10434 41.3594 4.86287 40.5071 4.87234C39.9389 4.87234 39.4465 5.00018 39.0298 5.25586C38.6132 5.50207 38.2865 5.82878 38.0497 6.23597C37.8224 6.6337 37.7088 7.07878 37.7088 7.5712C37.7088 8.17726 37.8793 8.79279 38.2202 9.41779C38.5611 10.0428 39.0156 10.7057 39.5838 11.4064C40.152 12.0977 40.7723 12.8458 41.4446 13.6507L55.2372 29.4746H48.9304L37.4247 16.6621C36.6671 15.8004 35.9096 14.9007 35.152 13.9632C34.4039 13.0163 33.7789 12.0125 33.277 10.9519C32.7751 9.88181 32.5241 8.72177 32.5241 7.47177C32.5241 6.06078 32.8509 4.79184 33.5043 3.66495C34.1671 2.53806 35.0952 1.6479 36.2884 0.994494C37.4815 0.331616 38.8736 0.000176907 40.4645 0.000176907C42.0175 0.000176907 43.3575 0.317412 44.4844 0.951882C45.6207 1.57688 46.492 2.41022 47.098 3.45188C47.7135 4.48408 48.0213 5.62044 48.0213 6.86097C48.0213 8.23408 47.6804 9.47934 46.9986 10.5968C46.3262 11.7047 45.3793 12.699 44.1577 13.5797L38.2202 17.8553C37.4152 18.4424 36.8187 19.0437 36.4304 19.6593C36.0516 20.2653 35.8622 20.8477 35.8622 21.4064C35.8622 22.0977 36.0327 22.718 36.3736 23.2672C36.7145 23.8165 37.1974 24.2521 37.8224 24.574C38.4474 24.8865 39.1813 25.0428 40.0241 25.0428C41.0469 25.0428 42.0554 24.8108 43.0497 24.3468C44.0535 23.8733 44.9626 23.2057 45.777 22.3439C46.6009 21.4727 47.259 20.4405 47.7514 19.2473C48.2438 18.0542 48.4901 16.7331 48.4901 15.2843H53.5043C53.5043 17.0646 53.3101 18.6697 52.9219 20.0996C52.5336 21.5201 51.9938 22.7606 51.3026 23.8212C50.6113 24.8723 49.8205 25.7341 48.9304 26.4064C48.6463 26.5864 48.3717 26.7568 48.1065 26.9178C47.8414 27.0788 47.5668 27.2492 47.2827 27.4292C46.2031 28.3004 44.9957 28.9301 43.6605 29.3184C42.3348 29.7066 41.0232 29.9007 39.7259 29.9007ZM68.1847 29.4746H57.8722V0.383699H68.2699C71.196 0.383699 73.715 0.966086 75.8267 2.13086C77.9384 3.28616 79.5625 4.94809 80.6989 7.11665C81.8447 9.28522 82.4176 11.8799 82.4176 14.9007C82.4176 17.931 81.8447 20.5352 80.6989 22.7132C79.5625 24.8913 77.929 26.5627 75.7983 27.7275C73.6771 28.8922 71.1392 29.4746 68.1847 29.4746ZM64.0227 24.2047H67.929C69.7472 24.2047 71.2765 23.8828 72.517 23.2388C73.767 22.5854 74.7045 21.5769 75.3295 20.2132C75.964 18.8401 76.2812 17.0693 76.2812 14.9007C76.2812 12.7511 75.964 10.9945 75.3295 9.63086C74.7045 8.26722 73.7718 7.26343 72.5312 6.61949C71.2907 5.97556 69.7614 5.65359 67.9432 5.65359H64.0227V24.2047ZM96.1179 29.4746V7.65643H115.195V29.4746H109.413V12.4149H101.828V29.4746H96.1179ZM129.882 29.9007C127.676 29.9007 125.768 29.432 124.158 28.4945C122.557 27.5475 121.321 26.2312 120.45 24.5456C119.579 22.8506 119.143 20.8856 119.143 18.6507C119.143 16.397 119.579 14.4273 120.45 12.7417C121.321 11.0466 122.557 9.73029 124.158 8.79279C125.768 7.84582 127.676 7.37234 129.882 7.37234C132.089 7.37234 133.992 7.84582 135.592 8.79279C137.202 9.73029 138.443 11.0466 139.314 12.7417C140.185 14.4273 140.621 16.397 140.621 18.6507C140.621 20.8856 140.185 22.8506 139.314 24.5456C138.443 26.2312 137.202 27.5475 135.592 28.4945C133.992 29.432 132.089 29.9007 129.882 29.9007ZM129.911 25.2132C130.914 25.2132 131.752 24.9292 132.425 24.361C133.097 23.7833 133.604 22.9973 133.945 22.003C134.295 21.0087 134.47 19.8771 134.47 18.6081C134.47 17.3392 134.295 16.2076 133.945 15.2132C133.604 14.2189 133.097 13.4329 132.425 12.8553C131.752 12.2776 130.914 11.9888 129.911 11.9888C128.897 11.9888 128.045 12.2776 127.354 12.8553C126.672 13.4329 126.156 14.2189 125.805 15.2132C125.464 16.2076 125.294 17.3392 125.294 18.6081C125.294 19.8771 125.464 21.0087 125.805 22.003C126.156 22.9973 126.672 23.7833 127.354 24.361C128.045 24.9292 128.897 25.2132 129.911 25.2132ZM144.555 37.6564V7.65643H150.521V11.3212H150.791C151.056 10.7341 151.44 10.1375 151.942 9.53143C152.453 8.9159 153.116 8.40453 153.93 7.99734C154.754 7.58067 155.777 7.37234 156.999 7.37234C158.589 7.37234 160.057 7.789 161.402 8.62234C162.747 9.4462 163.821 10.6915 164.626 12.3581C165.431 14.0153 165.834 16.0939 165.834 18.5939C165.834 21.0276 165.441 23.0826 164.655 24.7587C163.878 26.4254 162.818 27.6896 161.473 28.5513C160.138 29.4036 158.642 29.8297 156.984 29.8297C155.81 29.8297 154.811 29.6356 153.987 29.2473C153.173 28.8591 152.505 28.3714 151.984 27.7843C151.464 27.1877 151.066 26.5864 150.791 25.9803H150.607V37.6564H144.555ZM150.479 18.5655C150.479 19.8629 150.659 20.9945 151.018 21.9604C151.378 22.9263 151.899 23.6792 152.581 24.2189C153.263 24.7492 154.091 25.0144 155.067 25.0144C156.052 25.0144 156.885 24.7445 157.567 24.2047C158.249 23.6555 158.765 22.8979 159.115 21.932C159.475 20.9566 159.655 19.8345 159.655 18.5655C159.655 17.306 159.48 16.1981 159.129 15.2417C158.779 14.2852 158.263 13.5371 157.581 12.9973C156.899 12.4576 156.061 12.1877 155.067 12.1877C154.082 12.1877 153.249 12.4481 152.567 12.9689C151.894 13.4898 151.378 14.2284 151.018 15.1848C150.659 16.1413 150.479 17.2682 150.479 18.5655ZM179.726 29.9007C177.519 29.9007 175.611 29.432 174.001 28.4945C172.401 27.5475 171.165 26.2312 170.294 24.5456C169.423 22.8506 168.987 20.8856 168.987 18.6507C168.987 16.397 169.423 14.4273 170.294 12.7417C171.165 11.0466 172.401 9.73029 174.001 8.79279C175.611 7.84582 177.519 7.37234 179.726 7.37234C181.932 7.37234 183.836 7.84582 185.436 8.79279C187.046 9.73029 188.286 11.0466 189.158 12.7417C190.029 14.4273 190.464 16.397 190.464 18.6507C190.464 20.8856 190.029 22.8506 189.158 24.5456C188.286 26.2312 187.046 27.5475 185.436 28.4945C183.836 29.432 181.932 29.9007 179.726 29.9007ZM179.754 25.2132C180.758 25.2132 181.596 24.9292 182.268 24.361C182.941 23.7833 183.447 22.9973 183.788 22.003C184.139 21.0087 184.314 19.8771 184.314 18.6081C184.314 17.3392 184.139 16.2076 183.788 15.2132C183.447 14.2189 182.941 13.4329 182.268 12.8553C181.596 12.2776 180.758 11.9888 179.754 11.9888C178.741 11.9888 177.889 12.2776 177.197 12.8553C176.516 13.4329 176 14.2189 175.649 15.2132C175.308 16.2076 175.138 17.3392 175.138 18.6081C175.138 19.8771 175.308 21.0087 175.649 22.003C176 22.9973 176.516 23.7833 177.197 24.361C177.889 24.9292 178.741 25.2132 179.754 25.2132ZM192.695 35.8667V24.6735H194.371C194.854 24.3704 195.242 23.8875 195.536 23.2246C195.839 22.5617 196.085 21.7805 196.274 20.8809C196.473 19.9812 196.625 19.0106 196.729 17.9689C196.842 16.9178 196.942 15.8572 197.027 14.7871L197.595 7.65643H214.328V24.6735H217.709V35.8667H211.942V29.4746H198.604V35.8667H192.695ZM200.393 24.6735H208.618V12.3155H202.737L202.51 14.7871C202.349 17.1167 202.117 19.0958 201.814 20.7246C201.511 22.3439 201.037 23.6602 200.393 24.6735ZM227.016 21.4917L234.871 7.65643H240.837V29.4746H235.07V15.5968L227.244 29.4746H221.235V7.65643H227.016V21.4917ZM244.41 29.4746L244.381 24.6735H245.106C245.617 24.6735 246.058 24.5504 246.427 24.3042C246.806 24.0485 247.118 23.6365 247.364 23.0684C247.611 22.5002 247.805 21.7473 247.947 20.8098C248.089 19.8629 248.183 18.6981 248.231 17.3155L248.586 7.65643H265.177V29.4746H259.41V12.4149H254.026L253.685 19.0769C253.6 20.9045 253.378 22.4765 253.018 23.7928C252.667 25.1091 252.18 26.1886 251.555 27.0314C250.93 27.8648 250.177 28.4803 249.296 28.878C248.415 29.2757 247.393 29.4746 246.228 29.4746H244.41ZM20.7805 51.6564V69.2985H24.2607V80.4917H18.38V73.4746H1.70384V51.6564H7.48509V68.7161H15.0703V51.6564H20.7805ZM37.7017 73.9007C35.4574 73.9007 33.5256 73.4462 31.9062 72.5371C30.2964 71.6185 29.0559 70.3212 28.1847 68.6451C27.3134 66.9595 26.8778 64.9661 26.8778 62.6649C26.8778 60.4206 27.3134 58.4509 28.1847 56.7559C29.0559 55.0608 30.2822 53.7398 31.8636 52.7928C33.4545 51.8458 35.3201 51.3723 37.4602 51.3723C38.8996 51.3723 40.2396 51.6043 41.4801 52.0684C42.7301 52.5229 43.8191 53.2095 44.7472 54.128C45.6847 55.0466 46.4138 56.2019 46.9347 57.5939C47.4555 58.9765 47.7159 60.5958 47.7159 62.4519V64.1138H29.2926V60.3638H42.0199C42.0199 59.4926 41.8305 58.7208 41.4517 58.0485C41.0729 57.3761 40.5473 56.8506 39.875 56.4718C39.2121 56.0835 38.4403 55.8894 37.5597 55.8894C36.6411 55.8894 35.8267 56.1024 35.1165 56.5286C34.4157 56.9453 33.8665 57.5087 33.4688 58.2189C33.071 58.9197 32.8674 59.7009 32.858 60.5627V64.128C32.858 65.2076 33.0568 66.1403 33.4545 66.9263C33.8617 67.7123 34.4347 68.3184 35.1733 68.7445C35.9119 69.1706 36.7879 69.3837 37.8011 69.3837C38.4735 69.3837 39.089 69.289 39.6477 69.0996C40.2064 68.9102 40.6847 68.6261 41.0824 68.2473C41.4801 67.8685 41.7831 67.4045 41.9915 66.8553L47.5881 67.2246C47.304 68.5693 46.7216 69.7435 45.8409 70.7473C44.9697 71.7417 43.8428 72.5182 42.4602 73.0769C41.0871 73.6261 39.5009 73.9007 37.7017 73.9007ZM50.3864 73.4746L50.358 68.6735H51.0824C51.5938 68.6735 52.0341 68.5504 52.4034 68.3042C52.7822 68.0485 53.0947 67.6365 53.3409 67.0684C53.5871 66.5002 53.7813 65.7473 53.9233 64.8098C54.0653 63.8629 54.16 62.6981 54.2074 61.3155L54.5625 51.6564H71.1534V73.4746H65.3864V56.4149H60.0028L59.6619 63.0769C59.5767 64.9045 59.3542 66.4765 58.9943 67.7928C58.6439 69.1091 58.1562 70.1886 57.5312 71.0314C56.9062 71.8648 56.1534 72.4803 55.2727 72.878C54.392 73.2757 53.3693 73.4746 52.2045 73.4746H50.3864ZM78.799 81.6564C78.032 81.6564 77.3123 81.5949 76.6399 81.4718C75.977 81.3581 75.4278 81.2114 74.9922 81.0314L76.3558 76.5144C77.0661 76.7322 77.7053 76.8506 78.2734 76.8695C78.8511 76.8884 79.3482 76.7559 79.7649 76.4718C80.1911 76.1877 80.5367 75.7047 80.8018 75.0229L81.157 74.0996L73.3303 51.6564H79.6939L84.2109 67.6792H84.4382L88.9979 51.6564H95.4041L86.924 75.8326C86.5168 77.0068 85.9628 78.0295 85.2621 78.9007C84.5708 79.7814 83.6948 80.4585 82.6342 80.932C81.5736 81.415 80.2952 81.6564 78.799 81.6564ZM110.56 60.2786V65.0797H98.728V60.2786H110.56ZM103.401 51.6564V73.4746H97.3643V51.6564H103.401ZM117.094 73.9007C114.935 73.9007 113.07 73.4178 111.498 72.4519C109.926 71.486 108.714 70.1507 107.862 68.4462C107.019 66.7417 106.597 64.7862 106.597 62.5797C106.597 60.3733 107.019 58.4273 107.862 56.7417C108.714 55.056 109.926 53.7398 111.498 52.7928C113.07 51.8458 114.935 51.3723 117.094 51.3723C119.263 51.3723 121.129 51.8458 122.691 52.7928C124.263 53.7398 125.47 55.056 126.313 56.7417C127.165 58.4273 127.592 60.3733 127.592 62.5797C127.592 64.7862 127.165 66.7417 126.313 68.4462C125.47 70.1507 124.263 71.486 122.691 72.4519C121.129 73.4178 119.263 73.9007 117.094 73.9007ZM117.094 69.0144C118.221 69.0144 119.13 68.7398 119.822 68.1905C120.513 67.6318 121.02 66.8695 121.342 65.9036C121.664 64.9282 121.825 63.8203 121.825 62.5797C121.825 61.3392 121.664 60.2407 121.342 59.2843C121.02 58.3184 120.513 57.5608 119.822 57.0115C119.13 56.4623 118.221 56.1877 117.094 56.1877C115.977 56.1877 115.068 56.4623 114.367 57.0115C113.666 57.5513 113.15 58.2994 112.819 59.2559C112.497 60.2123 112.336 61.3203 112.336 62.5797C112.336 63.8297 112.497 64.9377 112.819 65.9036C113.15 66.8695 113.666 67.6318 114.367 68.1905C115.068 68.7398 115.977 69.0144 117.094 69.0144ZM140.962 73.4746V51.6564H147.013V60.1223H148.717L154.655 51.6564H161.757L154.044 62.4803L161.842 73.4746H154.655L149.271 65.7331H147.013V73.4746H140.962ZM168.487 81.6564C167.719 81.6564 167 81.5949 166.327 81.4718C165.665 81.3581 165.115 81.2114 164.68 81.0314L166.043 76.5144C166.754 76.7322 167.393 76.8506 167.961 76.8695C168.539 76.8884 169.036 76.7559 169.452 76.4718C169.879 76.1877 170.224 75.7047 170.489 75.0229L170.844 74.0996L163.018 51.6564H169.381L173.898 67.6792H174.126L178.685 51.6564H185.092L176.612 75.8326C176.204 77.0068 175.65 78.0295 174.95 78.9007C174.258 79.7814 173.382 80.4585 172.322 80.932C171.261 81.415 169.983 81.6564 168.487 81.6564ZM185.152 73.4746L185.124 68.6735H185.848C186.359 68.6735 186.8 68.5504 187.169 68.3042C187.548 68.0485 187.86 67.6365 188.107 67.0684C188.353 66.5002 188.547 65.7473 188.689 64.8098C188.831 63.8629 188.926 62.6981 188.973 61.3155L189.328 51.6564H205.919V73.4746H200.152V56.4149H194.768L194.428 63.0769C194.342 64.9045 194.12 66.4765 193.76 67.7928C193.41 69.1091 192.922 70.1886 192.297 71.0314C191.672 71.8648 190.919 72.4803 190.038 72.878C189.158 73.2757 188.135 73.4746 186.97 73.4746H185.152ZM214.403 58.361H220.923C223.811 58.361 226.065 59.0523 227.684 60.4348C229.303 61.8079 230.113 63.6451 230.113 65.9462C230.113 67.4424 229.748 68.7587 229.019 69.8951C228.29 71.022 227.239 71.9026 225.866 72.5371C224.493 73.1621 222.845 73.4746 220.923 73.4746H210.61V51.6564H216.391V68.7161H220.923C221.936 68.7161 222.769 68.4604 223.423 67.949C224.076 67.4377 224.407 66.7843 224.417 65.9888C224.407 65.146 224.076 64.4595 223.423 63.9292C222.769 63.3894 221.936 63.1195 220.923 63.1195H214.403V58.361ZM230.724 56.4149V51.6564H250.496V56.4149H243.465V73.4746H237.698V56.4149H230.724ZM257.901 81.6564C257.134 81.6564 256.414 81.5949 255.741 81.4718C255.079 81.3581 254.529 81.2114 254.094 81.0314L255.457 76.5144C256.168 76.7322 256.807 76.8506 257.375 76.8695C257.953 76.8884 258.45 76.7559 258.866 76.4718C259.293 76.1877 259.638 75.7047 259.903 75.0229L260.259 74.0996L252.432 51.6564H258.795L263.312 67.6792H263.54L268.099 51.6564H274.506L266.026 75.8326C265.618 77.0068 265.064 78.0295 264.364 78.9007C263.672 79.7814 262.796 80.4585 261.736 80.932C260.675 81.415 259.397 81.6564 257.901 81.6564ZM277.602 81.6564V51.6564H283.568V55.3212H283.838C284.103 54.7341 284.487 54.1375 284.989 53.5314C285.5 52.9159 286.163 52.4045 286.977 51.9973C287.801 51.5807 288.824 51.3723 290.045 51.3723C291.636 51.3723 293.104 51.789 294.449 52.6223C295.794 53.4462 296.868 54.6915 297.673 56.3581C298.478 58.0153 298.881 60.0939 298.881 62.5939C298.881 65.0276 298.488 67.0826 297.702 68.7587C296.925 70.4254 295.865 71.6896 294.52 72.5513C293.185 73.4036 291.688 73.8297 290.031 73.8297C288.857 73.8297 287.858 73.6356 287.034 73.2473C286.22 72.8591 285.552 72.3714 285.031 71.7843C284.51 71.1877 284.113 70.5864 283.838 69.9803H283.653V81.6564H277.602ZM283.526 62.5655C283.526 63.8629 283.705 64.9945 284.065 65.9604C284.425 66.9263 284.946 67.6792 285.628 68.2189C286.31 68.7492 287.138 69.0144 288.114 69.0144C289.098 69.0144 289.932 68.7445 290.614 68.2047C291.295 67.6555 291.812 66.8979 292.162 65.932C292.522 64.9566 292.702 63.8345 292.702 62.5655C292.702 61.306 292.527 60.1981 292.176 59.2417C291.826 58.2852 291.31 57.5371 290.628 56.9973C289.946 56.4576 289.108 56.1877 288.114 56.1877C287.129 56.1877 286.295 56.4481 285.614 56.9689C284.941 57.4898 284.425 58.2284 284.065 59.1848C283.705 60.1413 283.526 61.2682 283.526 62.5655ZM305.947 81.6564C305.18 81.6564 304.461 81.5949 303.788 81.4718C303.125 81.3581 302.576 81.2114 302.141 81.0314L303.504 76.5144C304.214 76.7322 304.854 76.8506 305.422 76.8695C306 76.8884 306.497 76.7559 306.913 76.4718C307.339 76.1877 307.685 75.7047 307.95 75.0229L308.305 74.0996L300.479 51.6564H306.842L311.359 67.6792H311.587L316.146 51.6564H322.553L314.072 75.8326C313.665 77.0068 313.111 78.0295 312.411 78.9007C311.719 79.7814 310.843 80.4585 309.783 80.932C308.722 81.415 307.444 81.6564 305.947 81.6564ZM1.70384 125.656V95.6564H7.66974V99.3212H7.93963C8.20478 98.7341 8.58831 98.1375 9.0902 97.5314C9.60156 96.9159 10.2644 96.4045 11.0788 95.9973C11.9027 95.5807 12.9254 95.3723 14.147 95.3723C15.7379 95.3723 17.2057 95.789 18.5504 96.6223C19.8951 97.4462 20.9699 98.6915 21.7749 100.358C22.5798 102.015 22.9822 104.094 22.9822 106.594C22.9822 109.028 22.5893 111.083 21.8033 112.759C21.0268 114.425 19.9661 115.69 18.6214 116.551C17.2862 117.404 15.79 117.83 14.1328 117.83C12.9586 117.83 11.9595 117.636 11.1357 117.247C10.3213 116.859 9.65365 116.371 9.13281 115.784C8.61198 115.188 8.21425 114.586 7.93963 113.98H7.75497V125.656H1.70384ZM7.62713 106.566C7.62713 107.863 7.80706 108.994 8.1669 109.96C8.52675 110.926 9.04759 111.679 9.7294 112.219C10.4112 112.749 11.2398 113.014 12.2152 113.014C13.2 113.014 14.0334 112.744 14.7152 112.205C15.397 111.655 15.9131 110.898 16.2635 109.932C16.6233 108.957 16.8033 107.834 16.8033 106.566C16.8033 105.306 16.6281 104.198 16.2777 103.242C15.9273 102.285 15.4112 101.537 14.7294 100.997C14.0476 100.458 13.2095 100.188 12.2152 100.188C11.2304 100.188 10.397 100.448 9.7152 100.969C9.04285 101.49 8.52675 102.228 8.1669 103.185C7.80706 104.141 7.62713 105.268 7.62713 106.566ZM36.8743 117.901C34.6679 117.901 32.7597 117.432 31.1499 116.494C29.5495 115.548 28.3137 114.231 27.4425 112.546C26.5713 110.851 26.1357 108.886 26.1357 106.651C26.1357 104.397 26.5713 102.427 27.4425 100.742C28.3137 99.0466 29.5495 97.7303 31.1499 96.7928C32.7597 95.8458 34.6679 95.3723 36.8743 95.3723C39.0807 95.3723 40.9841 95.8458 42.5845 96.7928C44.1944 97.7303 45.4349 99.0466 46.3061 100.742C47.1773 102.427 47.6129 104.397 47.6129 106.651C47.6129 108.886 47.1773 110.851 46.3061 112.546C45.4349 114.231 44.1944 115.548 42.5845 116.494C40.9841 117.432 39.0807 117.901 36.8743 117.901ZM36.9027 113.213C37.9065 113.213 38.7446 112.929 39.4169 112.361C40.0893 111.783 40.5959 110.997 40.9368 110.003C41.2872 109.009 41.4624 107.877 41.4624 106.608C41.4624 105.339 41.2872 104.208 40.9368 103.213C40.5959 102.219 40.0893 101.433 39.4169 100.855C38.7446 100.278 37.9065 99.9888 36.9027 99.9888C35.8894 99.9888 35.0372 100.278 34.3459 100.855C33.6641 101.433 33.148 102.219 32.7976 103.213C32.4567 104.208 32.2862 105.339 32.2862 106.608C32.2862 107.877 32.4567 109.009 32.7976 110.003C33.148 110.997 33.6641 111.783 34.3459 112.361C35.0372 112.929 35.8894 113.213 36.9027 113.213ZM50.2692 117.475L50.2408 112.673H50.9652C51.4766 112.673 51.9169 112.55 52.2862 112.304C52.665 112.048 52.9775 111.637 53.2237 111.068C53.4699 110.5 53.6641 109.747 53.8061 108.81C53.9482 107.863 54.0429 106.698 54.0902 105.316L54.4453 95.6564H71.0362V117.475H65.2692V100.415H59.8857L59.5447 107.077C59.4595 108.905 59.237 110.477 58.8771 111.793C58.5268 113.109 58.0391 114.189 57.4141 115.031C56.7891 115.865 56.0362 116.48 55.1555 116.878C54.2749 117.276 53.2521 117.475 52.0874 117.475H50.2692ZM85.6705 117.901C83.4261 117.901 81.4943 117.446 79.875 116.537C78.2652 115.619 77.0246 114.321 76.1534 112.645C75.2822 110.959 74.8466 108.966 74.8466 106.665C74.8466 104.421 75.2822 102.451 76.1534 100.756C77.0246 99.0608 78.2509 97.7398 79.8324 96.7928C81.4233 95.8458 83.2888 95.3723 85.429 95.3723C86.8684 95.3723 88.2083 95.6043 89.4489 96.0684C90.6989 96.5229 91.7879 97.2095 92.7159 98.128C93.6534 99.0466 94.3826 100.202 94.9034 101.594C95.4242 102.977 95.6847 104.596 95.6847 106.452V108.114H77.2614V104.364H89.9886C89.9886 103.493 89.7992 102.721 89.4205 102.048C89.0417 101.376 88.5161 100.851 87.8438 100.472C87.1809 100.084 86.4091 99.8894 85.5284 99.8894C84.6098 99.8894 83.7955 100.102 83.0852 100.529C82.3845 100.945 81.8352 101.509 81.4375 102.219C81.0398 102.92 80.8362 103.701 80.8267 104.563V108.128C80.8267 109.208 81.0256 110.14 81.4233 110.926C81.8305 111.712 82.4034 112.318 83.142 112.744C83.8807 113.171 84.7566 113.384 85.7699 113.384C86.4422 113.384 87.0578 113.289 87.6165 113.1C88.1752 112.91 88.6534 112.626 89.0511 112.247C89.4489 111.869 89.7519 111.405 89.9602 110.855L95.5568 111.225C95.2727 112.569 94.6903 113.744 93.8097 114.747C92.9384 115.742 91.8116 116.518 90.429 117.077C89.0559 117.626 87.4697 117.901 85.6705 117.901ZM99.6335 117.475V95.6564H108.938C111.627 95.6564 113.753 96.1678 115.315 97.1905C116.878 98.2132 117.659 99.6668 117.659 101.551C117.659 102.735 117.219 103.72 116.338 104.506C115.457 105.292 114.236 105.822 112.673 106.097C113.98 106.191 115.093 106.49 116.011 106.992C116.939 107.484 117.645 108.123 118.128 108.909C118.62 109.695 118.866 110.566 118.866 111.523C118.866 112.763 118.535 113.829 117.872 114.719C117.219 115.609 116.258 116.291 114.989 116.764C113.729 117.238 112.19 117.475 110.372 117.475H99.6335ZM105.273 112.943H110.372C111.215 112.943 111.873 112.744 112.347 112.347C112.83 111.94 113.071 111.386 113.071 110.685C113.071 109.908 112.83 109.298 112.347 108.852C111.873 108.407 111.215 108.185 110.372 108.185H105.273V112.943ZM105.273 104.634H109.065C109.671 104.634 110.188 104.548 110.614 104.378C111.049 104.198 111.381 103.942 111.608 103.611C111.845 103.28 111.963 102.887 111.963 102.432C111.963 101.76 111.693 101.234 111.153 100.855C110.614 100.477 109.875 100.287 108.938 100.287H105.273V104.634ZM126.473 102.361H132.993C135.881 102.361 138.135 103.052 139.754 104.435C141.374 105.808 142.183 107.645 142.183 109.946C142.183 111.442 141.819 112.759 141.089 113.895C140.36 115.022 139.309 115.903 137.936 116.537C136.563 117.162 134.915 117.475 132.993 117.475H122.68V95.6564H128.462V112.716H132.993C134.006 112.716 134.839 112.46 135.493 111.949C136.146 111.438 136.478 110.784 136.487 109.989C136.478 109.146 136.146 108.459 135.493 107.929C134.839 107.389 134.006 107.119 132.993 107.119H126.473V102.361ZM144.527 117.475V95.6564H150.578V117.475H144.527ZM160.472 95.6564L164.477 103.284L168.582 95.6564H174.79L168.469 106.566L174.96 117.475H168.781L164.477 109.932L160.244 117.475H153.994L160.472 106.566L154.222 95.6564H160.472ZM193.423 109.492L201.278 95.6564H207.244V117.475H201.477V103.597L193.65 117.475H187.641V95.6564H193.423V109.492ZM227.038 95.6564V100.415H217.975V117.475H212.094V95.6564H227.038ZM230.727 125.656V95.6564H236.693V99.3212H236.963C237.228 98.7341 237.612 98.1375 238.114 97.5314C238.625 96.9159 239.288 96.4045 240.102 95.9973C240.926 95.5807 241.949 95.3723 243.17 95.3723C244.761 95.3723 246.229 95.789 247.574 96.6223C248.919 97.4462 249.993 98.6915 250.798 100.358C251.603 102.015 252.006 104.094 252.006 106.594C252.006 109.028 251.613 111.083 250.827 112.759C250.05 114.425 248.99 115.69 247.645 116.551C246.31 117.404 244.813 117.83 243.156 117.83C241.982 117.83 240.983 117.636 240.159 117.247C239.345 116.859 238.677 116.371 238.156 115.784C237.635 115.188 237.238 114.586 236.963 113.98H236.778V125.656H230.727ZM236.651 106.566C236.651 107.863 236.83 108.994 237.19 109.96C237.55 110.926 238.071 111.679 238.753 112.219C239.435 112.749 240.263 113.014 241.239 113.014C242.223 113.014 243.057 112.744 243.739 112.205C244.42 111.655 244.937 110.898 245.287 109.932C245.647 108.957 245.827 107.834 245.827 106.566C245.827 105.306 245.652 104.198 245.301 103.242C244.951 102.285 244.435 101.537 243.753 100.997C243.071 100.458 242.233 100.188 241.239 100.188C240.254 100.188 239.42 100.448 238.739 100.969C238.066 101.49 237.55 102.228 237.19 103.185C236.83 104.141 236.651 105.268 236.651 106.566ZM262.616 113.497L262.46 115.06C262.337 116.31 262.1 117.555 261.75 118.796C261.409 120.046 261.049 121.177 260.67 122.191C260.301 123.204 260.003 123.999 259.776 124.577H255.855C255.997 124.018 256.191 123.237 256.438 122.233C256.684 121.239 256.916 120.121 257.134 118.881C257.351 117.64 257.489 116.376 257.545 115.088L257.616 113.497H262.616ZM12.1442 168.889V132.384H18.1811V168.889H12.1442ZM12.1442 161.901C10.468 161.901 8.93868 161.631 7.55611 161.091C6.17353 160.542 4.98035 159.77 3.97656 158.776C2.97277 157.772 2.19626 156.584 1.64702 155.21C1.09777 153.828 0.823153 152.308 0.823153 150.651C0.823153 148.975 1.09777 147.45 1.64702 146.077C2.19626 144.694 2.97277 143.506 3.97656 142.512C4.98035 141.508 6.17353 140.736 7.55611 140.196C8.93868 139.647 10.468 139.372 12.1442 139.372H13.2663V161.901H12.1442ZM12.1442 157.185H12.8118V144.088H12.1442C11.3298 144.088 10.6054 144.259 9.97088 144.6C9.33641 144.941 8.80137 145.409 8.36577 146.006C7.93016 146.593 7.59872 147.284 7.37145 148.08C7.15365 148.875 7.04474 149.732 7.04474 150.651C7.04474 151.863 7.24361 152.966 7.64134 153.96C8.03906 154.945 8.62145 155.731 9.38849 156.318C10.1555 156.896 11.0741 157.185 12.1442 157.185ZM18.1811 161.901H17.0589V139.372H18.1811C19.8572 139.372 21.3866 139.647 22.7692 140.196C24.1518 140.736 25.3449 141.508 26.3487 142.512C27.3525 143.506 28.129 144.694 28.6783 146.077C29.2275 147.45 29.5021 148.975 29.5021 150.651C29.5021 152.308 29.2275 153.828 28.6783 155.21C28.129 156.584 27.3525 157.772 26.3487 158.776C25.3449 159.77 24.1518 160.542 22.7692 161.091C21.3866 161.631 19.8572 161.901 18.1811 161.901ZM18.1811 157.185C18.9955 157.185 19.7199 157.019 20.3544 156.688C20.9889 156.347 21.5239 155.878 21.9595 155.281C22.3951 154.685 22.7266 153.994 22.9538 153.208C23.1811 152.412 23.2947 151.56 23.2947 150.651C23.2947 149.429 23.0911 148.326 22.6839 147.341C22.2862 146.347 21.7086 145.556 20.951 144.969C20.1934 144.382 19.2701 144.088 18.1811 144.088H17.5135V157.185H18.1811ZM41.5298 144.173C40.848 144.173 40.242 144.306 39.7116 144.571C39.1813 144.836 38.7647 145.206 38.4616 145.679C38.1681 146.143 38.0213 146.692 38.0213 147.327H32.581C32.581 146.143 32.8082 145.064 33.2628 144.088C33.7173 143.103 34.3518 142.256 35.1662 141.546C35.9806 140.826 36.9276 140.272 38.0071 139.884C39.0961 139.495 40.2704 139.301 41.5298 139.301C43.7268 139.301 45.5734 139.794 47.0696 140.779C48.5753 141.754 49.7116 143.075 50.4787 144.742C51.2552 146.399 51.6435 148.26 51.6435 150.324V150.85C51.6435 152.923 51.2599 154.794 50.4929 156.46C49.7259 158.127 48.5895 159.448 47.0838 160.423C45.5876 161.389 43.7363 161.872 41.5298 161.872C39.7685 161.872 38.2154 161.527 36.8707 160.835C35.526 160.135 34.4749 159.145 33.7173 157.867C32.9598 156.579 32.581 155.049 32.581 153.279H38.0213C38.0213 153.951 38.1634 154.566 38.4474 155.125C38.7315 155.684 39.134 156.129 39.6548 156.46C40.1851 156.792 40.8101 156.962 41.5298 156.972C42.6567 156.962 43.5327 156.645 44.1577 156.02C44.7921 155.395 45.2325 154.614 45.4787 153.676C45.7344 152.729 45.8622 151.787 45.8622 150.85V150.324C45.8622 149.292 45.7296 148.307 45.4645 147.369C45.2088 146.432 44.7637 145.665 44.1293 145.068C43.5043 144.472 42.6378 144.173 41.5298 144.173ZM47.6094 148.776V152.355H39.8963V148.776H47.6094ZM70.7947 148.151V152.909H59.4027V148.151H70.7947ZM61.3913 139.656V161.475H55.6101V139.656H61.3913ZM74.5874 139.656V161.475H68.8487V139.656H74.5874ZM77.0909 144.415V139.656H96.8636V144.415H89.8324V161.475H84.0653V144.415H77.0909ZM109.694 161.901C107.45 161.901 105.518 161.446 103.898 160.537C102.289 159.619 101.048 158.321 100.177 156.645C99.3056 154.959 98.87 152.966 98.87 150.665C98.87 148.421 99.3056 146.451 100.177 144.756C101.048 143.061 102.274 141.74 103.856 140.793C105.447 139.846 107.312 139.372 109.452 139.372C110.892 139.372 112.232 139.604 113.472 140.068C114.722 140.523 115.811 141.209 116.739 142.128C117.677 143.047 118.406 144.202 118.927 145.594C119.448 146.977 119.708 148.596 119.708 150.452V152.114H101.285V148.364H114.012C114.012 147.493 113.823 146.721 113.444 146.048C113.065 145.376 112.54 144.851 111.867 144.472C111.204 144.084 110.433 143.889 109.552 143.889C108.633 143.889 107.819 144.102 107.109 144.529C106.408 144.945 105.859 145.509 105.461 146.219C105.063 146.92 104.86 147.701 104.85 148.563V152.128C104.85 153.208 105.049 154.14 105.447 154.926C105.854 155.712 106.427 156.318 107.165 156.744C107.904 157.171 108.78 157.384 109.793 157.384C110.466 157.384 111.081 157.289 111.64 157.1C112.199 156.91 112.677 156.626 113.075 156.247C113.472 155.869 113.775 155.405 113.984 154.855L119.58 155.225C119.296 156.569 118.714 157.744 117.833 158.747C116.962 159.742 115.835 160.518 114.452 161.077C113.079 161.626 111.493 161.901 109.694 161.901ZM122.535 155.296H128.401C128.43 156.015 128.752 156.584 129.367 157C129.983 157.417 130.778 157.625 131.754 157.625C132.738 157.625 133.567 157.398 134.239 156.943C134.912 156.479 135.248 155.816 135.248 154.955C135.248 154.424 135.115 153.965 134.85 153.577C134.585 153.179 134.216 152.867 133.742 152.639C133.269 152.412 132.719 152.298 132.094 152.298H128.955V148.335H132.094C133.032 148.335 133.752 148.118 134.254 147.682C134.765 147.246 135.021 146.702 135.021 146.048C135.021 145.31 134.755 144.718 134.225 144.273C133.704 143.818 132.999 143.591 132.109 143.591C131.209 143.591 130.461 143.795 129.864 144.202C129.277 144.6 128.974 145.12 128.955 145.764H123.117C123.136 144.458 123.529 143.326 124.296 142.369C125.073 141.413 126.114 140.674 127.421 140.154C128.737 139.633 130.21 139.372 131.839 139.372C133.619 139.372 135.153 139.623 136.441 140.125C137.738 140.618 138.733 141.323 139.424 142.242C140.125 143.16 140.475 144.254 140.475 145.523C140.475 146.678 140.096 147.644 139.339 148.421C138.581 149.197 137.521 149.751 136.157 150.083V150.31C137.057 150.367 137.871 150.608 138.6 151.034C139.329 151.46 139.912 152.048 140.347 152.796C140.783 153.534 141.001 154.41 141.001 155.423C141.001 156.778 140.603 157.938 139.808 158.904C139.022 159.869 137.933 160.613 136.54 161.134C135.158 161.645 133.572 161.901 131.782 161.901C130.04 161.901 128.477 161.65 127.094 161.148C125.721 160.637 124.628 159.888 123.813 158.904C123.008 157.919 122.582 156.716 122.535 155.296ZM150.493 153.492L158.348 139.656H164.314V161.475H158.547V147.597L150.72 161.475H144.712V139.656H150.493V153.492ZM7.48509 197.492L15.3402 183.656H21.3061V205.475H15.5391V191.597L7.71236 205.475H1.70384V183.656H7.48509V197.492ZM33.9943 205.475L41.6222 194.125L34.0369 183.656H40.9403L46.608 192.193H47.5455V183.656H53.5966V192.193H54.5057L60.1733 183.656H67.0767L59.5057 194.125L67.1193 205.475H60.0597L54.4489 196.952H53.5966V205.475H47.5455V196.952H46.6932L41.054 205.475H33.9943ZM76.3132 197.492L84.1683 183.656H90.1342V205.475H84.3672V191.597L76.5405 205.475H70.532V183.656H76.3132V197.492ZM94.9851 205.475V183.656H104.289C106.978 183.656 109.104 184.168 110.667 185.191C112.229 186.213 113.011 187.667 113.011 189.551C113.011 190.735 112.57 191.72 111.69 192.506C110.809 193.292 109.587 193.822 108.025 194.097C109.332 194.191 110.444 194.49 111.363 194.992C112.291 195.484 112.996 196.123 113.479 196.909C113.972 197.695 114.218 198.566 114.218 199.523C114.218 200.763 113.887 201.829 113.224 202.719C112.57 203.609 111.609 204.291 110.34 204.764C109.081 205.238 107.542 205.475 105.724 205.475H94.9851ZM100.624 200.943H105.724C106.567 200.943 107.225 200.744 107.698 200.347C108.181 199.94 108.423 199.386 108.423 198.685C108.423 197.908 108.181 197.298 107.698 196.852C107.225 196.407 106.567 196.185 105.724 196.185H100.624V200.943ZM100.624 192.634H104.417C105.023 192.634 105.539 192.548 105.965 192.378C106.401 192.198 106.732 191.942 106.96 191.611C107.196 191.28 107.315 190.887 107.315 190.432C107.315 189.76 107.045 189.234 106.505 188.855C105.965 188.477 105.227 188.287 104.289 188.287H100.624V192.634ZM121.825 190.361H128.344C131.233 190.361 133.487 191.052 135.106 192.435C136.725 193.808 137.535 195.645 137.535 197.946C137.535 199.442 137.17 200.759 136.441 201.895C135.712 203.022 134.661 203.903 133.288 204.537C131.915 205.162 130.267 205.475 128.344 205.475H118.032V183.656H123.813V200.716H128.344C129.358 200.716 130.191 200.46 130.844 199.949C131.498 199.438 131.829 198.784 131.839 197.989C131.829 197.146 131.498 196.459 130.844 195.929C130.191 195.389 129.358 195.119 128.344 195.119H121.825V190.361ZM139.879 205.475V183.656H145.93V205.475H139.879ZM155.823 183.656L159.829 191.284L163.934 183.656H170.141L163.82 194.566L170.312 205.475H164.133L159.829 197.932L155.596 205.475H149.346L155.823 194.566L149.573 183.656H155.823ZM-0.000710234 255.867V244.673H1.67543C2.15838 244.37 2.54664 243.887 2.8402 243.225C3.14323 242.562 3.38944 241.78 3.57884 240.881C3.7777 239.981 3.92921 239.011 4.03338 237.969C4.14702 236.918 4.24645 235.857 4.33168 234.787L4.89986 227.656H21.6328V244.673H25.0135V255.867H19.2464V249.475H5.90838V255.867H-0.000710234ZM7.69815 244.673H15.9226V232.316H10.0419L9.81463 234.787C9.65365 237.117 9.42164 239.096 9.11861 240.725C8.81558 242.344 8.34209 243.66 7.69815 244.673ZM38.483 249.901C36.2386 249.901 34.3068 249.446 32.6875 248.537C31.0777 247.619 29.8371 246.321 28.9659 244.645C28.0947 242.959 27.6591 240.966 27.6591 238.665C27.6591 236.421 28.0947 234.451 28.9659 232.756C29.8371 231.061 31.0634 229.74 32.6449 228.793C34.2358 227.846 36.1013 227.372 38.2415 227.372C39.6809 227.372 41.0208 227.604 42.2614 228.068C43.5114 228.523 44.6004 229.209 45.5284 230.128C46.4659 231.047 47.1951 232.202 47.7159 233.594C48.2367 234.977 48.4972 236.596 48.4972 238.452V240.114H30.0739V236.364H42.8011C42.8011 235.493 42.6117 234.721 42.233 234.048C41.8542 233.376 41.3286 232.851 40.6562 232.472C39.9934 232.084 39.2216 231.889 38.3409 231.889C37.4223 231.889 36.608 232.102 35.8977 232.529C35.197 232.945 34.6477 233.509 34.25 234.219C33.8523 234.92 33.6487 235.701 33.6392 236.563V240.128C33.6392 241.208 33.8381 242.14 34.2358 242.926C34.643 243.712 35.2159 244.318 35.9545 244.744C36.6932 245.171 37.5691 245.384 38.5824 245.384C39.2547 245.384 39.8703 245.289 40.429 245.1C40.9877 244.91 41.4659 244.626 41.8636 244.247C42.2614 243.869 42.5644 243.405 42.7727 242.855L48.3693 243.225C48.0852 244.569 47.5028 245.744 46.6222 246.747C45.7509 247.742 44.6241 248.518 43.2415 249.077C41.8684 249.626 40.2822 249.901 38.483 249.901ZM58.2273 241.492L66.0824 227.656H72.0483V249.475H66.2812V235.597L58.4545 249.475H52.446V227.656H58.2273V241.492ZM65.0455 220.043H69.2642C69.2547 221.766 68.6155 223.154 67.3466 224.205C66.0871 225.256 64.3826 225.781 62.233 225.781C60.0739 225.781 58.3646 225.256 57.1051 224.205C55.8456 223.154 55.2159 221.766 55.2159 220.043H59.4062C59.3968 220.696 59.6051 221.283 60.0312 221.804C60.4669 222.325 61.2008 222.585 62.233 222.585C63.2367 222.585 63.9564 222.33 64.392 221.818C64.8277 221.307 65.0455 220.715 65.0455 220.043ZM86.7571 249.901C84.5223 249.901 82.5999 249.427 80.9901 248.48C79.3897 247.524 78.1586 246.198 77.2969 244.503C76.4446 242.808 76.0185 240.857 76.0185 238.651C76.0185 236.416 76.4493 234.456 77.3111 232.77C78.1823 231.075 79.4181 229.754 81.0185 228.807C82.6188 227.851 84.5223 227.372 86.7287 227.372C88.6321 227.372 90.2988 227.718 91.7287 228.409C93.1586 229.101 94.2902 230.071 95.1236 231.321C95.9569 232.571 96.4162 234.039 96.5014 235.725H90.7912C90.6302 234.636 90.2041 233.76 89.5128 233.097C88.831 232.424 87.9361 232.088 86.8281 232.088C85.8906 232.088 85.0715 232.344 84.3707 232.855C83.6795 233.357 83.1397 234.091 82.7514 235.057C82.3632 236.023 82.169 237.192 82.169 238.566C82.169 239.958 82.3584 241.141 82.7372 242.117C83.1255 243.092 83.67 243.835 84.3707 244.347C85.0715 244.858 85.8906 245.114 86.8281 245.114C87.5194 245.114 88.1397 244.972 88.6889 244.688C89.2476 244.404 89.7069 243.992 90.0668 243.452C90.4361 242.903 90.6776 242.244 90.7912 241.477H96.5014C96.4067 243.144 95.9522 244.612 95.1378 245.881C94.3329 247.14 93.2202 248.125 91.7997 248.835C90.3793 249.546 88.6984 249.901 86.7571 249.901ZM98.8878 232.415V227.656H118.661V232.415H111.629V249.475H105.862V232.415H98.8878ZM122.329 249.475V227.656H131.633C134.322 227.656 136.448 228.168 138.011 229.191C139.573 230.213 140.354 231.667 140.354 233.551C140.354 234.735 139.914 235.72 139.033 236.506C138.153 237.292 136.931 237.822 135.369 238.097C136.675 238.191 137.788 238.49 138.707 238.992C139.635 239.484 140.34 240.123 140.823 240.909C141.316 241.695 141.562 242.566 141.562 243.523C141.562 244.763 141.23 245.829 140.567 246.719C139.914 247.609 138.953 248.291 137.684 248.764C136.424 249.238 134.886 249.475 133.067 249.475H122.329ZM127.968 244.943H133.067C133.91 244.943 134.568 244.744 135.042 244.347C135.525 243.94 135.766 243.386 135.766 242.685C135.766 241.908 135.525 241.298 135.042 240.852C134.568 240.407 133.91 240.185 133.067 240.185H127.968V244.943ZM127.968 236.634H131.761C132.367 236.634 132.883 236.548 133.309 236.378C133.745 236.198 134.076 235.942 134.303 235.611C134.54 235.28 134.658 234.887 134.658 234.432C134.658 233.76 134.388 233.234 133.849 232.855C133.309 232.477 132.57 232.287 131.633 232.287H127.968V236.634ZM151.157 241.492L159.012 227.656H164.978V249.475H159.211V235.597L151.384 249.475H145.376V227.656H151.157V241.492ZM175.61 241.492L183.465 227.656H189.431V249.475H183.664V235.597L175.837 249.475H169.829V227.656H175.61V241.492ZM182.428 220.043H186.647C186.638 221.766 185.998 223.154 184.729 224.205C183.47 225.256 181.765 225.781 179.616 225.781C177.457 225.781 175.747 225.256 174.488 224.205C173.228 223.154 172.599 221.766 172.599 220.043H176.789C176.78 220.696 176.988 221.283 177.414 221.804C177.85 222.325 178.584 222.585 179.616 222.585C180.62 222.585 181.339 222.33 181.775 221.818C182.21 221.307 182.428 220.715 182.428 220.043ZM197.819 249.844C196.881 249.844 196.076 249.512 195.404 248.85C194.741 248.177 194.41 247.372 194.41 246.435C194.41 245.507 194.741 244.711 195.404 244.048C196.076 243.386 196.881 243.054 197.819 243.054C198.728 243.054 199.523 243.386 200.205 244.048C200.887 244.711 201.228 245.507 201.228 246.435C201.228 247.06 201.067 247.633 200.745 248.154C200.433 248.665 200.021 249.077 199.509 249.389C198.998 249.692 198.434 249.844 197.819 249.844Z" fill="#B8860B"/>
</svg>
