<svg width="155" height="405" viewBox="0 0 155 405" fill="none" xmlns="http://www.w3.org/2000/svg">
<path d="M67.4492 127.401L49.312 120.8C38.9672 113.061 38.2377 110.9 51.9669 113.505C66.4942 121.734 75.1574 123.615 89.838 121.708C88.143 118.164 88.3844 116.715 92.0624 115.596C93.9842 95.0006 100.473 80.0737 113.429 52.5996C116.805 53.5642 124.999 23.2278 114.371 18.114C103.742 13.0003 110.251 8.57734 117.241 10.2283C124.231 11.8793 128.055 8.92361 135.903 0.0529419C137.843 -0.194832 138.778 0.445154 140.437 1.7033C140.499 15.4255 145.988 19.5751 150.361 22.283C154.734 24.991 157.39 36.4501 147.491 30.1688C137.592 23.8874 122.411 51.5952 124.863 56.7614C119.702 83.3798 115.792 97.6385 104.088 119.973C105.489 123.253 104.696 124.472 101.47 125.941C111.645 136.536 120.243 139.753 136.739 144.36C152.004 152.743 149.119 153.206 134.658 150.077L118.528 145.322C92.5375 143.846 95.3575 152.315 108.841 171.937C41.5979 335.274 14.1359 397.455 1.33529 404.738C-6.40207 392.192 20.37 295.939 57.9776 153.424C83.5522 145.373 83.3102 139.451 67.4492 127.401Z" fill="#FAF8F3"/>
</svg>
