<svg width="285" height="508" viewBox="0 0 285 508" fill="none" xmlns="http://www.w3.org/2000/svg">
<path d="M192.165 105.662L215.361 39.9844L224.95 43.4742L201.128 108.925L68.3045 475.799L58.3706 487.527L59.1331 472.461L192.165 105.662Z" fill="#B8860B"/>
<rect x="146.955" y="62.5352" width="122" height="3.99272" transform="rotate(20 146.955 62.5352)" fill="#B8860B"/>
<ellipse cx="223.136" cy="32.8987" rx="11.3127" ry="12.6436" transform="rotate(20 223.136 32.8987)" fill="#B8860B"/>
<path d="M182.613 96.3459C184.21 97.9823 186.24 99.3274 188.541 100.165C195.333 102.637 206.447 109.987 216.681 107.81C217.754 107.582 218.779 107.24 219.75 106.803M182.613 96.3459C179.494 93.1509 178.025 88.8453 179.41 85.039C179.616 84.475 179.904 83.8649 180.265 83.2254M182.613 96.3459C185.304 96.4681 187.412 96.1473 190.842 97.6976M219.75 106.803C228.039 103.067 232.335 92.3382 228.096 85.5271C225.853 81.9242 219.532 78.6704 213.318 76.1568M219.75 106.803C218.227 106.544 216.797 106.278 215.438 106.001M208.498 29.7669C200.451 33.3091 194.409 38.6634 190.268 45.0848M190.842 97.6976C200.441 101.782 206.358 104.147 215.438 106.001M190.842 97.6976C181.288 80.6149 180.663 59.9791 190.268 45.0848M190.842 97.6976C196.177 97.1356 201.138 90.7112 208.44 81.9139M213.318 76.1568C212.749 91.6852 212.614 99.8685 215.438 106.001M213.318 76.1568C210.856 75.161 208.411 74.2813 206.244 73.5422M213.318 76.1568C211.575 78.1573 209.957 80.0868 208.44 81.9139M206.244 73.5422C202.834 72.3795 200.11 71.5644 199.086 71.1915C192.959 68.9617 183.581 77.3381 180.265 83.2254M206.244 73.5422C195.615 74.9206 189.882 76.9567 180.265 83.2254M190.268 45.0848C185.774 59.7369 189.98 69.0749 208.44 81.9139" stroke="#B8860B" stroke-width="3"/>
<path d="M207.684 28.7138C208.154 28.274 208.911 28.3865 209.233 28.944L209.592 29.5662C209.958 30.2001 209.542 30.9994 208.813 31.0625L207.325 31.1912C206.957 31.223 206.608 31.0203 206.454 30.6846C206.297 30.3422 206.376 29.9373 206.651 29.6798L207.684 28.7138Z" fill="#B8860B"/>
</svg>
