<svg width="404" height="410" viewBox="0 0 404 410" fill="none" xmlns="http://www.w3.org/2000/svg">
<path d="M350.926 335.111L347.454 348.495L152.624 404.935L4.42309 268.59L51.9921 62.5465C52.1613 62.2144 65.8177 57.9998 85.9144 51.9698C115.823 42.9958 159.997 30.0009 195.206 19.7992C226.766 10.655 251.124 3.7549 251.552 4.00618L398.919 150.088L391.109 180.199L362.035 292.284L350.926 335.111Z" fill="#F6B901"/>
<path d="M51.9921 62.5465C58.4553 72.2631 66.2387 83.9647 73.5224 94.9149C73.786 95.3112 74.049 95.7066 74.3112 96.1008C75.1061 97.2959 75.8942 98.4808 76.6732 99.6518C88.0226 116.714 97.4158 130.836 97.4158 130.836M51.9921 62.5465C52.1613 62.2144 65.8177 57.9998 85.9144 51.9698C115.823 42.9958 159.997 30.0009 195.206 19.7992C226.766 10.655 251.124 3.7549 251.552 4.00618M51.9921 62.5465L4.42309 268.59M347.454 348.495C348.81 343.268 350.926 335.111 350.926 335.111C350.926 335.111 355.429 317.749 362.035 292.284C370.06 261.346 381.187 218.449 391.109 180.199C393.833 169.697 396.466 159.545 398.919 150.088M347.454 348.495L303.354 176.608M347.454 348.495L157.635 328.076M347.454 348.495L152.624 404.935M152.624 404.935C153.505 391.418 154.212 380.575 154.901 369.998C154.993 368.598 155.084 367.202 155.175 365.806C155.22 365.107 155.266 364.409 155.311 363.709C155.364 362.896 155.418 362.081 155.471 361.264C156.125 351.234 156.802 340.849 157.635 328.076M152.624 404.935L4.42309 268.59M4.42309 268.59C14.5113 253.646 26.1707 236.375 37.7499 219.222C38.3778 218.292 39.0055 217.362 39.6327 216.433C51.1915 199.31 62.5807 182.439 72.1518 168.261C86.9596 146.325 97.4158 130.836 97.4158 130.836M4.42309 268.59L157.635 328.076M398.919 150.088C391.923 152.029 384.19 154.175 376.245 156.38C372.495 157.421 368.699 158.474 364.909 159.526C358.236 161.378 351.586 163.223 345.258 164.979C337.071 167.251 329.423 169.374 322.959 171.167C311.192 174.433 303.354 176.608 303.354 176.608M398.919 150.088L251.552 4.00618M251.552 4.00618C255.316 16.5496 259.474 30.4018 263.747 44.6412C273.469 77.0324 283.792 111.428 291.461 136.98M251.552 4.00618C241.822 12.0127 231.209 20.7448 220.255 29.7588C215.922 33.3238 211.536 36.9329 207.13 40.5587C180.077 62.819 152.262 85.7061 131.408 102.866C130.148 103.903 128.913 104.919 127.706 105.912C109.468 120.919 97.4158 130.836 97.4158 130.836M157.635 328.076C152.398 310.925 146.509 294.205 140.516 274.576C130.051 240.299 119.272 202.423 111.111 175.693C102.956 148.983 97.4158 130.836 97.4158 130.836M157.635 328.076L303.354 176.608M303.354 176.608L263.952 167.85L138.126 139.884L97.4158 130.836M303.354 176.608C303.354 176.608 298.537 160.558 291.461 136.98M291.461 136.98C291.629 137.492 291.792 137.997 291.951 138.495" stroke="#2C3E50" stroke-width="8"/>
</svg>
