<svg width="420" height="314" viewBox="0 0 420 314" fill="none" xmlns="http://www.w3.org/2000/svg">
<path d="M14.8629 36.1055H2.23011V0.469104H14.9673C18.5518 0.469104 21.6375 1.18253 24.2244 2.60938C26.8113 4.02462 28.8008 6.06049 30.1928 8.71697C31.5965 11.3735 32.2983 14.552 32.2983 18.2525C32.2983 21.9646 31.5965 25.1547 30.1928 27.8228C28.8008 30.4909 26.7997 32.5384 24.1896 33.9652C21.5911 35.392 18.4822 36.1055 14.8629 36.1055ZM9.76456 29.6499H14.5497C16.777 29.6499 18.6505 29.2554 20.1701 28.4666C21.7014 27.6662 22.8498 26.4308 23.6154 24.7603C24.3926 23.0782 24.7812 20.909 24.7812 18.2525C24.7812 15.6192 24.3926 13.4673 23.6154 11.7969C22.8498 10.1264 21.7072 8.89678 20.1875 8.10795C18.6679 7.31913 16.7944 6.92472 14.5671 6.92472H9.76456V29.6499ZM48.6679 36.6275C46.2086 36.6275 44.0857 36.1867 42.2993 35.305C40.5128 34.4234 39.1382 33.2286 38.1753 31.7205C37.2241 30.2009 36.7485 28.5072 36.7485 26.6396C36.7485 25.2475 37.0269 24.0121 37.5837 22.9332C38.1405 21.8544 38.9178 20.8626 39.9154 19.9577C40.913 19.0413 42.0731 18.1307 43.3955 17.2259L50.3035 12.6843C51.1968 12.1159 51.8522 11.5185 52.2698 10.892C52.6874 10.254 52.8962 9.5638 52.8962 8.82138C52.8962 8.11375 52.612 7.45833 52.0436 6.85511C51.4752 6.25189 50.6689 5.95608 49.6249 5.96768C48.9289 5.96768 48.3257 6.12429 47.8153 6.4375C47.3048 6.73911 46.9046 7.13932 46.6146 7.63814C46.3362 8.12536 46.197 8.67057 46.197 9.27379C46.197 10.0162 46.4058 10.7702 46.8234 11.5359C47.241 12.3015 47.7979 13.1135 48.4939 13.9719C49.1899 14.8188 49.9497 15.7352 50.7733 16.7212L67.6693 36.1055H59.9434L45.849 20.4102C44.921 19.3545 43.9929 18.2525 43.0649 17.104C42.1485 15.944 41.3828 14.7144 40.768 13.4151C40.1532 12.1043 39.8458 10.6832 39.8458 9.15199C39.8458 7.42353 40.246 5.86908 41.0464 4.48864C41.8585 3.10819 42.9953 2.01776 44.4569 1.21733C45.9186 0.405302 47.6238 -0.000711024 49.5727 -0.000711024C51.4752 -0.000711024 53.1166 0.387902 54.4971 1.16513C55.8891 1.93075 56.9564 2.95159 57.6988 4.22763C58.4528 5.49207 58.8298 6.88411 58.8298 8.40376C58.8298 10.0858 58.4122 11.6113 57.577 12.9801C56.7533 14.3374 55.5933 15.5554 54.0969 16.6342L46.8234 21.8718C45.8374 22.591 45.1066 23.3277 44.6309 24.0817C44.1669 24.8241 43.9349 25.5375 43.9349 26.2219C43.9349 27.0688 44.1437 27.8286 44.5613 28.5014C44.979 29.1742 45.5706 29.7079 46.3362 30.1023C47.1018 30.4851 48.0009 30.6765 49.0333 30.6765C50.2861 30.6765 51.5216 30.3923 52.7396 29.8239C53.9693 29.2438 55.0829 28.426 56.0805 27.3704C57.0898 26.3031 57.896 25.0387 58.4992 23.5771C59.1024 22.1154 59.404 20.4972 59.404 18.7223H65.5464C65.5464 20.9032 65.3086 22.8694 64.833 24.6211C64.3574 26.3612 63.6962 27.8808 62.8493 29.18C62.0025 30.4677 61.0339 31.5233 59.9434 32.3469C59.5954 32.5674 59.259 32.7762 58.9342 32.9734C58.6094 33.1706 58.273 33.3794 57.925 33.5998C56.6025 34.667 55.1235 35.4384 53.4878 35.9141C51.8638 36.3897 50.2571 36.6275 48.6679 36.6275ZM83.5299 36.1055H70.8971V0.469104H83.6343C87.2188 0.469104 90.3045 1.18253 92.8914 2.60938C95.4783 4.02462 97.4678 6.06049 98.8598 8.71697C100.263 11.3735 100.965 14.552 100.965 18.2525C100.965 21.9646 100.263 25.1547 98.8598 27.8228C97.4678 30.4909 95.4667 32.5384 92.8566 33.9652C90.2581 35.392 87.1492 36.1055 83.5299 36.1055ZM78.4316 29.6499H83.2167C85.444 29.6499 87.3174 29.2554 88.8371 28.4666C90.3683 27.6662 91.5168 26.4308 92.2824 24.7603C93.0596 23.0782 93.4482 20.909 93.4482 18.2525C93.4482 15.6192 93.0596 13.4673 92.2824 11.7969C91.5168 10.1264 90.3741 8.89678 88.8545 8.10795C87.3348 7.31913 85.4614 6.92472 83.2341 6.92472H78.4316V29.6499ZM117.748 36.1055V9.3782H129.146C132.44 9.3782 135.044 10.0046 136.958 11.2575C138.872 12.5103 139.829 14.291 139.829 16.5994C139.829 18.0495 139.29 19.2559 138.211 20.2188C137.132 21.1816 135.636 21.8312 133.722 22.1676C135.323 22.2836 136.686 22.649 137.811 23.2638C138.948 23.8671 139.812 24.6501 140.404 25.6129C141.007 26.5758 141.309 27.643 141.309 28.8146C141.309 30.3343 140.902 31.6393 140.09 32.7298C139.29 33.8202 138.113 34.6554 136.558 35.2354C135.015 35.8155 133.13 36.1055 130.903 36.1055H117.748ZM124.656 30.5547H130.903C131.935 30.5547 132.742 30.3111 133.322 29.8239C133.913 29.325 134.209 28.6464 134.209 27.788C134.209 26.8368 133.913 26.0885 133.322 25.5433C132.742 24.9981 131.935 24.7255 130.903 24.7255H124.656V30.5547ZM124.656 20.3754H129.302C130.045 20.3754 130.677 20.271 131.199 20.0621C131.732 19.8417 132.138 19.5285 132.417 19.1225C132.707 18.7165 132.852 18.2351 132.852 17.6783C132.852 16.8546 132.521 16.2108 131.86 15.7468C131.199 15.2828 130.294 15.0508 129.146 15.0508H124.656V20.3754ZM145.981 36.1055V9.3782H157.378C160.672 9.3782 163.277 10.0046 165.191 11.2575C167.105 12.5103 168.062 14.291 168.062 16.5994C168.062 18.0495 167.522 19.2559 166.444 20.2188C165.365 21.1816 163.868 21.8312 161.954 22.1676C163.555 22.2836 164.918 22.649 166.043 23.2638C167.18 23.8671 168.044 24.6501 168.636 25.6129C169.239 26.5758 169.541 27.643 169.541 28.8146C169.541 30.3343 169.135 31.6393 168.323 32.7298C167.522 33.8202 166.345 34.6554 164.791 35.2354C163.248 35.8155 161.363 36.1055 159.135 36.1055H145.981ZM152.889 30.5547H159.135C160.168 30.5547 160.974 30.3111 161.554 29.8239C162.146 29.325 162.441 28.6464 162.441 27.788C162.441 26.8368 162.146 26.0885 161.554 25.5433C160.974 24.9981 160.168 24.7255 159.135 24.7255H152.889V30.5547ZM152.889 20.3754H157.535C158.277 20.3754 158.909 20.271 159.431 20.0621C159.965 19.8417 160.371 19.5285 160.649 19.1225C160.939 18.7165 161.084 18.2351 161.084 17.6783C161.084 16.8546 160.754 16.2108 160.092 15.7468C159.431 15.2828 158.526 15.0508 157.378 15.0508H152.889V20.3754ZM186.393 36.6275C183.644 36.6275 181.278 36.0707 179.294 34.957C177.322 33.8318 175.802 32.2425 174.735 30.1893C173.668 28.1244 173.134 25.6825 173.134 22.8636C173.134 20.1143 173.668 17.7015 174.735 15.625C175.802 13.5485 177.304 11.9303 179.242 10.7702C181.191 9.6102 183.476 9.03018 186.098 9.03018C187.861 9.03018 189.502 9.31439 191.022 9.88281C192.553 10.4396 193.887 11.2807 195.024 12.4059C196.172 13.5311 197.066 14.9464 197.704 16.6516C198.342 18.3453 198.661 20.329 198.661 22.6026V24.6385H176.092V20.0447H191.683C191.683 18.9775 191.451 18.0321 190.987 17.2085C190.523 16.3848 189.879 15.741 189.056 15.277C188.244 14.8014 187.298 14.5636 186.219 14.5636C185.094 14.5636 184.097 14.8246 183.226 15.3466C182.368 15.857 181.695 16.5472 181.208 17.4173C180.721 18.2757 180.471 19.2327 180.46 20.2884V24.6559C180.46 25.9783 180.703 27.121 181.191 28.0838C181.689 29.0466 182.391 29.7891 183.296 30.3111C184.201 30.8331 185.274 31.0941 186.515 31.0941C187.339 31.0941 188.093 30.9781 188.777 30.7461C189.462 30.5141 190.047 30.1661 190.535 29.7021C191.022 29.238 191.393 28.6696 191.648 27.9968L198.504 28.4492C198.156 30.0965 197.443 31.5349 196.364 32.7646C195.297 33.9826 193.916 34.9338 192.223 35.6183C190.541 36.2911 188.597 36.6275 186.393 36.6275ZM201.932 36.1055L201.897 30.2241H202.785C203.411 30.2241 203.951 30.0733 204.403 29.7717C204.867 29.4585 205.25 28.9538 205.551 28.2578C205.853 27.5618 206.091 26.6396 206.265 25.4911C206.439 24.3311 206.555 22.9042 206.613 21.2106L207.048 9.3782H227.372V36.1055H220.307V15.2074H213.712L213.295 23.3683C213.19 25.6071 212.918 27.5328 212.477 29.1452C212.048 30.7577 211.45 32.0801 210.685 33.1126C209.919 34.1334 208.997 34.8874 207.918 35.3746C206.839 35.8619 205.586 36.1055 204.159 36.1055H201.932ZM240.74 36.6101C239.034 36.6101 237.515 36.3143 236.181 35.7227C234.847 35.1194 233.791 34.232 233.014 33.0604C232.248 31.8771 231.865 30.4039 231.865 28.6406C231.865 27.1558 232.138 25.9087 232.683 24.8995C233.228 23.8903 233.971 23.0782 234.911 22.4634C235.85 21.8486 236.917 21.3846 238.112 21.0714C239.319 20.7582 240.583 20.5378 241.906 20.4102C243.46 20.2478 244.713 20.0969 245.664 19.9577C246.615 19.8069 247.306 19.5865 247.735 19.2965C248.164 19.0065 248.379 18.5773 248.379 18.0089V17.9045C248.379 16.8024 248.031 15.9498 247.335 15.3466C246.65 14.7434 245.676 14.4418 244.411 14.4418C243.077 14.4418 242.016 14.7376 241.227 15.3292C240.438 15.9092 239.916 16.64 239.661 17.5217L232.805 16.9648C233.153 15.3408 233.837 13.9371 234.858 12.7539C235.879 11.5591 237.196 10.6426 238.808 10.0046C240.432 9.35499 242.312 9.03018 244.446 9.03018C245.931 9.03018 247.352 9.20419 248.709 9.5522C250.078 9.90021 251.29 10.4396 252.346 11.1705C253.413 11.9013 254.254 12.8409 254.869 13.9893C255.484 15.1262 255.791 16.4892 255.791 18.0785V36.1055H248.761V32.3991H248.553C248.123 33.2344 247.549 33.971 246.83 34.609C246.111 35.2354 245.246 35.7285 244.237 36.0881C243.228 36.4361 242.062 36.6101 240.74 36.6101ZM242.863 31.4943C243.953 31.4943 244.916 31.2797 245.751 30.8505C246.586 30.4097 247.242 29.8181 247.717 29.0756C248.193 28.3332 248.431 27.4922 248.431 26.5526V23.7163C248.199 23.8671 247.88 24.0063 247.474 24.1339C247.079 24.2499 246.633 24.3601 246.134 24.4645C245.635 24.5573 245.136 24.6443 244.637 24.7255C244.139 24.7951 243.686 24.8589 243.28 24.9169C242.41 25.0445 241.65 25.2475 241.001 25.5259C240.351 25.8043 239.846 26.1813 239.487 26.657C239.127 27.121 238.947 27.701 238.947 28.397C238.947 29.4062 239.313 30.1777 240.044 30.7113C240.786 31.2333 241.726 31.4943 242.863 31.4943ZM14.1669 90.6275C11.4292 90.6275 9.07434 90.0475 7.10227 88.8874C5.14181 87.7158 3.63376 86.0917 2.57812 84.0153C1.53409 81.9388 1.01207 79.5491 1.01207 76.8462C1.01207 74.1085 1.53989 71.7073 2.59553 69.6424C3.66276 67.5659 5.17661 65.9477 7.13707 64.7876C9.09754 63.616 11.4292 63.0302 14.1321 63.0302C16.4638 63.0302 18.5054 63.4536 20.2571 64.3004C22.0088 65.1473 23.395 66.3363 24.4158 67.8675C25.4367 69.3988 25.9993 71.1969 26.1037 73.2617H19.1087C18.9115 71.9277 18.3894 70.8546 17.5426 70.0426C16.7074 69.219 15.6112 68.8072 14.2539 68.8072C13.1055 68.8072 12.102 69.1204 11.2436 69.7468C10.3968 70.3616 9.73556 71.2607 9.25994 72.4439C8.78433 73.6271 8.54652 75.0598 8.54652 76.7418C8.54652 78.4471 8.77853 79.8971 9.24254 81.092C9.71816 82.2868 10.3852 83.1974 11.2436 83.8239C12.102 84.4503 13.1055 84.7635 14.2539 84.7635C15.1007 84.7635 15.8606 84.5895 16.5334 84.2415C17.2178 83.8935 17.7804 83.3888 18.2212 82.7276C18.6737 82.0548 18.9695 81.2486 19.1087 80.3089H26.1037C25.9877 82.3506 25.4309 84.1487 24.4332 85.7031C23.4472 87.246 22.0842 88.4524 20.3441 89.3224C18.604 90.1925 16.545 90.6275 14.1669 90.6275ZM37.9317 80.3263L47.5542 63.3782H54.8625V90.1055H47.7979V73.1051L38.2101 90.1055H30.8497V63.3782H37.9317V80.3263ZM72.8808 90.6275C70.1431 90.6275 67.7882 90.0475 65.8161 88.8874C63.8557 87.7158 62.3476 86.0917 61.292 84.0153C60.248 81.9388 59.7259 79.5491 59.7259 76.8462C59.7259 74.1085 60.2538 71.7073 61.3094 69.6424C62.3766 67.5659 63.8905 65.9477 65.8509 64.7876C67.8114 63.616 70.1431 63.0302 72.846 63.0302C75.1776 63.0302 77.2193 63.4536 78.971 64.3004C80.7226 65.1473 82.1089 66.3363 83.1297 67.8675C84.1505 69.3988 84.7132 71.1969 84.8176 73.2617H77.8225C77.6253 71.9277 77.1033 70.8546 76.2565 70.0426C75.4213 69.219 74.325 68.8072 72.9678 68.8072C71.8193 68.8072 70.8159 69.1204 69.9575 69.7468C69.1106 70.3616 68.4494 71.2607 67.9738 72.4439C67.4982 73.6271 67.2604 75.0598 67.2604 76.7418C67.2604 78.4471 67.4924 79.8971 67.9564 81.092C68.432 82.2868 69.099 83.1974 69.9575 83.8239C70.8159 84.4503 71.8193 84.7635 72.9678 84.7635C73.8146 84.7635 74.5744 84.5895 75.2472 84.2415C75.9317 83.8935 76.4943 83.3888 76.9351 82.7276C77.3875 82.0548 77.6833 81.2486 77.8225 80.3089H84.8176C84.7016 82.3506 84.1447 84.1487 83.1471 85.7031C82.1611 87.246 80.798 88.4524 79.058 89.3224C77.3179 90.1925 75.2588 90.6275 72.8808 90.6275ZM87.7409 69.2074V63.3782H111.962V69.2074H103.349V90.1055H96.2845V69.2074H87.7409ZM127.68 90.6275C124.93 90.6275 122.564 90.0707 120.58 88.957C118.608 87.8318 117.088 86.2425 116.021 84.1893C114.954 82.1244 114.42 79.6825 114.42 76.8636C114.42 74.1143 114.954 71.7015 116.021 69.625C117.088 67.5485 118.591 65.9303 120.528 64.7702C122.477 63.6102 124.762 63.0302 127.384 63.0302C129.147 63.0302 130.788 63.3144 132.308 63.8828C133.839 64.4396 135.173 65.2807 136.31 66.4059C137.459 67.5311 138.352 68.9464 138.99 70.6516C139.628 72.3453 139.947 74.329 139.947 76.6026V78.6385H117.378V74.0447H132.969C132.969 72.9775 132.737 72.0321 132.273 71.2085C131.809 70.3848 131.165 69.741 130.342 69.277C129.53 68.8014 128.584 68.5636 127.506 68.5636C126.38 68.5636 125.383 68.8246 124.513 69.3466C123.654 69.857 122.981 70.5472 122.494 71.4173C122.007 72.2757 121.758 73.2327 121.746 74.2884V78.6559C121.746 79.9783 121.99 81.121 122.477 82.0838C122.976 83.0466 123.677 83.7891 124.582 84.3111C125.487 84.8331 126.56 85.0941 127.801 85.0941C128.625 85.0941 129.379 84.9781 130.063 84.7461C130.748 84.5141 131.334 84.1661 131.821 83.7021C132.308 83.238 132.679 82.6696 132.934 81.9968L139.79 82.4492C139.442 84.0965 138.729 85.5349 137.65 86.7646C136.583 87.9826 135.202 88.9338 133.509 89.6183C131.827 90.2911 129.884 90.6275 127.68 90.6275ZM160.584 81.9098L167.823 63.3782H173.46L163.037 90.1055H158.113L147.934 63.3782H153.554L160.584 81.9098ZM151.866 63.3782V90.1055H144.784V63.3782H151.866ZM169.667 90.1055V63.3782H176.662V90.1055H169.667ZM186.015 100.128C185.075 100.128 184.194 100.053 183.37 99.902C182.558 99.7628 181.885 99.583 181.352 99.3626L183.022 93.8292C183.892 94.096 184.675 94.241 185.371 94.2642C186.079 94.2874 186.688 94.125 187.198 93.777C187.72 93.429 188.144 92.8374 188.468 92.0021L188.903 90.8711L179.316 63.3782H187.111L192.645 83.006H192.923L198.509 63.3782H206.356L195.968 92.994C195.469 94.4324 194.791 95.6853 193.932 96.7525C193.085 97.8313 192.012 98.6607 190.713 99.2408C189.414 99.8324 187.848 100.128 186.015 100.128ZM221.49 90.1055V63.3782H228.903V73.7489H230.991L238.264 63.3782H246.965L237.516 76.6374L247.069 90.1055H238.264L231.67 80.6222H228.903V90.1055H221.49ZM248.635 90.1055L248.6 84.2241H249.488C250.114 84.2241 250.654 84.0733 251.106 83.7717C251.57 83.4585 251.953 82.9538 252.255 82.2578C252.556 81.5618 252.794 80.6396 252.968 79.4911C253.142 78.3311 253.258 76.9042 253.316 75.2106L253.751 63.3782H274.075V90.1055H267.01V69.2074H260.415L259.998 77.3683C259.893 79.6071 259.621 81.5328 259.18 83.1452C258.751 84.7577 258.153 86.0801 257.388 87.1126C256.622 88.1334 255.7 88.8874 254.621 89.3746C253.542 89.8619 252.289 90.1055 250.862 90.1055H248.635ZM287.443 90.6101C285.738 90.6101 284.218 90.3143 282.884 89.7227C281.55 89.1194 280.494 88.232 279.717 87.0604C278.951 85.8771 278.569 84.4039 278.569 82.6406C278.569 81.1558 278.841 79.9087 279.386 78.8995C279.932 77.8903 280.674 77.0782 281.614 76.4634C282.553 75.8486 283.621 75.3846 284.815 75.0714C286.022 74.7582 287.286 74.5378 288.609 74.4102C290.163 74.2478 291.416 74.0969 292.367 73.9577C293.318 73.8069 294.009 73.5865 294.438 73.2965C294.867 73.0065 295.082 72.5773 295.082 72.0089V71.9045C295.082 70.8024 294.734 69.9498 294.038 69.3466C293.353 68.7434 292.379 68.4418 291.114 68.4418C289.78 68.4418 288.719 68.7376 287.93 69.3292C287.141 69.9092 286.619 70.64 286.364 71.5217L279.508 70.9648C279.856 69.3408 280.541 67.9371 281.561 66.7539C282.582 65.5591 283.899 64.6426 285.511 64.0046C287.135 63.355 289.015 63.0302 291.149 63.0302C292.634 63.0302 294.055 63.2042 295.412 63.5522C296.781 63.9002 297.993 64.4396 299.049 65.1705C300.116 65.9013 300.957 66.8409 301.572 67.9893C302.187 69.1262 302.494 70.4892 302.494 72.0785V90.1055H295.464V86.3991H295.256C294.826 87.2344 294.252 87.971 293.533 88.609C292.814 89.2354 291.95 89.7285 290.94 90.0881C289.931 90.4361 288.765 90.6101 287.443 90.6101ZM289.566 85.4943C290.656 85.4943 291.619 85.2797 292.454 84.8505C293.289 84.4097 293.945 83.8181 294.42 83.0756C294.896 82.3332 295.134 81.4922 295.134 80.5526V77.7163C294.902 77.8671 294.583 78.0063 294.177 78.1339C293.782 78.2499 293.336 78.3601 292.837 78.4645C292.338 78.5573 291.839 78.6443 291.341 78.7255C290.842 78.7951 290.389 78.8589 289.983 78.9169C289.113 79.0445 288.353 79.2475 287.704 79.5259C287.054 79.8043 286.55 80.1813 286.19 80.657C285.83 81.121 285.651 81.701 285.651 82.397C285.651 83.4062 286.016 84.1777 286.747 84.7113C287.489 85.2333 288.429 85.4943 289.566 85.4943ZM320.321 90.6275C317.584 90.6275 315.229 90.0475 313.257 88.8874C311.296 87.7158 309.788 86.0917 308.732 84.0153C307.688 81.9388 307.166 79.5491 307.166 76.8462C307.166 74.1085 307.694 71.7073 308.75 69.6424C309.817 67.5659 311.331 65.9477 313.291 64.7876C315.252 63.616 317.584 63.0302 320.286 63.0302C322.618 63.0302 324.66 63.4536 326.411 64.3004C328.163 65.1473 329.549 66.3363 330.57 67.8675C331.591 69.3988 332.154 71.1969 332.258 73.2617H325.263C325.066 71.9277 324.544 70.8546 323.697 70.0426C322.862 69.219 321.765 68.8072 320.408 68.8072C319.26 68.8072 318.256 69.1204 317.398 69.7468C316.551 70.3616 315.89 71.2607 315.414 72.4439C314.939 73.6271 314.701 75.0598 314.701 76.7418C314.701 78.4471 314.933 79.8971 315.397 81.092C315.872 82.2868 316.539 83.1974 317.398 83.8239C318.256 84.4503 319.26 84.7635 320.408 84.7635C321.255 84.7635 322.015 84.5895 322.688 84.2415C323.372 83.8935 323.935 83.3888 324.376 82.7276C324.828 82.0548 325.124 81.2486 325.263 80.3089H332.258C332.142 82.3506 331.585 84.1487 330.588 85.7031C329.602 87.246 328.238 88.4524 326.498 89.3224C324.758 90.1925 322.699 90.6275 320.321 90.6275ZM349.08 90.6275C346.342 90.6275 343.987 90.0475 342.015 88.8874C340.055 87.7158 338.547 86.0917 337.491 84.0153C336.447 81.9388 335.925 79.5491 335.925 76.8462C335.925 74.1085 336.453 71.7073 337.509 69.6424C338.576 67.5659 340.09 65.9477 342.05 64.7876C344.011 63.616 346.342 63.0302 349.045 63.0302C351.377 63.0302 353.419 63.4536 355.17 64.3004C356.922 65.1473 358.308 66.3363 359.329 67.8675C360.35 69.3988 360.912 71.1969 361.017 73.2617H354.022C353.825 71.9277 353.303 70.8546 352.456 70.0426C351.62 69.219 350.524 68.8072 349.167 68.8072C348.019 68.8072 347.015 69.1204 346.157 69.7468C345.31 70.3616 344.649 71.2607 344.173 72.4439C343.697 73.6271 343.46 75.0598 343.46 76.7418C343.46 78.4471 343.692 79.8971 344.156 81.092C344.631 82.2868 345.298 83.1974 346.157 83.8239C347.015 84.4503 348.019 84.7635 349.167 84.7635C350.014 84.7635 350.774 84.5895 351.446 84.2415C352.131 83.8935 352.694 83.3888 353.134 82.7276C353.587 82.0548 353.883 81.2486 354.022 80.3089H361.017C360.901 82.3506 360.344 84.1487 359.346 85.7031C358.36 87.246 356.997 88.4524 355.257 89.3224C353.517 90.1925 351.458 90.6275 349.08 90.6275ZM377.839 90.6275C375.136 90.6275 372.798 90.0533 370.826 88.9048C368.866 87.7448 367.352 86.1323 366.285 84.0675C365.218 81.991 364.684 79.5839 364.684 76.8462C364.684 74.0853 365.218 71.6725 366.285 69.6076C367.352 67.5311 368.866 65.9187 370.826 64.7702C372.798 63.6102 375.136 63.0302 377.839 63.0302C380.542 63.0302 382.873 63.6102 384.834 64.7702C386.806 65.9187 388.326 67.5311 389.393 69.6076C390.46 71.6725 390.994 74.0853 390.994 76.8462C390.994 79.5839 390.46 81.991 389.393 84.0675C388.326 86.1323 386.806 87.7448 384.834 88.9048C382.873 90.0533 380.542 90.6275 377.839 90.6275ZM377.874 84.8853C379.103 84.8853 380.13 84.5373 380.953 83.8413C381.777 83.1336 382.398 82.1708 382.815 80.9528C383.245 79.7347 383.459 78.3485 383.459 76.794C383.459 75.2396 383.245 73.8533 382.815 72.6353C382.398 71.4173 381.777 70.4544 380.953 69.7468C380.13 69.0392 379.103 68.6854 377.874 68.6854C376.632 68.6854 375.588 69.0392 374.741 69.7468C373.906 70.4544 373.274 71.4173 372.845 72.6353C372.427 73.8533 372.218 75.2396 372.218 76.794C372.218 78.3485 372.427 79.7347 372.845 80.9528C373.274 82.1708 373.906 83.1336 374.741 83.8413C375.588 84.5373 376.632 84.8853 377.874 84.8853ZM395.814 90.1055V63.3782H407.211C410.505 63.3782 413.11 64.0046 415.024 65.2575C416.938 66.5103 417.895 68.291 417.895 70.5994C417.895 72.0495 417.355 73.2559 416.277 74.2188C415.198 75.1816 413.701 75.8312 411.787 76.1676C413.388 76.2836 414.751 76.649 415.876 77.2638C417.013 77.8671 417.877 78.6501 418.469 79.6129C419.072 80.5758 419.374 81.643 419.374 82.8146C419.374 84.3343 418.968 85.6393 418.156 86.7298C417.355 87.8202 416.178 88.6554 414.624 89.2354C413.081 89.8155 411.196 90.1055 408.968 90.1055H395.814ZM402.722 84.5547H408.968C410.001 84.5547 410.807 84.3111 411.387 83.8239C411.979 83.325 412.275 82.6464 412.275 81.788C412.275 80.8368 411.979 80.0885 411.387 79.5433C410.807 78.9981 410.001 78.7255 408.968 78.7255H402.722V84.5547ZM402.722 74.3754H407.368C408.11 74.3754 408.742 74.271 409.264 74.0621C409.798 73.8417 410.204 73.5285 410.482 73.1225C410.772 72.7165 410.917 72.2351 410.917 71.6783C410.917 70.8546 410.587 70.2108 409.925 69.7468C409.264 69.2828 408.359 69.0508 407.211 69.0508H402.722V74.3754ZM9.17294 134.326L18.7955 117.378H26.1037V144.105H19.0391V127.105L9.45135 144.105H2.09091V117.378H9.17294V134.326ZM47.9632 154.128C47.0235 154.128 46.1419 154.053 45.3183 153.902C44.5062 153.763 43.8334 153.583 43.2998 153.363L44.9703 147.829C45.8403 148.096 46.6233 148.241 47.3193 148.264C48.027 148.287 48.636 148.125 49.1464 147.777C49.6684 147.429 50.0918 146.837 50.4166 146.002L50.8517 144.871L41.2639 117.378H49.0594L54.5928 137.006H54.8712L60.4568 117.378H68.3044L57.9163 146.994C57.4175 148.432 56.7388 149.685 55.8804 150.752C55.0336 151.831 53.9606 152.661 52.6613 153.241C51.3621 153.832 49.796 154.128 47.9632 154.128ZM72.0977 154.128V117.378H79.406V121.868H79.7366C80.0614 121.148 80.5312 120.417 81.146 119.675C81.7725 118.921 82.5845 118.295 83.5821 117.796C84.5914 117.285 85.8442 117.03 87.3406 117.03C89.2895 117.03 91.0876 117.541 92.7348 118.561C94.3821 119.571 95.6987 121.096 96.6847 123.138C97.6708 125.168 98.1638 127.714 98.1638 130.777C98.1638 133.758 97.6824 136.275 96.7195 138.328C95.7683 140.37 94.4691 141.919 92.8218 142.974C91.1862 144.018 89.3533 144.54 87.3232 144.54C85.8848 144.54 84.661 144.303 83.6517 143.827C82.6541 143.351 81.8363 142.754 81.1982 142.035C80.5602 141.304 80.073 140.567 79.7366 139.825H79.5104V154.128H72.0977ZM79.3538 130.742C79.3538 132.331 79.5742 133.717 80.015 134.901C80.4558 136.084 81.0938 137.006 81.9291 137.667C82.7643 138.317 83.7793 138.642 84.9742 138.642C86.1806 138.642 87.2014 138.311 88.0367 137.65C88.8719 136.977 89.5041 136.049 89.9333 134.866C90.3741 133.671 90.5945 132.296 90.5945 130.742C90.5945 129.199 90.3799 127.842 89.9507 126.67C89.5215 125.498 88.8893 124.582 88.0541 123.921C87.2188 123.26 86.1922 122.929 84.9742 122.929C83.7677 122.929 82.7469 123.248 81.9117 123.886C81.088 124.524 80.4558 125.429 80.015 126.6C79.5742 127.772 79.3538 129.153 79.3538 130.742ZM115.182 144.627C112.479 144.627 110.141 144.053 108.169 142.905C106.209 141.745 104.695 140.132 103.628 138.067C102.56 135.991 102.027 133.584 102.027 130.846C102.027 128.085 102.56 125.672 103.628 123.608C104.695 121.531 106.209 119.919 108.169 118.77C110.141 117.61 112.479 117.03 115.182 117.03C117.884 117.03 120.216 117.61 122.177 118.77C124.149 119.919 125.668 121.531 126.736 123.608C127.803 125.672 128.336 128.085 128.336 130.846C128.336 133.584 127.803 135.991 126.736 138.067C125.668 140.132 124.149 141.745 122.177 142.905C120.216 144.053 117.884 144.627 115.182 144.627ZM115.216 138.885C116.446 138.885 117.473 138.537 118.296 137.841C119.12 137.134 119.741 136.171 120.158 134.953C120.587 133.735 120.802 132.348 120.802 130.794C120.802 129.24 120.587 127.853 120.158 126.635C119.741 125.417 119.12 124.454 118.296 123.747C117.473 123.039 116.446 122.685 115.216 122.685C113.975 122.685 112.931 123.039 112.084 123.747C111.249 124.454 110.617 125.417 110.188 126.635C109.77 127.853 109.561 129.24 109.561 130.794C109.561 132.348 109.77 133.735 110.188 134.953C110.617 136.171 111.249 137.134 112.084 137.841C112.931 138.537 113.975 138.885 115.216 138.885ZM133.156 144.105V117.378H144.554C147.848 117.378 150.453 118.005 152.367 119.257C154.281 120.51 155.238 122.291 155.238 124.599C155.238 126.049 154.698 127.256 153.619 128.219C152.541 129.182 151.044 129.831 149.13 130.168C150.731 130.284 152.094 130.649 153.219 131.264C154.356 131.867 155.22 132.65 155.812 133.613C156.415 134.576 156.717 135.643 156.717 136.815C156.717 138.334 156.311 139.639 155.499 140.73C154.698 141.82 153.521 142.655 151.966 143.235C150.424 143.815 148.538 144.105 146.311 144.105H133.156ZM140.064 138.555H146.311C147.344 138.555 148.15 138.311 148.73 137.824C149.321 137.325 149.617 136.646 149.617 135.788C149.617 134.837 149.321 134.089 148.73 133.543C148.15 132.998 147.344 132.725 146.311 132.725H140.064V138.555ZM140.064 128.375H144.71C145.453 128.375 146.085 128.271 146.607 128.062C147.141 127.842 147.547 127.529 147.825 127.123C148.115 126.717 148.26 126.235 148.26 125.678C148.26 124.855 147.929 124.211 147.268 123.747C146.607 123.283 145.702 123.051 144.554 123.051H140.064V128.375ZM179.99 127.784V133.613H166.035V127.784H179.99ZM168.471 117.378V144.105H161.389V117.378H168.471ZM184.636 117.378V144.105H177.606V117.378H184.636ZM202.567 144.627C199.818 144.627 197.451 144.071 195.468 142.957C193.496 141.832 191.976 140.243 190.909 138.189C189.842 136.124 189.308 133.683 189.308 130.864C189.308 128.114 189.842 125.701 190.909 123.625C191.976 121.549 193.478 119.93 195.416 118.77C197.364 117.61 199.65 117.03 202.271 117.03C204.035 117.03 205.676 117.314 207.196 117.883C208.727 118.44 210.061 119.281 211.198 120.406C212.346 121.531 213.24 122.946 213.878 124.652C214.516 126.345 214.835 128.329 214.835 130.603V132.638H192.266V128.045H207.857C207.857 126.978 207.625 126.032 207.161 125.208C206.697 124.385 206.053 123.741 205.229 123.277C204.417 122.801 203.472 122.564 202.393 122.564C201.268 122.564 200.27 122.825 199.4 123.347C198.542 123.857 197.869 124.547 197.382 125.417C196.895 126.276 196.645 127.233 196.634 128.288V132.656C196.634 133.978 196.877 135.121 197.364 136.084C197.863 137.047 198.565 137.789 199.47 138.311C200.375 138.833 201.448 139.094 202.689 139.094C203.513 139.094 204.267 138.978 204.951 138.746C205.636 138.514 206.221 138.166 206.709 137.702C207.196 137.238 207.567 136.67 207.822 135.997L214.678 136.449C214.33 138.096 213.617 139.535 212.538 140.765C211.47 141.983 210.09 142.934 208.396 143.618C206.714 144.291 204.771 144.627 202.567 144.627ZM226.754 134.326L236.377 117.378H243.685V144.105H236.62V127.105L227.032 144.105H219.672V117.378H226.754V134.326ZM235.106 108.051H240.274C240.263 110.163 239.48 111.862 237.925 113.15C236.382 114.437 234.294 115.081 231.661 115.081C229.016 115.081 226.922 114.437 225.379 113.15C223.837 111.862 223.065 110.163 223.065 108.051H228.198C228.187 108.852 228.442 109.571 228.964 110.209C229.497 110.847 230.397 111.166 231.661 111.166C232.891 111.166 233.772 110.853 234.306 110.227C234.839 109.6 235.106 108.875 235.106 108.051ZM257.684 139.233L257.492 141.147C257.341 142.679 257.051 144.204 256.622 145.724C256.204 147.255 255.764 148.641 255.3 149.882C254.847 151.124 254.482 152.098 254.203 152.806H249.401C249.575 152.121 249.813 151.164 250.114 149.935C250.416 148.717 250.7 147.348 250.967 145.828C251.234 144.308 251.402 142.76 251.472 141.182L251.559 139.233H257.684ZM2.09091 198.105V171.378H9.50355V181.749H11.5916L18.8651 171.378H27.5653L18.1168 184.637L27.6697 198.105H18.8651L12.2702 188.622H9.50355V198.105H2.09091ZM41.7773 198.627C39.0744 198.627 36.7369 198.053 34.7648 196.905C32.8044 195.745 31.2905 194.132 30.2233 192.067C29.156 189.991 28.6224 187.584 28.6224 184.846C28.6224 182.085 29.156 179.672 30.2233 177.608C31.2905 175.531 32.8044 173.919 34.7648 172.77C36.7369 171.61 39.0744 171.03 41.7773 171.03C44.4801 171.03 46.8118 171.61 48.7723 172.77C50.7443 173.919 52.264 175.531 53.3312 177.608C54.3985 179.672 54.9321 182.085 54.9321 184.846C54.9321 187.584 54.3985 189.991 53.3312 192.067C52.264 194.132 50.7443 195.745 48.7723 196.905C46.8118 198.053 44.4801 198.627 41.7773 198.627ZM41.8121 192.885C43.0417 192.885 44.0683 192.537 44.892 191.841C45.7156 191.134 46.3362 190.171 46.7538 188.953C47.183 187.735 47.3976 186.348 47.3976 184.794C47.3976 183.24 47.183 181.853 46.7538 180.635C46.3362 179.417 45.7156 178.454 44.892 177.747C44.0683 177.039 43.0417 176.685 41.8121 176.685C40.5708 176.685 39.5268 177.039 38.68 177.747C37.8447 178.454 37.2125 179.417 36.7833 180.635C36.3657 181.853 36.1569 183.24 36.1569 184.794C36.1569 186.348 36.3657 187.735 36.7833 188.953C37.2125 190.171 37.8447 191.134 38.68 191.841C39.5268 192.537 40.5708 192.885 41.8121 192.885ZM57.1637 177.207V171.378H81.3853V177.207H72.772V198.105H65.7074V177.207H57.1637ZM96.998 198.627C94.2951 198.627 91.9576 198.053 89.9855 196.905C88.0251 195.745 86.5112 194.132 85.444 192.067C84.3767 189.991 83.8431 187.584 83.8431 184.846C83.8431 182.085 84.3767 179.672 85.444 177.608C86.5112 175.531 88.0251 173.919 89.9855 172.77C91.9576 171.61 94.2951 171.03 96.998 171.03C99.7008 171.03 102.033 171.61 103.993 172.77C105.965 173.919 107.485 175.531 108.552 177.608C109.619 179.672 110.153 182.085 110.153 184.846C110.153 187.584 109.619 189.991 108.552 192.067C107.485 194.132 105.965 195.745 103.993 196.905C102.033 198.053 99.7008 198.627 96.998 198.627ZM97.0328 192.885C98.2624 192.885 99.289 192.537 100.113 191.841C100.936 191.134 101.557 190.171 101.975 188.953C102.404 187.735 102.618 186.348 102.618 184.794C102.618 183.24 102.404 181.853 101.975 180.635C101.557 179.417 100.936 178.454 100.113 177.747C99.289 177.039 98.2624 176.685 97.0328 176.685C95.7915 176.685 94.7475 177.039 93.9007 177.747C93.0654 178.454 92.4332 179.417 92.004 180.635C91.5864 181.853 91.3776 183.24 91.3776 184.794C91.3776 186.348 91.5864 187.735 92.004 188.953C92.4332 190.171 93.0654 191.134 93.9007 191.841C94.7475 192.537 95.7915 192.885 97.0328 192.885ZM114.973 208.128V171.378H122.281V175.868H122.612C122.936 175.148 123.406 174.417 124.021 173.675C124.647 172.921 125.459 172.295 126.457 171.796C127.466 171.285 128.719 171.03 130.216 171.03C132.165 171.03 133.963 171.541 135.61 172.561C137.257 173.571 138.574 175.096 139.56 177.138C140.546 179.168 141.039 181.714 141.039 184.777C141.039 187.758 140.557 190.275 139.595 192.328C138.643 194.37 137.344 195.919 135.697 196.974C134.061 198.018 132.228 198.54 130.198 198.54C128.76 198.54 127.536 198.303 126.527 197.827C125.529 197.351 124.711 196.754 124.073 196.035C123.435 195.304 122.948 194.567 122.612 193.825H122.385V208.128H114.973ZM122.229 184.742C122.229 186.331 122.449 187.717 122.89 188.901C123.331 190.084 123.969 191.006 124.804 191.667C125.639 192.317 126.654 192.642 127.849 192.642C129.056 192.642 130.076 192.311 130.912 191.65C131.747 190.977 132.379 190.049 132.808 188.866C133.249 187.671 133.47 186.296 133.47 184.742C133.47 183.199 133.255 181.842 132.826 180.67C132.397 179.498 131.764 178.582 130.929 177.921C130.094 177.26 129.067 176.929 127.849 176.929C126.643 176.929 125.622 177.248 124.787 177.886C123.963 178.524 123.331 179.429 122.89 180.6C122.449 181.772 122.229 183.153 122.229 184.742ZM153.602 198.61C151.897 198.61 150.377 198.314 149.043 197.723C147.709 197.119 146.653 196.232 145.876 195.06C145.111 193.877 144.728 192.404 144.728 190.641C144.728 189.156 145 187.909 145.546 186.9C146.091 185.89 146.833 185.078 147.773 184.463C148.712 183.849 149.78 183.385 150.975 183.071C152.181 182.758 153.445 182.538 154.768 182.41C156.322 182.248 157.575 182.097 158.526 181.958C159.478 181.807 160.168 181.587 160.597 181.297C161.026 181.007 161.241 180.577 161.241 180.009V179.904C161.241 178.802 160.893 177.95 160.197 177.347C159.512 176.743 158.538 176.442 157.274 176.442C155.939 176.442 154.878 176.738 154.089 177.329C153.3 177.909 152.778 178.64 152.523 179.522L145.667 178.965C146.015 177.341 146.7 175.937 147.721 174.754C148.741 173.559 150.058 172.643 151.671 172.005C153.295 171.355 155.174 171.03 157.308 171.03C158.793 171.03 160.214 171.204 161.571 171.552C162.94 171.9 164.153 172.44 165.208 173.17C166.275 173.901 167.116 174.841 167.731 175.989C168.346 177.126 168.653 178.489 168.653 180.078V198.105H161.624V194.399H161.415C160.986 195.234 160.411 195.971 159.692 196.609C158.973 197.235 158.109 197.728 157.1 198.088C156.09 198.436 154.924 198.61 153.602 198.61ZM155.725 193.494C156.815 193.494 157.778 193.28 158.613 192.85C159.449 192.41 160.104 191.818 160.58 191.076C161.055 190.333 161.293 189.492 161.293 188.553V185.716C161.061 185.867 160.742 186.006 160.336 186.134C159.942 186.25 159.495 186.36 158.996 186.464C158.497 186.557 157.999 186.644 157.5 186.725C157.001 186.795 156.549 186.859 156.142 186.917C155.272 187.045 154.513 187.248 153.863 187.526C153.213 187.804 152.709 188.181 152.349 188.657C151.99 189.121 151.81 189.701 151.81 190.397C151.81 191.406 152.175 192.178 152.906 192.711C153.648 193.233 154.588 193.494 155.725 193.494ZM190.065 198.105V177.19H185.054C183.696 177.19 182.664 177.503 181.956 178.13C181.249 178.756 180.901 179.498 180.912 180.357C180.901 181.227 181.237 181.964 181.921 182.567C182.617 183.158 183.638 183.454 184.984 183.454H192.536V188.466H184.984C182.699 188.466 180.721 188.118 179.05 187.422C177.38 186.725 176.092 185.757 175.187 184.516C174.283 183.263 173.836 181.807 173.848 180.148C173.836 178.408 174.283 176.883 175.187 175.572C176.092 174.249 177.386 173.223 179.068 172.492C180.761 171.749 182.757 171.378 185.054 171.378H196.973V198.105H190.065ZM173.082 198.105L180.512 184.185H187.594L180.181 198.105H173.082ZM226.149 198.627C223.412 198.627 221.057 198.047 219.085 196.887C217.124 195.716 215.616 194.092 214.561 192.015C213.517 189.939 212.994 187.549 212.994 184.846C212.994 182.109 213.522 179.707 214.578 177.642C215.645 175.566 217.159 173.948 219.119 172.788C221.08 171.616 223.412 171.03 226.115 171.03C228.446 171.03 230.488 171.454 232.24 172.3C233.991 173.147 235.377 174.336 236.398 175.868C237.419 177.399 237.982 179.197 238.086 181.262H231.091C230.894 179.928 230.372 178.855 229.525 178.043C228.69 177.219 227.594 176.807 226.236 176.807C225.088 176.807 224.084 177.12 223.226 177.747C222.379 178.362 221.718 179.261 221.242 180.444C220.767 181.627 220.529 183.06 220.529 184.742C220.529 186.447 220.761 187.897 221.225 189.092C221.701 190.287 222.368 191.197 223.226 191.824C224.084 192.45 225.088 192.763 226.236 192.763C227.083 192.763 227.843 192.589 228.516 192.241C229.2 191.893 229.763 191.389 230.204 190.728C230.656 190.055 230.952 189.249 231.091 188.309H238.086C237.97 190.351 237.413 192.149 236.416 193.703C235.43 195.246 234.067 196.452 232.327 197.322C230.586 198.192 228.527 198.627 226.149 198.627ZM241.009 177.207V171.378H265.231V177.207H256.618V198.105H249.553V177.207H241.009ZM276.389 198.61C274.684 198.61 273.164 198.314 271.83 197.723C270.496 197.119 269.44 196.232 268.663 195.06C267.898 193.877 267.515 192.404 267.515 190.641C267.515 189.156 267.787 187.909 268.333 186.9C268.878 185.89 269.62 185.078 270.56 184.463C271.5 183.849 272.567 183.385 273.762 183.071C274.968 182.758 276.233 182.538 277.555 182.41C279.109 182.248 280.362 182.097 281.313 181.958C282.265 181.807 282.955 181.587 283.384 181.297C283.813 181.007 284.028 180.577 284.028 180.009V179.904C284.028 178.802 283.68 177.95 282.984 177.347C282.3 176.743 281.325 176.442 280.061 176.442C278.727 176.442 277.665 176.738 276.876 177.329C276.088 177.909 275.565 178.64 275.31 179.522L268.454 178.965C268.802 177.341 269.487 175.937 270.508 174.754C271.529 173.559 272.845 172.643 274.458 172.005C276.082 171.355 277.961 171.03 280.095 171.03C281.58 171.03 283.001 171.204 284.359 171.552C285.727 171.9 286.94 172.44 287.995 173.17C289.063 173.901 289.904 174.841 290.518 175.989C291.133 177.126 291.441 178.489 291.441 180.078V198.105H284.411V194.399H284.202C283.773 195.234 283.199 195.971 282.479 196.609C281.76 197.235 280.896 197.728 279.887 198.088C278.877 198.436 277.712 198.61 276.389 198.61ZM278.512 193.494C279.602 193.494 280.565 193.28 281.4 192.85C282.236 192.41 282.891 191.818 283.367 191.076C283.842 190.333 284.08 189.492 284.08 188.553V185.716C283.848 185.867 283.529 186.006 283.123 186.134C282.729 186.25 282.282 186.36 281.783 186.464C281.284 186.557 280.786 186.644 280.287 186.725C279.788 186.795 279.336 186.859 278.93 186.917C278.06 187.045 277.3 187.248 276.65 187.526C276.001 187.804 275.496 188.181 275.136 188.657C274.777 189.121 274.597 189.701 274.597 190.397C274.597 191.406 274.962 192.178 275.693 192.711C276.436 193.233 277.375 193.494 278.512 193.494ZM295.625 198.105L295.591 192.224H296.478C297.104 192.224 297.644 192.073 298.096 191.772C298.56 191.458 298.943 190.954 299.245 190.258C299.546 189.562 299.784 188.64 299.958 187.491C300.132 186.331 300.248 184.904 300.306 183.211L300.741 171.378H321.065V198.105H314V177.207H307.406L306.988 185.368C306.884 187.607 306.611 189.533 306.17 191.145C305.741 192.758 305.144 194.08 304.378 195.113C303.612 196.133 302.69 196.887 301.611 197.375C300.532 197.862 299.28 198.105 297.853 198.105H295.625ZM334.433 198.61C332.728 198.61 331.208 198.314 329.874 197.723C328.54 197.119 327.484 196.232 326.707 195.06C325.942 193.877 325.559 192.404 325.559 190.641C325.559 189.156 325.831 187.909 326.377 186.9C326.922 185.89 327.664 185.078 328.604 184.463C329.544 183.849 330.611 183.385 331.806 183.071C333.012 182.758 334.276 182.538 335.599 182.41C337.153 182.248 338.406 182.097 339.357 181.958C340.309 181.807 340.999 181.587 341.428 181.297C341.857 181.007 342.072 180.577 342.072 180.009V179.904C342.072 178.802 341.724 177.95 341.028 177.347C340.343 176.743 339.369 176.442 338.105 176.442C336.771 176.442 335.709 176.738 334.92 177.329C334.131 177.909 333.609 178.64 333.354 179.522L326.498 178.965C326.846 177.341 327.531 175.937 328.552 174.754C329.573 173.559 330.889 172.643 332.502 172.005C334.126 171.355 336.005 171.03 338.139 171.03C339.624 171.03 341.045 171.204 342.403 171.552C343.771 171.9 344.984 172.44 346.039 173.17C347.106 173.901 347.948 174.841 348.562 175.989C349.177 177.126 349.485 178.489 349.485 180.078V198.105H342.455V194.399H342.246C341.817 195.234 341.242 195.971 340.523 196.609C339.804 197.235 338.94 197.728 337.931 198.088C336.921 198.436 335.756 198.61 334.433 198.61ZM336.556 193.494C337.646 193.494 338.609 193.28 339.444 192.85C340.28 192.41 340.935 191.818 341.411 191.076C341.886 190.333 342.124 189.492 342.124 188.553V185.716C341.892 185.867 341.573 186.006 341.167 186.134C340.773 186.25 340.326 186.36 339.827 186.464C339.328 186.557 338.83 186.644 338.331 186.725C337.832 186.795 337.38 186.859 336.974 186.917C336.104 187.045 335.344 187.248 334.694 187.526C334.044 187.804 333.54 188.181 333.18 188.657C332.821 189.121 332.641 189.701 332.641 190.397C332.641 191.406 333.006 192.178 333.737 192.711C334.479 193.233 335.419 193.494 336.556 193.494ZM14.1669 252.627C11.4292 252.627 9.07434 252.047 7.10227 250.887C5.14181 249.716 3.63376 248.092 2.57812 246.015C1.53409 243.939 1.01207 241.549 1.01207 238.846C1.01207 236.109 1.53989 233.707 2.59553 231.642C3.66276 229.566 5.17661 227.948 7.13707 226.788C9.09754 225.616 11.4292 225.03 14.1321 225.03C16.4638 225.03 18.5054 225.454 20.2571 226.3C22.0088 227.147 23.395 228.336 24.4158 229.868C25.4367 231.399 25.9993 233.197 26.1037 235.262H19.1087C18.9115 233.928 18.3894 232.855 17.5426 232.043C16.7074 231.219 15.6112 230.807 14.2539 230.807C13.1055 230.807 12.102 231.12 11.2436 231.747C10.3968 232.362 9.73556 233.261 9.25994 234.444C8.78433 235.627 8.54652 237.06 8.54652 238.742C8.54652 240.447 8.77853 241.897 9.24254 243.092C9.71816 244.287 10.3852 245.197 11.2436 245.824C12.102 246.45 13.1055 246.763 14.2539 246.763C15.1007 246.763 15.8606 246.589 16.5334 246.241C17.2178 245.893 17.7804 245.389 18.2212 244.728C18.6737 244.055 18.9695 243.249 19.1087 242.309H26.1037C25.9877 244.351 25.4309 246.149 24.4332 247.703C23.4472 249.246 22.0842 250.452 20.3441 251.322C18.604 252.192 16.545 252.627 14.1669 252.627ZM29.027 231.207V225.378H53.2486V231.207H44.6353V252.105H37.5707V231.207H29.027ZM64.4067 252.61C62.7014 252.61 61.1818 252.314 59.8477 251.723C58.5137 251.119 57.4581 250.232 56.6808 249.06C55.9152 247.877 55.5324 246.404 55.5324 244.641C55.5324 243.156 55.805 241.909 56.3502 240.9C56.8954 239.89 57.6379 239.078 58.5775 238.463C59.5171 237.849 60.5844 237.385 61.7792 237.071C62.9856 236.758 64.2501 236.538 65.5725 236.41C67.127 236.248 68.3798 236.097 69.3311 235.958C70.2823 235.807 70.9725 235.587 71.4017 235.297C71.8309 235.007 72.0455 234.577 72.0455 234.009V233.904C72.0455 232.802 71.6975 231.95 71.0015 231.347C70.3171 230.743 69.3427 230.442 68.0782 230.442C66.7442 230.442 65.6827 230.738 64.8939 231.329C64.1051 231.909 63.5831 232.64 63.3279 233.522L56.472 232.965C56.82 231.341 57.5045 229.937 58.5253 228.754C59.5461 227.559 60.8628 226.643 62.4752 226.005C64.0993 225.355 65.9785 225.03 68.113 225.03C69.5979 225.03 71.0189 225.204 72.3762 225.552C73.745 225.9 74.9572 226.44 76.0129 227.17C77.0801 227.901 77.9211 228.841 78.536 229.989C79.1508 231.126 79.4582 232.489 79.4582 234.078V252.105H72.4284V248.399H72.2195C71.7903 249.234 71.2161 249.971 70.4969 250.609C69.7777 251.235 68.9134 251.728 67.9042 252.088C66.895 252.436 65.7291 252.61 64.4067 252.61ZM66.5296 247.494C67.62 247.494 68.5828 247.28 69.4181 246.85C70.2533 246.41 70.9087 245.818 71.3843 245.076C71.8599 244.333 72.0977 243.492 72.0977 242.553V239.716C71.8657 239.867 71.5467 240.006 71.1407 240.134C70.7463 240.25 70.2997 240.36 69.8009 240.464C69.3021 240.557 68.8032 240.644 68.3044 240.725C67.8056 240.795 67.3532 240.859 66.9472 240.917C66.0771 241.045 65.3173 241.248 64.6677 241.526C64.0181 241.804 63.5135 242.181 63.1539 242.657C62.7942 243.121 62.6144 243.701 62.6144 244.397C62.6144 245.406 62.9798 246.178 63.7107 246.711C64.4531 247.233 65.3927 247.494 66.5296 247.494ZM103.81 235.784V241.613H89.855V235.784H103.81ZM92.2911 225.378V252.105H85.2091V225.378H92.2911ZM108.456 225.378V252.105H101.426V225.378H108.456ZM112.119 259.936V246.224H114.172C114.764 245.853 115.24 245.261 115.599 244.449C115.97 243.637 116.272 242.68 116.504 241.578C116.748 240.476 116.933 239.287 117.061 238.011C117.2 236.723 117.322 235.424 117.426 234.113L118.122 225.378H138.62V246.224H142.761V259.936H135.697V252.105H119.358V259.936H112.119ZM121.55 246.224H131.625V231.086H124.421L124.143 234.113C123.946 236.967 123.661 239.391 123.29 241.387C122.919 243.37 122.339 244.983 121.55 246.224ZM154.703 252.61C152.997 252.61 151.478 252.314 150.144 251.723C148.81 251.119 147.754 250.232 146.977 249.06C146.211 247.877 145.828 246.404 145.828 244.641C145.828 243.156 146.101 241.909 146.646 240.9C147.191 239.89 147.934 239.078 148.873 238.463C149.813 237.849 150.88 237.385 152.075 237.071C153.282 236.758 154.546 236.538 155.868 236.41C157.423 236.248 158.676 236.097 159.627 235.958C160.578 235.807 161.268 235.587 161.698 235.297C162.127 235.007 162.341 234.577 162.341 234.009V233.904C162.341 232.802 161.993 231.95 161.297 231.347C160.613 230.743 159.639 230.442 158.374 230.442C157.04 230.442 155.979 230.738 155.19 231.329C154.401 231.909 153.879 232.64 153.624 233.522L146.768 232.965C147.116 231.341 147.8 229.937 148.821 228.754C149.842 227.559 151.159 226.643 152.771 226.005C154.395 225.355 156.274 225.03 158.409 225.03C159.894 225.03 161.315 225.204 162.672 225.552C164.041 225.9 165.253 226.44 166.309 227.17C167.376 227.901 168.217 228.841 168.832 229.989C169.447 231.126 169.754 232.489 169.754 234.078V252.105H162.724V248.399H162.515C162.086 249.234 161.512 249.971 160.793 250.609C160.074 251.235 159.209 251.728 158.2 252.088C157.191 252.436 156.025 252.61 154.703 252.61ZM156.825 247.494C157.916 247.494 158.879 247.28 159.714 246.85C160.549 246.41 161.205 245.818 161.68 245.076C162.156 244.333 162.394 243.492 162.394 242.553V239.716C162.162 239.867 161.843 240.006 161.437 240.134C161.042 240.25 160.596 240.36 160.097 240.464C159.598 240.557 159.099 240.644 158.6 240.725C158.102 240.795 157.649 240.859 157.243 240.917C156.373 241.045 155.613 241.248 154.964 241.526C154.314 241.804 153.809 242.181 153.45 242.657C153.09 243.121 152.91 243.701 152.91 244.397C152.91 245.406 153.276 246.178 154.007 246.711C154.749 247.233 155.689 247.494 156.825 247.494ZM175.505 262.128V225.378H182.813V229.868H183.144C183.469 229.148 183.938 228.417 184.553 227.675C185.18 226.921 185.992 226.295 186.989 225.796C187.999 225.285 189.251 225.03 190.748 225.03C192.697 225.03 194.495 225.541 196.142 226.561C197.789 227.571 199.106 229.096 200.092 231.138C201.078 233.168 201.571 235.714 201.571 238.777C201.571 241.758 201.09 244.275 200.127 246.328C199.176 248.37 197.876 249.919 196.229 250.974C194.593 252.018 192.761 252.54 190.73 252.54C189.292 252.54 188.068 252.303 187.059 251.827C186.061 251.351 185.243 250.754 184.605 250.035C183.967 249.304 183.48 248.567 183.144 247.825H182.918V262.128H175.505ZM182.761 238.742C182.761 240.331 182.981 241.717 183.422 242.901C183.863 244.084 184.501 245.006 185.336 245.667C186.172 246.317 187.187 246.642 188.381 246.642C189.588 246.642 190.609 246.311 191.444 245.65C192.279 244.977 192.911 244.049 193.341 242.866C193.781 241.671 194.002 240.296 194.002 238.742C194.002 237.199 193.787 235.842 193.358 234.67C192.929 233.498 192.297 232.582 191.461 231.921C190.626 231.26 189.599 230.929 188.381 230.929C187.175 230.929 186.154 231.248 185.319 231.886C184.495 232.524 183.863 233.429 183.422 234.6C182.981 235.772 182.761 237.153 182.761 238.742ZM203.924 231.207V225.378H228.146V231.207H219.533V252.105H212.468V231.207H203.924ZM243.759 252.627C241.056 252.627 238.718 252.053 236.746 250.905C234.786 249.745 233.272 248.132 232.205 246.067C231.137 243.991 230.604 241.584 230.604 238.846C230.604 236.085 231.137 233.672 232.205 231.608C233.272 229.531 234.786 227.919 236.746 226.77C238.718 225.61 241.056 225.03 243.759 225.03C246.462 225.03 248.793 225.61 250.754 226.77C252.726 227.919 254.245 229.531 255.313 231.608C256.38 233.672 256.914 236.085 256.914 238.846C256.914 241.584 256.38 243.991 255.313 246.067C254.245 248.132 252.726 249.745 250.754 250.905C248.793 252.053 246.462 252.627 243.759 252.627ZM243.794 246.885C245.023 246.885 246.05 246.537 246.873 245.841C247.697 245.134 248.318 244.171 248.735 242.953C249.164 241.735 249.379 240.348 249.379 238.794C249.379 237.24 249.164 235.853 248.735 234.635C248.318 233.417 247.697 232.454 246.873 231.747C246.05 231.039 245.023 230.685 243.794 230.685C242.552 230.685 241.508 231.039 240.661 231.747C239.826 232.454 239.194 233.417 238.765 234.635C238.347 235.853 238.138 237.24 238.138 238.794C238.138 240.348 238.347 241.735 238.765 242.953C239.194 244.171 239.826 245.134 240.661 245.841C241.508 246.537 242.552 246.885 243.794 246.885ZM277.533 243.91L284.772 225.378H290.41L279.987 252.105H275.062L264.883 225.378H270.503L277.533 243.91ZM268.816 225.378V252.105H261.733V225.378H268.816ZM286.616 252.105V225.378H293.611V252.105H286.616ZM0.0028409 313.936V300.224H2.05611C2.64773 299.853 3.12334 299.261 3.48295 298.449C3.85417 297.637 4.15578 296.68 4.38778 295.578C4.63139 294.476 4.817 293.287 4.9446 292.011C5.08381 290.723 5.20561 289.424 5.31001 288.113L6.00604 279.378H26.5039V300.224H30.6452V313.936H23.5806V306.105H7.24148V313.936H0.0028409ZM9.43395 300.224H19.5089V285.086H12.305L12.0266 288.113C11.8294 290.967 11.5452 293.391 11.174 295.387C10.8028 297.37 10.2228 298.983 9.43395 300.224ZM33.3989 306.105L33.3641 300.224H34.2515C34.8779 300.224 35.4173 300.073 35.8698 299.772C36.3338 299.458 36.7166 298.954 37.0182 298.258C37.3198 297.562 37.5576 296.64 37.7316 295.491C37.9056 294.331 38.0216 292.904 38.0796 291.211L38.5146 279.378H58.8385V306.105H51.7739V285.207H45.1791L44.7615 293.368C44.657 295.607 44.3844 297.533 43.9436 299.145C43.5144 300.758 42.917 302.08 42.1514 303.113C41.3857 304.133 40.4635 304.887 39.3847 305.375C38.3058 305.862 37.053 306.105 35.6262 306.105H33.3989ZM80.2456 306.105V285.19H75.2342C73.877 285.19 72.8445 285.503 72.1369 286.13C71.4293 286.756 71.0813 287.498 71.0929 288.357C71.0813 289.227 71.4177 289.964 72.1021 290.567C72.7981 291.158 73.819 291.454 75.1646 291.454H82.7164V296.466H75.1646C72.8793 296.466 70.9015 296.118 69.231 295.422C67.5605 294.725 66.2729 293.757 65.3681 292.516C64.4632 291.263 64.0166 289.807 64.0282 288.148C64.0166 286.408 64.4632 284.883 65.3681 283.572C66.2729 282.249 67.5663 281.223 69.2484 280.492C70.9421 279.749 72.9373 279.378 75.2342 279.378H87.1536V306.105H80.2456ZM63.2626 306.105L70.6926 292.185H77.7747L70.362 306.105H63.2626ZM120.054 297.91L127.292 279.378H132.93L122.507 306.105H117.583L107.403 279.378H113.024L120.054 297.91ZM111.336 279.378V306.105H104.254V279.378H111.336ZM129.137 306.105V279.378H136.132V306.105H129.137ZM160.467 289.784V295.613H146.511V289.784H160.467ZM148.947 279.378V306.105H141.865V279.378H148.947ZM165.112 279.378V306.105H158.083V279.378H165.112ZM182.939 306.627C180.236 306.627 177.899 306.053 175.927 304.905C173.966 303.745 172.453 302.132 171.385 300.067C170.318 297.991 169.785 295.584 169.785 292.846C169.785 290.085 170.318 287.672 171.385 285.608C172.453 283.531 173.966 281.919 175.927 280.77C177.899 279.61 180.236 279.03 182.939 279.03C185.642 279.03 187.974 279.61 189.934 280.77C191.906 281.919 193.426 283.531 194.493 285.608C195.561 287.672 196.094 290.085 196.094 292.846C196.094 295.584 195.561 297.991 194.493 300.067C193.426 302.132 191.906 303.745 189.934 304.905C187.974 306.053 185.642 306.627 182.939 306.627ZM182.974 300.885C184.204 300.885 185.23 300.537 186.054 299.841C186.878 299.134 187.498 298.171 187.916 296.953C188.345 295.735 188.56 294.348 188.56 292.794C188.56 291.24 188.345 289.853 187.916 288.635C187.498 287.417 186.878 286.454 186.054 285.747C185.23 285.039 184.204 284.685 182.974 284.685C181.733 284.685 180.689 285.039 179.842 285.747C179.007 286.454 178.375 287.417 177.945 288.635C177.528 289.853 177.319 291.24 177.319 292.794C177.319 294.348 177.528 295.735 177.945 296.953C178.375 298.171 179.007 299.134 179.842 299.841C180.689 300.537 181.733 300.885 182.974 300.885ZM219.22 279.378V285.207H208.118V306.105H200.914V279.378H219.22ZM230.821 296.326L240.444 279.378H247.752V306.105H240.688V289.105L231.1 306.105H223.739V279.378H230.821V296.326ZM259.889 279.378L264.796 288.722L269.825 279.378H277.429L269.686 292.742L277.638 306.105H270.068L264.796 296.866L259.611 306.105H251.954L259.889 292.742L252.233 279.378H259.889ZM293.311 306.105V270.469H307.371C310.062 270.469 312.359 270.951 314.261 271.913C316.176 272.865 317.631 274.216 318.629 275.968C319.638 277.708 320.143 279.755 320.143 282.11C320.143 284.477 319.632 286.512 318.612 288.218C317.591 289.911 316.112 291.211 314.174 292.115C312.249 293.02 309.917 293.473 307.179 293.473H297.766V287.417H305.961C307.4 287.417 308.595 287.22 309.546 286.826C310.497 286.431 311.205 285.84 311.669 285.051C312.144 284.262 312.382 283.282 312.382 282.11C312.382 280.927 312.144 279.929 311.669 279.117C311.205 278.305 310.491 277.69 309.528 277.273C308.577 276.844 307.377 276.629 305.927 276.629H300.846V306.105H293.311ZM312.556 289.888L321.413 306.105H313.096L304.43 289.888H312.556ZM325.467 306.105V270.469H339.527C342.23 270.469 344.533 270.985 346.435 272.018C348.338 273.039 349.788 274.46 350.785 276.281C351.794 278.091 352.299 280.179 352.299 282.545C352.299 284.912 351.789 287 350.768 288.809C349.747 290.619 348.268 292.028 346.331 293.038C344.405 294.047 342.073 294.551 339.336 294.551H330.374V288.513H338.118C339.568 288.513 340.763 288.264 341.702 287.765C342.653 287.255 343.361 286.553 343.825 285.66C344.301 284.755 344.538 283.717 344.538 282.545C344.538 281.362 344.301 280.329 343.825 279.448C343.361 278.555 342.653 277.864 341.702 277.377C340.751 276.878 339.544 276.629 338.083 276.629H333.002V306.105H325.467ZM380.823 281.988C380.579 281.141 380.237 280.393 379.796 279.744C379.356 279.082 378.816 278.526 378.178 278.073C377.552 277.609 376.832 277.255 376.02 277.012C375.22 276.768 374.333 276.646 373.358 276.646C371.537 276.646 369.936 277.099 368.556 278.004C367.187 278.908 366.119 280.225 365.354 281.953C364.588 283.67 364.205 285.77 364.205 288.252C364.205 290.735 364.582 292.846 365.336 294.586C366.09 296.326 367.158 297.655 368.538 298.571C369.919 299.476 371.548 299.928 373.428 299.928C375.133 299.928 376.589 299.627 377.795 299.023C379.013 298.409 379.941 297.544 380.579 296.431C381.229 295.317 381.554 294 381.554 292.481L383.085 292.707H373.898V287.034H388.81V291.524C388.81 294.656 388.149 297.347 386.826 299.598C385.504 301.837 383.682 303.565 381.362 304.783C379.042 305.989 376.386 306.593 373.393 306.593C370.052 306.593 367.117 305.856 364.588 304.383C362.059 302.898 360.087 300.792 358.672 298.066C357.268 295.329 356.567 292.081 356.567 288.322C356.567 285.434 356.984 282.858 357.819 280.596C358.666 278.323 359.849 276.397 361.369 274.819C362.889 273.242 364.658 272.041 366.676 271.217C368.695 270.394 370.881 269.982 373.236 269.982C375.255 269.982 377.134 270.278 378.874 270.869C380.614 271.449 382.157 272.273 383.503 273.34C384.86 274.407 385.968 275.678 386.826 277.151C387.685 278.613 388.236 280.225 388.479 281.988H380.823ZM398.663 306.558C397.514 306.558 396.528 306.152 395.705 305.34C394.893 304.516 394.487 303.53 394.487 302.382C394.487 301.245 394.893 300.27 395.705 299.458C396.528 298.646 397.514 298.24 398.663 298.24C399.777 298.24 400.751 298.646 401.586 299.458C402.421 300.27 402.839 301.245 402.839 302.382C402.839 303.147 402.642 303.849 402.247 304.487C401.865 305.114 401.36 305.618 400.734 306.001C400.107 306.372 399.417 306.558 398.663 306.558Z" fill="#B8860B"/>
</svg>
