<svg width="322" height="214" viewBox="0 0 322 214" fill="none" xmlns="http://www.w3.org/2000/svg">
<path d="M10.4268 29.4746H0.114347V0.383699H10.5121C13.4382 0.383699 15.9571 0.966086 18.0689 2.13086C20.1806 3.28616 21.8047 4.94809 22.9411 7.11665C24.0869 9.28522 24.6598 11.8799 24.6598 14.9007C24.6598 17.931 24.0869 20.5352 22.9411 22.7132C21.8047 24.8913 20.1712 26.5627 18.0405 27.7275C15.9193 28.8922 13.3814 29.4746 10.4268 29.4746ZM6.26491 24.2047H10.1712C11.9893 24.2047 13.5187 23.8828 14.7592 23.2388C16.0092 22.5854 16.9467 21.5769 17.5717 20.2132C18.2062 18.8401 18.5234 17.0693 18.5234 14.9007C18.5234 12.7511 18.2062 10.9945 17.5717 9.63086C16.9467 8.26722 16.014 7.26343 14.7734 6.61949C13.5329 5.97556 12.0036 5.65359 10.1854 5.65359H6.26491V24.2047ZM38.0227 29.9007C36.0152 29.9007 34.2822 29.5409 32.8239 28.8212C31.3655 28.1015 30.2434 27.1261 29.4574 25.8951C28.6809 24.6545 28.2926 23.272 28.2926 21.7473C28.2926 20.611 28.5199 19.6024 28.9744 18.7218C29.429 17.8411 30.0634 17.0314 30.8778 16.2928C31.6922 15.5447 32.6392 14.8013 33.7188 14.0627L39.358 10.3553C40.0871 9.89128 40.6222 9.40359 40.9631 8.89222C41.304 8.37139 41.4744 7.80794 41.4744 7.20188C41.4744 6.62423 41.2424 6.08919 40.7784 5.59677C40.3144 5.10434 39.6562 4.86287 38.804 4.87234C38.2358 4.87234 37.7434 5.00018 37.3267 5.25586C36.91 5.50207 36.5833 5.82878 36.3466 6.23597C36.1193 6.6337 36.0057 7.07878 36.0057 7.5712C36.0057 8.17726 36.1761 8.79279 36.517 9.41779C36.858 10.0428 37.3125 10.7057 37.8807 11.4064C38.4489 12.0977 39.0691 12.8458 39.7415 13.6507L53.5341 29.4746H47.2273L35.7216 16.6621C34.964 15.8004 34.2064 14.9007 33.4489 13.9632C32.7008 13.0163 32.0758 12.0125 31.5739 10.9519C31.072 9.88181 30.821 8.72177 30.821 7.47177C30.821 6.06078 31.1477 4.79184 31.8011 3.66495C32.464 2.53806 33.392 1.6479 34.5852 0.994494C35.7784 0.331616 37.1705 0.000176907 38.7614 0.000176907C40.3144 0.000176907 41.6544 0.317412 42.7812 0.951882C43.9176 1.57688 44.7888 2.41022 45.3949 3.45188C46.0104 4.48408 46.3182 5.62044 46.3182 6.86097C46.3182 8.23408 45.9773 9.47934 45.2955 10.5968C44.6231 11.7047 43.6761 12.699 42.4545 13.5797L36.517 17.8553C35.7121 18.4424 35.1155 19.0437 34.7273 19.6593C34.3485 20.2653 34.1591 20.8477 34.1591 21.4064C34.1591 22.0977 34.3295 22.718 34.6705 23.2672C35.0114 23.8165 35.4943 24.2521 36.1193 24.574C36.7443 24.8865 37.4782 25.0428 38.321 25.0428C39.3438 25.0428 40.3523 24.8108 41.3466 24.3468C42.3504 23.8733 43.2595 23.2057 44.0739 22.3439C44.8977 21.4727 45.5559 20.4405 46.0483 19.2473C46.5407 18.0542 46.7869 16.7331 46.7869 15.2843H51.8011C51.8011 17.0646 51.607 18.6697 51.2188 20.0996C50.8305 21.5201 50.2907 22.7606 49.5994 23.8212C48.9081 24.8723 48.1174 25.7341 47.2273 26.4064C46.9432 26.5864 46.6686 26.7568 46.4034 26.9178C46.1383 27.0788 45.8636 27.2492 45.5795 27.4292C44.5 28.3004 43.2926 28.9301 41.9574 29.3184C40.6316 29.7066 39.3201 29.9007 38.0227 29.9007ZM66.4815 29.4746H56.169V0.383699H66.5668C69.4929 0.383699 72.0118 0.966086 74.1236 2.13086C76.2353 3.28616 77.8594 4.94809 78.9957 7.11665C80.1416 9.28522 80.7145 11.8799 80.7145 14.9007C80.7145 17.931 80.1416 20.5352 78.9957 22.7132C77.8594 24.8913 76.2259 26.5627 74.0952 27.7275C71.974 28.8922 69.4361 29.4746 66.4815 29.4746ZM62.3196 24.2047H66.2259C68.044 24.2047 69.5734 23.8828 70.8139 23.2388C72.0639 22.5854 73.0014 21.5769 73.6264 20.2132C74.2609 18.8401 74.5781 17.0693 74.5781 14.9007C74.5781 12.7511 74.2609 10.9945 73.6264 9.63086C73.0014 8.26722 72.0687 7.26343 70.8281 6.61949C69.5876 5.97556 68.0582 5.65359 66.2401 5.65359H62.3196V24.2047ZM93.2926 23.2956H99.1591C99.1875 24.0153 99.5095 24.5835 100.125 25.0002C100.741 25.4168 101.536 25.6252 102.511 25.6252C103.496 25.6252 104.325 25.3979 104.997 24.9434C105.67 24.4793 106.006 23.8165 106.006 22.9547C106.006 22.4244 105.873 21.9651 105.608 21.5769C105.343 21.1792 104.973 20.8667 104.5 20.6394C104.027 20.4121 103.477 20.2985 102.852 20.2985H99.7131V16.3354H102.852C103.79 16.3354 104.509 16.1176 105.011 15.682C105.523 15.2464 105.778 14.7019 105.778 14.0485C105.778 13.3098 105.513 12.718 104.983 12.2729C104.462 11.8184 103.757 11.5911 102.866 11.5911C101.967 11.5911 101.219 11.7947 100.622 12.2019C100.035 12.5996 99.732 13.1204 99.7131 13.7644H93.875C93.8939 12.4576 94.2869 11.3259 95.054 10.3695C95.8305 9.41306 96.8722 8.67442 98.179 8.15359C99.4953 7.63275 100.968 7.37234 102.597 7.37234C104.377 7.37234 105.911 7.62328 107.199 8.12518C108.496 8.6176 109.491 9.32309 110.182 10.2417C110.883 11.1602 111.233 12.254 111.233 13.5229C111.233 14.6782 110.854 15.6441 110.097 16.4206C109.339 17.1971 108.278 17.7511 106.915 18.0826V18.3098C107.814 18.3667 108.629 18.6081 109.358 19.0343C110.087 19.4604 110.67 20.0475 111.105 20.7956C111.541 21.5343 111.759 22.4102 111.759 23.4235C111.759 24.7776 111.361 25.9377 110.565 26.9036C109.779 27.8695 108.69 28.6129 107.298 29.1337C105.916 29.6451 104.33 29.9007 102.54 29.9007C100.797 29.9007 99.2348 29.6498 97.8523 29.1479C96.4792 28.6365 95.3854 27.8884 94.571 26.9036C93.7661 25.9187 93.34 24.7161 93.2926 23.2956ZM121.691 29.8865C120.299 29.8865 119.058 29.6451 117.969 29.1621C116.88 28.6697 116.019 27.9453 115.384 26.9888C114.759 26.0229 114.447 24.8203 114.447 23.3809C114.447 22.1687 114.669 21.1507 115.114 20.3269C115.559 19.503 116.165 18.8401 116.933 18.3382C117.7 17.8364 118.571 17.4576 119.546 17.2019C120.531 16.9462 121.563 16.7663 122.643 16.6621C123.912 16.5295 124.934 16.4064 125.711 16.2928C126.487 16.1697 127.051 15.9898 127.401 15.753C127.752 15.5163 127.927 15.1659 127.927 14.7019V14.6167C127.927 13.717 127.643 13.021 127.075 12.5286C126.516 12.0362 125.72 11.7899 124.688 11.7899C123.599 11.7899 122.733 12.0314 122.089 12.5144C121.445 12.9879 121.019 13.5845 120.81 14.3042L115.214 13.8496C115.498 12.5239 116.057 11.378 116.89 10.4121C117.723 9.43673 118.798 8.68862 120.114 8.16779C121.44 7.63749 122.974 7.37234 124.717 7.37234C125.929 7.37234 127.089 7.51438 128.197 7.79847C129.314 8.08256 130.304 8.5229 131.165 9.11949C132.037 9.71609 132.723 10.4831 133.225 11.4206C133.727 12.3487 133.978 13.4614 133.978 14.7587V29.4746H128.239V26.449H128.069C127.719 27.1309 127.25 27.7322 126.663 28.253C126.076 28.7644 125.37 29.1668 124.546 29.4604C123.722 29.7445 122.771 29.8865 121.691 29.8865ZM123.424 25.7104C124.314 25.7104 125.1 25.5352 125.782 25.1848C126.464 24.825 126.999 24.342 127.387 23.736C127.775 23.1299 127.969 22.4434 127.969 21.6763V19.361C127.78 19.4841 127.52 19.5977 127.188 19.7019C126.866 19.7966 126.502 19.8865 126.094 19.9718C125.687 20.0475 125.28 20.1185 124.873 20.1848C124.466 20.2417 124.096 20.2937 123.765 20.3411C123.055 20.4453 122.434 20.611 121.904 20.8382C121.374 21.0655 120.962 21.3733 120.668 21.7615C120.375 22.1403 120.228 22.6138 120.228 23.182C120.228 24.0059 120.526 24.6356 121.123 25.0712C121.729 25.4973 122.496 25.7104 123.424 25.7104ZM151.57 22.7843L157.479 7.65643H162.082L153.573 29.4746H149.553L141.244 7.65643H145.832L151.57 22.7843ZM144.454 7.65643V29.4746H138.673V7.65643H144.454ZM158.985 29.4746V7.65643H164.695V29.4746H158.985ZM179.319 29.9007C177.075 29.9007 175.143 29.4462 173.523 28.5371C171.914 27.6185 170.673 26.3212 169.802 24.6451C168.931 22.9595 168.495 20.9661 168.495 18.6649C168.495 16.4206 168.931 14.4509 169.802 12.7559C170.673 11.0608 171.899 9.73976 173.481 8.79279C175.072 7.84582 176.937 7.37234 179.077 7.37234C180.517 7.37234 181.857 7.60434 183.097 8.06836C184.347 8.5229 185.436 9.20946 186.364 10.128C187.302 11.0466 188.031 12.2019 188.552 13.5939C189.073 14.9765 189.333 16.5958 189.333 18.4519V20.1138H170.91V16.3638H183.637C183.637 15.4926 183.448 14.7208 183.069 14.0485C182.69 13.3761 182.165 12.8506 181.492 12.4718C180.829 12.0835 180.058 11.8894 179.177 11.8894C178.258 11.8894 177.444 12.1024 176.734 12.5286C176.033 12.9453 175.484 13.5087 175.086 14.2189C174.688 14.9197 174.485 15.7009 174.475 16.5627V20.128C174.475 21.2076 174.674 22.1403 175.072 22.9263C175.479 23.7123 176.052 24.3184 176.79 24.7445C177.529 25.1706 178.405 25.3837 179.418 25.3837C180.091 25.3837 180.706 25.289 181.265 25.0996C181.824 24.9102 182.302 24.6261 182.7 24.2473C183.097 23.8685 183.4 23.4045 183.609 22.8553L189.205 23.2246C188.921 24.5693 188.339 25.7435 187.458 26.7473C186.587 27.7417 185.46 28.5182 184.077 29.0769C182.704 29.6261 181.118 29.9007 179.319 29.9007ZM208.467 16.1507V20.9093H197.075V16.1507H208.467ZM199.063 7.65643V29.4746H193.282V7.65643H199.063ZM212.259 7.65643V29.4746H206.521V7.65643H212.259ZM222.735 21.4917L230.59 7.65643H236.556V29.4746H230.789V15.5968L222.962 29.4746H216.954V7.65643H222.735V21.4917ZM240.129 29.4746L240.1 24.6735H240.825C241.336 24.6735 241.776 24.5504 242.146 24.3042C242.524 24.0485 242.837 23.6365 243.083 23.0684C243.329 22.5002 243.523 21.7473 243.665 20.8098C243.808 19.8629 243.902 18.6981 243.95 17.3155L244.305 7.65643H260.896V29.4746H255.129V12.4149H249.745L249.404 19.0769C249.319 20.9045 249.096 22.4765 248.737 23.7928C248.386 25.1091 247.898 26.1886 247.273 27.0314C246.648 27.8648 245.896 28.4803 245.015 28.878C244.134 29.2757 243.112 29.4746 241.947 29.4746H240.129ZM5.78196 65.4917L13.6371 51.6564H19.603V73.4746H13.8359V59.5968L6.00923 73.4746H0.000710309V51.6564H5.78196V65.4917ZM39.397 51.6564V56.4149H30.3345V73.4746H24.4538V51.6564H39.397ZM43.0866 81.6564V51.6564H49.0526V55.3212H49.3224C49.5876 54.7341 49.9711 54.1375 50.473 53.5314C50.9844 52.9159 51.6473 52.4045 52.4616 51.9973C53.2855 51.5807 54.3082 51.3723 55.5298 51.3723C57.1207 51.3723 58.5885 51.789 59.9332 52.6223C61.2779 53.4462 62.3527 54.6915 63.1577 56.3581C63.9626 58.0153 64.3651 60.0939 64.3651 62.5939C64.3651 65.0276 63.9721 67.0826 63.1861 68.7587C62.4096 70.4254 61.349 71.6896 60.0043 72.5513C58.669 73.4036 57.1728 73.8297 55.5156 73.8297C54.3414 73.8297 53.3423 73.6356 52.5185 73.2473C51.7041 72.8591 51.0365 72.3714 50.5156 71.7843C49.9948 71.1877 49.5971 70.5864 49.3224 69.9803H49.1378V81.6564H43.0866ZM49.0099 62.5655C49.0099 63.8629 49.1899 64.9945 49.5497 65.9604C49.9096 66.9263 50.4304 67.6792 51.1122 68.2189C51.794 68.7492 52.6226 69.0144 53.598 69.0144C54.5829 69.0144 55.4162 68.7445 56.098 68.2047C56.7798 67.6555 57.2959 66.8979 57.6463 65.932C58.0062 64.9566 58.1861 63.8345 58.1861 62.5655C58.1861 61.306 58.0109 60.1981 57.6605 59.2417C57.3101 58.2852 56.794 57.5371 56.1122 56.9973C55.4304 56.4576 54.5923 56.1877 53.598 56.1877C52.6132 56.1877 51.7798 56.4481 51.098 56.9689C50.4257 57.4898 49.9096 58.2284 49.5497 59.1848C49.1899 60.1413 49.0099 61.2682 49.0099 62.5655ZM78.2571 73.9007C76.0507 73.9007 74.1425 73.432 72.5327 72.4945C70.9323 71.5475 69.6965 70.2312 68.8253 68.5456C67.9541 66.8506 67.5185 64.8856 67.5185 62.6507C67.5185 60.397 67.9541 58.4273 68.8253 56.7417C69.6965 55.0466 70.9323 53.7303 72.5327 52.7928C74.1425 51.8458 76.0507 51.3723 78.2571 51.3723C80.4635 51.3723 82.367 51.8458 83.9673 52.7928C85.5772 53.7303 86.8177 55.0466 87.6889 56.7417C88.5601 58.4273 88.9957 60.397 88.9957 62.6507C88.9957 64.8856 88.5601 66.8506 87.6889 68.5456C86.8177 70.2312 85.5772 71.5475 83.9673 72.4945C82.367 73.432 80.4635 73.9007 78.2571 73.9007ZM78.2855 69.2132C79.2893 69.2132 80.1274 68.9292 80.7997 68.361C81.4721 67.7833 81.9787 66.9973 82.3196 66.003C82.67 65.0087 82.8452 63.8771 82.8452 62.6081C82.8452 61.3392 82.67 60.2076 82.3196 59.2132C81.9787 58.2189 81.4721 57.4329 80.7997 56.8553C80.1274 56.2776 79.2893 55.9888 78.2855 55.9888C77.2723 55.9888 76.42 56.2776 75.7287 56.8553C75.0469 57.4329 74.5308 58.2189 74.1804 59.2132C73.8395 60.2076 73.669 61.3392 73.669 62.6081C73.669 63.8771 73.8395 65.0087 74.1804 66.003C74.5308 66.9973 75.0469 67.7833 75.7287 68.361C76.42 68.9292 77.2723 69.2132 78.2855 69.2132ZM92.9304 73.4746V51.6564H102.234C104.924 51.6564 107.05 52.1678 108.612 53.1905C110.175 54.2132 110.956 55.6668 110.956 57.5513C110.956 58.735 110.516 59.7199 109.635 60.5059C108.754 61.2918 107.533 61.8221 105.97 62.0968C107.277 62.1915 108.39 62.4898 109.308 62.9917C110.236 63.4841 110.942 64.1233 111.425 64.9093C111.917 65.6953 112.163 66.5665 112.163 67.5229C112.163 68.7634 111.832 69.8288 111.169 70.7189C110.516 71.6091 109.554 72.2909 108.286 72.7644C107.026 73.2379 105.487 73.4746 103.669 73.4746H92.9304ZM98.5696 68.9434H103.669C104.512 68.9434 105.17 68.7445 105.643 68.3468C106.126 67.9396 106.368 67.3856 106.368 66.6848C106.368 65.9083 106.126 65.2975 105.643 64.8525C105.17 64.4074 104.512 64.1848 103.669 64.1848H98.5696V68.9434ZM98.5696 60.6337H102.362C102.968 60.6337 103.484 60.5485 103.911 60.378C104.346 60.1981 104.678 59.9424 104.905 59.611C105.142 59.2795 105.26 58.8865 105.26 58.432C105.26 57.7596 104.99 57.2341 104.45 56.8553C103.911 56.4765 103.172 56.2871 102.234 56.2871H98.5696V60.6337ZM125.835 73.9007C123.629 73.9007 121.721 73.432 120.111 72.4945C118.51 71.5475 117.275 70.2312 116.403 68.5456C115.532 66.8506 115.097 64.8856 115.097 62.6507C115.097 60.397 115.532 58.4273 116.403 56.7417C117.275 55.0466 118.51 53.7303 120.111 52.7928C121.721 51.8458 123.629 51.3723 125.835 51.3723C128.042 51.3723 129.945 51.8458 131.545 52.7928C133.155 53.7303 134.396 55.0466 135.267 56.7417C136.138 58.4273 136.574 60.397 136.574 62.6507C136.574 64.8856 136.138 66.8506 135.267 68.5456C134.396 70.2312 133.155 71.5475 131.545 72.4945C129.945 73.432 128.042 73.9007 125.835 73.9007ZM125.864 69.2132C126.867 69.2132 127.705 68.9292 128.378 68.361C129.05 67.7833 129.557 66.9973 129.898 66.003C130.248 65.0087 130.423 63.8771 130.423 62.6081C130.423 61.3392 130.248 60.2076 129.898 59.2132C129.557 58.2189 129.05 57.4329 128.378 56.8553C127.705 56.2776 126.867 55.9888 125.864 55.9888C124.85 55.9888 123.998 56.2776 123.307 56.8553C122.625 57.4329 122.109 58.2189 121.759 59.2132C121.418 60.2076 121.247 61.3392 121.247 62.6081C121.247 63.8771 121.418 65.0087 121.759 66.003C122.109 66.9973 122.625 67.7833 123.307 68.361C123.998 68.9292 124.85 69.2132 125.864 69.2132ZM150.452 73.9007C148.207 73.9007 146.276 73.4462 144.656 72.5371C143.046 71.6185 141.806 70.3212 140.935 68.6451C140.063 66.9595 139.628 64.9661 139.628 62.6649C139.628 60.4206 140.063 58.4509 140.935 56.7559C141.806 55.0608 143.032 53.7398 144.614 52.7928C146.205 51.8458 148.07 51.3723 150.21 51.3723C151.65 51.3723 152.99 51.6043 154.23 52.0684C155.48 52.5229 156.569 53.2095 157.497 54.128C158.435 55.0466 159.164 56.2019 159.685 57.5939C160.205 58.9765 160.466 60.5958 160.466 62.4519V64.1138H142.043V60.3638H154.77C154.77 59.4926 154.58 58.7208 154.202 58.0485C153.823 57.3761 153.297 56.8506 152.625 56.4718C151.962 56.0835 151.19 55.8894 150.31 55.8894C149.391 55.8894 148.577 56.1024 147.866 56.5286C147.166 56.9453 146.616 57.5087 146.219 58.2189C145.821 58.9197 145.617 59.7009 145.608 60.5627V64.128C145.608 65.2076 145.807 66.1403 146.205 66.9263C146.612 67.7123 147.185 68.3184 147.923 68.7445C148.662 69.1706 149.538 69.3837 150.551 69.3837C151.223 69.3837 151.839 69.289 152.398 69.0996C152.956 68.9102 153.435 68.6261 153.832 68.2473C154.23 67.8685 154.533 67.4045 154.741 66.8553L160.338 67.2246C160.054 68.5693 159.472 69.7435 158.591 70.7473C157.72 71.7417 156.593 72.5182 155.21 73.0769C153.837 73.6261 152.251 73.9007 150.452 73.9007ZM173.673 73.4746V51.6564H192.749V73.4746H186.968V56.4149H179.383V73.4746H173.673ZM207.437 73.9007C205.23 73.9007 203.322 73.432 201.712 72.4945C200.112 71.5475 198.876 70.2312 198.005 68.5456C197.134 66.8506 196.698 64.8856 196.698 62.6507C196.698 60.397 197.134 58.4273 198.005 56.7417C198.876 55.0466 200.112 53.7303 201.712 52.7928C203.322 51.8458 205.23 51.3723 207.437 51.3723C209.643 51.3723 211.547 51.8458 213.147 52.7928C214.757 53.7303 215.997 55.0466 216.869 56.7417C217.74 58.4273 218.175 60.397 218.175 62.6507C218.175 64.8856 217.74 66.8506 216.869 68.5456C215.997 70.2312 214.757 71.5475 213.147 72.4945C211.547 73.432 209.643 73.9007 207.437 73.9007ZM207.465 69.2132C208.469 69.2132 209.307 68.9292 209.979 68.361C210.652 67.7833 211.158 66.9973 211.499 66.003C211.85 65.0087 212.025 63.8771 212.025 62.6081C212.025 61.3392 211.85 60.2076 211.499 59.2132C211.158 58.2189 210.652 57.4329 209.979 56.8553C209.307 56.2776 208.469 55.9888 207.465 55.9888C206.452 55.9888 205.6 56.2776 204.908 56.8553C204.227 57.4329 203.71 58.2189 203.36 59.2132C203.019 60.2076 202.849 61.3392 202.849 62.6081C202.849 63.8771 203.019 65.0087 203.36 66.003C203.71 66.9973 204.227 67.7833 204.908 68.361C205.6 68.9292 206.452 69.2132 207.465 69.2132ZM220.832 73.4746L220.803 68.6735H221.528C222.039 68.6735 222.479 68.5504 222.849 68.3042C223.228 68.0485 223.54 67.6365 223.786 67.0684C224.032 66.5002 224.227 65.7473 224.369 64.8098C224.511 63.8629 224.605 62.6981 224.653 61.3155L225.008 51.6564H241.599V73.4746H235.832V56.4149H230.448L230.107 63.0769C230.022 64.9045 229.799 66.4765 229.44 67.7928C229.089 69.1091 228.602 70.1886 227.977 71.0314C227.352 71.8648 226.599 72.4803 225.718 72.878C224.837 73.2757 223.815 73.4746 222.65 73.4746H220.832ZM256.233 73.9007C253.989 73.9007 252.057 73.4462 250.438 72.5371C248.828 71.6185 247.587 70.3212 246.716 68.6451C245.845 66.9595 245.409 64.9661 245.409 62.6649C245.409 60.4206 245.845 58.4509 246.716 56.7559C247.587 55.0608 248.813 53.7398 250.395 52.7928C251.986 51.8458 253.851 51.3723 255.991 51.3723C257.431 51.3723 258.771 51.6043 260.011 52.0684C261.261 52.5229 262.35 53.2095 263.278 54.128C264.216 55.0466 264.945 56.2019 265.466 57.5939C265.987 58.9765 266.247 60.5958 266.247 62.4519V64.1138H247.824V60.3638H260.551C260.551 59.4926 260.362 58.7208 259.983 58.0485C259.604 57.3761 259.079 56.8506 258.406 56.4718C257.743 56.0835 256.972 55.8894 256.091 55.8894C255.172 55.8894 254.358 56.1024 253.648 56.5286C252.947 56.9453 252.398 57.5087 252 58.2189C251.602 58.9197 251.399 59.7009 251.389 60.5627V64.128C251.389 65.2076 251.588 66.1403 251.986 66.9263C252.393 67.7123 252.966 68.3184 253.705 68.7445C254.443 69.1706 255.319 69.3837 256.332 69.3837C257.005 69.3837 257.62 69.289 258.179 69.0996C258.738 68.9102 259.216 68.6261 259.614 68.2473C260.011 67.8685 260.314 67.4045 260.523 66.8553L266.119 67.2246C265.835 68.5693 265.253 69.7435 264.372 70.7473C263.501 71.7417 262.374 72.5182 260.991 73.0769C259.618 73.6261 258.032 73.9007 256.233 73.9007ZM15.1854 104.151V108.909H3.79332V104.151H15.1854ZM5.78196 95.6564V117.475H0.000710309V95.6564H5.78196ZM18.978 95.6564V117.475H13.2393V95.6564H18.978ZM29.8942 117.887C28.5021 117.887 27.2616 117.645 26.1726 117.162C25.0836 116.67 24.2218 115.945 23.5874 114.989C22.9624 114.023 22.6499 112.82 22.6499 111.381C22.6499 110.169 22.8724 109.151 23.3175 108.327C23.7625 107.503 24.3686 106.84 25.1357 106.338C25.9027 105.836 26.7739 105.458 27.7493 105.202C28.7341 104.946 29.7663 104.766 30.8459 104.662C32.1148 104.53 33.1375 104.406 33.9141 104.293C34.6906 104.17 35.254 103.99 35.6044 103.753C35.9548 103.516 36.13 103.166 36.13 102.702V102.617C36.13 101.717 35.8459 101.021 35.2777 100.529C34.719 100.036 33.9235 99.7899 32.8913 99.7899C31.8023 99.7899 30.9358 100.031 30.2919 100.514C29.648 100.988 29.2218 101.584 29.0135 102.304L23.4169 101.85C23.701 100.524 24.2597 99.378 25.093 98.4121C25.9264 97.4367 27.0012 96.6886 28.3175 96.1678C29.6432 95.6375 31.1773 95.3723 32.9197 95.3723C34.1319 95.3723 35.2919 95.5144 36.3999 95.7985C37.5173 96.0826 38.5069 96.5229 39.3686 97.1195C40.2398 97.7161 40.9264 98.4831 41.4283 99.4206C41.9302 100.349 42.1811 101.461 42.1811 102.759V117.475H36.4425V114.449H36.272C35.9216 115.131 35.4529 115.732 34.8658 116.253C34.2786 116.764 33.5732 117.167 32.7493 117.46C31.9254 117.744 30.9737 117.887 29.8942 117.887ZM31.6271 113.71C32.5173 113.71 33.3033 113.535 33.9851 113.185C34.6669 112.825 35.2019 112.342 35.5902 111.736C35.9785 111.13 36.1726 110.443 36.1726 109.676V107.361C35.9832 107.484 35.7228 107.598 35.3913 107.702C35.0694 107.797 34.7048 107.887 34.2976 107.972C33.8904 108.048 33.4832 108.119 33.076 108.185C32.6688 108.242 32.2995 108.294 31.968 108.341C31.2578 108.445 30.6375 108.611 30.1072 108.838C29.5769 109.066 29.165 109.373 28.8714 109.762C28.5779 110.14 28.4311 110.614 28.4311 111.182C28.4311 112.006 28.7294 112.636 29.326 113.071C29.9321 113.497 30.6991 113.71 31.6271 113.71ZM74.2727 87.6451L76.1193 91.5939C75.5038 92.1053 74.822 92.4841 74.0739 92.7303C73.3258 92.967 72.4309 93.1233 71.3892 93.199C70.357 93.2748 69.0975 93.3269 67.6108 93.3553C65.9252 93.3742 64.5521 93.6441 63.4915 94.1649C62.4309 94.6858 61.6259 95.5049 61.0767 96.6223C60.5275 97.7303 60.1676 99.1792 59.9972 100.969H60.2102C60.8636 99.6337 61.7822 98.6015 62.9659 97.8723C64.1591 97.1432 65.6316 96.7786 67.3835 96.7786C69.2396 96.7786 70.8636 97.1858 72.2557 98.0002C73.6572 98.8146 74.7462 99.9841 75.5227 101.509C76.2992 103.033 76.6875 104.861 76.6875 106.992C76.6875 109.208 76.2519 111.135 75.3807 112.773C74.5189 114.402 73.2926 115.666 71.7017 116.566C70.1108 117.456 68.2169 117.901 66.0199 117.901C63.8134 117.901 61.91 117.437 60.3097 116.509C58.7188 115.581 57.4877 114.212 56.6165 112.404C55.7547 110.595 55.3239 108.369 55.3239 105.727V103.938C55.3239 98.682 56.3466 94.7852 58.392 92.2473C60.4375 89.7095 63.4441 88.4216 67.4119 88.3837C68.4915 88.3648 69.4669 88.36 70.3381 88.3695C71.2093 88.379 71.9716 88.3364 72.625 88.2417C73.2879 88.147 73.8371 87.9481 74.2727 87.6451ZM66.0483 113.213C66.9763 113.213 67.7718 112.972 68.4347 112.489C69.107 112.006 69.6231 111.315 69.983 110.415C70.3523 109.515 70.5369 108.441 70.5369 107.191C70.5369 105.95 70.3523 104.899 69.983 104.037C69.6231 103.166 69.107 102.503 68.4347 102.048C67.7623 101.594 66.9574 101.367 66.0199 101.367C65.3191 101.367 64.6894 101.494 64.1307 101.75C63.572 102.006 63.0938 102.385 62.696 102.887C62.3078 103.379 62.0047 103.99 61.7869 104.719C61.5786 105.439 61.4744 106.262 61.4744 107.191C61.4744 109.056 61.8769 110.529 62.6818 111.608C63.4962 112.678 64.6184 113.213 66.0483 113.213ZM90.647 117.901C88.4027 117.901 86.4709 117.446 84.8516 116.537C83.2417 115.619 82.0012 114.321 81.13 112.645C80.2588 110.959 79.8232 108.966 79.8232 106.665C79.8232 104.421 80.2588 102.451 81.13 100.756C82.0012 99.0608 83.2275 97.7398 84.8089 96.7928C86.3999 95.8458 88.2654 95.3723 90.4055 95.3723C91.8449 95.3723 93.1849 95.6043 94.4254 96.0684C95.6754 96.5229 96.7644 97.2095 97.6925 98.128C98.63 99.0466 99.3591 100.202 99.88 101.594C100.401 102.977 100.661 104.596 100.661 106.452V108.114H82.2379V104.364H94.9652C94.9652 103.493 94.7758 102.721 94.397 102.048C94.0182 101.376 93.4927 100.851 92.8203 100.472C92.1574 100.084 91.3857 99.8894 90.505 99.8894C89.5864 99.8894 88.772 100.102 88.0618 100.529C87.361 100.945 86.8118 101.509 86.4141 102.219C86.0163 102.92 85.8127 103.701 85.8033 104.563V108.128C85.8033 109.208 86.0021 110.14 86.3999 110.926C86.8071 111.712 87.38 112.318 88.1186 112.744C88.8572 113.171 89.7332 113.384 90.7464 113.384C91.4188 113.384 92.0343 113.289 92.593 113.1C93.1518 112.91 93.63 112.626 94.0277 112.247C94.4254 111.869 94.7285 111.405 94.9368 110.855L100.533 111.225C100.249 112.569 99.6669 113.744 98.7862 114.747C97.915 115.742 96.7881 116.518 95.4055 117.077C94.0324 117.626 92.4463 117.901 90.647 117.901ZM114.468 117.901C112.233 117.901 110.311 117.427 108.701 116.48C107.101 115.524 105.87 114.198 105.008 112.503C104.156 110.808 103.729 108.857 103.729 106.651C103.729 104.416 104.16 102.456 105.022 100.77C105.893 99.075 107.129 97.754 108.729 96.807C110.33 95.8506 112.233 95.3723 114.44 95.3723C116.343 95.3723 118.01 95.718 119.44 96.4093C120.87 97.1006 122.001 98.0712 122.835 99.3212C123.668 100.571 124.127 102.039 124.212 103.725H118.502C118.341 102.636 117.915 101.76 117.224 101.097C116.542 100.424 115.647 100.088 114.539 100.088C113.602 100.088 112.782 100.344 112.082 100.855C111.39 101.357 110.851 102.091 110.462 103.057C110.074 104.023 109.88 105.192 109.88 106.566C109.88 107.958 110.069 109.141 110.448 110.117C110.836 111.092 111.381 111.835 112.082 112.347C112.782 112.858 113.602 113.114 114.539 113.114C115.23 113.114 115.851 112.972 116.4 112.688C116.959 112.404 117.418 111.992 117.778 111.452C118.147 110.903 118.388 110.244 118.502 109.477H124.212C124.118 111.144 123.663 112.612 122.849 113.881C122.044 115.14 120.931 116.125 119.511 116.835C118.09 117.546 116.409 117.901 114.468 117.901ZM128.087 117.475V95.6564H134.138V104.122H135.842L141.78 95.6564H148.882L141.169 106.48L148.967 117.475H141.78L136.396 109.733H134.138V117.475H128.087ZM160.484 117.901C158.277 117.901 156.369 117.432 154.759 116.494C153.159 115.548 151.923 114.231 151.052 112.546C150.181 110.851 149.745 108.886 149.745 106.651C149.745 104.397 150.181 102.427 151.052 100.742C151.923 99.0466 153.159 97.7303 154.759 96.7928C156.369 95.8458 158.277 95.3723 160.484 95.3723C162.69 95.3723 164.594 95.8458 166.194 96.7928C167.804 97.7303 169.044 99.0466 169.915 100.742C170.787 102.427 171.222 104.397 171.222 106.651C171.222 108.886 170.787 110.851 169.915 112.546C169.044 114.231 167.804 115.548 166.194 116.494C164.594 117.432 162.69 117.901 160.484 117.901ZM160.512 113.213C161.516 113.213 162.354 112.929 163.026 112.361C163.699 111.783 164.205 110.997 164.546 110.003C164.897 109.009 165.072 107.877 165.072 106.608C165.072 105.339 164.897 104.208 164.546 103.213C164.205 102.219 163.699 101.433 163.026 100.855C162.354 100.278 161.516 99.9888 160.512 99.9888C159.499 99.9888 158.647 100.278 157.955 100.855C157.273 101.433 156.757 102.219 156.407 103.213C156.066 104.208 155.896 105.339 155.896 106.608C155.896 107.877 156.066 109.009 156.407 110.003C156.757 110.997 157.273 111.783 157.955 112.361C158.647 112.929 159.499 113.213 160.512 113.213ZM190.342 104.151V108.909H178.95V104.151H190.342ZM180.938 95.6564V117.475H175.157V95.6564H180.938ZM194.134 95.6564V117.475H188.396V95.6564H194.134ZM208.772 117.901C206.528 117.901 204.596 117.446 202.977 116.537C201.367 115.619 200.126 114.321 199.255 112.645C198.384 110.959 197.948 108.966 197.948 106.665C197.948 104.421 198.384 102.451 199.255 100.756C200.126 99.0608 201.353 97.7398 202.934 96.7928C204.525 95.8458 206.39 95.3723 208.531 95.3723C209.97 95.3723 211.31 95.6043 212.55 96.0684C213.8 96.5229 214.889 97.2095 215.817 98.128C216.755 99.0466 217.484 100.202 218.005 101.594C218.526 102.977 218.786 104.596 218.786 106.452V108.114H200.363V104.364H213.09C213.09 103.493 212.901 102.721 212.522 102.048C212.143 101.376 211.618 100.851 210.945 100.472C210.282 100.084 209.511 99.8894 208.63 99.8894C207.711 99.8894 206.897 100.102 206.187 100.529C205.486 100.945 204.937 101.509 204.539 102.219C204.141 102.92 203.938 103.701 203.928 104.563V108.128C203.928 109.208 204.127 110.14 204.525 110.926C204.932 111.712 205.505 112.318 206.244 112.744C206.982 113.171 207.858 113.384 208.871 113.384C209.544 113.384 210.159 113.289 210.718 113.1C211.277 112.91 211.755 112.626 212.153 112.247C212.55 111.869 212.853 111.405 213.062 110.855L218.658 111.225C218.374 112.569 217.792 113.744 216.911 114.747C216.04 115.742 214.913 116.518 213.531 117.077C212.157 117.626 210.571 117.901 208.772 117.901ZM241.67 95.6564V117.475H235.931V95.6564H241.67ZM238.871 105.23V110.003C238.407 110.211 237.83 110.41 237.138 110.6C236.447 110.78 235.723 110.926 234.965 111.04C234.208 111.154 233.497 111.21 232.835 111.21C229.7 111.21 227.233 110.566 225.434 109.279C223.635 107.981 222.735 105.912 222.735 103.071V95.628H228.445V103.071C228.445 103.914 228.587 104.582 228.871 105.074C229.165 105.566 229.629 105.922 230.263 106.139C230.907 106.348 231.764 106.452 232.835 106.452C233.829 106.452 234.804 106.348 235.761 106.139C236.717 105.931 237.754 105.628 238.871 105.23ZM261.553 104.151V108.909H250.161V104.151H261.553ZM252.149 95.6564V117.475H246.368V95.6564H252.149ZM265.345 95.6564V117.475H259.607V95.6564H265.345ZM272.994 125.656C272.227 125.656 271.508 125.595 270.835 125.472C270.172 125.358 269.623 125.211 269.188 125.031L270.551 120.514C271.261 120.732 271.901 120.851 272.469 120.869C273.046 120.888 273.544 120.756 273.96 120.472C274.386 120.188 274.732 119.705 274.997 119.023L275.352 118.1L267.526 95.6564H273.889L278.406 111.679H278.634L283.193 95.6564H289.599L281.119 119.833C280.712 121.007 280.158 122.03 279.457 122.901C278.766 123.781 277.89 124.459 276.83 124.932C275.769 125.415 274.491 125.656 272.994 125.656ZM304.756 104.279V109.08H292.923V104.279H304.756ZM297.597 95.6564V117.475H291.56V95.6564H297.597ZM311.29 117.901C309.131 117.901 307.265 117.418 305.693 116.452C304.121 115.486 302.909 114.151 302.057 112.446C301.214 110.742 300.793 108.786 300.793 106.58C300.793 104.373 301.214 102.427 302.057 100.742C302.909 99.056 304.121 97.7398 305.693 96.7928C307.265 95.8458 309.131 95.3723 311.29 95.3723C313.458 95.3723 315.324 95.8458 316.886 96.7928C318.458 97.7398 319.666 99.056 320.509 100.742C321.361 102.427 321.787 104.373 321.787 106.58C321.787 108.786 321.361 110.742 320.509 112.446C319.666 114.151 318.458 115.486 316.886 116.452C315.324 117.418 313.458 117.901 311.29 117.901ZM311.29 113.014C312.417 113.014 313.326 112.74 314.017 112.191C314.708 111.632 315.215 110.869 315.537 109.904C315.859 108.928 316.02 107.82 316.02 106.58C316.02 105.339 315.859 104.241 315.537 103.284C315.215 102.318 314.708 101.561 314.017 101.012C313.326 100.462 312.417 100.188 311.29 100.188C310.172 100.188 309.263 100.462 308.562 101.012C307.862 101.551 307.346 102.299 307.014 103.256C306.692 104.212 306.531 105.32 306.531 106.58C306.531 107.83 306.692 108.938 307.014 109.904C307.346 110.869 307.862 111.632 308.562 112.191C309.263 112.74 310.172 113.014 311.29 113.014ZM0.000710309 161.475V139.656H9.30469C11.9941 139.656 14.12 140.168 15.6825 141.191C17.245 142.213 18.0263 143.667 18.0263 145.551C18.0263 146.735 17.5859 147.72 16.7053 148.506C15.8246 149.292 14.603 149.822 13.0405 150.097C14.3473 150.191 15.46 150.49 16.3786 150.992C17.3066 151.484 18.0121 152.123 18.495 152.909C18.9875 153.695 19.2337 154.566 19.2337 155.523C19.2337 156.763 18.9022 157.829 18.2393 158.719C17.5859 159.609 16.6248 160.291 15.3558 160.764C14.0964 161.238 12.5575 161.475 10.7393 161.475H0.000710309ZM5.63991 156.943H10.7393C11.5821 156.943 12.2403 156.744 12.7138 156.347C13.1967 155.94 13.4382 155.386 13.4382 154.685C13.4382 153.908 13.1967 153.298 12.7138 152.852C12.2403 152.407 11.5821 152.185 10.7393 152.185H5.63991V156.943ZM5.63991 148.634H9.43253C10.0386 148.634 10.5547 148.548 10.9808 148.378C11.4164 148.198 11.7479 147.942 11.9751 147.611C12.2119 147.28 12.3303 146.887 12.3303 146.432C12.3303 145.76 12.0604 145.234 11.5206 144.855C10.9808 144.477 10.2422 144.287 9.30469 144.287H5.63991V148.634ZM32.9055 161.901C30.6707 161.901 28.7483 161.427 27.1385 160.48C25.5381 159.524 24.3071 158.198 23.4453 156.503C22.593 154.808 22.1669 152.857 22.1669 150.651C22.1669 148.416 22.5978 146.456 23.4595 144.77C24.3307 143.075 25.5665 141.754 27.1669 140.807C28.7673 139.851 30.6707 139.372 32.8771 139.372C34.7805 139.372 36.4472 139.718 37.8771 140.409C39.3071 141.101 40.4387 142.071 41.272 143.321C42.1054 144.571 42.5646 146.039 42.6499 147.725H36.9396C36.7786 146.636 36.3525 145.76 35.6612 145.097C34.9794 144.424 34.0845 144.088 32.9766 144.088C32.0391 144.088 31.2199 144.344 30.5192 144.855C29.8279 145.357 29.2881 146.091 28.8999 147.057C28.5116 148.023 28.3175 149.192 28.3175 150.566C28.3175 151.958 28.5069 153.141 28.8857 154.117C29.2739 155.092 29.8184 155.835 30.5192 156.347C31.2199 156.858 32.0391 157.114 32.9766 157.114C33.6679 157.114 34.2881 156.972 34.8374 156.688C35.3961 156.404 35.8554 155.992 36.2152 155.452C36.5845 154.903 36.826 154.244 36.9396 153.477H42.6499C42.5552 155.144 42.1006 156.612 41.2862 157.881C40.4813 159.14 39.3686 160.125 37.9482 160.835C36.5277 161.546 34.8468 161.901 32.9055 161.901ZM56.4673 161.901C54.223 161.901 52.2912 161.446 50.6719 160.537C49.062 159.619 47.8215 158.321 46.9503 156.645C46.0791 154.959 45.6435 152.966 45.6435 150.665C45.6435 148.421 46.0791 146.451 46.9503 144.756C47.8215 143.061 49.0478 141.74 50.6293 140.793C52.2202 139.846 54.0857 139.372 56.2259 139.372C57.6652 139.372 59.0052 139.604 60.2457 140.068C61.4957 140.523 62.5848 141.209 63.5128 142.128C64.4503 143.047 65.1795 144.202 65.7003 145.594C66.2211 146.977 66.4815 148.596 66.4815 150.452V152.114H48.0582V148.364H60.7855C60.7855 147.493 60.5961 146.721 60.2173 146.048C59.8385 145.376 59.313 144.851 58.6406 144.472C57.9777 144.084 57.206 143.889 56.3253 143.889C55.4067 143.889 54.5923 144.102 53.8821 144.529C53.1813 144.945 52.6321 145.509 52.2344 146.219C51.8366 146.92 51.633 147.701 51.6236 148.563V152.128C51.6236 153.208 51.8224 154.14 52.2202 154.926C52.6274 155.712 53.2003 156.318 53.9389 156.744C54.6776 157.171 55.5535 157.384 56.5668 157.384C57.2391 157.384 57.8546 157.289 58.4134 157.1C58.9721 156.91 59.4503 156.626 59.848 156.247C60.2457 155.869 60.5488 155.405 60.7571 154.855L66.3537 155.225C66.0696 156.569 65.4872 157.744 64.6065 158.747C63.7353 159.742 62.6084 160.518 61.2259 161.077C59.8527 161.626 58.2666 161.901 56.4673 161.901ZM69.152 161.475L69.1236 156.673H69.848C70.3594 156.673 70.7997 156.55 71.169 156.304C71.5478 156.048 71.8603 155.637 72.1065 155.068C72.3527 154.5 72.5469 153.747 72.6889 152.81C72.831 151.863 72.9257 150.698 72.973 149.316L73.3281 139.656H89.919V161.475H84.152V144.415H78.7685L78.4276 151.077C78.3423 152.905 78.1198 154.477 77.7599 155.793C77.4096 157.109 76.9219 158.189 76.2969 159.031C75.6719 159.865 74.919 160.48 74.0384 160.878C73.1577 161.276 72.1349 161.475 70.9702 161.475H69.152ZM104.553 161.901C102.309 161.901 100.377 161.446 98.7578 160.537C97.148 159.619 95.9074 158.321 95.0362 156.645C94.165 154.959 93.7294 152.966 93.7294 150.665C93.7294 148.421 94.165 146.451 95.0362 144.756C95.9074 143.061 97.1338 141.74 98.7152 140.793C100.306 139.846 102.172 139.372 104.312 139.372C105.751 139.372 107.091 139.604 108.332 140.068C109.582 140.523 110.671 141.209 111.599 142.128C112.536 143.047 113.265 144.202 113.786 145.594C114.307 146.977 114.567 148.596 114.567 150.452V152.114H96.1442V148.364H108.871C108.871 147.493 108.682 146.721 108.303 146.048C107.924 145.376 107.399 144.851 106.727 144.472C106.064 144.084 105.292 143.889 104.411 143.889C103.493 143.889 102.678 144.102 101.968 144.529C101.267 144.945 100.718 145.509 100.32 146.219C99.9226 146.92 99.719 147.701 99.7095 148.563V152.128C99.7095 153.208 99.9084 154.14 100.306 154.926C100.713 155.712 101.286 156.318 102.025 156.744C102.763 157.171 103.639 157.384 104.653 157.384C105.325 157.384 105.941 157.289 106.499 157.1C107.058 156.91 107.536 156.626 107.934 156.247C108.332 155.869 108.635 155.405 108.843 154.855L114.44 155.225C114.156 156.569 113.573 157.744 112.692 158.747C111.821 159.742 110.694 160.518 109.312 161.077C107.939 161.626 106.353 161.901 104.553 161.901ZM133.701 148.151V152.909H122.309V148.151H133.701ZM124.298 139.656V161.475H118.516V139.656H124.298ZM137.494 139.656V161.475H131.755V139.656H137.494ZM157.373 148.151V152.909H145.981V148.151H157.373ZM147.969 139.656V161.475H142.188V139.656H147.969ZM161.165 139.656V161.475H155.427V139.656H161.165ZM168.815 169.656C168.048 169.656 167.328 169.595 166.656 169.472C165.993 169.358 165.443 169.211 165.008 169.031L166.371 164.514C167.082 164.732 167.721 164.851 168.289 164.869C168.867 164.888 169.364 164.756 169.781 164.472C170.207 164.188 170.552 163.705 170.817 163.023L171.173 162.1L163.346 139.656H169.71L174.227 155.679H174.454L179.013 139.656H185.42L176.94 163.833C176.532 165.007 175.978 166.03 175.278 166.901C174.586 167.781 173.71 168.459 172.65 168.932C171.589 169.415 170.311 169.656 168.815 169.656ZM200.576 148.279V153.08H188.744V148.279H200.576ZM193.417 139.656V161.475H187.38V139.656H193.417ZM207.11 161.901C204.951 161.901 203.085 161.418 201.513 160.452C199.942 159.486 198.729 158.151 197.877 156.446C197.034 154.742 196.613 152.786 196.613 150.58C196.613 148.373 197.034 146.427 197.877 144.742C198.729 143.056 199.942 141.74 201.513 140.793C203.085 139.846 204.951 139.372 207.11 139.372C209.279 139.372 211.144 139.846 212.707 140.793C214.279 141.74 215.486 143.056 216.329 144.742C217.181 146.427 217.607 148.373 217.607 150.58C217.607 152.786 217.181 154.742 216.329 156.446C215.486 158.151 214.279 159.486 212.707 160.452C211.144 161.418 209.279 161.901 207.11 161.901ZM207.11 157.014C208.237 157.014 209.146 156.74 209.837 156.191C210.529 155.632 211.035 154.869 211.357 153.904C211.679 152.928 211.84 151.82 211.84 150.58C211.84 149.339 211.679 148.241 211.357 147.284C211.035 146.318 210.529 145.561 209.837 145.012C209.146 144.462 208.237 144.188 207.11 144.188C205.993 144.188 205.084 144.462 204.383 145.012C203.682 145.551 203.166 146.299 202.835 147.256C202.513 148.212 202.352 149.32 202.352 150.58C202.352 151.83 202.513 152.938 202.835 153.904C203.166 154.869 203.682 155.632 204.383 156.191C205.084 156.74 205.993 157.014 207.11 157.014ZM0.000710309 205.475V183.656H9.30469C11.9941 183.656 14.12 184.168 15.6825 185.191C17.245 186.213 18.0263 187.667 18.0263 189.551C18.0263 190.735 17.5859 191.72 16.7053 192.506C15.8246 193.292 14.603 193.822 13.0405 194.097C14.3473 194.191 15.46 194.49 16.3786 194.992C17.3066 195.484 18.0121 196.123 18.495 196.909C18.9875 197.695 19.2337 198.566 19.2337 199.523C19.2337 200.763 18.9022 201.829 18.2393 202.719C17.5859 203.609 16.6248 204.291 15.3558 204.764C14.0964 205.238 12.5575 205.475 10.7393 205.475H0.000710309ZM5.63991 200.943H10.7393C11.5821 200.943 12.2403 200.744 12.7138 200.347C13.1967 199.94 13.4382 199.386 13.4382 198.685C13.4382 197.908 13.1967 197.298 12.7138 196.852C12.2403 196.407 11.5821 196.185 10.7393 196.185H5.63991V200.943ZM5.63991 192.634H9.43253C10.0386 192.634 10.5547 192.548 10.9808 192.378C11.4164 192.198 11.7479 191.942 11.9751 191.611C12.2119 191.28 12.3303 190.887 12.3303 190.432C12.3303 189.76 12.0604 189.234 11.5206 188.855C10.9808 188.477 10.2422 188.287 9.30469 188.287H5.63991V192.634ZM38.2322 192.151V196.909H26.8402V192.151H38.2322ZM28.8288 183.656V205.475H23.0476V183.656H28.8288ZM42.0249 183.656V205.475H36.2862V183.656H42.0249ZM49.674 213.656C48.907 213.656 48.1873 213.595 47.5149 213.472C46.852 213.358 46.3028 213.211 45.8672 213.031L47.2308 208.514C47.9411 208.732 48.5803 208.851 49.1484 208.869C49.7261 208.888 50.2232 208.756 50.6399 208.472C51.0661 208.188 51.4117 207.705 51.6768 207.023L52.032 206.1L44.2053 183.656H50.5689L55.0859 199.679H55.3132L59.8729 183.656H66.2791L57.799 207.833C57.3918 209.007 56.8378 210.03 56.1371 210.901C55.4458 211.781 54.5698 212.459 53.5092 212.932C52.4486 213.415 51.1702 213.656 49.674 213.656ZM68.2393 188.415V183.656H88.0121V188.415H80.9808V205.475H75.2138V188.415H68.2393ZM91.6804 213.656V183.656H97.6463V187.321H97.9162C98.1813 186.734 98.5649 186.137 99.0668 185.531C99.5781 184.916 100.241 184.405 101.055 183.997C101.879 183.581 102.902 183.372 104.124 183.372C105.714 183.372 107.182 183.789 108.527 184.622C109.872 185.446 110.946 186.691 111.751 188.358C112.556 190.015 112.959 192.094 112.959 194.594C112.959 197.028 112.566 199.083 111.78 200.759C111.003 202.425 109.943 203.69 108.598 204.551C107.263 205.404 105.767 205.83 104.109 205.83C102.935 205.83 101.936 205.636 101.112 205.247C100.298 204.859 99.6302 204.371 99.1094 203.784C98.5885 203.188 98.1908 202.586 97.9162 201.98H97.7315V213.656H91.6804ZM97.6037 194.566C97.6037 195.863 97.7836 196.994 98.1435 197.96C98.5033 198.926 99.0241 199.679 99.706 200.219C100.388 200.749 101.216 201.014 102.192 201.014C103.177 201.014 104.01 200.744 104.692 200.205C105.374 199.655 105.89 198.898 106.24 197.932C106.6 196.957 106.78 195.834 106.78 194.566C106.78 193.306 106.605 192.198 106.254 191.242C105.904 190.285 105.388 189.537 104.706 188.997C104.024 188.458 103.186 188.188 102.192 188.188C101.207 188.188 100.374 188.448 99.6918 188.969C99.0194 189.49 98.5033 190.228 98.1435 191.185C97.7836 192.141 97.6037 193.268 97.6037 194.566ZM122.774 197.492L130.629 183.656H136.595V205.475H130.828V191.597L123.001 205.475H116.993V183.656H122.774V197.492ZM165.647 183.656V188.415H156.585V205.475H150.704V183.656H165.647ZM178.413 205.901C176.207 205.901 174.299 205.432 172.689 204.494C171.089 203.548 169.853 202.231 168.982 200.546C168.11 198.851 167.675 196.886 167.675 194.651C167.675 192.397 168.11 190.427 168.982 188.742C169.853 187.047 171.089 185.73 172.689 184.793C174.299 183.846 176.207 183.372 178.413 183.372C180.62 183.372 182.523 183.846 184.124 184.793C185.733 185.73 186.974 187.047 187.845 188.742C188.716 190.427 189.152 192.397 189.152 194.651C189.152 196.886 188.716 198.851 187.845 200.546C186.974 202.231 185.733 203.548 184.124 204.494C182.523 205.432 180.62 205.901 178.413 205.901ZM178.442 201.213C179.446 201.213 180.284 200.929 180.956 200.361C181.628 199.783 182.135 198.997 182.476 198.003C182.826 197.009 183.001 195.877 183.001 194.608C183.001 193.339 182.826 192.208 182.476 191.213C182.135 190.219 181.628 189.433 180.956 188.855C180.284 188.278 179.446 187.989 178.442 187.989C177.429 187.989 176.576 188.278 175.885 188.855C175.203 189.433 174.687 190.219 174.337 191.213C173.996 192.208 173.825 193.339 173.825 194.608C173.825 195.877 173.996 197.009 174.337 198.003C174.687 198.997 175.203 199.783 175.885 200.361C176.576 200.929 177.429 201.213 178.442 201.213ZM191.808 205.475L191.78 200.673H192.504C193.016 200.673 193.456 200.55 193.825 200.304C194.204 200.048 194.517 199.637 194.763 199.068C195.009 198.5 195.203 197.747 195.345 196.81C195.487 195.863 195.582 194.698 195.629 193.316L195.984 183.656H212.575V205.475H206.808V188.415H201.425L201.084 195.077C200.999 196.905 200.776 198.477 200.416 199.793C200.066 201.109 199.578 202.189 198.953 203.031C198.328 203.865 197.575 204.48 196.695 204.878C195.814 205.276 194.791 205.475 193.626 205.475H191.808ZM227.124 205.901C224.918 205.901 223.01 205.432 221.4 204.494C219.799 203.548 218.564 202.231 217.692 200.546C216.821 198.851 216.386 196.886 216.386 194.651C216.386 192.397 216.821 190.427 217.692 188.742C218.564 187.047 219.799 185.73 221.4 184.793C223.01 183.846 224.918 183.372 227.124 183.372C229.331 183.372 231.234 183.846 232.835 184.793C234.444 185.73 235.685 187.047 236.556 188.742C237.427 190.427 237.863 192.397 237.863 194.651C237.863 196.886 237.427 198.851 236.556 200.546C235.685 202.231 234.444 203.548 232.835 204.494C231.234 205.432 229.331 205.901 227.124 205.901ZM227.153 201.213C228.156 201.213 228.995 200.929 229.667 200.361C230.339 199.783 230.846 198.997 231.187 198.003C231.537 197.009 231.712 195.877 231.712 194.608C231.712 193.339 231.537 192.208 231.187 191.213C230.846 190.219 230.339 189.433 229.667 188.855C228.995 188.278 228.156 187.989 227.153 187.989C226.139 187.989 225.287 188.278 224.596 188.855C223.914 189.433 223.398 190.219 223.048 191.213C222.707 192.208 222.536 193.339 222.536 194.608C222.536 195.877 222.707 197.009 223.048 198.003C223.398 198.997 223.914 199.783 224.596 200.361C225.287 200.929 226.139 201.213 227.153 201.213ZM241.798 205.475V183.656H251.102C253.791 183.656 255.917 184.168 257.479 185.191C259.042 186.213 259.823 187.667 259.823 189.551C259.823 190.735 259.383 191.72 258.502 192.506C257.621 193.292 256.4 193.822 254.837 194.097C256.144 194.191 257.257 194.49 258.175 194.992C259.103 195.484 259.809 196.123 260.292 196.909C260.784 197.695 261.031 198.566 261.031 199.523C261.031 200.763 260.699 201.829 260.036 202.719C259.383 203.609 258.422 204.291 257.153 204.764C255.893 205.238 254.354 205.475 252.536 205.475H241.798ZM247.437 200.943H252.536C253.379 200.943 254.037 200.744 254.511 200.347C254.994 199.94 255.235 199.386 255.235 198.685C255.235 197.908 254.994 197.298 254.511 196.852C254.037 196.407 253.379 196.185 252.536 196.185H247.437V200.943ZM247.437 192.634H251.229C251.835 192.634 252.352 192.548 252.778 192.378C253.213 192.198 253.545 191.942 253.772 191.611C254.009 191.28 254.127 190.887 254.127 190.432C254.127 189.76 253.857 189.234 253.317 188.855C252.778 188.477 252.039 188.287 251.102 188.287H247.437V192.634ZM268.637 190.361H275.157C278.045 190.361 280.299 191.052 281.918 192.435C283.538 193.808 284.347 195.645 284.347 197.946C284.347 199.442 283.983 200.759 283.254 201.895C282.524 203.022 281.473 203.903 280.1 204.537C278.727 205.162 277.079 205.475 275.157 205.475H264.844V183.656H270.626V200.716H275.157C276.17 200.716 277.004 200.46 277.657 199.949C278.31 199.438 278.642 198.784 278.651 197.989C278.642 197.146 278.31 196.459 277.657 195.929C277.004 195.389 276.17 195.119 275.157 195.119H268.637V190.361ZM286.691 205.475V183.656H292.742V205.475H286.691ZM301.116 205.844C300.178 205.844 299.373 205.512 298.701 204.85C298.038 204.177 297.707 203.372 297.707 202.435C297.707 201.507 298.038 200.711 298.701 200.048C299.373 199.386 300.178 199.054 301.116 199.054C302.025 199.054 302.82 199.386 303.502 200.048C304.184 200.711 304.525 201.507 304.525 202.435C304.525 203.06 304.364 203.633 304.042 204.154C303.729 204.665 303.317 205.077 302.806 205.389C302.295 205.692 301.731 205.844 301.116 205.844Z" fill="white"/>
</svg>
