<svg width="134" height="375" viewBox="0 0 134 375" fill="none" xmlns="http://www.w3.org/2000/svg">
<path d="M54.7956 240.118C34.7964 224.356 26.1917 215.188 17.6889 197.902C12.8056 200.805 10.077 202.439 7.74003 212.691C6.68742 219.397 6.77859 222.801 7.74003 228.287C10.7133 248.213 15.987 258.627 33.2845 275.611C40.7348 261.221 45.5151 253.482 54.7956 240.118Z" fill="#FAF8F3"/>
<path d="M101.045 275.611C94.019 260.68 89.3302 252.834 79.2645 240.118C99.3177 225.851 107.178 216.426 117.178 197.902C121.983 201.397 124.103 204.472 126.589 212.691C127.999 219.18 128.159 222.639 126.589 228.287C119.427 251.203 113.922 261.783 101.045 275.611Z" fill="#FAF8F3"/>
<path d="M75.769 241.731C69.366 242.567 65.8364 242.737 59.6356 241.731C52.0935 251.232 44.3982 259.643 45.9223 261.091C51.8898 266.762 55.3915 269.943 56.6778 275.611C57.681 283.524 58.0999 287.941 56.6778 295.509L48.0734 347.405C47.6116 350.363 47.3009 352.096 48.0734 353.32C54.6152 362.317 58.4539 367.208 67.1645 374.025C75.9225 367.091 80.2865 362.416 87.6001 353.32C88.1411 352.298 88.2185 351.069 87.6001 347.405L77.1134 295.509C76.2103 287.848 75.9512 283.433 77.1134 275.611C78.6062 268.131 82.2671 265.902 87.6001 261.091C89.0322 260.458 81.7852 250.893 75.769 241.731Z" fill="#FAF8F3"/>
<path d="M48.6689 2.5679C63.0649 -1.14182 71.2169 -0.557678 85.7756 2.5679C113.649 11.9064 124.095 19.4102 128.529 38.8679C132.859 65.9754 133.806 79.1163 133.907 100.175C123.369 82.1803 116.523 72.7879 85.7756 69.7901C71.2795 69.0062 63.1599 68.8017 48.6689 69.7901C22.991 71.8076 13.1125 79.6274 0 100.175C0.0607086 76.3512 1.09426 62.9502 6.72222 38.8679C12.2469 15.8508 24.3513 10.2744 48.6689 2.5679Z" fill="#FAF8F3"/>
<circle cx="38.4433" cy="125.18" r="17.2089" stroke="#FAF8F3" stroke-width="7"/>
<circle cx="95.9901" cy="125.18" r="17.2089" stroke="#FAF8F3" stroke-width="7"/>
<path d="M55.6484 118.188H78.7729V124.103C69.7465 122.131 64.6833 121.946 55.6484 124.103V118.188Z" fill="#FAF8F3"/>
<rect x="62.9141" y="22.7832" width="8.06667" height="36.0311" fill="#AE1645"/>
<rect x="84.9688" y="36.7656" width="8.06667" height="36.0311" transform="rotate(90 84.9688 36.7656)" fill="#AE1645"/>
</svg>
