<svg width="253" height="576" viewBox="0 0 253 576" fill="none" xmlns="http://www.w3.org/2000/svg">
<path d="M57.992 574.99C52.0028 575.751 48.3902 576.161 43.4333 575.156C42.7876 575.025 42.1607 574.785 41.6389 574.383C40.4157 573.44 40.108 572.528 40.3423 570.723V553.838C40.5708 546.558 40.8286 542.314 40.3423 535.897L38.224 521.122C35.4913 504.107 34.1388 494.481 32.9285 476.797C32.5603 468.369 32.413 463.577 32.9285 454.635C33.2211 451.868 33.8339 449.79 35.0467 445.137C37.6089 435.658 39.0512 430.241 41.4014 419.809C41.696 417.886 41.5173 414.718 41.4014 410.311V393.425C39.7769 366.83 40.6034 352.113 43.4709 326.32C43.5029 326.032 43.5144 325.734 43.5053 325.445C42.8534 304.622 45.8887 291.557 49.8742 268.895C50.2774 264.85 50.4451 262.801 50.0104 260.149C49.9283 259.648 49.7568 259.168 49.556 258.702C49.1813 257.833 49.0113 257.198 48.8151 256.23C47.9581 250.481 47.9478 247.452 48.689 243.207C48.7698 242.745 48.9117 242.294 49.1029 241.866L57.288 223.515C58.2568 221.129 58.7732 219.759 59.4062 217.183L63.6427 195.02C63.9859 192.657 64.0764 191.291 63.6427 188.688C56.0692 162.337 49.7186 150.58 37.4701 133.582C36.5967 132.37 36.1184 132.52 36.1096 134.014C36.0699 140.784 35.8777 160.466 36.0869 168.019C36.0985 168.437 36.0679 168.851 35.9954 169.263C33.231 184.969 32.4107 192.428 31.8694 203.463V246.732C31.9647 259.5 31.3696 266.65 28.8221 278.83C28.7367 279.238 28.6921 279.658 28.6921 280.076V294.057C28.6921 294.863 28.8551 295.663 29.171 296.404C31.3223 301.454 32.8152 304.801 34.4064 307.05C35.3616 308.4 36.1287 309.936 36.171 311.589L36.1751 311.75C36.2893 316.218 36.3764 319.625 36.2735 321C36.2381 321.471 35.8668 321.662 35.3937 321.662H9.22607C8.78931 321.662 8.3204 321.591 8.26773 321.158C8.2072 320.66 8.23216 319.744 8.37756 318.194C8.48833 317.013 8.99527 315.915 9.72404 314.98C10.4561 314.04 10.6309 313.647 10.6872 313.219C10.9832 310.722 11.101 309.302 10.875 308.425C10.7887 308.09 10.5723 307.811 10.3686 307.531C10.0759 307.13 9.89866 306.797 9.77228 306.404C9.65212 306.03 9.62808 305.634 9.62808 305.241V295.278C9.86347 288.273 10.2258 283.153 9.62808 280.503C8.26531 275.991 7.53752 273.456 7.50986 268.895V222.459V208.74V141.577C7.50986 137.999 4.3639 135.834 0.823331 135.312C0.354657 135.243 0.115887 135.1 0.0960972 134.866C0.0504267 119.475 -0.087162 105.805 0.0821166 99.4682C0.0907829 99.1438 0.12856 98.818 0.191225 98.4995C5.54791 71.2783 10.3518 58.0292 23.3965 39.8849C43.3023 15.9246 57.2674 7.57955 86.9431 0.837107C94.2253 -0.335679 98.3785 -0.200107 105.532 0.771986C105.847 0.814753 106.164 0.88484 106.468 0.978577C117.533 4.39638 123.153 7.63834 128.261 14.6034C129.621 16.4591 132.019 17.337 133.981 18.5397C134.004 18.5535 134.025 18.5672 134.046 18.5806C163.297 36.8838 176.188 46.7399 185.44 67.3238C186.913 71.1545 187.51 73.1367 187.567 74.9693C187.583 75.4984 187.475 76.0228 187.31 76.5259C186.852 77.9265 186.487 79.0146 186.194 79.7716C185.833 80.7014 184.928 80.8354 184.263 80.0921C183.547 79.2912 182.987 78.0837 182.263 75.7666C170.97 51.8225 159.68 42.5202 132.485 31.4421C128.789 30.3168 126.721 29.6281 122.953 29.3314C115.641 29.0789 109.166 28.6756 106.364 28.9442C105.388 29.0378 104.837 29.8326 104.646 30.7942C103.302 37.5401 103.376 41.0403 104.646 45.2632C104.836 45.8974 105.154 46.4889 105.558 47.0134C110.004 52.779 112.288 54.9094 115.539 56.7704C115.975 57.012 115.7 58.7699 115.571 60.5099C115.547 60.8304 115.622 61.1434 115.941 61.1835C116.351 61.2351 117.148 61.2354 118.649 61.1027C119.393 61.037 120.148 61.0888 120.864 61.2999C130.119 64.0287 134.505 68.2128 140.72 76.1939C141.565 77.2784 142.747 78.0356 144.099 78.2839C145.891 78.613 148.906 79.148 153.667 79.9879C173.038 85.2982 180.327 90.4487 185.44 104.261C185.919 106.301 185.546 117.98 185.44 129.589C185.505 132.861 186.168 136.435 188.618 145.419C191.737 166.944 193.397 179.158 193.882 198.951C193.904 199.834 194.12 200.714 194.514 201.504C205.512 223.515 213.748 236.92 221.303 257.93C221.4 258.202 221.479 258.487 221.537 258.77C222.953 265.693 224.036 268.666 225.758 270.911C226.364 271.701 227.246 272.221 228.187 272.543C238.081 275.932 242.653 279.162 248.322 286.021C248.765 286.556 249.291 287.019 249.884 287.382C250.72 287.893 251.275 288.241 251.628 288.478C252.029 288.748 252.148 289.191 252.109 289.672C251.927 291.936 251.677 293.189 250.524 293.216C250.204 293.223 249.894 293.11 249.594 292.998C246.826 291.965 246.033 291.801 245.809 292.112C241.645 298.582 238.905 302.386 235.113 304.526C233.302 305.547 231.087 304.999 229.527 303.625C222.021 297.013 217.326 292.594 210.859 284.725L202.386 271.005C180.409 235.072 170.939 213.694 161.081 172.858C159.676 168.947 159.122 166.671 157.903 162.305C155.394 151.005 154.776 144.211 153.74 132.52C153.692 131.978 153.43 131.589 153.274 132.111C152.81 133.665 152.021 138.684 150.577 149.018C150.519 149.427 150.417 149.842 150.278 150.231C142.329 172.47 139.68 185.775 135.745 209.299C135.69 209.626 135.662 209.962 135.662 210.293V238.29L149.381 391.815C149.414 392.184 149.482 392.552 149.582 392.909C151.945 401.36 152.913 406.187 153.624 414.049C153.653 414.369 153.655 414.695 153.632 415.015C153.124 422.094 153.063 426.159 153.667 433.528C157.858 456.378 160.133 469.247 166.376 490.517C169.73 509.924 171.735 530.639 174.849 533.786C190.907 549.18 204.095 555.989 230.753 566.019C231.594 566.335 232.507 566.458 233.402 566.385C236.966 566.096 238.152 566.147 239.01 566.367C239.31 566.444 239.594 566.574 239.867 566.722C244.43 569.204 244.33 570.597 239.455 572.834C237.772 573.584 236.635 573.857 234.159 573.889H192.736C192.112 573.889 191.492 573.789 190.895 573.608C184.282 571.597 180.425 571.72 178.762 571.773L178.677 571.775C178.243 571.789 177.808 571.807 177.379 571.878C174.084 572.417 172.818 573.201 172.079 574.041C171.041 575.22 169.732 576 168.16 576H161.081C156.002 575.378 154.064 574.275 153.667 569.668C153.26 560.235 153.295 554.687 153.643 544.989C153.659 544.559 153.629 544.125 153.55 543.703C153.105 541.315 152.699 539.745 151.549 536.952C143.56 518.964 139.162 509.045 131.426 491.572C125.042 479.015 121.846 471.701 118.716 456.746C117.757 448.138 117.378 442.566 117.628 430.625C117.646 429.758 117.477 428.894 117.139 428.096C112.869 418.029 110.397 409.647 106.476 394.221C106.171 393.019 105.403 392.063 104.167 391.96C101.742 391.757 97.5647 391.912 94.8081 392.108C93.1619 392.225 91.7266 393.153 90.8889 394.575C89.7132 396.571 89.0663 398.035 89.0613 399.757C89.2783 404.486 89.0839 406.759 88.1818 409.737C88.0659 410.119 87.9012 410.491 87.7057 410.839C82.3261 420.435 80.0204 424.939 78.6349 429.771C78.5223 430.163 78.4578 430.569 78.4335 430.977C77.9537 439.006 77.6681 443.687 76.352 451.469C73.6545 467.797 72.7328 476.232 71.1284 490.913L71.0564 491.572C69.0042 511.791 65.7821 536.086 66.82 536.952C87.5384 552.486 116.437 565.775 125.014 568.316C125.757 568.536 126.477 568.819 127.063 569.326C129.064 571.06 128.058 572.097 122.953 572.834C104.48 573.356 87.9605 574.302 78.0683 573.917C77.6286 573.9 77.1925 573.829 76.7671 573.716C70.9632 572.179 66.7052 571.664 63.997 571.551C62.0023 571.468 60.4857 574.526 58.5242 574.898C58.2916 574.942 58.2268 574.96 57.992 574.99Z" fill="#B8860B"/>
<rect x="21" y="342" width="3.21638" height="41.0331" rx="1.60819" fill="#B8860B" stroke="#B8860B" stroke-width="2"/>
<rect x="37.9062" y="337.988" width="3.21614" height="31.9065" rx="1.60807" transform="rotate(90 37.9062 337.988)" fill="#B8860B" stroke="#B8860B" stroke-width="2"/>
<path d="M34.4059 324.657C34.36 325.03 34.2661 325.398 34.1337 325.75C31.7261 332.155 27.2621 337.682 23.7207 339.111C22.9653 339.416 22.1228 339.344 21.3703 339.032C16.6319 337.067 11.8913 331.322 10.7414 325.219C9.1875 316.985 14.4305 310.957 22.5346 311C30.4636 310.958 35.3971 316.587 34.4059 324.657Z" fill="#B8860B" stroke="#B8860B" stroke-width="2"/>
<path d="M231.533 530.639L231.533 48.7548C231.622 44.0242 234.156 42.7496 239.337 40.8366M231.533 530.639C226.448 530.662 226.128 535.978 228.189 551M231.533 530.639C236.406 530.544 235.453 537.901 233.763 551M239.337 40.8366C242.7 49.9084 243.552 55.0901 242.682 64.5914M239.337 40.8366C235.787 32.4581 233.548 29.3587 229.304 25" stroke="#B8860B" stroke-width="4"/>
</svg>
