<svg width="462" height="379" viewBox="0 0 462 379" fill="none" xmlns="http://www.w3.org/2000/svg">
<path d="M428.334 69.3794C359.066 41.0344 319.501 28.4771 242.186 13.5351C223.411 10.6648 212.654 10.9832 192.547 13.5351C130.632 19.84 98.2954 32.3408 43.6285 63.1745C40.8473 64.1543 22.8599 63.5624 0.193998 63.1745M0.193998 122.498H56.0383M56.0383 122.498C105.255 93.2009 134.543 80.173 192.547 69.3794C211.066 66.1684 222.415 65.1778 242.186 69.3794C302.488 84.9437 335.484 95.1085 391.104 119.019C420.414 125.862 431.08 128.727 434.539 131.429C438.465 133.054 424.329 135.861 391.104 143.838C342.14 171.637 310.674 179.401 254.596 193.478C226.087 198.115 192.959 198.178 180.137 193.478L124.292 174.867M56.0383 122.498C70.9975 140.862 80.3516 149.946 99.4728 162.457M124.292 174.867C215.142 298.469 265.105 359.531 341.465 367.216C362.64 367.632 373.824 366.962 391.104 361.011C421.124 348.923 434.519 338.169 446.948 305.166C450.722 291.359 451.8 283.426 446.948 267.937C439.559 248.575 434.145 239.011 415.924 230.707C412.957 229.174 409.782 229.396 403.514 230.707C387.61 234.878 384.573 245.009 391.104 274.142M124.292 174.867C118.821 171.75 108.307 167.794 99.4728 162.457M130.497 373.421C112.9 327.747 105.986 301.916 99.4728 255.527C95.3793 213.586 95.8125 204.962 99.4728 162.457" stroke="#B8860B" stroke-width="23"/>
</svg>
