<svg width="1085" height="600" viewBox="0 0 1085 600" fill="none" xmlns="http://www.w3.org/2000/svg">
<path d="M191.086 75.3282C190.214 93.0614 170.444 108.469 147.484 108.469C124.525 108.469 105.913 93.6313 105.913 75.3282C105.264 69.2768 104.916 57.9924 105.912 57.3043C113.159 47.5882 132.276 42.1875 147.484 42.1875C163.758 42.1875 184.261 46.4446 191.086 57.3043C191.893 58.2462 191.825 73.9438 191.086 75.3282Z" fill="#F6B901"/>
<path d="M189.922 32.0119C189.922 40.8185 189.683 56.601 182.654 62.5363C175.075 68.9365 161.717 65.4434 149.804 65.4434C136.446 65.4434 121.653 69.7605 114.047 61.9549C108.581 56.3446 109.689 39.9566 109.689 32.3026C109.689 23.2409 108.108 10.3774 115.501 4.39461C123.041 -1.70683 138.212 0.324491 149.804 0.324491C161.397 0.324491 177.44 -1.70683 184.98 4.39461C192.373 10.3774 189.922 22.9502 189.922 32.0119Z" fill="#F6B901"/>
<path d="M118.984 99.1654L176.835 98.584C172.258 107.841 171.913 112.389 176.835 118.934H118.984C124.378 112.618 124.007 108.193 118.984 99.1654Z" fill="#F6B901"/>
<path d="M196.326 208.473C200.572 198.122 201.174 192.902 196.327 185.507C191.496 181.875 188.587 180.95 183.245 180.274L187.887 153.787L222.191 139.577L228.01 181.728C229.316 193.454 229.495 199.919 228.01 211.09C226.311 220.49 224.024 225.31 215.219 232.311C206.055 238.829 201.233 241.284 193.125 243.94L178.298 212.542C188.149 213.023 192.619 212.516 196.326 208.473Z" fill="#F6B901"/>
<path d="M105.906 175.33H183.816V227.076H105.906V175.33Z" fill="#F6B901"/>
<rect x="84.9766" y="428.246" width="36.629" height="51.746" fill="#F6B901"/>
<rect x="26.2578" y="484.062" width="220.938" height="102.329" fill="#F6B901"/>
<rect x="152.422" y="426.502" width="36.629" height="51.746" fill="#F6B901"/>
<path d="M87.3047 214.867H196.029V432.614L87.3047 432.898V214.867Z" fill="#F6B901"/>
<path d="M51.8501 192.48C54.3815 169.73 58.2711 157.104 66.0469 134.629L100.242 143.155L99.2358 175.038C93.5261 181.427 90.9292 185.229 87.6075 192.48C86.2666 198.185 86.7314 200.947 87.6075 205.854C91.4953 212.544 96.7698 213.352 108.829 212.249L87.6071 240.157C68.87 242.966 59.7735 242.611 51.8506 230.564C50.3473 215.691 50.5813 207.352 51.8501 192.48Z" fill="#F6B901"/>
<path d="M222.482 138.119C222.482 159.473 166.195 195.679 146.608 195.679C127.02 195.679 65.5 159.473 65.5 138.119C65.5 116.766 127.02 118.351 146.608 118.351C166.195 118.351 222.482 116.766 222.482 138.119Z" fill="#F6B901"/>
<path d="M223.634 345.608C231.28 374.143 235.176 414.841 232.355 416.618C232.355 418.944 186.223 448.933 178.577 420.398C170.931 391.863 174.134 264.498 184.68 261.672C195.225 258.846 215.988 317.073 223.634 345.608Z" fill="#F6B901"/>
<path d="M52.994 337.757C45.348 366.293 40.9844 417.165 44.2719 419.524C45.0543 420.653 94.8544 449.276 102.5 420.74C110.146 392.205 102.494 256.647 91.948 253.821C81.4024 250.995 60.64 309.222 52.994 337.757Z" fill="#F6B901"/>
<path d="M247.196 586.392C247.196 591.851 197.737 599.474 136.727 599.474C75.7165 599.474 26.2578 591.851 26.2578 586.392C26.2578 580.933 75.7165 576.508 136.727 576.508C197.737 576.508 247.196 580.933 247.196 586.392Z" fill="#F6B901"/>
<path d="M247.196 478.83C247.196 492.316 197.737 506.738 136.727 506.738C75.7165 506.738 26.2578 493.77 26.2578 480.283C26.2578 466.797 75.7165 458.189 136.727 458.189C197.737 458.189 247.196 465.343 247.196 478.83Z" fill="#F6B901"/>
<path d="M26.4913 587.124C31.7654 562.311 43.5072 483.867 37.5395 482.599C35.0823 482.076 30.7592 475.768 26.2063 484.053C19.7019 495.888 12.6833 525.303 9.5808 539.899C1.28461 571.098 4.17011 584.31 18.4074 587.554C21.0539 588.157 22.9633 587.042 26.4913 587.124Z" fill="#F6B901"/>
<path d="M235.212 481.481C241.18 480.212 257.897 513.968 263.171 538.781C270.585 569.643 266.533 584.16 253.581 587.555C250.861 588.267 249.992 585.942 246.26 586.006C240.986 561.193 229.244 482.749 235.212 481.481Z" fill="#F6B901"/>
<path d="M68.4078 595.403C68.0072 597.288 31.3772 592.337 26.0377 591.202C20.6982 590.067 16.6944 587.619 17.095 585.735C17.4956 583.85 22.1488 583.242 27.4883 584.377C32.8278 585.512 68.8083 593.519 68.4078 595.403Z" fill="#F6B901"/>
<path d="M204.639 594.239C205.04 596.124 241.67 591.173 247.009 590.038C252.349 588.903 256.352 586.455 255.952 584.57C255.551 582.686 250.898 582.078 245.559 583.213C240.219 584.348 204.239 592.355 204.639 594.239Z" fill="#F6B901"/>
<path d="M27.4194 480.574H26.2566C26.283 483.232 26.0354 484.511 25.0938 486.388L27.4194 484.644V480.574Z" fill="#F6B901"/>
<rect x="243.703" y="478.83" width="3.48848" height="5.81416" fill="#F6B901"/>
<path d="M243.121 489.657L247.19 487.551C247.195 493.988 247.999 497.499 250.97 503.54L247.481 501.505L243.121 489.657Z" fill="#F6B901"/>
<path d="M251.263 588.135L255.995 586.139L256.787 586.39C255.023 587.159 253.429 587.904 251.471 588.678L251.263 588.135Z" fill="#F6B901"/>
<path d="M15.2031 579.414L24.5279 584.165L20.4392 589.298C18.4466 588.112 17.3113 587.406 15.2031 586.6L15.2031 579.414Z" fill="#F6B901"/>
<path d="M97.2188 165.123L110.339 172.396L106.108 185.182C106.399 178.205 102.388 176.19 97.0961 177.333L97.2188 165.123Z" fill="#F6B901"/>
<path d="M960.598 274.885H1000.37C1010.92 327.146 1029.57 397.96 1050.6 449.303H876.18C894.909 404.754 913.789 334.493 926.412 274.885H960.598Z" fill="#F6B901"/>
<path d="M960.594 235.814H1005.94C1016.5 183.553 1028.17 132.274 1049.2 80.931H1038.73C1021.09 91.7397 1010.52 93.2994 989.198 79.5357C971.419 92.4538 960.725 95.7398 937.57 79.5357C917.429 91.9141 906.763 93.3777 889.431 80.931H877.57C896.3 125.48 908.203 176.207 920.826 235.814H960.594Z" fill="#F6B901"/>
<path d="M846.875 586.279C846.875 580.756 851.352 576.279 856.875 576.279H1067.11C1072.63 576.279 1077.11 580.756 1077.11 586.279V600H846.875V586.279Z" fill="#F6B901"/>
<rect x="862.219" y="453.486" width="202.326" height="19.5348" rx="6" fill="#F6B901"/>
<path d="M867.797 475.812H1057.56C1083.2 516.7 1099.79 536.439 1065.94 573.487H858.029C820.225 537.487 838.68 517.545 867.797 475.812Z" fill="#F6B901"/>
<rect x="883.148" y="235.814" width="156.279" height="36.279" rx="13" fill="#F6B901"/>
<path d="M1063.85 101.862C1063.85 113.025 1032.95 150.001 1024.09 150.001C1015.22 150.001 1031.06 110.026 1031.06 101.164C1031.06 92.3019 1040.34 80.9316 1049.2 80.9316C1058.06 80.9316 1063.85 92.9996 1063.85 101.862Z" fill="#F6B901"/>
<path d="M865.008 101.862C865.008 113.025 895.912 150.001 904.774 150.001C913.636 150.001 897.799 110.026 897.799 101.164C897.799 92.3019 888.521 80.9316 879.659 80.9316C870.797 80.9316 865.008 92.9996 865.008 101.862Z" fill="#F6B901"/>
<ellipse cx="964.778" cy="38.372" rx="38.3721" ry="38.372" fill="#F6B901"/>
<path d="M492.238 378.375C514.865 365.863 521.365 350.453 531.134 320.483C520.29 321.074 513.01 315.462 500.078 305.709C491.261 297.933 496.688 276.823 500.078 249.325C502.263 238.181 515.192 237.844 531.134 233.646C511.679 199.176 509.838 169.467 500.078 123.895C497.069 107.263 496.56 97.9959 500.078 81.6822C508.851 61.5177 517.739 53.056 541.084 43.3895C557.063 38.1736 565.068 39.0557 577.266 43.3895C602.766 55.3035 612.018 63.6849 620.081 81.6822C624.007 98.8266 623.426 107.971 620.081 123.895C610.557 169.143 608.621 196.967 587.216 233.646C611.006 235.416 615.046 240.102 620.081 249.325C628.923 287.594 628.603 299.31 620.081 305.709C605.733 316.05 598.089 320.634 587.216 320.483C593.338 349.418 598.856 364.041 624.001 378.375C630.166 384.972 629.917 388.759 624.001 395.863C667.48 427.534 675.742 460.948 667.721 539.687C673.912 556.464 674.874 563.658 667.721 568.632C640.424 583.265 624.832 590.603 594.754 596.975C571.917 600.911 559.102 601.107 536.26 596.975C504.693 588.929 488.238 581.538 458.77 568.632C453.314 566.8 455.985 555.828 458.77 539.687C442.057 473.915 446.674 441.551 492.238 395.863C487.199 389.304 486.875 385.488 492.238 378.375Z" fill="#F6B901"/>
<ellipse cx="561.157" cy="27.438" rx="27.438" ry="27.438" fill="#F6B901"/>
</svg>
