<svg width="32" height="32" viewBox="0 0 32 32" fill="none" xmlns="http://www.w3.org/2000/svg">
<path d="M25.9445 24.1392L25.7192 25.0079L13.0737 28.6719L3.45503 19.8218L6.54283 6.44705C6.55381 6.4255 7.44018 6.1519 8.74456 5.76045C10.6858 5.17788 13.5529 4.33428 15.8382 3.67202C17.8866 3.0784 19.4675 2.63046 19.4953 2.64677L29.0599 12.1289L28.5529 14.0835L26.6657 21.3591L25.9445 24.1392Z" fill="#F6B901"/>
<path d="M6.54283 6.44705C6.9623 7.07777 7.46747 7.83732 7.94019 8.54811C7.9573 8.57383 7.97437 8.59949 7.99139 8.62508C8.04298 8.70266 8.09413 8.77957 8.14468 8.85558C8.88128 9.96312 9.49092 10.8798 9.49092 10.8798M6.54283 6.44705C6.55381 6.4255 7.44018 6.1519 8.74456 5.76045C10.6858 5.17788 13.5529 4.33428 15.8382 3.67202C17.8866 3.0784 19.4675 2.63046 19.4953 2.64677M6.54283 6.44705L3.45503 19.8218M25.7192 25.0079C25.8072 24.6687 25.9445 24.1392 25.9445 24.1392C25.9445 24.1392 26.2369 23.0121 26.6657 21.3591C27.1866 19.3509 27.9088 16.5664 28.5529 14.0835C28.7297 13.4018 28.9006 12.7428 29.0599 12.1289M25.7192 25.0079L22.8572 13.8505M25.7192 25.0079L13.3991 23.6828M25.7192 25.0079L13.0737 28.6719M13.0737 28.6719C13.1309 27.7945 13.1768 27.0906 13.2216 26.4041C13.2275 26.3132 13.2334 26.2226 13.2393 26.1319C13.2423 26.0866 13.2453 26.0413 13.2482 25.9959C13.2517 25.943 13.2551 25.8902 13.2586 25.8371C13.301 25.1861 13.345 24.512 13.3991 23.6828M13.0737 28.6719L3.45503 19.8218M3.45503 19.8218C4.10983 18.8517 4.86661 17.7306 5.61818 16.6171C5.65894 16.5568 5.69968 16.4964 5.74039 16.4361C6.49063 15.3246 7.22988 14.2295 7.85111 13.3091C8.81224 11.8852 9.49092 10.8798 9.49092 10.8798M3.45503 19.8218L13.3991 23.6828M29.0599 12.1289C28.6057 12.255 28.1039 12.3943 27.5882 12.5374C27.3448 12.6049 27.0984 12.6733 26.8524 12.7416C26.4193 12.8618 25.9877 12.9816 25.577 13.0956C25.0456 13.2431 24.5492 13.3809 24.1297 13.4973C23.3659 13.7093 22.8572 13.8505 22.8572 13.8505M29.0599 12.1289L19.4953 2.64677M19.4953 2.64677C19.7396 3.46098 20.0094 4.36014 20.2868 5.28443C20.9177 7.38698 21.5876 9.61961 22.0853 11.2783M19.4953 2.64677C18.8637 3.1665 18.1749 3.73334 17.4639 4.31847C17.1827 4.54989 16.898 4.78417 16.612 5.01953C14.8561 6.46453 13.0508 7.95021 11.6972 9.06412C11.6154 9.13142 11.5353 9.19736 11.4569 9.26186C10.2732 10.236 9.49092 10.8798 9.49092 10.8798M13.3991 23.6828C13.0592 22.5696 12.677 21.4842 12.2881 20.2101C11.6089 17.9852 10.9094 15.5265 10.3797 13.7915C9.85049 12.0577 9.49092 10.8798 9.49092 10.8798M13.3991 23.6828L22.8572 13.8505M22.8572 13.8505L20.2998 13.2821L12.1332 11.467L9.49092 10.8798M22.8572 13.8505C22.8572 13.8505 22.5446 12.8087 22.0853 11.2783M22.0853 11.2783C22.0963 11.3115 22.1069 11.3442 22.1171 11.3766" stroke="#2C3E50"/>
</svg>
