<svg width="1812" height="177" viewBox="0 0 1812 177" fill="none" xmlns="http://www.w3.org/2000/svg">
<path d="M11.8892 167.369V10.2782H76.7812C88.5426 10.2782 98.6932 12.5794 107.233 17.1816C115.824 21.7328 122.446 28.0992 127.099 36.2811C131.753 44.4118 134.08 53.872 134.08 64.6617C134.08 75.5027 131.702 84.9885 126.946 93.1191C122.241 101.199 115.517 107.463 106.773 111.912C98.0284 116.361 87.6477 118.585 75.6307 118.585H35.5909V88.6703H68.5739C74.3011 88.6703 79.0824 87.6731 82.9176 85.6788C86.804 83.6845 89.7443 80.8975 91.7386 77.318C93.733 73.6873 94.7301 69.4686 94.7301 64.6617C94.7301 59.8038 93.733 55.6106 91.7386 52.0822C89.7443 48.5027 86.804 45.7413 82.9176 43.7981C79.0313 41.8549 74.25 40.8833 68.5739 40.8833H49.858V167.369H11.8892ZM181.79 169.363C174.273 169.363 167.599 168.111 161.77 165.605C155.991 163.048 151.415 159.213 148.04 154.099C144.716 148.934 143.054 142.466 143.054 134.693C143.054 128.148 144.205 122.625 146.506 118.125C148.807 113.625 151.977 109.969 156.017 107.156C160.057 104.344 164.71 102.221 169.977 100.79C175.244 99.3066 180.869 98.3095 186.852 97.7981C193.551 97.1845 198.946 96.5453 203.037 95.8805C207.128 95.1646 210.094 94.1674 211.935 92.889C213.827 91.5595 214.773 89.693 214.773 87.2896V86.9061C214.773 82.9686 213.418 79.926 210.707 77.7782C207.997 75.6305 204.341 74.5566 199.739 74.5566C194.778 74.5566 190.79 75.6305 187.773 77.7782C184.756 79.926 182.838 82.8919 182.02 86.676L147.426 85.4487C148.449 78.2896 151.082 71.8975 155.327 66.2725C159.622 60.5964 165.503 56.1476 172.969 52.926C180.486 49.6532 189.511 48.0169 200.045 48.0169C207.563 48.0169 214.491 48.9118 220.832 50.7015C227.173 52.4402 232.696 54.997 237.401 58.372C242.105 61.6958 245.736 65.7868 248.293 70.6447C250.901 75.5027 252.205 81.051 252.205 87.2896V167.369H216.92V150.954H216C213.903 154.943 211.219 158.318 207.946 161.079C204.724 163.841 200.915 165.912 196.517 167.292C192.17 168.673 187.261 169.363 181.79 169.363ZM193.372 144.818C197.412 144.818 201.043 144 204.264 142.363C207.537 140.727 210.145 138.477 212.088 135.613C214.031 132.699 215.003 129.324 215.003 125.488V114.29C213.929 114.852 212.625 115.363 211.091 115.824C209.608 116.284 207.972 116.719 206.182 117.128C204.392 117.537 202.551 117.895 200.659 118.202C198.767 118.508 196.952 118.79 195.213 119.045C191.685 119.608 188.668 120.477 186.162 121.653C183.707 122.829 181.815 124.363 180.486 126.256C179.207 128.096 178.568 130.295 178.568 132.852C178.568 136.738 179.949 139.704 182.71 141.75C185.523 143.795 189.077 144.818 193.372 144.818ZM378 85.5254L343.56 86.4458C343.202 83.9913 342.23 81.818 340.645 79.926C339.06 77.9828 336.989 76.4743 334.432 75.4004C331.926 74.2754 329.011 73.7129 325.688 73.7129C321.341 73.7129 317.634 74.5822 314.565 76.3208C311.548 78.0595 310.065 80.4118 310.116 83.3777C310.065 85.6788 310.986 87.6731 312.878 89.3606C314.821 91.0481 318.273 92.4032 323.233 93.426L345.938 97.7214C357.699 99.9714 366.443 103.704 372.17 108.92C377.949 114.136 380.864 121.04 380.915 129.631C380.864 137.71 378.46 144.741 373.705 150.724C369 156.707 362.557 161.361 354.375 164.684C346.193 167.957 336.835 169.594 326.301 169.594C309.477 169.594 296.207 166.142 286.491 159.238C276.827 152.284 271.304 142.977 269.923 131.318L306.972 130.398C307.79 134.693 309.912 137.966 313.338 140.216C316.764 142.466 321.136 143.591 326.455 143.591C331.261 143.591 335.173 142.696 338.19 140.906C341.207 139.116 342.741 136.738 342.793 133.773C342.741 131.113 341.565 128.991 339.264 127.406C336.963 125.77 333.358 124.491 328.449 123.571L307.892 119.659C296.08 117.511 287.284 113.548 281.506 107.77C275.727 101.94 272.864 94.5254 272.915 85.5254C272.864 77.6504 274.96 70.926 279.205 65.3521C283.449 59.7271 289.483 55.4316 297.307 52.4657C305.131 49.4998 314.361 48.0169 324.997 48.0169C340.952 48.0169 353.531 51.3663 362.736 58.0652C371.94 64.7129 377.028 73.8663 378 85.5254ZM465.884 49.551V77.1646H391.558V49.551H465.884ZM407.129 21.3237H444.637V130.321C444.637 132.622 444.995 134.488 445.711 135.92C446.478 137.301 447.577 138.298 449.009 138.912C450.441 139.474 452.154 139.756 454.148 139.756C455.58 139.756 457.089 139.628 458.674 139.372C460.31 139.065 461.538 138.809 462.356 138.605L468.032 165.682C466.242 166.193 463.711 166.832 460.438 167.599C457.217 168.366 453.356 168.852 448.856 169.057C440.06 169.466 432.518 168.443 426.228 165.988C419.989 163.483 415.208 159.596 411.884 154.329C408.612 149.062 407.026 142.44 407.129 134.463V21.3237ZM485.022 167.369V49.551H522.531V167.369H485.022ZM503.815 35.8208C498.548 35.8208 494.022 34.0822 490.238 30.6049C486.454 27.0765 484.562 22.8322 484.562 17.872C484.562 12.9629 486.454 8.7697 490.238 5.29243C494.022 1.76402 498.548 -0.00018692 503.815 -0.00018692C509.133 -0.00018692 513.658 1.76402 517.391 5.29243C521.175 8.7697 523.067 12.9629 523.067 17.872C523.067 22.8322 521.175 27.0765 517.391 30.6049C513.658 34.0822 509.133 35.8208 503.815 35.8208ZM546.405 167.369V49.551H582.072V71.1816H583.376C585.831 64.0225 589.973 58.372 595.803 54.2299C601.632 50.0879 608.587 48.0169 616.666 48.0169C624.848 48.0169 631.854 50.1135 637.683 54.3066C643.513 58.4998 647.22 64.1248 648.805 71.1816H650.033C652.232 64.176 656.527 58.5765 662.919 54.3833C669.311 50.139 676.854 48.0169 685.547 48.0169C696.695 48.0169 705.746 51.5964 712.7 58.7555C719.655 65.8635 723.132 75.6305 723.132 88.0566V167.369H685.624V96.6475C685.624 90.7669 684.115 86.2924 681.098 83.2243C678.081 80.1049 674.169 78.5453 669.362 78.5453C664.197 78.5453 660.132 80.2328 657.166 83.6078C654.251 86.9316 652.794 91.4061 652.794 97.0311V167.369H616.743V96.264C616.743 90.7924 615.26 86.4714 612.294 83.301C609.328 80.1305 605.416 78.5453 600.558 78.5453C597.286 78.5453 594.396 79.3379 591.891 80.9231C589.385 82.4572 587.416 84.6561 585.984 87.5197C584.604 90.3833 583.913 93.7583 583.913 97.6447V167.369H546.405ZM801.447 169.594C789.124 169.594 778.487 167.165 769.538 162.307C760.641 157.398 753.788 150.417 748.982 141.366C744.226 132.264 741.848 121.449 741.848 108.92C741.848 96.7498 744.251 86.1135 749.058 77.0112C753.865 67.8578 760.641 60.7498 769.385 55.6873C778.129 50.5737 788.433 48.0169 800.297 48.0169C808.683 48.0169 816.354 49.3208 823.308 51.9288C830.263 54.5367 836.271 58.3975 841.334 63.5112C846.396 68.6248 850.334 74.9402 853.146 82.4572C855.959 89.9231 857.365 98.4885 857.365 108.153V117.511H754.964V95.7271H822.464C822.413 91.7385 821.467 88.1845 819.626 85.0652C817.786 81.9458 815.254 79.5169 812.033 77.7782C808.862 75.9885 805.206 75.0936 801.064 75.0936C796.871 75.0936 793.112 76.0396 789.788 77.9316C786.464 79.7726 783.831 82.3038 781.888 85.5254C779.945 88.6958 778.922 92.301 778.82 96.3407V118.508C778.82 123.315 779.766 127.534 781.658 131.165C783.55 134.744 786.234 137.531 789.712 139.525C793.189 141.52 797.331 142.517 802.138 142.517C805.462 142.517 808.479 142.057 811.189 141.136C813.899 140.216 816.226 138.861 818.169 137.071C820.112 135.281 821.57 133.082 822.541 130.474L856.982 131.471C855.55 139.193 852.405 145.917 847.547 151.645C842.74 157.321 836.425 161.744 828.601 164.915C820.777 168.034 811.726 169.594 801.447 169.594Z" fill="#FAF8F3"/>
<path d="M1218.79 54.3691V10.7328H1246V16.4004H1225.38V28.3322H1235.14C1238.38 28.3322 1241.12 28.8578 1243.38 29.9089C1245.65 30.96 1247.39 32.4444 1248.58 34.362C1249.79 36.2797 1250.39 38.5382 1250.39 41.1376C1250.39 43.737 1249.79 46.0311 1248.58 48.0197C1247.39 50.0083 1245.65 51.5637 1243.38 52.6859C1241.12 53.8081 1238.38 54.3691 1235.14 54.3691H1218.79ZM1225.38 48.8294H1235.14C1237.01 48.8294 1238.6 48.46 1239.89 47.7214C1241.19 46.9828 1242.18 46.024 1242.85 44.845C1243.53 43.666 1243.87 42.4018 1243.87 41.0524C1243.87 39.0922 1243.12 37.4089 1241.61 36.0027C1240.11 34.5822 1237.95 33.872 1235.14 33.872H1225.38V48.8294ZM1271.44 55.0297C1268.38 55.0297 1265.7 54.3265 1263.41 52.9203C1261.12 51.514 1259.35 49.5467 1258.08 47.0183C1256.82 44.4899 1256.19 41.5353 1256.19 38.1547C1256.19 34.7598 1256.82 31.791 1258.08 29.2484C1259.35 26.7058 1261.12 24.7314 1263.41 23.3251C1265.7 21.9189 1268.38 21.2157 1271.44 21.2157C1274.51 21.2157 1277.19 21.9189 1279.48 23.3251C1281.76 24.7314 1283.54 26.7058 1284.8 29.2484C1286.07 31.791 1286.7 34.7598 1286.7 38.1547C1286.7 41.5353 1286.07 44.4899 1284.8 47.0183C1283.54 49.5467 1281.76 51.514 1279.48 52.9203C1277.19 54.3265 1274.51 55.0297 1271.44 55.0297ZM1271.46 49.6816C1273.45 49.6816 1275.1 49.1561 1276.41 48.1049C1277.71 47.0538 1278.68 45.6547 1279.31 43.9075C1279.94 42.1603 1280.26 40.2356 1280.26 38.1333C1280.26 36.0453 1279.94 34.1277 1279.31 32.3805C1278.68 30.6191 1277.71 29.2058 1276.41 28.1404C1275.1 27.0751 1273.45 26.5424 1271.46 26.5424C1269.46 26.5424 1267.8 27.0751 1266.48 28.1404C1265.17 29.2058 1264.2 30.6191 1263.56 32.3805C1262.93 34.1277 1262.62 36.0453 1262.62 38.1333C1262.62 40.2356 1262.93 42.1603 1263.56 43.9075C1264.2 45.6547 1265.17 47.0538 1266.48 48.1049C1267.8 49.1561 1269.46 49.6816 1271.46 49.6816ZM1293.81 66.6419V21.6419H1300.03V26.9473H1300.56C1300.93 26.2654 1301.47 25.4771 1302.16 24.5822C1302.86 23.6873 1303.82 22.9061 1305.06 22.2385C1306.3 21.5566 1307.93 21.2157 1309.96 21.2157C1312.6 21.2157 1314.96 21.8833 1317.03 23.2186C1319.11 24.5538 1320.73 26.4785 1321.91 28.9927C1323.11 31.5069 1323.7 34.5325 1323.7 38.0694C1323.7 41.6064 1323.11 44.639 1321.94 47.1674C1320.76 49.6816 1319.14 51.6206 1317.08 52.9842C1315.02 54.3336 1312.67 55.0083 1310.02 55.0083C1308.04 55.0083 1306.41 54.6745 1305.15 54.0069C1303.9 53.3393 1302.92 52.5581 1302.2 51.6632C1301.49 50.7683 1300.95 49.9728 1300.56 49.2768H1300.18V66.6419H1293.81ZM1300.05 38.0055C1300.05 40.3066 1300.39 42.3237 1301.05 44.0566C1301.72 45.7896 1302.69 47.1461 1303.95 48.1262C1305.22 49.0922 1306.76 49.5751 1308.6 49.5751C1310.5 49.5751 1312.09 49.0708 1313.37 48.0623C1314.65 47.0396 1315.61 45.6547 1316.27 43.9075C1316.94 42.1603 1317.27 40.193 1317.27 38.0055C1317.27 35.8464 1316.94 33.9075 1316.29 32.1887C1315.65 30.47 1314.68 29.1135 1313.39 28.1191C1312.11 27.1248 1310.51 26.6277 1308.6 26.6277C1306.75 26.6277 1305.19 27.1035 1303.91 28.0552C1302.65 29.0069 1301.69 30.335 1301.03 32.0396C1300.38 33.7441 1300.05 35.7328 1300.05 38.0055ZM1344.63 55.0297C1341.56 55.0297 1338.88 54.3265 1336.59 52.9203C1334.31 51.514 1332.53 49.5467 1331.27 47.0183C1330 44.4899 1329.37 41.5353 1329.37 38.1547C1329.37 34.7598 1330 31.791 1331.27 29.2484C1332.53 26.7058 1334.31 24.7314 1336.59 23.3251C1338.88 21.9189 1341.56 21.2157 1344.63 21.2157C1347.69 21.2157 1350.37 21.9189 1352.66 23.3251C1354.95 24.7314 1356.72 26.7058 1357.99 29.2484C1359.25 31.791 1359.88 34.7598 1359.88 38.1547C1359.88 41.5353 1359.25 44.4899 1357.99 47.0183C1356.72 49.5467 1354.95 51.514 1352.66 52.9203C1350.37 54.3265 1347.69 55.0297 1344.63 55.0297ZM1344.65 49.6816C1346.64 49.6816 1348.28 49.1561 1349.59 48.1049C1350.9 47.0538 1351.86 45.6547 1352.49 43.9075C1353.13 42.1603 1353.45 40.2356 1353.45 38.1333C1353.45 36.0453 1353.13 34.1277 1352.49 32.3805C1351.86 30.6191 1350.9 29.2058 1349.59 28.1404C1348.28 27.0751 1346.64 26.5424 1344.65 26.5424C1342.65 26.5424 1340.98 27.0751 1339.66 28.1404C1338.36 29.2058 1337.38 30.6191 1336.74 32.3805C1336.12 34.1277 1335.81 36.0453 1335.81 38.1333C1335.81 40.2356 1336.12 42.1603 1336.74 43.9075C1337.38 45.6547 1338.36 47.0538 1339.66 48.1049C1340.98 49.1561 1342.65 49.6816 1344.65 49.6816ZM1363.8 63.8081V48.8507H1366.46C1367.14 48.2257 1367.72 47.4799 1368.19 46.6135C1368.67 45.747 1369.07 44.7172 1369.4 43.524C1369.74 42.3308 1370.03 40.9387 1370.25 39.3478C1370.48 37.7427 1370.68 35.9103 1370.85 33.8507L1371.87 21.6419H1394.12V48.8507H1399.15V63.8081H1392.92V54.3691H1370.1V63.8081H1363.8ZM1373.28 48.8507H1387.9V27.0964H1377.58L1376.9 33.8507C1376.57 37.2882 1376.16 40.2711 1375.67 42.7995C1375.17 45.3137 1374.37 47.3308 1373.28 48.8507ZM1411.62 45.4416L1426.04 21.6419H1432.9V54.3691H1426.66V30.5481L1412.3 54.3691H1405.37V21.6419H1411.62V45.4416ZM1463.65 35.2569V40.7754H1445.92V35.2569H1463.65ZM1447.71 21.6419V54.3691H1441.47V21.6419H1447.71ZM1468.1 21.6419V54.3691H1461.88V21.6419H1468.1ZM1496.7 54.3691H1489.71L1505.41 10.7328H1513.02L1528.72 54.3691H1521.73L1509.4 18.6589H1509.06L1496.7 54.3691ZM1497.87 37.2811H1520.54V42.8208H1497.87V37.2811ZM1531.94 54.3691L1531.91 48.8507H1533.09C1533.99 48.8507 1534.75 48.6589 1535.37 48.2754C1535.99 47.8777 1536.5 47.21 1536.9 46.2725C1537.3 45.335 1537.6 44.0424 1537.82 42.3947C1538.03 40.7328 1538.19 38.6447 1538.28 36.1305L1538.86 21.6419H1561.7V54.3691H1555.46V27.139H1544.76L1544.25 38.2612C1544.12 40.96 1543.85 43.318 1543.42 45.335C1543.01 47.3521 1542.4 49.0353 1541.61 50.3848C1540.81 51.72 1539.79 52.7214 1538.54 53.389C1537.29 54.0424 1535.77 54.3691 1533.98 54.3691H1531.94ZM1584.3 55.0297C1581.08 55.0297 1578.3 54.3407 1575.97 52.9629C1573.66 51.5708 1571.87 49.6177 1570.6 47.1035C1569.35 44.5751 1568.73 41.6135 1568.73 38.2186C1568.73 34.8663 1569.35 31.9118 1570.6 29.3549C1571.87 26.7981 1573.63 24.8024 1575.89 23.3677C1578.16 21.9331 1580.81 21.2157 1583.85 21.2157C1585.7 21.2157 1587.49 21.5211 1589.22 22.1319C1590.96 22.7427 1592.51 23.7015 1593.89 25.0083C1595.27 26.3152 1596.35 28.0126 1597.15 30.1007C1597.95 32.1745 1598.34 34.6958 1598.34 37.6646V39.9231H1572.33V35.1504H1592.1C1592.1 33.4743 1591.76 31.9899 1591.08 30.6973C1590.4 29.3904 1589.44 28.3606 1588.2 27.6078C1586.98 26.8549 1585.54 26.4785 1583.9 26.4785C1582.11 26.4785 1580.54 26.9189 1579.21 27.7995C1577.89 28.666 1576.87 29.8024 1576.14 31.2086C1575.43 32.6007 1575.08 34.1135 1575.08 35.747V39.4757C1575.08 41.6632 1575.46 43.524 1576.23 45.0581C1577.01 46.5922 1578.09 47.764 1579.49 48.5737C1580.88 49.3691 1582.5 49.7669 1584.37 49.7669C1585.57 49.7669 1586.67 49.5964 1587.67 49.2555C1588.66 48.9004 1589.52 48.3748 1590.25 47.6788C1590.97 46.9828 1591.52 46.1234 1591.91 45.1007L1597.94 46.1873C1597.46 47.9629 1596.59 49.5183 1595.34 50.8535C1594.1 52.1745 1592.55 53.2044 1590.67 53.943C1588.81 54.6674 1586.69 55.0297 1584.3 55.0297ZM1605.41 54.3691V21.6419H1611.78V35.3635H1614.85L1625.65 21.6419H1633.54L1620.86 37.5581L1633.69 54.3691H1625.78L1615.92 41.2868H1611.78V54.3691H1605.41ZM1651.07 55.0297C1647.9 55.0297 1645.18 54.3123 1642.89 52.8777C1640.62 51.4288 1638.87 49.4331 1637.65 46.8904C1636.43 44.3478 1635.82 41.4359 1635.82 38.1547C1635.82 34.8308 1636.44 31.8975 1637.69 29.3549C1638.94 26.7981 1640.7 24.8024 1642.98 23.3677C1645.25 21.9331 1647.93 21.2157 1651.01 21.2157C1653.49 21.2157 1655.71 21.6774 1657.66 22.6007C1659.6 23.5098 1661.17 24.7882 1662.36 26.4359C1663.57 28.0836 1664.29 30.0083 1664.52 32.21H1658.32C1657.98 30.676 1657.19 29.3549 1655.97 28.247C1654.77 27.139 1653.15 26.585 1651.11 26.585C1649.34 26.585 1647.78 27.0538 1646.45 27.9913C1645.13 28.9146 1644.1 30.2356 1643.36 31.9544C1642.62 33.6589 1642.25 35.676 1642.25 38.0055C1642.25 40.3919 1642.61 42.4515 1643.34 44.1845C1644.06 45.9174 1645.08 47.2598 1646.41 48.2115C1647.74 49.1632 1649.31 49.639 1651.11 49.639C1652.32 49.639 1653.42 49.4189 1654.4 48.9785C1655.39 48.524 1656.22 47.8777 1656.89 47.0396C1657.57 46.2015 1658.05 45.193 1658.32 44.014H1664.52C1664.29 46.1305 1663.6 48.0197 1662.45 49.6816C1661.3 51.3436 1659.76 52.6504 1657.83 53.6021C1655.91 54.5538 1653.66 55.0297 1651.07 55.0297ZM1680.85 55.0936C1678.78 55.0936 1676.9 54.71 1675.23 53.943C1673.55 53.1618 1672.22 52.0325 1671.24 50.5552C1670.28 49.0779 1669.8 47.2669 1669.8 45.122C1669.8 43.2754 1670.15 41.7555 1670.86 40.5623C1671.57 39.3691 1672.53 38.4245 1673.74 37.7285C1674.94 37.0325 1676.29 36.5069 1677.79 36.1518C1679.28 35.7967 1680.8 35.5268 1682.35 35.3422C1684.31 35.1149 1685.9 34.9302 1687.12 34.7882C1688.34 34.6319 1689.23 34.3833 1689.78 34.0424C1690.34 33.7015 1690.61 33.1475 1690.61 32.3805V32.2314C1690.61 30.3706 1690.09 28.9288 1689.04 27.9061C1688 26.8833 1686.45 26.372 1684.39 26.372C1682.25 26.372 1680.56 26.8478 1679.32 27.7995C1678.1 28.737 1677.25 29.7811 1676.78 30.9316L1670.8 29.568C1671.51 27.5794 1672.54 25.9743 1673.91 24.7527C1675.29 23.5169 1676.87 22.622 1678.66 22.068C1680.45 21.4998 1682.33 21.2157 1684.31 21.2157C1685.61 21.2157 1687 21.372 1688.46 21.6845C1689.94 21.9828 1691.32 22.5368 1692.59 23.3464C1693.89 24.1561 1694.94 25.3137 1695.77 26.8194C1696.59 28.3109 1697 30.2498 1697 32.6362V54.3691H1690.78V49.8947H1690.53C1690.12 50.7186 1689.5 51.5282 1688.67 52.3237C1687.85 53.1191 1686.79 53.7797 1685.5 54.3052C1684.21 54.8308 1682.66 55.0936 1680.85 55.0936ZM1682.24 49.9799C1684 49.9799 1685.51 49.6319 1686.76 48.9359C1688.02 48.2399 1688.98 47.3308 1689.63 46.2086C1690.3 45.0723 1690.63 43.8578 1690.63 42.5652V38.3464C1690.41 38.5737 1689.97 38.7868 1689.31 38.9856C1688.67 39.1703 1687.94 39.3336 1687.12 39.4757C1686.29 39.6035 1685.49 39.7243 1684.71 39.8379C1683.93 39.9373 1683.28 40.0225 1682.75 40.0936C1681.51 40.2498 1680.38 40.5126 1679.36 40.8819C1678.35 41.2512 1677.54 41.7839 1676.93 42.4799C1676.34 43.1618 1676.04 44.0708 1676.04 45.2072C1676.04 46.7839 1676.62 47.9771 1677.79 48.7868C1678.95 49.5822 1680.43 49.9799 1682.24 49.9799ZM1727.67 35.2569V40.7754H1709.94V35.2569H1727.67ZM1711.73 21.6419V54.3691H1705.49V21.6419H1711.73ZM1732.12 21.6419V54.3691H1725.9V21.6419H1732.12ZM1737.45 63.8081V48.8507H1740.11C1740.8 48.2257 1741.37 47.4799 1741.84 46.6135C1742.32 45.747 1742.73 44.7172 1743.05 43.524C1743.39 42.3308 1743.68 40.9387 1743.91 39.3478C1744.13 37.7427 1744.33 35.9103 1744.5 33.8507L1745.53 21.6419H1767.77V48.8507H1772.8V63.8081H1766.58V54.3691H1743.76V63.8081H1737.45ZM1746.93 48.8507H1761.55V27.0964H1751.24L1750.55 33.8507C1750.23 37.2882 1749.81 40.2711 1749.32 42.7995C1748.82 45.3137 1748.03 47.3308 1746.93 48.8507ZM1779.02 66.6419V21.6419H1785.25V26.9473H1785.78C1786.15 26.2654 1786.68 25.4771 1787.38 24.5822C1788.07 23.6873 1789.04 22.9061 1790.27 22.2385C1791.51 21.5566 1793.14 21.2157 1795.18 21.2157C1797.82 21.2157 1800.18 21.8833 1802.25 23.2186C1804.32 24.5538 1805.95 26.4785 1807.13 28.9927C1808.32 31.5069 1808.92 34.5325 1808.92 38.0694C1808.92 41.6064 1808.33 44.639 1807.15 47.1674C1805.97 49.6816 1804.35 51.6206 1802.29 52.9842C1800.23 54.3336 1797.88 55.0083 1795.24 55.0083C1793.25 55.0083 1791.62 54.6745 1790.36 54.0069C1789.11 53.3393 1788.13 52.5581 1787.42 51.6632C1786.71 50.7683 1786.16 49.9728 1785.78 49.2768H1785.4V66.6419H1779.02ZM1785.27 38.0055C1785.27 40.3066 1785.6 42.3237 1786.27 44.0566C1786.94 45.7896 1787.9 47.1461 1789.17 48.1262C1790.43 49.0922 1791.98 49.5751 1793.81 49.5751C1795.72 49.5751 1797.31 49.0708 1798.58 48.0623C1799.86 47.0396 1800.83 45.6547 1801.48 43.9075C1802.15 42.1603 1802.48 40.193 1802.48 38.0055C1802.48 35.8464 1802.16 33.9075 1801.5 32.1887C1800.86 30.47 1799.9 29.1135 1798.61 28.1191C1797.33 27.1248 1795.73 26.6277 1793.81 26.6277C1791.97 26.6277 1790.4 27.1035 1789.12 28.0552C1787.86 29.0069 1786.9 30.335 1786.25 32.0396C1785.59 33.7441 1785.27 35.7328 1785.27 38.0055Z" fill="#FAF8F3"/>
<path d="M1376.71 162.369V101.278H1414.8V109.213H1385.93V125.917H1399.59C1404.13 125.917 1407.97 126.653 1411.13 128.125C1414.32 129.596 1416.74 131.675 1418.41 134.359C1420.1 137.044 1420.95 140.206 1420.95 143.845C1420.95 147.484 1420.1 150.696 1418.41 153.48C1416.74 156.264 1414.32 158.442 1411.13 160.013C1407.97 161.584 1404.13 162.369 1399.59 162.369H1376.71ZM1385.93 154.613H1399.59C1402.22 154.613 1404.43 154.096 1406.24 153.062C1408.07 152.028 1409.45 150.686 1410.39 149.035C1411.34 147.385 1411.82 145.615 1411.82 143.726C1411.82 140.981 1410.77 138.625 1408.66 136.656C1406.55 134.667 1403.53 133.673 1399.59 133.673H1385.93V154.613ZM1431.84 162.369V101.278H1453.61C1458.37 101.278 1462.3 102.143 1465.42 103.873C1468.55 105.604 1470.88 107.97 1472.43 110.973C1473.99 113.956 1474.76 117.317 1474.76 121.055C1474.76 124.814 1473.98 128.194 1472.4 131.197C1470.85 134.18 1468.51 136.547 1465.37 138.297C1462.24 140.027 1458.32 140.892 1453.58 140.892H1438.61V133.077H1452.75C1455.75 133.077 1458.19 132.559 1460.06 131.525C1461.92 130.471 1463.3 129.04 1464.17 127.23C1465.05 125.42 1465.48 123.362 1465.48 121.055C1465.48 118.748 1465.05 116.7 1464.17 114.91C1463.3 113.121 1461.91 111.719 1460.03 110.704C1458.16 109.69 1455.69 109.183 1452.63 109.183H1441.05V162.369H1431.84ZM1485.57 101.278H1494.69V146.142H1495.26L1526.34 101.278H1534.88V162.369H1525.66V117.565H1525.09L1494.07 162.369H1485.57V101.278ZM1602.52 154.226L1601.72 176.807H1592.53V162.369H1588.23V154.226H1602.52ZM1548.32 162.369V101.278H1557.15V154.375H1586.62V101.278H1595.48V162.369H1548.32ZM1660.39 101.278V162.369H1651.2V109.153H1622.45V162.369H1613.26V101.278H1660.39ZM1673.65 162.369V155.687L1694.32 134.27C1696.53 131.943 1698.35 129.905 1699.78 128.155C1701.23 126.385 1702.32 124.704 1703.03 123.113C1703.75 121.523 1704.11 119.832 1704.11 118.042C1704.11 116.014 1703.63 114.264 1702.67 112.792C1701.72 111.301 1700.42 110.157 1698.77 109.362C1697.12 108.547 1695.26 108.139 1693.19 108.139C1691 108.139 1689.09 108.586 1687.46 109.481C1685.83 110.376 1684.58 111.639 1683.7 113.27C1682.83 114.9 1682.39 116.809 1682.39 118.997H1673.59C1673.59 115.278 1674.45 112.027 1676.16 109.243C1677.87 106.459 1680.21 104.301 1683.2 102.77C1686.18 101.219 1689.57 100.443 1693.37 100.443C1697.21 100.443 1700.59 101.209 1703.51 102.74C1706.45 104.251 1708.75 106.319 1710.4 108.944C1712.05 111.55 1712.88 114.493 1712.88 117.774C1712.88 120.041 1712.45 122.258 1711.59 124.426C1710.76 126.594 1709.3 129.01 1707.21 131.675C1705.12 134.319 1702.22 137.531 1698.5 141.309L1686.36 154.017V154.464H1713.86V162.369H1673.65ZM1745.33 163.204C1741.59 163.204 1738.23 162.488 1735.25 161.057C1732.28 159.605 1729.92 157.616 1728.15 155.091C1726.38 152.565 1725.43 149.682 1725.31 146.44H1734.26C1734.48 149.065 1735.65 151.223 1737.75 152.913C1739.86 154.604 1742.39 155.449 1745.33 155.449C1747.68 155.449 1749.75 154.912 1751.56 153.838C1753.39 152.744 1754.83 151.243 1755.86 149.334C1756.91 147.425 1757.44 145.247 1757.44 142.801C1757.44 140.315 1756.9 138.098 1755.83 136.149C1754.76 134.2 1753.27 132.669 1751.39 131.555C1749.52 130.442 1747.37 129.875 1744.94 129.855C1743.09 129.855 1741.23 130.173 1739.36 130.809C1737.5 131.446 1735.98 132.281 1734.83 133.315L1726.39 132.062L1729.82 101.278H1763.41V109.183H1737.49L1735.55 126.275H1735.9C1737.1 125.122 1738.68 124.157 1740.65 123.382C1742.64 122.606 1744.76 122.219 1747.03 122.219C1750.75 122.219 1754.06 123.104 1756.96 124.873C1759.89 126.643 1762.18 129.059 1763.85 132.122C1765.54 135.165 1766.38 138.665 1766.36 142.622C1766.38 146.579 1765.49 150.109 1763.68 153.211C1761.89 156.314 1759.4 158.76 1756.22 160.55C1753.06 162.319 1749.43 163.204 1745.33 163.204ZM1800.43 101.278V162.369H1791.19V110.525H1790.83L1776.21 120.071V111.241L1791.45 101.278H1800.43Z" fill="#FAF8F3"/>
</svg>
