<svg width="1089" height="605" viewBox="0 0 1089 605" fill="none" xmlns="http://www.w3.org/2000/svg">
<rect width="1089" height="605" fill="#FAF8F3"/>
<path d="M81.9718 383.486C81.9718 382.934 81.5241 382.486 80.9718 382.486H60.5358C59.6284 382.486 59.1901 381.374 59.8533 380.755L147.78 298.638C148.164 298.279 148.761 298.279 149.145 298.639L191.399 338.177C192.037 338.775 193.082 338.321 193.082 337.446V309.97C193.082 309.418 193.53 308.97 194.082 308.97H211.679C212.231 308.97 212.679 309.418 212.679 309.97V352.742C212.679 353.02 212.795 353.285 212.998 353.474L242.139 380.59C242.804 381.209 242.366 382.322 241.457 382.322H220.853C220.301 382.322 219.853 382.77 219.853 383.322V483C219.853 483.552 219.406 484 218.853 484H82.9718C82.4195 484 81.9718 483.552 81.9718 483V383.486Z" fill="#2C3E50"/>
<path d="M475.972 383.486C475.972 382.934 475.524 382.486 474.972 382.486H454.536C453.628 382.486 453.19 381.374 453.853 380.755L541.78 298.638C542.164 298.279 542.761 298.279 543.145 298.639L585.399 338.177C586.037 338.775 587.082 338.321 587.082 337.446V309.97C587.082 309.418 587.53 308.97 588.082 308.97H605.679C606.231 308.97 606.679 309.418 606.679 309.97V352.742C606.679 353.02 606.795 353.285 606.998 353.474L636.139 380.59C636.804 381.209 636.366 382.322 635.457 382.322H614.853C614.301 382.322 613.853 382.77 613.853 383.322V483C613.853 483.552 613.406 484 612.853 484H476.972C476.419 484 475.972 483.552 475.972 483V383.486Z" fill="#2C3E50"/>
<path d="M869.972 383.486C869.972 382.934 869.524 382.486 868.972 382.486H848.536C847.628 382.486 847.19 381.374 847.853 380.755L935.78 298.638C936.164 298.279 936.761 298.279 937.145 298.639L979.399 338.177C980.037 338.775 981.082 338.321 981.082 337.446V309.97C981.082 309.418 981.53 308.97 982.082 308.97H999.679C1000.23 308.97 1000.68 309.418 1000.68 309.97V352.742C1000.68 353.02 1000.79 353.285 1001 353.474L1030.14 380.59C1030.8 381.209 1030.37 382.322 1029.46 382.322H1008.85C1008.3 382.322 1007.85 382.77 1007.85 383.322V483C1007.85 483.552 1007.41 484 1006.85 484H870.972C870.419 484 869.972 483.552 869.972 483V383.486Z" fill="#2C3E50"/>
</svg>
