<svg width="1089" height="605" viewBox="0 0 1089 605" fill="none" xmlns="http://www.w3.org/2000/svg">
<rect width="1089" height="605" fill="#FAF8F3"/>
<path d="M81.9718 383.486C81.9718 382.934 81.5241 382.486 80.9718 382.486H60.5358C59.6284 382.486 59.1901 381.374 59.8533 380.755L147.78 298.638C148.164 298.279 148.761 298.279 149.145 298.639L191.399 338.177C192.037 338.775 193.082 338.321 193.082 337.446V309.97C193.082 309.418 193.53 308.97 194.082 308.97H211.679C212.231 308.97 212.679 309.418 212.679 309.97V352.742C212.679 353.02 212.795 353.285 212.998 353.474L242.139 380.59C242.804 381.209 242.366 382.322 241.457 382.322H220.853C220.301 382.322 219.853 382.77 219.853 383.322V483C219.853 483.552 219.406 484 218.853 484H82.9718C82.4195 484 81.9718 483.552 81.9718 483V383.486Z" fill="#2C3E50"/>
<path d="M475.972 383.486C475.972 382.934 475.524 382.486 474.972 382.486H454.536C453.628 382.486 453.19 381.374 453.853 380.755L541.78 298.638C542.164 298.279 542.761 298.279 543.145 298.639L585.399 338.177C586.037 338.775 587.082 338.321 587.082 337.446V309.97C587.082 309.418 587.53 308.97 588.082 308.97H605.679C606.231 308.97 606.679 309.418 606.679 309.97V352.742C606.679 353.02 606.795 353.285 606.998 353.474L636.139 380.59C636.804 381.209 636.366 382.322 635.457 382.322H614.853C614.301 382.322 613.853 382.77 613.853 383.322V483C613.853 483.552 613.406 484 612.853 484H476.972C476.419 484 475.972 483.552 475.972 483V383.486Z" fill="#2C3E50"/>
<path d="M869.972 383.486C869.972 382.934 869.524 382.486 868.972 382.486H848.536C847.628 382.486 847.19 381.374 847.853 380.755L935.78 298.638C936.164 298.279 936.761 298.279 937.145 298.639L979.399 338.177C980.037 338.775 981.082 338.321 981.082 337.446V309.97C981.082 309.418 981.53 308.97 982.082 308.97H999.679C1000.23 308.97 1000.68 309.418 1000.68 309.97V352.742C1000.68 353.02 1000.79 353.285 1001 353.474L1030.14 380.59C1030.8 381.209 1030.37 382.322 1029.46 382.322H1008.85C1008.3 382.322 1007.85 382.77 1007.85 383.322V483C1007.85 483.552 1007.41 484 1006.85 484H870.972C870.419 484 869.972 483.552 869.972 483V383.486Z" fill="#2C3E50"/>
<mask id="path-5-inside-1_723_6" fill="white">
<path d="M146.287 361H156.913V372.8C166.315 373.511 170.678 375.631 177.374 381.342L172.852 390.445C167.027 386.4 163.589 384.729 156.913 383.365V437.085C161.124 435.22 164.626 432.638 166.748 427.757C166.993 426.53 166.958 425.838 166.748 424.61C164.509 420.467 161.027 419.894 156.913 418.204V405.617C170.236 408.236 175.033 411.658 178.617 421.688C179.117 424.816 179.139 426.54 178.617 429.555C176.168 440.22 171.666 444.263 156.913 447.312V459H146.287V447.312C135.28 447.014 130.231 445.016 123 438.658L127.409 428.768C133.523 434.043 137.525 436.064 146.287 437.085V415.394C133.261 412.422 127.964 409.304 124.357 399.548C123.52 395.603 123.454 393.41 124.357 389.546C129.67 377.389 134.676 374.089 146.287 372.8V383.365C141.599 384.947 139.78 386.396 138.035 390.108C137.538 392.44 137.435 393.761 137.809 396.177C139.146 400.158 141.392 401.369 146.287 402.92V361Z"/>
</mask>
<path d="M146.287 361H156.913V372.8C166.315 373.511 170.678 375.631 177.374 381.342L172.852 390.445C167.027 386.4 163.589 384.729 156.913 383.365V437.085C161.124 435.22 164.626 432.638 166.748 427.757C166.993 426.53 166.958 425.838 166.748 424.61C164.509 420.467 161.027 419.894 156.913 418.204V405.617C170.236 408.236 175.033 411.658 178.617 421.688C179.117 424.816 179.139 426.54 178.617 429.555C176.168 440.22 171.666 444.263 156.913 447.312V459H146.287V447.312C135.28 447.014 130.231 445.016 123 438.658L127.409 428.768C133.523 434.043 137.525 436.064 146.287 437.085V415.394C133.261 412.422 127.964 409.304 124.357 399.548C123.52 395.603 123.454 393.41 124.357 389.546C129.67 377.389 134.676 374.089 146.287 372.8V383.365C141.599 384.947 139.78 386.396 138.035 390.108C137.538 392.44 137.435 393.761 137.809 396.177C139.146 400.158 141.392 401.369 146.287 402.92V361Z" fill="#B8860B"/>
<path d="M146.287 361V330H115.287V361H146.287ZM156.913 361H187.913V330H156.913V361ZM156.913 459V490H187.913V459H156.913ZM146.287 459H115.287V490H146.287V459ZM146.287 447.312H177.287V417.14L147.126 416.323L146.287 447.312ZM146.287 437.085L142.701 467.877L177.287 471.905V437.085H146.287ZM123 438.658L94.6858 426.037L85.3966 446.875L102.531 461.94L123 438.658ZM127.409 428.768L147.657 405.295L116.076 378.052L99.0945 416.147L127.409 428.768ZM156.913 447.312L150.638 416.954L125.913 422.064V447.312H156.913ZM156.913 437.085H125.913V484.717L169.465 465.43L156.913 437.085ZM178.617 429.555L208.83 436.495L209.02 435.671L209.164 434.838L178.617 429.555ZM166.748 427.757L195.177 440.116L196.495 437.086L197.144 433.846L166.748 427.757ZM166.748 424.61L197.301 419.369L196.441 414.352L194.021 409.874L166.748 424.61ZM178.617 421.688L209.229 416.799L208.776 413.962L207.809 411.257L178.617 421.688ZM156.913 418.204H125.913V438.986L145.137 446.881L156.913 418.204ZM156.913 405.617L162.892 375.199L125.913 367.931V405.617H156.913ZM146.287 415.394H177.287V390.671L153.183 385.171L146.287 415.394ZM146.287 402.92L136.925 432.472L177.287 445.259V402.92H146.287ZM124.357 399.548L94.0307 405.978L94.4985 408.184L95.2806 410.3L124.357 399.548ZM137.809 396.177L107.174 400.92L107.579 403.537L108.422 406.048L137.809 396.177ZM124.357 389.546L95.9509 377.131L94.8145 379.732L94.169 382.495L124.357 389.546ZM138.035 390.108L109.981 376.918L108.46 380.152L107.715 383.647L138.035 390.108ZM146.287 383.365L156.203 412.736L177.287 405.618V383.365H146.287ZM146.287 372.8H177.287V338.17L142.867 341.99L146.287 372.8ZM156.913 383.365L163.119 352.992L125.913 345.39V383.365H156.913ZM156.913 372.8H125.913V401.547L154.578 403.712L156.913 372.8ZM172.852 390.445L155.17 415.908L184.65 436.379L200.616 404.236L172.852 390.445ZM177.374 381.342L205.137 395.132L215.903 373.459L197.49 357.755L177.374 381.342ZM146.287 361V392H156.913V361V330H146.287V361ZM156.913 459V428H146.287V459V490H156.913V459ZM146.287 459H177.287V447.312H146.287H115.287V459H146.287ZM146.287 447.312L147.126 416.323C143.161 416.216 143.056 415.834 144.136 416.24C144.381 416.332 144.612 416.436 144.809 416.537C145.001 416.636 145.103 416.702 145.097 416.699C145.05 416.668 144.577 416.351 143.469 415.377L123 438.658L102.531 461.94C107.624 466.417 113.92 471.118 122.319 474.275C130.484 477.344 138.406 478.11 145.448 478.301L146.287 447.312ZM123 438.658L151.314 451.28L155.723 441.39L127.409 428.768L99.0945 416.147L94.6858 426.037L123 438.658ZM127.409 428.768L107.16 452.242C111.183 455.712 116.315 459.711 123.091 462.772C129.92 465.858 136.557 467.161 142.701 467.877L146.287 437.085L149.873 406.293C148.544 406.138 147.971 406.01 147.848 405.98C147.8 405.968 148.123 406.047 148.619 406.272C149.675 406.749 149.749 407.099 147.657 405.295L127.409 428.768ZM156.913 447.312H125.913V459H156.913H187.913V447.312H156.913ZM178.617 429.555L148.404 422.615C148.128 423.817 148.116 423.348 148.736 422.151C149.073 421.5 149.57 420.683 150.265 419.806C150.966 418.92 151.746 418.129 152.554 417.457C154.163 416.118 155.327 415.712 155.061 415.815C154.696 415.955 153.446 416.373 150.638 416.954L156.913 447.312L163.187 477.67C171.578 475.936 182.776 472.964 192.204 465.121C202.9 456.223 206.884 444.968 208.83 436.495L178.617 429.555ZM156.913 437.085L169.465 465.43C178.173 461.573 188.979 454.376 195.177 440.116L166.748 427.757L138.318 415.398C139.045 413.725 140.295 411.921 141.965 410.43C143.453 409.101 144.59 408.638 144.36 408.74L156.913 437.085ZM166.748 427.757L197.144 433.846C198.316 427.992 197.982 423.336 197.301 419.369L166.748 424.61L136.194 429.851C136.192 429.842 136.177 429.752 136.155 429.606C136.133 429.458 136.101 429.228 136.068 428.936C135.999 428.329 135.929 427.483 135.92 426.468C135.9 424.254 136.179 422.528 136.351 421.668L166.748 427.757ZM178.617 421.688L148.005 426.577C148.134 427.382 148.003 426.818 148 425.735C147.999 425.198 148.028 424.738 148.061 424.408C148.09 424.116 148.112 424.03 148.071 424.272L178.617 429.555L209.164 434.838C210.328 428.107 210.208 422.927 209.229 416.799L178.617 421.688ZM166.748 424.61L194.021 409.874C189.479 401.466 183.061 396.246 176.924 393.029C174.366 391.689 172.036 390.794 170.851 390.345C169.176 389.71 169.199 389.737 168.688 389.528L156.913 418.204L145.137 446.881C146.684 447.516 148.685 448.248 148.89 448.325C149.584 448.588 149.036 448.412 148.143 447.945C147.087 447.391 145.402 446.367 143.62 444.692C141.794 442.977 140.425 441.106 139.474 439.346L166.748 424.61ZM156.913 418.204H187.913V405.617H156.913H125.913V418.204H156.913ZM156.913 405.617L150.934 436.035C153.484 436.536 154.648 436.893 155.037 437.032C155.327 437.135 154.41 436.847 153.049 435.845C152.369 435.345 151.696 434.754 151.072 434.088C150.452 433.427 149.988 432.808 149.662 432.311C149.055 431.384 149.045 431.057 149.425 432.12L178.617 421.688L207.809 411.257C204.889 403.084 199.945 393.374 189.785 385.901C180.722 379.234 170.531 376.7 162.892 375.199L156.913 405.617ZM146.287 437.085H177.287V415.394H146.287H115.287V437.085H146.287ZM146.287 402.92H177.287V361H146.287H115.287V402.92H146.287ZM146.287 415.394L153.183 385.171C150.505 384.56 149.109 384.135 148.418 383.885C147.797 383.661 148.401 383.807 149.508 384.578C150.074 384.972 150.691 385.473 151.302 386.082C151.914 386.689 152.412 387.297 152.8 387.846C153.556 388.917 153.683 389.473 153.432 388.797L124.357 399.548L95.2806 410.3C98.5793 419.22 104.026 428.456 114.072 435.453C122.706 441.467 132.343 444.01 139.391 445.618L146.287 415.394ZM137.809 396.177L108.422 406.048C110.668 412.733 114.806 419.84 122.246 425.359C128.165 429.748 134.47 431.695 136.925 432.472L146.287 402.92L155.649 373.367C154.751 373.083 154.818 373.073 155.286 373.274C155.815 373.5 157.334 374.191 159.181 375.561C161.182 377.045 163.078 378.96 164.632 381.243C166.105 383.406 166.851 385.282 167.195 386.305L137.809 396.177ZM124.357 399.548L154.682 393.118C154.451 392.028 154.696 392.835 154.704 394.349C154.708 395.111 154.654 395.774 154.588 396.265C154.53 396.706 154.481 396.867 154.544 396.597L124.357 389.546L94.169 382.495C93.3707 385.913 92.6793 389.968 92.7048 394.684C92.7295 399.247 93.4253 403.123 94.0307 405.978L124.357 399.548ZM138.035 390.108L107.715 383.647C106.583 388.961 106.123 394.132 107.174 400.92L137.809 396.177L168.444 391.433C168.463 391.557 168.641 392.769 168.564 394.491C168.494 396.073 168.244 397.083 168.354 396.568L138.035 390.108ZM146.287 383.365L136.371 353.993C132.886 355.17 127.076 357.35 121.497 361.888C115.378 366.865 112.01 372.602 109.981 376.918L138.035 390.108L166.089 403.297C165.805 403.902 164.219 407.059 160.618 409.987C157.556 412.477 155 413.142 156.203 412.736L146.287 383.365ZM124.357 389.546L152.762 401.961C153.63 399.974 154.044 399.388 153.96 399.511C153.777 399.777 152.985 400.838 151.467 401.967C150.746 402.504 150.021 402.936 149.35 403.266C148.692 403.591 148.188 403.768 147.927 403.849C147.517 403.976 147.867 403.815 149.706 403.611L146.287 372.8L142.867 341.99C135.129 342.848 124.407 344.821 114.453 352.228C104.662 359.514 99.3996 369.241 95.9509 377.131L124.357 389.546ZM146.287 372.8H115.287V383.365H146.287H177.287V372.8H146.287ZM156.913 383.365H125.913V437.085H156.913H187.913V383.365H156.913ZM156.913 361H125.913V372.8H156.913H187.913V361H156.913ZM172.852 390.445L190.534 364.982C181.981 359.043 174.698 355.358 163.119 352.992L156.913 383.365L150.707 413.737C152.549 414.114 152.724 414.279 152.442 414.152C152.34 414.106 152.865 414.307 155.17 415.908L172.852 390.445ZM156.913 372.8L154.578 403.712C155.992 403.819 156.601 403.935 156.727 403.962C156.772 403.971 156.434 403.899 155.924 403.68C154.869 403.227 154.884 402.904 157.257 404.928L177.374 381.342L197.49 357.755C193.168 354.069 187.653 349.83 180.392 346.712C173.023 343.547 165.879 342.389 159.247 341.888L156.913 372.8ZM177.374 381.342L149.61 367.551L145.088 376.654L172.852 390.445L200.616 404.236L205.137 395.132L177.374 381.342Z" fill="#F6B901" mask="url(#path-5-inside-1_723_6)"/>
<mask id="path-7-inside-2_723_6" fill="white">
<path d="M540.287 361H550.913V372.8C560.315 373.511 564.678 375.631 571.374 381.342L566.852 390.445C561.027 386.4 557.589 384.729 550.913 383.365V437.085C555.124 435.22 558.626 432.638 560.748 427.757C560.993 426.53 560.958 425.838 560.748 424.61C558.509 420.467 555.027 419.894 550.913 418.204V405.617C564.236 408.236 569.033 411.658 572.617 421.688C573.117 424.816 573.139 426.54 572.617 429.555C570.168 440.22 565.666 444.263 550.913 447.312V459H540.287V447.312C529.28 447.014 524.231 445.016 517 438.658L521.409 428.768C527.523 434.043 531.525 436.064 540.287 437.085V415.394C527.261 412.422 521.964 409.304 518.357 399.548C517.52 395.603 517.454 393.41 518.357 389.546C523.67 377.389 528.676 374.089 540.287 372.8V383.365C535.599 384.947 533.78 386.396 532.035 390.108C531.538 392.44 531.435 393.761 531.809 396.177C533.146 400.158 535.392 401.369 540.287 402.92V361Z"/>
</mask>
<path d="M540.287 361H550.913V372.8C560.315 373.511 564.678 375.631 571.374 381.342L566.852 390.445C561.027 386.4 557.589 384.729 550.913 383.365V437.085C555.124 435.22 558.626 432.638 560.748 427.757C560.993 426.53 560.958 425.838 560.748 424.61C558.509 420.467 555.027 419.894 550.913 418.204V405.617C564.236 408.236 569.033 411.658 572.617 421.688C573.117 424.816 573.139 426.54 572.617 429.555C570.168 440.22 565.666 444.263 550.913 447.312V459H540.287V447.312C529.28 447.014 524.231 445.016 517 438.658L521.409 428.768C527.523 434.043 531.525 436.064 540.287 437.085V415.394C527.261 412.422 521.964 409.304 518.357 399.548C517.52 395.603 517.454 393.41 518.357 389.546C523.67 377.389 528.676 374.089 540.287 372.8V383.365C535.599 384.947 533.78 386.396 532.035 390.108C531.538 392.44 531.435 393.761 531.809 396.177C533.146 400.158 535.392 401.369 540.287 402.92V361Z" fill="#B8860B"/>
<path d="M540.287 361V330H509.287V361H540.287ZM550.913 361H581.913V330H550.913V361ZM550.913 459V490H581.913V459H550.913ZM540.287 459H509.287V490H540.287V459ZM540.287 447.312H571.287V417.14L541.126 416.323L540.287 447.312ZM540.287 437.085L536.701 467.877L571.287 471.905V437.085H540.287ZM517 438.658L488.686 426.037L479.397 446.875L496.531 461.94L517 438.658ZM521.409 428.768L541.657 405.295L510.076 378.052L493.095 416.147L521.409 428.768ZM550.913 447.312L544.638 416.954L519.913 422.064V447.312H550.913ZM550.913 437.085H519.913V484.717L563.465 465.43L550.913 437.085ZM572.617 429.555L602.83 436.495L603.02 435.671L603.164 434.838L572.617 429.555ZM560.748 427.757L589.177 440.116L590.495 437.086L591.144 433.846L560.748 427.757ZM560.748 424.61L591.301 419.369L590.441 414.352L588.021 409.874L560.748 424.61ZM572.617 421.688L603.229 416.799L602.776 413.962L601.809 411.257L572.617 421.688ZM550.913 418.204H519.913V438.986L539.137 446.881L550.913 418.204ZM550.913 405.617L556.892 375.199L519.913 367.931V405.617H550.913ZM540.287 415.394H571.287V390.671L547.183 385.171L540.287 415.394ZM540.287 402.92L530.925 432.472L571.287 445.259V402.92H540.287ZM518.357 399.548L488.031 405.978L488.498 408.184L489.281 410.3L518.357 399.548ZM531.809 396.177L501.174 400.92L501.579 403.537L502.422 406.048L531.809 396.177ZM518.357 389.546L489.951 377.131L488.814 379.732L488.169 382.495L518.357 389.546ZM532.035 390.108L503.981 376.918L502.46 380.152L501.715 383.647L532.035 390.108ZM540.287 383.365L550.203 412.736L571.287 405.618V383.365H540.287ZM540.287 372.8H571.287V338.17L536.867 341.99L540.287 372.8ZM550.913 383.365L557.119 352.992L519.913 345.39V383.365H550.913ZM550.913 372.8H519.913V401.547L548.578 403.712L550.913 372.8ZM566.852 390.445L549.17 415.908L578.65 436.379L594.616 404.236L566.852 390.445ZM571.374 381.342L599.137 395.132L609.903 373.459L591.49 357.755L571.374 381.342ZM540.287 361V392H550.913V361V330H540.287V361ZM550.913 459V428H540.287V459V490H550.913V459ZM540.287 459H571.287V447.312H540.287H509.287V459H540.287ZM540.287 447.312L541.126 416.323C537.161 416.216 537.056 415.834 538.136 416.24C538.381 416.332 538.612 416.436 538.809 416.537C539.001 416.636 539.103 416.702 539.097 416.699C539.05 416.668 538.577 416.351 537.469 415.377L517 438.658L496.531 461.94C501.624 466.417 507.92 471.118 516.319 474.275C524.484 477.344 532.406 478.11 539.448 478.301L540.287 447.312ZM517 438.658L545.314 451.28L549.723 441.39L521.409 428.768L493.095 416.147L488.686 426.037L517 438.658ZM521.409 428.768L501.16 452.242C505.183 455.712 510.315 459.711 517.091 462.772C523.92 465.858 530.557 467.161 536.701 467.877L540.287 437.085L543.873 406.293C542.544 406.138 541.971 406.01 541.848 405.98C541.8 405.968 542.123 406.047 542.619 406.272C543.675 406.749 543.749 407.099 541.657 405.295L521.409 428.768ZM550.913 447.312H519.913V459H550.913H581.913V447.312H550.913ZM572.617 429.555L542.404 422.615C542.128 423.817 542.116 423.348 542.736 422.151C543.073 421.5 543.57 420.683 544.265 419.806C544.966 418.92 545.746 418.129 546.554 417.457C548.163 416.118 549.327 415.712 549.061 415.815C548.696 415.955 547.446 416.373 544.638 416.954L550.913 447.312L557.187 477.67C565.578 475.936 576.776 472.964 586.204 465.121C596.9 456.223 600.884 444.968 602.83 436.495L572.617 429.555ZM550.913 437.085L563.465 465.43C572.173 461.573 582.979 454.376 589.177 440.116L560.748 427.757L532.318 415.398C533.045 413.725 534.295 411.921 535.965 410.43C537.453 409.101 538.59 408.638 538.36 408.74L550.913 437.085ZM560.748 427.757L591.144 433.846C592.316 427.992 591.982 423.336 591.301 419.369L560.748 424.61L530.194 429.851C530.192 429.842 530.177 429.752 530.155 429.606C530.133 429.458 530.101 429.228 530.068 428.936C529.999 428.329 529.929 427.483 529.92 426.468C529.9 424.254 530.179 422.528 530.351 421.668L560.748 427.757ZM572.617 421.688L542.005 426.577C542.134 427.382 542.003 426.818 542 425.735C541.999 425.198 542.028 424.738 542.061 424.408C542.09 424.116 542.112 424.03 542.071 424.272L572.617 429.555L603.164 434.838C604.328 428.107 604.208 422.927 603.229 416.799L572.617 421.688ZM560.748 424.61L588.021 409.874C583.479 401.466 577.061 396.246 570.924 393.029C568.366 391.689 566.036 390.794 564.851 390.345C563.176 389.71 563.199 389.737 562.688 389.528L550.913 418.204L539.137 446.881C540.684 447.516 542.685 448.248 542.89 448.325C543.584 448.588 543.036 448.412 542.143 447.945C541.087 447.391 539.402 446.367 537.62 444.692C535.794 442.977 534.425 441.106 533.474 439.346L560.748 424.61ZM550.913 418.204H581.913V405.617H550.913H519.913V418.204H550.913ZM550.913 405.617L544.934 436.035C547.484 436.536 548.648 436.893 549.037 437.032C549.327 437.135 548.41 436.847 547.049 435.845C546.369 435.345 545.696 434.754 545.072 434.088C544.452 433.427 543.988 432.808 543.662 432.311C543.055 431.384 543.045 431.057 543.425 432.12L572.617 421.688L601.809 411.257C598.889 403.084 593.945 393.374 583.785 385.901C574.722 379.234 564.531 376.7 556.892 375.199L550.913 405.617ZM540.287 437.085H571.287V415.394H540.287H509.287V437.085H540.287ZM540.287 402.92H571.287V361H540.287H509.287V402.92H540.287ZM540.287 415.394L547.183 385.171C544.505 384.56 543.109 384.135 542.418 383.885C541.797 383.661 542.401 383.807 543.508 384.578C544.074 384.972 544.691 385.473 545.302 386.082C545.914 386.689 546.412 387.297 546.8 387.846C547.556 388.917 547.683 389.473 547.432 388.797L518.357 399.548L489.281 410.3C492.579 419.22 498.026 428.456 508.072 435.453C516.706 441.467 526.343 444.01 533.391 445.618L540.287 415.394ZM531.809 396.177L502.422 406.048C504.668 412.733 508.806 419.84 516.246 425.359C522.165 429.748 528.47 431.695 530.925 432.472L540.287 402.92L549.649 373.367C548.751 373.083 548.818 373.073 549.286 373.274C549.815 373.5 551.334 374.191 553.181 375.561C555.182 377.045 557.078 378.96 558.632 381.243C560.105 383.406 560.851 385.282 561.195 386.305L531.809 396.177ZM518.357 399.548L548.682 393.118C548.451 392.028 548.696 392.835 548.704 394.349C548.708 395.111 548.654 395.774 548.588 396.265C548.53 396.706 548.481 396.867 548.544 396.597L518.357 389.546L488.169 382.495C487.371 385.913 486.679 389.968 486.705 394.684C486.73 399.247 487.425 403.123 488.031 405.978L518.357 399.548ZM532.035 390.108L501.715 383.647C500.583 388.961 500.123 394.132 501.174 400.92L531.809 396.177L562.444 391.433C562.463 391.557 562.641 392.769 562.564 394.491C562.494 396.073 562.244 397.083 562.354 396.568L532.035 390.108ZM540.287 383.365L530.371 353.993C526.886 355.17 521.076 357.35 515.497 361.888C509.378 366.865 506.01 372.602 503.981 376.918L532.035 390.108L560.089 403.297C559.805 403.902 558.219 407.059 554.618 409.987C551.556 412.477 549 413.142 550.203 412.736L540.287 383.365ZM518.357 389.546L546.762 401.961C547.63 399.974 548.044 399.388 547.96 399.511C547.777 399.777 546.985 400.838 545.467 401.967C544.746 402.504 544.021 402.936 543.35 403.266C542.692 403.591 542.188 403.768 541.927 403.849C541.517 403.976 541.867 403.815 543.706 403.611L540.287 372.8L536.867 341.99C529.129 342.848 518.407 344.821 508.453 352.228C498.662 359.514 493.4 369.241 489.951 377.131L518.357 389.546ZM540.287 372.8H509.287V383.365H540.287H571.287V372.8H540.287ZM550.913 383.365H519.913V437.085H550.913H581.913V383.365H550.913ZM550.913 361H519.913V372.8H550.913H581.913V361H550.913ZM566.852 390.445L584.534 364.982C575.981 359.043 568.698 355.358 557.119 352.992L550.913 383.365L544.707 413.737C546.549 414.114 546.724 414.279 546.442 414.152C546.34 414.106 546.865 414.307 549.17 415.908L566.852 390.445ZM550.913 372.8L548.578 403.712C549.992 403.819 550.601 403.935 550.727 403.962C550.772 403.971 550.434 403.899 549.924 403.68C548.869 403.227 548.884 402.904 551.257 404.928L571.374 381.342L591.49 357.755C587.168 354.069 581.653 349.83 574.392 346.712C567.023 343.547 559.879 342.389 553.247 341.888L550.913 372.8ZM571.374 381.342L543.61 367.551L539.088 376.654L566.852 390.445L594.616 404.236L599.137 395.132L571.374 381.342Z" fill="#F6B901" mask="url(#path-7-inside-2_723_6)"/>
</svg>
