<svg width="1089" height="605" viewBox="0 0 1089 605" fill="none" xmlns="http://www.w3.org/2000/svg">
<rect width="1089" height="605" fill="#FAF8F3"/>
<path d="M81.9718 383.486C81.9718 382.934 81.5241 382.486 80.9718 382.486H60.5358C59.6284 382.486 59.1901 381.374 59.8533 380.755L147.78 298.638C148.164 298.279 148.761 298.279 149.145 298.639L191.399 338.177C192.037 338.775 193.082 338.321 193.082 337.446V309.97C193.082 309.418 193.53 308.97 194.082 308.97H211.679C212.231 308.97 212.679 309.418 212.679 309.97V352.742C212.679 353.02 212.795 353.285 212.998 353.474L242.139 380.59C242.804 381.209 242.366 382.322 241.457 382.322H220.853C220.301 382.322 219.853 382.77 219.853 383.322V483C219.853 483.552 219.406 484 218.853 484H82.9718C82.4195 484 81.9718 483.552 81.9718 483V383.486Z" fill="#2C3E50"/>
<mask id="path-3-inside-1_723_12" fill="white">
<path d="M146.287 361H156.913V372.8C166.315 373.511 170.678 375.631 177.374 381.342L172.852 390.445C167.027 386.4 163.589 384.729 156.913 383.365V437.085C161.124 435.22 164.626 432.638 166.748 427.757C166.993 426.53 166.958 425.838 166.748 424.61C164.509 420.467 161.027 419.894 156.913 418.204V405.617C170.236 408.236 175.033 411.658 178.617 421.688C179.117 424.816 179.139 426.54 178.617 429.555C176.168 440.22 171.666 444.263 156.913 447.312V459H146.287V447.312C135.28 447.014 130.231 445.016 123 438.658L127.409 428.768C133.523 434.043 137.525 436.064 146.287 437.085V415.394C133.261 412.422 127.964 409.304 124.357 399.548C123.52 395.603 123.454 393.41 124.357 389.546C129.67 377.389 134.676 374.089 146.287 372.8V383.365C141.599 384.947 139.78 386.396 138.035 390.108C137.538 392.44 137.435 393.761 137.809 396.177C139.146 400.158 141.392 401.369 146.287 402.92V361Z"/>
</mask>
<path d="M146.287 361H156.913V372.8C166.315 373.511 170.678 375.631 177.374 381.342L172.852 390.445C167.027 386.4 163.589 384.729 156.913 383.365V437.085C161.124 435.22 164.626 432.638 166.748 427.757C166.993 426.53 166.958 425.838 166.748 424.61C164.509 420.467 161.027 419.894 156.913 418.204V405.617C170.236 408.236 175.033 411.658 178.617 421.688C179.117 424.816 179.139 426.54 178.617 429.555C176.168 440.22 171.666 444.263 156.913 447.312V459H146.287V447.312C135.28 447.014 130.231 445.016 123 438.658L127.409 428.768C133.523 434.043 137.525 436.064 146.287 437.085V415.394C133.261 412.422 127.964 409.304 124.357 399.548C123.52 395.603 123.454 393.41 124.357 389.546C129.67 377.389 134.676 374.089 146.287 372.8V383.365C141.599 384.947 139.78 386.396 138.035 390.108C137.538 392.44 137.435 393.761 137.809 396.177C139.146 400.158 141.392 401.369 146.287 402.92V361Z" fill="#B8860B"/>
<path d="M146.287 361V330H115.287V361H146.287ZM156.913 361H187.913V330H156.913V361ZM156.913 459V490H187.913V459H156.913ZM146.287 459H115.287V490H146.287V459ZM146.287 447.312H177.287V417.14L147.126 416.323L146.287 447.312ZM146.287 437.085L142.701 467.877L177.287 471.905V437.085H146.287ZM123 438.658L94.6858 426.037L85.3966 446.875L102.531 461.94L123 438.658ZM127.409 428.768L147.657 405.295L116.076 378.052L99.0945 416.147L127.409 428.768ZM156.913 447.312L150.638 416.954L125.913 422.064V447.312H156.913ZM156.913 437.085H125.913V484.717L169.465 465.43L156.913 437.085ZM178.617 429.555L208.83 436.495L209.02 435.671L209.164 434.838L178.617 429.555ZM166.748 427.757L195.177 440.116L196.495 437.086L197.144 433.846L166.748 427.757ZM166.748 424.61L197.301 419.369L196.441 414.352L194.021 409.874L166.748 424.61ZM178.617 421.688L209.229 416.799L208.776 413.962L207.809 411.257L178.617 421.688ZM156.913 418.204H125.913V438.986L145.137 446.881L156.913 418.204ZM156.913 405.617L162.892 375.199L125.913 367.931V405.617H156.913ZM146.287 415.394H177.287V390.671L153.183 385.171L146.287 415.394ZM146.287 402.92L136.925 432.472L177.287 445.259V402.92H146.287ZM124.357 399.548L94.0307 405.978L94.4985 408.184L95.2806 410.3L124.357 399.548ZM137.809 396.177L107.174 400.92L107.579 403.537L108.422 406.048L137.809 396.177ZM124.357 389.546L95.9509 377.131L94.8145 379.732L94.169 382.495L124.357 389.546ZM138.035 390.108L109.981 376.918L108.46 380.152L107.715 383.647L138.035 390.108ZM146.287 383.365L156.203 412.736L177.287 405.618V383.365H146.287ZM146.287 372.8H177.287V338.17L142.867 341.99L146.287 372.8ZM156.913 383.365L163.119 352.992L125.913 345.39V383.365H156.913ZM156.913 372.8H125.913V401.547L154.578 403.712L156.913 372.8ZM172.852 390.445L155.17 415.908L184.65 436.379L200.616 404.236L172.852 390.445ZM177.374 381.342L205.137 395.132L215.903 373.459L197.49 357.755L177.374 381.342ZM146.287 361V392H156.913V361V330H146.287V361ZM156.913 459V428H146.287V459V490H156.913V459ZM146.287 459H177.287V447.312H146.287H115.287V459H146.287ZM146.287 447.312L147.126 416.323C143.161 416.216 143.056 415.834 144.136 416.24C144.381 416.332 144.612 416.436 144.809 416.537C145.001 416.636 145.103 416.702 145.097 416.699C145.05 416.668 144.577 416.351 143.469 415.377L123 438.658L102.531 461.94C107.624 466.417 113.92 471.118 122.319 474.275C130.484 477.344 138.406 478.11 145.448 478.301L146.287 447.312ZM123 438.658L151.314 451.28L155.723 441.39L127.409 428.768L99.0945 416.147L94.6858 426.037L123 438.658ZM127.409 428.768L107.16 452.242C111.183 455.712 116.315 459.711 123.091 462.772C129.92 465.858 136.557 467.161 142.701 467.877L146.287 437.085L149.873 406.293C148.544 406.138 147.971 406.01 147.848 405.98C147.8 405.968 148.123 406.047 148.619 406.272C149.675 406.749 149.749 407.099 147.657 405.295L127.409 428.768ZM156.913 447.312H125.913V459H156.913H187.913V447.312H156.913ZM178.617 429.555L148.404 422.615C148.128 423.817 148.116 423.348 148.736 422.151C149.073 421.5 149.57 420.683 150.265 419.806C150.966 418.92 151.746 418.129 152.554 417.457C154.163 416.118 155.327 415.712 155.061 415.815C154.696 415.955 153.446 416.373 150.638 416.954L156.913 447.312L163.187 477.67C171.578 475.936 182.776 472.964 192.204 465.121C202.9 456.223 206.884 444.968 208.83 436.495L178.617 429.555ZM156.913 437.085L169.465 465.43C178.173 461.573 188.979 454.376 195.177 440.116L166.748 427.757L138.318 415.398C139.045 413.725 140.295 411.921 141.965 410.43C143.453 409.101 144.59 408.638 144.36 408.74L156.913 437.085ZM166.748 427.757L197.144 433.846C198.316 427.992 197.982 423.336 197.301 419.369L166.748 424.61L136.194 429.851C136.192 429.842 136.177 429.752 136.155 429.606C136.133 429.458 136.101 429.228 136.068 428.936C135.999 428.329 135.929 427.483 135.92 426.468C135.9 424.254 136.179 422.528 136.351 421.668L166.748 427.757ZM178.617 421.688L148.005 426.577C148.134 427.382 148.003 426.818 148 425.735C147.999 425.198 148.028 424.738 148.061 424.408C148.09 424.116 148.112 424.03 148.071 424.272L178.617 429.555L209.164 434.838C210.328 428.107 210.208 422.927 209.229 416.799L178.617 421.688ZM166.748 424.61L194.021 409.874C189.479 401.466 183.061 396.246 176.924 393.029C174.366 391.689 172.036 390.794 170.851 390.345C169.176 389.71 169.199 389.737 168.688 389.528L156.913 418.204L145.137 446.881C146.684 447.516 148.685 448.248 148.89 448.325C149.584 448.588 149.036 448.412 148.143 447.945C147.087 447.391 145.402 446.367 143.62 444.692C141.794 442.977 140.425 441.106 139.474 439.346L166.748 424.61ZM156.913 418.204H187.913V405.617H156.913H125.913V418.204H156.913ZM156.913 405.617L150.934 436.035C153.484 436.536 154.648 436.893 155.037 437.032C155.327 437.135 154.41 436.847 153.049 435.845C152.369 435.345 151.696 434.754 151.072 434.088C150.452 433.427 149.988 432.808 149.662 432.311C149.055 431.384 149.045 431.057 149.425 432.12L178.617 421.688L207.809 411.257C204.889 403.084 199.945 393.374 189.785 385.901C180.722 379.234 170.531 376.7 162.892 375.199L156.913 405.617ZM146.287 437.085H177.287V415.394H146.287H115.287V437.085H146.287ZM146.287 402.92H177.287V361H146.287H115.287V402.92H146.287ZM146.287 415.394L153.183 385.171C150.505 384.56 149.109 384.135 148.418 383.885C147.797 383.661 148.401 383.807 149.508 384.578C150.074 384.972 150.691 385.473 151.302 386.082C151.914 386.689 152.412 387.297 152.8 387.846C153.556 388.917 153.683 389.473 153.432 388.797L124.357 399.548L95.2806 410.3C98.5793 419.22 104.026 428.456 114.072 435.453C122.706 441.467 132.343 444.01 139.391 445.618L146.287 415.394ZM137.809 396.177L108.422 406.048C110.668 412.733 114.806 419.84 122.246 425.359C128.165 429.748 134.47 431.695 136.925 432.472L146.287 402.92L155.649 373.367C154.751 373.083 154.818 373.073 155.286 373.274C155.815 373.5 157.334 374.191 159.181 375.561C161.182 377.045 163.078 378.96 164.632 381.243C166.105 383.406 166.851 385.282 167.195 386.305L137.809 396.177ZM124.357 399.548L154.682 393.118C154.451 392.028 154.696 392.835 154.704 394.349C154.708 395.111 154.654 395.774 154.588 396.265C154.53 396.706 154.481 396.867 154.544 396.597L124.357 389.546L94.169 382.495C93.3707 385.913 92.6793 389.968 92.7048 394.684C92.7295 399.247 93.4253 403.123 94.0307 405.978L124.357 399.548ZM138.035 390.108L107.715 383.647C106.583 388.961 106.123 394.132 107.174 400.92L137.809 396.177L168.444 391.433C168.463 391.557 168.641 392.769 168.564 394.491C168.494 396.073 168.244 397.083 168.354 396.568L138.035 390.108ZM146.287 383.365L136.371 353.993C132.886 355.17 127.076 357.35 121.497 361.888C115.378 366.865 112.01 372.602 109.981 376.918L138.035 390.108L166.089 403.297C165.805 403.902 164.219 407.059 160.618 409.987C157.556 412.477 155 413.142 156.203 412.736L146.287 383.365ZM124.357 389.546L152.762 401.961C153.63 399.974 154.044 399.388 153.96 399.511C153.777 399.777 152.985 400.838 151.467 401.967C150.746 402.504 150.021 402.936 149.35 403.266C148.692 403.591 148.188 403.768 147.927 403.849C147.517 403.976 147.867 403.815 149.706 403.611L146.287 372.8L142.867 341.99C135.129 342.848 124.407 344.821 114.453 352.228C104.662 359.514 99.3996 369.241 95.9509 377.131L124.357 389.546ZM146.287 372.8H115.287V383.365H146.287H177.287V372.8H146.287ZM156.913 383.365H125.913V437.085H156.913H187.913V383.365H156.913ZM156.913 361H125.913V372.8H156.913H187.913V361H156.913ZM172.852 390.445L190.534 364.982C181.981 359.043 174.698 355.358 163.119 352.992L156.913 383.365L150.707 413.737C152.549 414.114 152.724 414.279 152.442 414.152C152.34 414.106 152.865 414.307 155.17 415.908L172.852 390.445ZM156.913 372.8L154.578 403.712C155.992 403.819 156.601 403.935 156.727 403.962C156.772 403.971 156.434 403.899 155.924 403.68C154.869 403.227 154.884 402.904 157.257 404.928L177.374 381.342L197.49 357.755C193.168 354.069 187.653 349.83 180.392 346.712C173.023 343.547 165.879 342.389 159.247 341.888L156.913 372.8ZM177.374 381.342L149.61 367.551L145.088 376.654L172.852 390.445L200.616 404.236L205.137 395.132L177.374 381.342Z" fill="#F6B901" mask="url(#path-3-inside-1_723_12)"/>
<path d="M801.931 229.546C801.931 228.993 801.484 228.546 800.931 228.546H773.259C772.391 228.546 771.935 227.516 772.518 226.874L886.985 100.816C887.382 100.379 888.07 100.379 888.466 100.817L943.558 161.605C944.172 162.282 945.299 161.848 945.299 160.933V117.691C945.299 117.139 945.747 116.691 946.299 116.691H969.586C970.138 116.691 970.586 117.139 970.586 117.691V183.566C970.586 183.815 970.679 184.055 970.847 184.24L1009.47 226.623C1010.06 227.265 1009.6 228.297 1008.74 228.297H980.843C980.291 228.297 979.843 228.744 979.843 229.297V382C979.843 382.552 979.395 383 978.843 383H802.931C802.379 383 801.931 382.552 801.931 382V229.546Z" fill="#B8860B"/>
<path d="M914.972 282.486C914.972 281.934 914.524 281.486 913.972 281.486H893.536C892.628 281.486 892.19 280.374 892.853 279.755L980.78 197.638C981.164 197.279 981.761 197.279 982.145 197.639L1024.4 237.177C1025.04 237.775 1026.08 237.321 1026.08 236.446V208.97C1026.08 208.418 1026.53 207.97 1027.08 207.97H1044.68C1045.23 207.97 1045.68 208.418 1045.68 208.97V251.742C1045.68 252.02 1045.79 252.285 1046 252.474L1075.14 279.59C1075.8 280.209 1075.37 281.322 1074.46 281.322H1053.85C1053.3 281.322 1052.85 281.77 1052.85 282.322V382C1052.85 382.552 1052.41 383 1051.85 383H915.972C915.419 383 914.972 382.552 914.972 382V282.486Z" fill="#B8860B"/>
<path d="M738.972 282.486C738.972 281.934 738.524 281.486 737.972 281.486H717.536C716.628 281.486 716.19 280.374 716.853 279.755L804.78 197.638C805.164 197.279 805.761 197.279 806.145 197.639L848.399 237.177C849.037 237.775 850.082 237.321 850.082 236.446V208.97C850.082 208.418 850.53 207.97 851.082 207.97H868.679C869.231 207.97 869.679 208.418 869.679 208.97V251.742C869.679 252.02 869.795 252.285 869.998 252.474L899.139 279.59C899.804 280.209 899.366 281.322 898.457 281.322H877.853C877.301 281.322 876.853 281.77 876.853 282.322V382C876.853 382.552 876.406 383 875.853 383H739.972C739.419 383 738.972 382.552 738.972 382V282.486Z" fill="#B8860B"/>
<rect x="739" y="378" width="314" height="106" rx="1" fill="#B8860B"/>
<path d="M390.931 330.546C390.931 329.993 390.484 329.546 389.931 329.546H362.259C361.391 329.546 360.935 328.516 361.518 327.874L475.985 201.816C476.382 201.379 477.07 201.379 477.466 201.817L532.558 262.605C533.172 263.282 534.299 262.848 534.299 261.933V218.691C534.299 218.139 534.747 217.691 535.299 217.691H558.586C559.138 217.691 559.586 218.139 559.586 218.691V284.566C559.586 284.815 559.679 285.055 559.847 285.24L598.475 327.623C599.06 328.265 598.604 329.297 597.736 329.297H569.843C569.291 329.297 568.843 329.744 568.843 330.297V483C568.843 483.552 568.395 484 567.843 484H391.931C391.379 484 390.931 483.552 390.931 483V330.546Z" fill="#AE1645"/>
<mask id="path-10-inside-2_723_12" fill="white">
<path d="M472.582 308H488.818V326.136C503.185 327.228 509.85 330.486 520.082 339.264L513.173 353.255C504.272 347.038 499.019 344.469 488.818 342.373V424.936C495.252 422.07 500.603 418.102 503.845 410.6C504.221 408.714 504.167 407.651 503.845 405.764C500.425 399.395 495.104 398.515 488.818 395.918V376.573C509.175 380.597 516.505 385.857 521.982 401.273C522.745 406.08 522.779 408.729 521.982 413.364C518.239 429.754 511.361 435.968 488.818 440.655V458.618H472.582V440.655C455.764 440.197 448.049 437.125 437 427.355L443.736 412.155C453.079 420.261 459.194 423.368 472.582 424.936V391.6C452.678 387.032 444.585 382.24 439.073 367.245C437.795 361.182 437.694 357.811 439.073 351.873C447.191 333.189 454.841 328.117 472.582 326.136V342.373C465.419 344.805 462.639 347.031 459.973 352.736C459.213 356.32 459.056 358.351 459.627 362.064C461.671 368.183 465.102 370.044 472.582 372.427V308Z"/>
</mask>
<path d="M472.582 308H488.818V326.136C503.185 327.228 509.85 330.486 520.082 339.264L513.173 353.255C504.272 347.038 499.019 344.469 488.818 342.373V424.936C495.252 422.07 500.603 418.102 503.845 410.6C504.221 408.714 504.167 407.651 503.845 405.764C500.425 399.395 495.104 398.515 488.818 395.918V376.573C509.175 380.597 516.505 385.857 521.982 401.273C522.745 406.08 522.779 408.729 521.982 413.364C518.239 429.754 511.361 435.968 488.818 440.655V458.618H472.582V440.655C455.764 440.197 448.049 437.125 437 427.355L443.736 412.155C453.079 420.261 459.194 423.368 472.582 424.936V391.6C452.678 387.032 444.585 382.24 439.073 367.245C437.795 361.182 437.694 357.811 439.073 351.873C447.191 333.189 454.841 328.117 472.582 326.136V342.373C465.419 344.805 462.639 347.031 459.973 352.736C459.213 356.32 459.056 358.351 459.627 362.064C461.671 368.183 465.102 370.044 472.582 372.427V308Z" fill="#B8860B"/>
<path d="M472.582 308V277H441.582V308H472.582ZM488.818 308H519.818V277H488.818V308ZM488.818 458.618V489.618H519.818V458.618H488.818ZM472.582 458.618H441.582V489.618H472.582V458.618ZM472.582 440.655H503.582V410.487L473.426 409.666L472.582 440.655ZM472.582 424.936L468.975 455.726L503.582 459.78V424.936H472.582ZM437 427.355L408.659 414.794L399.463 435.542L416.464 450.577L437 427.355ZM443.736 412.155L464.053 388.74L432.383 361.261L415.395 399.594L443.736 412.155ZM488.818 440.655L482.508 410.303L457.818 415.436V440.655H488.818ZM488.818 424.936H457.818V472.682L501.432 453.254L488.818 424.936ZM521.982 413.364L552.204 420.265L552.391 419.445L552.534 418.616L521.982 413.364ZM503.845 410.6L532.302 422.898L533.606 419.88L534.248 416.655L503.845 410.6ZM503.845 405.764L534.404 400.552L533.553 395.558L531.155 391.094L503.845 405.764ZM521.982 401.273L552.598 396.412L552.15 393.589L551.193 390.895L521.982 401.273ZM488.818 395.918H457.818V416.654L476.984 424.57L488.818 395.918ZM488.818 376.573L494.831 346.161L457.818 338.844V376.573H488.818ZM472.582 391.6H503.582V366.909L479.516 361.386L472.582 391.6ZM472.582 372.427L463.17 401.964L503.582 414.841V372.427H472.582ZM439.073 367.245L408.739 373.64L409.202 375.836L409.977 377.942L439.073 367.245ZM459.627 362.064L428.988 366.78L429.389 369.384L430.224 371.883L459.627 362.064ZM439.073 351.873L410.641 339.519L409.515 342.109L408.876 344.861L439.073 351.873ZM459.973 352.736L431.889 339.61L430.383 342.832L429.646 346.312L459.973 352.736ZM472.582 342.373L482.55 371.727L503.582 364.585V342.373H472.582ZM472.582 326.136H503.582V291.483L469.143 295.328L472.582 326.136ZM488.818 342.373L495.059 312.007L457.818 304.353V342.373H488.818ZM488.818 326.136H457.818V354.871L486.47 357.047L488.818 326.136ZM513.173 353.255L495.421 378.669L524.995 399.326L540.968 366.981L513.173 353.255ZM520.082 339.264L547.877 352.99L558.535 331.407L540.266 315.735L520.082 339.264ZM472.582 308V339H488.818V308V277H472.582V308ZM488.818 458.618V427.618H472.582V458.618V489.618H488.818V458.618ZM472.582 458.618H503.582V440.655H472.582H441.582V458.618H472.582ZM472.582 440.655L473.426 409.666C466.566 409.479 464.362 408.792 463.591 408.501C463.051 408.296 461.589 407.717 457.536 404.133L437 427.355L416.464 450.577C423.46 456.763 431.38 462.605 441.664 466.493C451.718 470.295 461.78 471.372 471.738 471.643L472.582 440.655ZM437 427.355L465.341 439.915L472.078 424.715L443.736 412.155L415.395 399.594L408.659 414.794L437 427.355ZM443.736 412.155L423.42 435.569C429.053 440.457 435.522 445.45 443.816 449.219C452.17 453.016 460.507 454.734 468.975 455.726L472.582 424.936L476.189 394.147C471.269 393.571 469.855 392.951 469.469 392.775C469.023 392.573 467.763 391.959 464.053 388.74L443.736 412.155ZM488.818 440.655H457.818V458.618H488.818H519.818V440.655H488.818ZM521.982 413.364L491.76 406.462C491.156 409.105 490.747 409.854 490.826 409.7C491.048 409.269 491.651 408.381 492.556 407.623C493.299 407.002 493.399 407.188 491.804 407.804C490.109 408.46 487.258 409.316 482.508 410.303L488.818 440.655L495.128 471.006C507.429 468.448 521.184 464.511 532.344 455.173C544.745 444.796 549.622 431.569 552.204 420.265L521.982 413.364ZM488.818 424.936L501.432 453.254C512.394 448.371 525.014 439.761 532.302 422.898L503.845 410.6L475.389 398.302C475.426 398.217 475.569 397.917 475.864 397.506C476.162 397.092 476.497 396.728 476.813 396.444C477.417 395.902 477.538 396.025 476.204 396.619L488.818 424.936ZM503.845 410.6L534.248 416.655C535.54 410.168 535.191 405.163 534.404 400.552L503.845 405.764L473.287 410.975C473.354 411.371 473.124 410.199 473.108 408.465C473.091 406.524 473.338 405.069 473.443 404.545L503.845 410.6ZM521.982 401.273L491.365 406.134C491.627 407.783 491.568 407.88 491.567 407.454C491.566 407.245 491.579 407.111 491.577 407.128C491.572 407.181 491.542 407.461 491.43 408.111L521.982 413.364L552.534 418.616C553.966 410.288 553.835 404.202 552.598 396.412L521.982 401.273ZM503.845 405.764L531.155 391.094C526.046 381.582 518.894 375.71 511.862 372.003C508.861 370.421 506.057 369.329 504.374 368.688C502.2 367.859 501.704 367.7 500.653 367.266L488.818 395.918L476.984 424.57C478.184 425.066 479.282 425.488 480.165 425.822C480.599 425.986 481.03 426.147 481.374 426.276C481.74 426.413 482.031 426.523 482.3 426.625C483.49 427.078 483.408 427.091 482.95 426.85C482.328 426.521 481.052 425.764 479.647 424.436C478.201 423.069 477.179 421.631 476.536 420.433L503.845 405.764ZM488.818 395.918H519.818V376.573H488.818H457.818V395.918H488.818ZM488.818 376.573L482.806 406.984C487.109 407.835 489.743 408.567 491.38 409.152C492.917 409.702 493.03 409.933 492.542 409.572C491.924 409.114 491.494 408.575 491.382 408.404C491.378 408.397 491.513 408.604 491.761 409.131C492.013 409.668 492.353 410.474 492.77 411.65L521.982 401.273L551.193 390.895C547.342 380.054 541.314 368.532 529.418 359.73C518.599 351.726 505.999 348.37 494.831 346.161L488.818 376.573ZM472.582 424.936H503.582V391.6H472.582H441.582V424.936H472.582ZM472.582 372.427H503.582V308H472.582H441.582V372.427H472.582ZM472.582 391.6L479.516 361.386C475.122 360.377 472.268 359.552 470.325 358.845C468.453 358.164 468.008 357.797 468.218 357.944C468.581 358.198 468.995 358.62 469.211 358.928C469.317 359.079 468.902 358.543 468.169 356.549L439.073 367.245L409.977 377.942C414.209 389.456 420.808 400.43 432.643 408.722C443.082 416.035 455.152 419.406 465.647 421.814L472.582 391.6ZM459.627 362.064L430.224 371.883C432.804 379.61 437.389 387.421 445.529 393.494C452.159 398.44 459.418 400.768 463.17 401.964L472.582 372.427L481.994 342.891C481.271 342.66 480.764 342.489 480.399 342.359C480.034 342.228 479.91 342.173 479.951 342.191C480 342.212 481.11 342.685 482.603 343.799C484.25 345.028 485.841 346.643 487.132 348.55C488.341 350.336 488.871 351.765 489.031 352.244L459.627 362.064ZM439.073 367.245L469.406 360.851C468.952 358.698 469.072 358.667 469.076 359.346C469.078 359.69 469.051 359.937 469.044 359.985C469.044 359.989 469.054 359.911 469.088 359.731C469.122 359.549 469.179 359.275 469.269 358.885L439.073 351.873L408.876 344.861C407.843 349.309 407.047 354.163 407.077 359.679C407.106 365.043 407.915 369.729 408.739 373.64L439.073 367.245ZM459.973 352.736L429.646 346.312C428.258 352.862 427.747 358.72 428.988 366.78L459.627 362.064L490.266 357.347C490.219 357.038 490.238 357.093 490.258 357.382C490.281 357.711 490.295 358.179 490.271 358.724C490.223 359.795 490.057 360.305 490.3 359.161L459.973 352.736ZM472.582 342.373L462.614 313.019C457.882 314.626 451.206 317.225 444.962 322.334C438.19 327.874 434.366 334.31 431.889 339.61L459.973 352.736L488.056 365.863C488.199 365.559 487.969 366.113 487.306 367.043C486.563 368.085 485.527 369.252 484.221 370.321C481.824 372.282 480.12 372.552 482.55 371.727L472.582 342.373ZM439.073 351.873L467.505 364.227C470.784 356.68 472.061 356.611 470.795 357.558C469.346 358.643 469.103 357.717 476.021 356.945L472.582 326.136L469.143 295.328C458.32 296.536 445.382 299.136 433.642 307.923C422.087 316.573 415.48 328.382 410.641 339.519L439.073 351.873ZM472.582 326.136H441.582V342.373H472.582H503.582V326.136H472.582ZM488.818 342.373H457.818V424.936H488.818H519.818V342.373H488.818ZM488.818 308H457.818V326.136H488.818H519.818V308H488.818ZM513.173 353.255L530.924 327.84C519.297 319.719 510.188 315.117 495.059 312.007L488.818 342.373L482.577 372.738C486.173 373.477 487.674 374.044 488.661 374.493C489.833 375.025 491.578 375.984 495.421 378.669L513.173 353.255ZM488.818 326.136L486.47 357.047C491.71 357.445 493.248 358.078 493.706 358.276C494.28 358.523 495.752 359.236 499.898 362.792L520.082 339.264L540.266 315.735C534.18 310.514 527.204 305.209 518.295 301.36C509.271 297.462 500.293 295.919 491.166 295.225L488.818 326.136ZM520.082 339.264L492.286 325.537L485.377 339.528L513.173 353.255L540.968 366.981L547.877 352.99L520.082 339.264Z" fill="#F6B901" mask="url(#path-10-inside-2_723_12)"/>
<mask id="path-12-inside-3_723_12" fill="white">
<path d="M880.9 247H903.67V272.528C923.818 274.064 933.166 278.65 947.515 291.005L937.826 310.697C925.343 301.947 917.976 298.332 903.67 295.381V411.592C912.694 407.558 920.198 401.972 924.745 391.413C925.272 388.759 925.196 387.262 924.745 384.605C919.948 375.642 912.486 374.402 903.67 370.748V343.518C932.219 349.183 942.499 356.586 950.18 378.284C951.25 385.05 951.297 388.78 950.18 395.303C944.93 418.373 935.285 427.119 903.67 433.716V459H880.9V433.716C857.315 433.071 846.495 428.748 831 414.995L840.447 393.601C853.55 405.011 862.125 409.384 880.9 411.592V364.67C852.987 358.24 841.637 351.495 833.907 330.39C832.114 321.855 831.973 317.111 833.907 308.752C845.292 282.454 856.02 275.315 880.9 272.528V295.381C870.856 298.804 866.957 301.938 863.217 309.968C862.152 315.012 861.931 317.871 862.733 323.096C865.599 331.71 870.411 334.329 880.9 337.683V247Z"/>
</mask>
<path d="M880.9 247H903.67V272.528C923.818 274.064 933.166 278.65 947.515 291.005L937.826 310.697C925.343 301.947 917.976 298.332 903.67 295.381V411.592C912.694 407.558 920.198 401.972 924.745 391.413C925.272 388.759 925.196 387.262 924.745 384.605C919.948 375.642 912.486 374.402 903.67 370.748V343.518C932.219 349.183 942.499 356.586 950.18 378.284C951.25 385.05 951.297 388.78 950.18 395.303C944.93 418.373 935.285 427.119 903.67 433.716V459H880.9V433.716C857.315 433.071 846.495 428.748 831 414.995L840.447 393.601C853.55 405.011 862.125 409.384 880.9 411.592V364.67C852.987 358.24 841.637 351.495 833.907 330.39C832.114 321.855 831.973 317.111 833.907 308.752C845.292 282.454 856.02 275.315 880.9 272.528V295.381C870.856 298.804 866.957 301.938 863.217 309.968C862.152 315.012 861.931 317.871 862.733 323.096C865.599 331.71 870.411 334.329 880.9 337.683V247Z" fill="#B8860B"/>
<path d="M880.9 247V216H849.9V247H880.9ZM903.67 247H934.67V216H903.67V247ZM903.67 459V490H934.67V459H903.67ZM880.9 459H849.9V490H880.9V459ZM880.9 433.716H911.9V403.551L881.747 402.727L880.9 433.716ZM880.9 411.592L877.28 442.38L911.9 446.45V411.592H880.9ZM831 414.995L802.642 402.473L793.505 423.165L810.422 438.18L831 414.995ZM840.447 393.601L860.806 370.223L829.081 342.596L812.089 381.079L840.447 393.601ZM903.67 433.716L897.339 403.369L872.67 408.516V433.716H903.67ZM903.67 411.592H872.67V459.408L916.323 439.892L903.67 411.592ZM950.18 395.303L980.407 402.18L980.593 401.363L980.734 400.537L950.18 395.303ZM924.745 391.413L953.217 403.673L954.514 400.662L955.152 397.447L924.745 391.413ZM924.745 384.605L955.307 379.413L954.461 374.432L952.077 369.978L924.745 384.605ZM950.18 378.284L980.799 373.441L980.354 370.626L979.403 367.94L950.18 378.284ZM903.67 370.748H872.67V391.455L891.799 399.385L903.67 370.748ZM903.67 343.518L909.704 313.111L872.67 305.763V343.518H903.67ZM880.9 364.67H911.9V339.999L887.859 334.461L880.9 364.67ZM880.9 337.683L871.457 367.21L911.9 380.145V337.683H880.9ZM833.907 330.39L803.569 336.762L804.029 338.951L804.798 341.052L833.907 330.39ZM862.733 323.096L832.091 327.796L832.489 330.392L833.318 332.884L862.733 323.096ZM833.907 308.752L805.458 296.436L804.339 299.021L803.705 301.765L833.907 308.752ZM863.217 309.968L835.115 296.881L833.618 300.096L832.886 303.566L863.217 309.968ZM880.9 295.381L890.901 324.723L911.9 317.566V295.381H880.9ZM880.9 272.528H911.9V237.86L877.449 241.72L880.9 272.528ZM903.67 295.381L909.933 265.02L872.67 257.333V295.381H903.67ZM903.67 272.528H872.67V301.254L901.314 303.438L903.67 272.528ZM937.826 310.697L920.031 336.081L949.664 356.855L965.641 324.383L937.826 310.697ZM947.515 291.005L975.33 304.691L985.921 283.165L967.742 267.512L947.515 291.005ZM880.9 247V278H903.67V247V216H880.9V247ZM903.67 459V428H880.9V459V490H903.67V459ZM880.9 459H911.9V433.716H880.9H849.9V459H880.9ZM880.9 433.716L881.747 402.727C871.51 402.447 866.851 401.402 863.915 400.288C861.206 399.26 857.858 397.384 851.578 391.811L831 414.995L810.422 438.18C819.637 446.359 829.446 453.522 841.917 458.254C854.162 462.901 866.705 464.339 880.054 464.704L880.9 433.716ZM831 414.995L859.358 427.518L868.805 406.123L840.447 393.601L812.089 381.079L802.642 402.473L831 414.995ZM840.447 393.601L820.089 416.979C827.599 423.519 835.623 429.664 845.681 434.252C855.802 438.868 866.111 441.066 877.28 442.38L880.9 411.592L884.52 380.804C876.914 379.91 873.548 378.817 871.412 377.843C869.212 376.84 866.398 375.093 860.806 370.223L840.447 393.601ZM903.67 433.716H872.67V459H903.67H934.67V433.716H903.67ZM950.18 395.303L919.952 388.425C918.97 392.743 918.1 394.91 917.558 395.968C917.157 396.749 916.98 396.86 916.876 396.948C916.012 397.673 912.106 400.288 897.339 403.369L903.67 433.716L910.002 464.062C926.849 460.547 943.573 455.491 956.748 444.426C971.148 432.333 977.08 416.805 980.407 402.18L950.18 395.303ZM903.67 411.592L916.323 439.892C929.892 433.826 944.644 423.582 953.217 403.673L924.745 391.413L896.272 379.152C895.761 380.341 895.376 380.702 895.129 380.925C894.706 381.306 893.641 382.119 891.018 383.291L903.67 411.592ZM924.745 391.413L955.152 397.447C956.589 390.207 956.219 384.783 955.307 379.413L924.745 384.605L894.183 389.798C894.316 390.581 894.126 389.716 894.113 388.291C894.098 386.661 894.311 385.514 894.338 385.379L924.745 391.413ZM950.18 378.284L919.56 383.128C919.976 385.759 919.999 386.622 920 386.955C920.001 387.201 919.998 387.89 919.625 390.069L950.18 395.303L980.734 400.537C982.483 390.332 982.339 383.179 980.799 373.441L950.18 378.284ZM924.745 384.605L952.077 369.978C946.294 359.174 938.276 352.551 930.212 348.284C926.696 346.425 923.342 345.104 921.08 344.239C918.326 343.186 917.225 342.808 915.542 342.111L903.67 370.748L891.799 399.385C893.316 400.013 894.725 400.558 895.912 401.008C896.498 401.231 897.079 401.449 897.571 401.633C898.085 401.827 898.523 401.992 898.936 402.15C899.77 402.469 900.316 402.688 900.72 402.861C901.111 403.029 901.245 403.101 901.217 403.087C901.103 403.027 900.304 402.584 899.336 401.666C898.327 400.709 897.705 399.778 897.413 399.233L924.745 384.605ZM903.67 370.748H934.67V343.518H903.67H872.67V370.748H903.67ZM903.67 343.518L897.637 373.925C910.913 376.56 914.932 378.785 916.269 379.778C916.542 379.98 918.219 380.897 920.956 388.628L950.18 378.284L979.403 367.94C974.459 353.974 967.157 340.34 953.232 330C940.371 320.451 924.977 316.142 909.704 313.111L903.67 343.518ZM880.9 411.592H911.9V364.67H880.9H849.9V411.592H880.9ZM880.9 337.683H911.9V247H880.9H849.9V337.683H880.9ZM880.9 364.67L887.859 334.461C874.452 331.372 869.716 329.116 867.666 327.675C867.003 327.208 865.415 326.279 863.016 319.728L833.907 330.39L804.798 341.052C810.129 355.606 818.081 368.602 832.004 378.392C844.54 387.207 859.436 391.537 873.942 394.879L880.9 364.67ZM862.733 323.096L833.318 332.884C836.299 341.841 841.419 350.469 850.378 357.177C857.834 362.76 866.196 365.528 871.457 367.21L880.9 337.683L890.343 308.157C888.05 307.423 886.914 306.993 886.338 306.744C885.826 306.523 886.457 306.738 887.538 307.547C888.772 308.471 890.013 309.732 891.005 311.202C891.914 312.549 892.197 313.459 892.147 313.309L862.733 323.096ZM833.907 330.39L864.245 324.018C863.533 320.627 863.51 319.627 863.509 319.339C863.508 319.203 863.483 318.445 864.109 315.74L833.907 308.752L803.705 301.765C802.397 307.418 801.475 313.212 801.51 319.671C801.544 325.979 802.488 331.618 803.569 336.762L833.907 330.39ZM863.217 309.968L832.886 303.566C831.197 311.566 830.625 318.238 832.091 327.796L862.733 323.096L893.374 318.396C893.269 317.708 893.248 317.424 893.246 317.396C893.245 317.387 893.248 317.434 893.25 317.524C893.251 317.615 893.25 317.721 893.245 317.831C893.224 318.315 893.153 318.246 893.549 316.37L863.217 309.968ZM880.9 295.381L870.9 266.038C864.72 268.144 857.041 271.226 850.022 276.988C842.483 283.179 838.121 290.426 835.115 296.881L863.217 309.968L891.319 323.055C891.733 322.167 891.778 322.228 891.422 322.729C891.231 322.998 890.95 323.359 890.575 323.765C890.196 324.175 889.787 324.56 889.367 324.905C888.506 325.611 887.929 325.88 888.076 325.808C888.165 325.764 888.418 325.645 888.898 325.454C889.379 325.262 890.028 325.021 890.901 324.723L880.9 295.381ZM833.907 308.752L862.355 321.068C867.275 309.704 870.15 307.219 870.963 306.608C871.579 306.146 873.877 304.508 884.352 303.335L880.9 272.528L877.449 241.72C863.044 243.334 847.538 246.66 833.723 257.038C820.106 267.269 811.923 281.503 805.458 296.436L833.907 308.752ZM880.9 272.528H849.9V295.381H880.9H911.9V272.528H880.9ZM903.67 295.381H872.67V411.592H903.67H934.67V295.381H903.67ZM903.67 247H872.67V272.528H903.67H934.67V247H903.67ZM937.826 310.697L955.62 285.313C940.412 274.652 929.183 268.991 909.933 265.02L903.67 295.381L897.408 325.742C906.77 327.673 910.274 329.242 920.031 336.081L937.826 310.697ZM903.67 272.528L901.314 303.438C909.436 304.057 913.079 305.129 915.435 306.151C917.91 307.224 921.081 309.152 927.288 314.497L947.515 291.005L967.742 267.512C959.6 260.502 950.922 253.96 940.099 249.268C929.158 244.524 918.053 242.534 906.027 241.617L903.67 272.528ZM947.515 291.005L919.7 277.319L910.01 297.011L937.826 310.697L965.641 324.383L975.33 304.691L947.515 291.005Z" fill="#F6B901" mask="url(#path-12-inside-3_723_12)"/>
</svg>
