<svg width="358" height="605" viewBox="0 0 358 605" fill="none" xmlns="http://www.w3.org/2000/svg">
<path d="M230.729 309.752L279.346 266.537H311.757C322.974 288.426 330.9 301.167 333.364 320.556V406.986H214.523V358.369C215.398 345.49 222.622 318.675 230.729 309.752Z" fill="#FF0000" fill-opacity="0.5"/>
<path d="M230.729 309.752L279.346 266.537H311.757C322.974 288.426 330.9 301.167 333.364 320.556V406.986H214.523V358.369C215.398 345.49 222.622 318.675 230.729 309.752Z" fill="#F6B901"/>
<path d="M230.729 309.752V223.322L214.523 174.705V136.891H284.748L308.445 134.113C320.906 141.827 322.709 148.347 322.338 149.674C324.342 169.051 322.75 180.906 319.559 199.691L317.159 239.527C312.348 254.084 311.502 259.51 311.757 266.537L230.729 309.752Z" fill="#FF0000" fill-opacity="0.5"/>
<path d="M230.729 309.752V223.322L214.523 174.705V136.891H284.748L308.445 134.113C320.906 141.827 322.709 148.347 322.338 149.674C324.342 169.051 322.75 180.906 319.559 199.691L317.159 239.527C312.348 254.084 311.502 259.51 311.757 266.537L230.729 309.752Z" fill="#F6B901"/>
<path d="M49.4686 135.781L66.1458 120.778L130.767 192.022L104.062 214.43L49.4686 135.781Z" fill="#FF0000" fill-opacity="0.5"/>
<path d="M49.4686 135.781L66.1458 120.778L130.767 192.022L104.062 214.43L49.4686 135.781Z" fill="#F6B901"/>
<path d="M217.859 539.257L196.177 539.256L216.213 395.558L257.863 403.654L217.859 539.257Z" fill="#FF0000" fill-opacity="0.5"/>
<path d="M217.859 539.257L196.177 539.256L216.213 395.558L257.863 403.654L217.859 539.257Z" fill="#F6B901"/>
<path d="M310.113 539.258L335.118 539.256L330.641 399.209L288.991 407.305C302.222 459.092 307.293 488.006 310.113 539.258Z" fill="#FF0000" fill-opacity="0.5"/>
<path d="M310.113 539.258L335.118 539.256L330.641 399.209L288.991 407.305C302.222 459.092 307.293 488.006 310.113 539.258Z" fill="#F6B901"/>
<path d="M120.066 577.601C118.495 573.352 118.682 571.054 120.079 567.041C151.984 560.935 168.679 554.906 196.213 539.255L217.888 539.255C218.083 554.432 218.872 571.97 217.889 571.488C194.739 582.95 182.584 587.324 163.415 588.716L136.739 588.716C129.402 585.659 125.608 583.466 120.066 577.601Z" fill="#FF0000" fill-opacity="0.5"/>
<path d="M120.066 577.601C118.495 573.352 118.682 571.054 120.079 567.041C151.984 560.935 168.679 554.906 196.213 539.255L217.888 539.255C218.083 554.432 218.872 571.97 217.889 571.488C194.739 582.95 182.584 587.324 163.415 588.716L136.739 588.716C129.402 585.659 125.608 583.466 120.066 577.601Z" fill="#F6B901"/>
<path d="M244.539 582.603C242.304 578.767 242.719 576.407 244.552 572.043C245.618 570.069 286.787 558.674 310.119 539.258L334.981 539.258C337.39 557.596 339.234 569.046 334.982 571.492C313.93 582.158 303.277 586.144 286.776 588.716L260.101 588.716C253.073 587.808 249.37 586.93 244.539 582.603Z" fill="#FF0000" fill-opacity="0.5"/>
<path d="M244.539 582.603C242.304 578.767 242.719 576.407 244.552 572.043C245.618 570.069 286.787 558.674 310.119 539.258L334.981 539.258C337.39 557.596 339.234 569.046 334.982 571.492C313.93 582.158 303.277 586.144 286.776 588.716L260.101 588.716C253.073 587.808 249.37 586.93 244.539 582.603Z" fill="#F6B901"/>
<path d="M103.939 214.143L130.615 191.913L215.153 136.883L235.178 167.72L201.194 186.355L147.843 214.143L130.615 219.7L109.496 219.7L103.939 214.143Z" fill="#FF0000" fill-opacity="0.5"/>
<path d="M103.939 214.143L130.615 191.913L215.153 136.883L235.178 167.72L201.194 186.355L147.843 214.143L130.615 219.7L109.496 219.7L103.939 214.143Z" fill="#F6B901"/>
<path d="M255.576 158.298L233.425 141.337L233.425 103.793L284.549 86.3177L288.44 110.215L320.117 146.895L271.235 144.391L262.669 155.249L255.576 158.298Z" fill="#FF0000" fill-opacity="0.5"/>
<path d="M255.576 158.298L233.425 141.337L233.425 103.793L284.549 86.3177L288.44 110.215L320.117 146.895L271.235 144.391L262.669 155.249L255.576 158.298Z" fill="#F6B901"/>
<path d="M92.4139 111.785L109.091 96.782L173.712 168.026L147.007 190.434L92.4139 111.785Z" fill="#FF0000" fill-opacity="0.5"/>
<path d="M92.4139 111.785L109.091 96.782L173.712 168.026L147.007 190.434L92.4139 111.785Z" fill="#F6B901"/>
<path d="M62.1048 74.4176C60.1974 70.7284 59.2302 68.7158 60.579 66.8682C62.2807 66.1177 63.8217 66.6561 67.7807 69.2522L93.4055 97.8173L84.2712 105.482C75.0396 93.4087 70.1119 86.6145 62.1048 74.4176Z" fill="#FF0000" fill-opacity="0.5"/>
<path d="M62.1048 74.4176C60.1974 70.7284 59.2302 68.7158 60.579 66.8682C62.2807 66.1177 63.8217 66.6561 67.7807 69.2522L93.4055 97.8173L84.2712 105.482C75.0396 93.4087 70.1119 86.6145 62.1048 74.4176Z" fill="#F6B901"/>
<path d="M61.0551 53.376C58.4217 48.9557 58.9146 43.4503 61.0462 40.0444C64.3642 36.409 69.8969 37.2393 74.3734 40.0376C95.634 58.8179 106.741 68.9677 109.185 78.9406C110.023 86.088 109.774 89.9221 109.185 96.7247L92.453 111.769C90.4233 108.98 88.528 107.65 84.0915 105.673L83.2313 97.3125C88.1833 90.0857 90.9337 86.0278 83.2441 75.8784C67.7929 61.1895 61.8513 55.3079 61.0551 53.376Z" fill="#FF0000" fill-opacity="0.5"/>
<path d="M61.0551 53.376C58.4217 48.9557 58.9146 43.4503 61.0462 40.0444C64.3642 36.409 69.8969 37.2393 74.3734 40.0376C95.634 58.8179 106.741 68.9677 109.185 78.9406C110.023 86.088 109.774 89.9221 109.185 96.7247L92.453 111.769C90.4233 108.98 88.528 107.65 84.0915 105.673L83.2313 97.3125C88.1833 90.0857 90.9337 86.0278 83.2441 75.8784C67.7929 61.1895 61.8513 55.3079 61.0551 53.376Z" fill="#F6B901"/>
<path d="M19.9173 99.4742C18.0099 95.7851 17.0427 93.7725 18.3915 91.9248C20.0932 91.1743 21.6342 91.7128 25.5932 94.3088L51.218 122.874L42.0837 130.539C32.8521 118.465 27.9244 111.671 19.9173 99.4742Z" fill="#FF0000" fill-opacity="0.5"/>
<path d="M19.9173 99.4742C18.0099 95.7851 17.0427 93.7725 18.3915 91.9248C20.0932 91.1743 21.6342 91.7128 25.5932 94.3088L51.218 122.874L42.0837 130.539C32.8521 118.465 27.9244 111.671 19.9173 99.4742Z" fill="#F6B901"/>
<path d="M18.8442 78.4346C16.2107 74.0143 16.7037 68.5089 18.8353 65.103C22.1533 61.4676 27.686 62.2979 32.1624 65.0962C53.423 83.8765 64.5304 94.0263 66.9736 103.999C67.8123 111.147 67.5632 114.981 66.9736 121.783L50.2421 136.827C48.2124 134.039 46.3171 132.709 41.8805 130.732L41.0203 122.371C45.9723 115.144 48.7228 111.086 41.0331 100.937C25.5819 86.2481 19.6403 80.3665 18.8442 78.4346Z" fill="#FF0000" fill-opacity="0.5"/>
<path d="M18.8442 78.4346C16.2107 74.0143 16.7037 68.5089 18.8353 65.103C22.1533 61.4676 27.686 62.2979 32.1624 65.0962C53.423 83.8765 64.5304 94.0263 66.9736 103.999C67.8123 111.147 67.5632 114.981 66.9736 121.783L50.2421 136.827C48.2124 134.039 46.3171 132.709 41.8805 130.732L41.0203 122.371C45.9723 115.144 48.7228 111.086 41.0331 100.937C25.5819 86.2481 19.6403 80.3665 18.8442 78.4346Z" fill="#F6B901"/>
<ellipse cx="263.433" cy="49.0856" rx="51.1287" ry="35.568" fill="#FF0000" fill-opacity="0.5"/>
<ellipse cx="263.433" cy="49.0856" rx="51.1287" ry="35.568" fill="#F6B901"/>
<path d="M312.333 47.4165C318.5 56.2244 304.188 78.3003 289.327 88.7058C274.467 99.1113 257.42 100.406 251.253 91.5985C245.086 82.7906 252.133 67.2151 266.993 56.8096C281.854 46.4041 306.166 38.6086 312.333 47.4165Z" fill="#FF0000" fill-opacity="0.5"/>
<path d="M312.333 47.4165C318.5 56.2244 304.188 78.3003 289.327 88.7058C274.467 99.1113 257.42 100.406 251.253 91.5985C245.086 82.7906 252.133 67.2151 266.993 56.8096C281.854 46.4041 306.166 38.6086 312.333 47.4165Z" fill="#F6B901"/>
<path d="M293.819 44.006C303.936 60.8439 292.516 86.2836 268.312 100.827C244.107 115.371 216.284 113.511 206.167 96.6728C196.05 79.8349 205.88 36.9531 230.085 22.4095C254.289 7.866 283.702 27.1681 293.819 44.006Z" fill="#FF0000" fill-opacity="0.5"/>
<path d="M293.819 44.006C303.936 60.8439 292.516 86.2836 268.312 100.827C244.107 115.371 216.284 113.511 206.167 96.6728C196.05 79.8349 205.88 36.9531 230.085 22.4095C254.289 7.866 283.702 27.1681 293.819 44.006Z" fill="#F6B901"/>
<path d="M238.257 92.6582C242.391 99.5377 243.008 110.128 234.536 115.219C226.063 120.31 210.884 119.876 206.75 112.996C202.616 106.117 198.833 74.1842 207.305 69.0933C215.778 64.0024 234.124 85.7787 238.257 92.6582Z" fill="#FF0000" fill-opacity="0.5"/>
<path d="M238.257 92.6582C242.391 99.5377 243.008 110.128 234.536 115.219C226.063 120.31 210.884 119.876 206.75 112.996C202.616 106.117 198.833 74.1842 207.305 69.0933C215.778 64.0024 234.124 85.7787 238.257 92.6582Z" fill="#F6B901"/>
<path d="M202.411 73.6345C205.893 71.5421 211.533 71.6938 214.67 76.9145C217.807 82.1352 218.311 91.0247 214.829 93.1171C211.347 95.2095 194.435 95.88 191.298 90.6593C188.161 85.4386 198.929 75.7269 202.411 73.6345Z" fill="#FF0000" fill-opacity="0.5"/>
<path d="M202.411 73.6345C205.893 71.5421 211.533 71.6938 214.67 76.9145C217.807 82.1352 218.311 91.0247 214.829 93.1171C211.347 95.2095 194.435 95.88 191.298 90.6593C188.161 85.4386 198.929 75.7269 202.411 73.6345Z" fill="#F6B901"/>
<path d="M221.99 157.692C215.697 160.235 194.037 166.487 191.735 160.789C189.433 155.092 207.361 139.602 213.653 137.06C219.946 134.517 232.78 136.752 235.082 142.45C237.384 148.147 228.282 155.15 221.99 157.692Z" fill="#FF0000" fill-opacity="0.5"/>
<path d="M221.99 157.692C215.697 160.235 194.037 166.487 191.735 160.789C189.433 155.092 207.361 139.602 213.653 137.06C219.946 134.517 232.78 136.752 235.082 142.45C237.384 148.147 228.282 155.15 221.99 157.692Z" fill="#F6B901"/>
<path d="M120.601 221.923C113.849 221.923 108.93 220.795 108.93 218.033C108.93 215.271 114.404 213.587 121.157 213.587C127.909 213.587 137.273 211.936 137.273 214.698C137.273 217.461 127.354 221.923 120.601 221.923Z" fill="#FF0000" fill-opacity="0.5"/>
<path d="M120.601 221.923C113.849 221.923 108.93 220.795 108.93 218.033C108.93 215.271 114.404 213.587 121.157 213.587C127.909 213.587 137.273 211.936 137.273 214.698C137.273 217.461 127.354 221.923 120.601 221.923Z" fill="#F6B901"/>
<path d="M286.302 89.0965L287.885 89.6532C285.735 90.8732 286.237 94.3263 286.218 96.8778L283.44 93.8602L286.302 89.0965Z" fill="#FF0000" fill-opacity="0.5"/>
<path d="M286.302 89.0965L287.885 89.6532C285.735 90.8732 286.237 94.3263 286.218 96.8778L283.44 93.8602L286.302 89.0965Z" fill="#F6B901"/>
<path d="M285.707 107.963C285.707 107.963 285.273 97.0862 287.311 103.546C289.349 110.006 291.487 113.371 296.203 119.107C300.919 124.843 286.767 113.419 286.767 113.419L285.707 107.963Z" fill="#FF0000" fill-opacity="0.5"/>
<path d="M285.707 107.963C285.707 107.963 285.273 97.0862 287.311 103.546C289.349 110.006 291.487 113.371 296.203 119.107C300.919 124.843 286.767 113.419 286.767 113.419L285.707 107.963Z" fill="#F6B901"/>
<path d="M309.167 263.156C309.167 263.156 311.747 252.58 311.926 259.352C312.105 266.123 313.232 269.947 316.184 276.761C319.136 283.575 308.682 268.692 308.682 268.692L309.167 263.156Z" fill="#FF0000" fill-opacity="0.5"/>
<path d="M309.167 263.156C309.167 263.156 311.747 252.58 311.926 259.352C312.105 266.123 313.232 269.947 316.184 276.761C319.136 283.575 308.682 268.692 308.682 268.692L309.167 263.156Z" fill="#F6B901"/>
<path d="M316.685 243.04C314.431 248.62 313.039 254.449 309.56 253.043C306.081 251.638 301.833 243.53 304.087 237.95C306.342 232.37 313.54 221.012 317.018 222.417C317.896 225.812 318.94 237.46 316.685 243.04Z" fill="#FF0000" fill-opacity="0.5"/>
<path d="M316.685 243.04C314.431 248.62 313.039 254.449 309.56 253.043C306.081 251.638 301.833 243.53 304.087 237.95C306.342 232.37 313.54 221.012 317.018 222.417C317.896 225.812 318.94 237.46 316.685 243.04Z" fill="#F6B901"/>
<path d="M341.778 475.877C345.242 495.525 333.384 537.615 327.338 538.681C321.293 539.747 320.947 510.508 317.482 490.86C314.018 471.213 323.521 399.161 329.566 398.095C335.611 397.029 338.313 456.23 341.778 475.877Z" fill="#FF0000" fill-opacity="0.5"/>
<path d="M341.778 475.877C345.242 495.525 333.384 537.615 327.338 538.681C321.293 539.747 320.947 510.508 317.482 490.86C314.018 471.213 323.521 399.161 329.566 398.095C335.611 397.029 338.313 456.23 341.778 475.877Z" fill="#F6B901"/>
<path d="M335.099 526.557C334.006 537.59 336.107 544.706 334.006 544.259C331.904 543.812 325.255 535.447 327.489 524.939C329.722 514.431 336.906 503.798 339.008 504.245C341.109 504.692 337.333 516.049 335.099 526.557Z" fill="#FF0000" fill-opacity="0.5"/>
<path d="M335.099 526.557C334.006 537.59 336.107 544.706 334.006 544.259C331.904 543.812 325.255 535.447 327.489 524.939C329.722 514.431 336.906 503.798 339.008 504.245C341.109 504.692 337.333 516.049 335.099 526.557Z" fill="#F6B901"/>
</svg>
