<svg width="630" height="204" viewBox="0 0 630 204" fill="none" xmlns="http://www.w3.org/2000/svg">
<path d="M627.101 0.181899C628.229 -0.130799 628.948 -0.00321707 629.296 0.284465L629.573 0.514599C629.463 0.914852 629.331 1.2626 629.162 1.81295C629.018 2.27324 628.853 2.87362 628.848 3.45648C628.851 3.44898 628.836 3.52404 628.682 3.68414C628.49 3.87926 628.171 4.1044 627.741 4.31953C626.887 4.7373 625.861 4.98494 625.164 4.99745C625.157 4.98494 625.147 4.97242 625.137 4.95241C625.02 4.76229 624.9 4.40209 624.816 3.86175C624.686 3.03372 624.684 2.09561 624.689 1.33012C625.363 0.862329 626.24 0.422051 627.101 0.181899Z" fill="#F6B901"/>
<path d="M611.438 20.0176C613.298 20.0251 614.43 20.1326 615.12 20.2903C615.566 20.3928 615.737 20.4954 615.79 20.5354C615.792 20.5504 615.802 20.578 615.807 20.623C615.837 20.7931 615.83 20.8557 615.869 21.1759C615.934 21.7163 616.088 22.4569 616.736 23.1774L617.082 23.5627C617.042 23.7053 616.997 23.8654 616.942 24.0455C616.87 24.2757 616.788 24.5384 616.713 24.8086C616.564 25.339 616.42 25.9869 616.42 26.6524C616.42 26.5674 616.447 26.5824 616.355 26.7225C616.265 26.8551 616.103 27.0377 615.849 27.2554C615.339 27.6907 614.592 28.1585 613.743 28.5888C612.904 29.0142 612.011 29.3819 611.234 29.6421C610.751 29.8022 610.358 29.8998 610.069 29.9599C610.012 29.7797 609.947 29.537 609.895 29.2193C609.733 28.2261 609.685 26.8351 609.79 25.3865C609.897 23.9379 610.151 22.5219 610.537 21.4611C610.731 20.9307 610.94 20.5429 611.137 20.2903C611.269 20.1251 611.373 20.0526 611.438 20.0176Z" fill="#F6B901"/>
<path d="M594.518 41.373C595.489 41.5832 596.97 42.1712 598.38 43.1771C600.215 44.4882 601.024 45.8469 601.024 46.8227C601.024 47.4182 600.77 48.5041 600.142 49.9729C599.545 51.3766 598.698 52.9129 597.752 54.3366C596.799 55.7678 595.798 57.0064 594.916 57.8546C594.473 58.2799 594.115 58.5552 593.856 58.7103C593.786 58.7528 593.731 58.7728 593.696 58.7903C593.676 58.7903 593.661 58.7879 593.644 58.7879C593.609 58.5577 593.577 58.2099 593.564 57.6819C593.544 56.9113 593.562 56.048 593.562 54.867C593.562 52.5701 593.492 48.7043 593.788 45.3815C593.938 43.7 594.169 42.3564 594.468 41.4932C594.483 41.4506 594.503 41.4106 594.518 41.373Z" fill="#F6B901"/>
<path d="M569.227 63.877C570.679 64.0771 572.875 64.6852 574.852 65.7661C577.229 67.0647 578.459 68.5534 578.611 70.0122C577.817 72.707 576.878 75.9472 575.743 78.5745C575.143 79.9606 574.558 81.014 574.015 81.6821C573.669 82.1049 573.46 82.2276 573.398 82.2576C571.682 82.2851 570.283 83.2059 569.384 83.919C569.302 83.984 569.222 84.0566 569.14 84.1267C569.09 82.8856 569.023 81.4619 568.951 79.9757C568.826 77.3259 568.694 74.3984 568.674 71.6711C568.655 68.9087 568.747 66.4942 569.026 64.8178C569.09 64.4249 569.162 64.1147 569.227 63.877Z" fill="#F6B901"/>
<path d="M546.917 81.7324C547.265 81.9076 547.721 82.1528 548.254 82.4681C549.531 83.2262 551.169 84.3296 552.775 85.6883C556.005 88.4206 558.47 91.6458 558.671 94.7835C557.215 98.5717 554.307 102.12 551.478 104.817C550.161 106.071 548.904 107.094 547.908 107.832C547.754 107.322 547.592 106.721 547.435 106.041C546.792 103.296 546.242 99.45 546.242 95.1938C546.242 90.67 546.247 86.3689 546.618 83.4164C546.71 82.6907 546.815 82.1403 546.917 81.7324Z" fill="#F6B901"/>
<path d="M520.976 98.9791C521.148 98.864 521.506 98.6338 522.562 99.1993L523.112 99.4946H523.209C523.252 99.5196 523.302 99.5446 523.356 99.5771C523.755 99.8198 524.322 100.2 525.012 100.703C526.386 101.706 528.152 103.135 529.887 104.797C531.63 106.465 533.278 108.312 534.476 110.146C535.701 112.023 536.291 113.642 536.291 114.915C536.291 116.116 535.606 117.928 534.075 120.13C532.601 122.251 530.559 124.426 528.388 126.287C526.205 128.159 524.009 129.608 522.268 130.371C521.389 130.756 520.767 130.904 520.401 130.924C520.381 130.926 520.361 130.924 520.346 130.924L518.394 128.83L516.649 131.447C516.557 131.587 516.462 131.712 516.375 131.837C516.377 131.499 516.385 131.136 516.4 130.751C516.499 128.101 516.853 124.804 517.197 121.573C517.53 118.431 517.866 115.268 517.866 113.124C517.866 109.25 518.282 104.671 519.388 101.596C519.953 100.018 520.555 99.2569 520.976 98.9791Z" fill="#F6B901"/>
<path d="M488.668 119.164C489.23 119.494 489.955 120.015 490.804 120.713C492.489 122.104 494.479 124.053 496.388 126.185C498.298 128.317 500.068 130.566 501.346 132.548C501.986 133.539 502.469 134.42 502.787 135.15C503.123 135.923 503.186 136.336 503.186 136.459V137.249L503.636 137.895C503.93 138.315 504.04 138.793 503.818 139.576C503.569 140.46 502.914 141.603 501.744 142.974C499.416 145.702 495.602 148.689 491.304 151.507C487.044 154.299 482.471 156.821 478.753 158.638C477.125 159.436 475.678 160.081 474.516 160.557C475.081 158.573 476.074 155.908 477.217 152.983C478.412 149.915 479.767 146.58 480.8 143.735C481.32 142.306 481.778 140.95 482.109 139.767C482.386 138.783 482.62 137.752 482.675 136.842C483.068 135.445 483.534 133.571 484.032 131.622C484.577 129.488 485.179 127.198 485.834 125.094C486.499 122.962 487.179 121.148 487.846 119.912C488.065 119.507 488.254 119.219 488.406 119.021C488.481 119.062 488.568 119.107 488.668 119.164Z" fill="#F6B901"/>
<path d="M435.019 139.336C435.238 139.511 435.492 139.734 435.773 140.004C436.846 141.027 438.156 142.556 439.52 144.46C442.254 148.279 445.028 153.338 446.522 158.317L446.541 158.385L446.561 158.447C447.393 160.759 448.145 162.3 448.884 163.399C449.676 164.572 450.403 165.15 450.958 165.571C451.399 165.904 451.424 165.926 451.529 166.101C451.7 166.391 452.002 167.077 452.38 168.766L452.701 170.2C452.156 170.74 451.399 171.403 450.401 172.161C446.698 174.969 440.897 178.224 435.449 180.243C432.726 181.254 430.211 181.91 428.164 182.085C426.026 182.272 424.905 181.895 424.417 181.479C424.098 181.209 423.536 180.473 423.917 178.182C424.3 175.86 425.6 172.459 428.326 167.693L428.66 167.112V166.444C428.66 160.909 430.039 153.641 431.777 147.713C432.643 144.758 433.567 142.238 434.401 140.499C434.628 140.027 434.837 139.641 435.019 139.336Z" fill="#F6B901"/>
<path d="M388.832 144.41C391.496 145.951 392.983 149.242 394.387 154.136C395.109 156.653 395.851 159.751 396.727 162.496C397.611 165.265 398.747 168.08 400.457 170.517C403.31 175.304 404.453 180.438 404.336 184.249C404.276 186.173 403.903 187.569 403.445 188.39C403.014 189.158 402.7 189.166 402.581 189.166C401.533 189.166 400.168 189.511 398.886 189.886C397.504 190.289 395.846 190.842 394.066 191.443C390.463 192.656 386.27 194.092 382.254 195.113C378.156 196.157 374.618 196.667 372.223 196.287C371.065 196.104 370.433 195.751 370.094 195.406C369.865 195.171 369.626 194.785 369.531 194.07C371.849 190.404 374.093 185.315 376.184 179.885C378.432 174.045 380.578 167.62 382.508 161.795C384.455 155.925 386.166 150.728 387.582 147.2C388.068 145.984 388.489 145.061 388.832 144.41Z" fill="#F6B901"/>
<path d="M339.351 149.691C339.782 150.384 340.295 151.313 340.868 152.469C342.342 155.439 344.085 159.617 345.758 164.314C349.131 173.794 352.049 184.924 352.049 192.268C352.049 194.95 350.533 197.089 347.451 198.888C344.321 200.717 339.951 201.933 335.251 202.707C328.822 203.762 322.237 203.92 318.258 203.917C321.848 194.062 324.729 186.483 326.93 181.606C327.565 180.2 328.115 179.079 328.581 178.223L330.428 182.149L332.064 175.191C334.559 164.577 336.334 157.643 337.808 153.372C338.41 151.628 338.923 150.455 339.351 149.691Z" fill="#F6B901"/>
<path d="M288.132 149.797C288.386 150.332 288.665 150.988 288.961 151.766C289.835 154.071 290.771 157.166 291.73 160.659C293.649 167.657 295.554 175.912 297.115 182.137L297.227 182.587L297.496 182.968C303.586 191.643 305 197.04 304.689 199.94C304.547 201.288 304.044 202.029 303.519 202.457C302.954 202.917 302.125 203.207 301.074 203.207C297.638 203.207 291.685 203.96 286.123 203.062C283.411 202.624 281.188 201.831 279.682 200.603C278.295 199.469 277.344 197.835 277.344 195.163C277.344 188.675 279.263 176.715 281.965 166.303C283.312 161.112 284.821 156.443 286.317 153.115C286.974 151.659 287.589 150.555 288.132 149.797Z" fill="#F6B901"/>
<path d="M239.611 143.873C239.908 143.901 240.398 144.098 241.098 145.302C241.89 146.665 242.589 148.75 243.309 151.497C244.681 156.736 246.042 164.183 248.542 170.543C249.717 173.531 251.363 176.964 253.026 180.362C254.712 183.797 256.415 187.197 257.789 190.247C259.191 193.358 260.115 195.82 260.374 197.416C260.389 197.504 260.394 197.584 260.401 197.656C256.659 197.629 247.469 197.386 238.991 195.91C234.405 195.109 230.222 193.981 227.252 192.447C224.197 190.87 223.156 189.282 223.156 187.803C223.156 185.211 223.873 181.1 225.141 176.241C226.393 171.439 228.131 166.092 230.065 161.103C232.003 156.096 234.106 151.535 236.066 148.267C237.049 146.623 237.941 145.404 238.693 144.629C239.235 144.071 239.537 143.913 239.611 143.873Z" fill="#F6B901"/>
<path d="M192.359 140.251C192.949 141.962 193.544 144.357 194.109 146.966C194.669 149.561 195.182 152.264 195.628 154.575C196.056 156.8 196.454 158.832 196.771 159.87C197.186 161.234 198.075 163.811 199.096 166.813C200.129 169.848 201.322 173.384 202.38 176.747C203.443 180.13 204.35 183.26 204.823 185.514C204.84 185.592 204.853 185.672 204.868 185.747C203.829 185.422 202.554 185.001 201.11 184.491C197.577 183.245 193.101 181.528 188.708 179.662C184.3 177.788 180.046 175.796 176.925 173.999C175.354 173.096 174.163 172.295 173.397 171.637C173.143 171.42 172.974 171.24 172.859 171.109C172.874 171.054 172.888 170.992 172.908 170.924C173.018 170.554 173.196 170.076 173.448 169.481C173.951 168.295 174.692 166.796 175.622 165.074C177.477 161.639 179.996 157.47 182.612 153.429C185.228 149.389 187.911 145.523 190.086 142.685C190.917 141.602 191.652 140.696 192.267 139.998C192.296 140.081 192.329 140.163 192.359 140.251Z" fill="#F6B901"/>
<path d="M140.103 118.85C141.024 118.85 141.574 119.157 142.082 119.795C142.703 120.576 143.258 121.875 143.779 123.846C144.292 125.793 144.697 128.072 145.192 130.697C145.677 133.277 146.238 136.117 147.049 138.977L147.093 139.127L147.154 139.272C148.077 141.439 151.165 147.394 153.388 153.339C154.489 156.284 155.219 158.846 155.333 160.568C155.356 160.913 155.344 161.168 155.328 161.346C154.913 161.273 154.243 161.081 153.286 160.66C152.065 160.125 150.598 159.329 148.961 158.321C145.69 156.309 141.906 153.557 138.303 150.652C134.701 147.747 131.338 144.742 128.899 142.242C127.673 140.986 126.727 139.905 126.105 139.059C125.792 138.636 125.599 138.321 125.495 138.114L125.492 138.111C125.501 138.056 125.512 137.988 125.529 137.911C125.581 137.671 125.667 137.36 125.794 136.985C126.046 136.232 126.432 135.299 126.937 134.235C127.945 132.116 129.373 129.611 131.012 127.227C132.659 124.827 134.459 122.633 136.191 121.069C138.024 119.413 139.355 118.85 140.103 118.85Z" fill="#F6B901"/>
<path d="M106.158 101.416C106.409 101.724 106.756 102.332 107.097 103.363C107.782 105.432 108.262 108.645 108.262 112.843C108.262 117.452 109.292 122.974 109.944 127.018C110.162 128.364 110.325 129.517 110.425 130.456C110.128 130.293 109.806 130.118 109.468 129.918C107.674 128.857 105.47 127.343 103.338 125.567C101.197 123.783 99.2015 121.796 97.7626 119.807C96.2929 117.775 95.5938 116.003 95.5938 114.595C95.594 111.259 97.7073 107.937 100.517 105.267C101.882 103.971 103.31 102.932 104.503 102.229C105.099 101.879 105.604 101.629 105.986 101.479C106.05 101.451 106.109 101.434 106.158 101.416Z" fill="#F6B901"/>
<path d="M80.4162 78.8145C80.5549 78.8145 80.6406 78.8245 80.6861 78.8345C80.8158 79.0221 81.0474 79.5726 81.2503 80.9663C81.4478 82.3249 81.571 84.0765 81.7463 86.4109C81.9183 88.7079 82.1357 91.4627 82.5243 94.6854C82.8635 97.4953 83.2083 99.9649 83.1346 102.207C83.0853 103.703 82.8408 104.929 82.3712 105.943C81.9019 105.71 81.3504 105.382 80.7372 104.949C79.2864 103.926 77.6448 102.455 76.1004 100.743C74.557 99.0317 73.1687 97.1501 72.181 95.3385C71.1699 93.4819 70.6953 91.9106 70.6953 90.7671C70.6958 88.1624 72.245 85.1298 74.5565 82.6202C75.6804 81.4016 76.8959 80.4058 78.0116 79.7327C79.1813 79.0271 80.0116 78.8145 80.4162 78.8145Z" fill="#F6B901"/>
<path d="M57.7529 63.8027C57.9068 63.8027 58.024 63.8077 58.1102 63.8177C58.1729 64.093 58.2274 64.5484 58.2464 65.314C58.2675 66.1748 58.2489 67.1456 58.2489 68.4492C58.2489 70.9888 58.3228 75.3075 58.0009 79.0182C57.838 80.8947 57.5881 82.4236 57.2519 83.4219C57.2457 83.4394 57.2362 83.4569 57.23 83.4745C56.9223 83.2718 56.5548 82.989 56.1358 82.6212C55.0198 81.6379 53.7411 80.2242 52.5251 78.6153C51.3128 77.0115 50.2165 75.2875 49.4372 73.7162C48.6186 72.0648 48.2969 70.8712 48.2969 70.2357C48.2969 69.7603 48.5045 69.1248 49.1429 68.3341C49.7796 67.5434 50.7254 66.7527 51.8613 66.0396C52.9864 65.3315 54.2126 64.756 55.3238 64.3632C56.4798 63.9529 57.3339 63.8027 57.7529 63.8027Z" fill="#F6B901"/>
<path d="M32.6568 38.7871C32.8732 38.8096 33.3039 38.9648 33.7874 39.6879C34.3088 40.4685 34.7114 41.6871 34.7114 43.1583C34.7114 44.2567 34.8882 46.1684 35.0809 48.2201C35.2808 50.3469 35.5156 52.7715 35.6717 55.0759C35.7972 56.925 35.8597 58.6114 35.8298 59.9551C35.777 59.9075 35.719 59.8625 35.6645 59.81C34.3551 58.5914 32.7843 56.8875 31.266 55.0334C29.7487 53.1818 28.3345 51.2452 27.3149 49.5788C26.804 48.7455 26.4189 48.0199 26.1696 47.4394C25.8945 46.7964 25.8828 46.5537 25.8828 46.5987C25.8828 46.3035 26.0444 45.6404 26.6245 44.6421C27.171 43.6988 27.9588 42.6804 28.8517 41.7346C29.7445 40.7863 30.6802 39.9756 31.4874 39.4251C31.8909 39.1499 32.2213 38.9672 32.4648 38.8597C32.5547 38.8221 32.6187 38.7996 32.6568 38.7871Z" fill="#F6B901"/>
<path d="M12.8647 20.0292C13.9191 19.9891 15.0211 20.0442 15.9428 20.1117C16.327 20.1392 16.6745 20.1693 16.9738 20.1943C16.8473 20.8123 16.7136 21.6831 16.7136 22.8491C16.7136 24.4679 16.9828 27.9434 17.11 30.8108C17.1583 31.9042 17.1825 32.9201 17.1755 33.7558C17.122 33.6908 17.0659 33.6207 17.0102 33.5506C16.0997 32.3972 14.9673 30.8083 13.8616 29.1119C12.7554 27.4129 11.691 25.6339 10.9097 24.1001C10.519 23.332 10.21 22.6439 10.0004 22.0709C9.78004 21.4704 9.71107 21.1001 9.71107 20.9299C9.71107 20.8674 9.68717 20.6872 10.2703 20.4495C10.8726 20.2043 11.7838 20.0692 12.8647 20.0292Z" fill="#F6B901"/>
<path d="M1.13759 0.245384C1.31681 0.277905 1.53662 0.317931 1.7502 0.34795C1.80297 0.458019 1.86819 0.605615 1.93017 0.795735C2.12831 1.40362 2.23162 2.07153 2.23162 2.3417C2.23137 2.67692 2.11213 4.08279 1.90826 5.48868C1.70041 4.97336 1.48559 4.41301 1.27375 3.84015C0.856304 2.71194 0.459515 1.55619 0.170264 0.635607C0.104796 0.427976 0.0525233 0.230347 0 0.0527344C0.37065 0.105268 0.761212 0.17534 1.13759 0.245384Z" fill="#F6B901"/>
</svg>
