<svg width="206" height="395" viewBox="0 0 206 395" fill="none" xmlns="http://www.w3.org/2000/svg">
<path d="M86.9643 260.524C67.0064 244.762 58.4195 235.595 49.9343 218.309C45.0611 221.211 42.3381 222.845 40.006 233.098C38.9555 239.803 39.0465 243.207 40.006 248.693C42.9731 268.619 48.2359 279.033 65.4976 296.018C72.9325 281.627 77.703 273.889 86.9643 260.524Z" fill="#AE1645"/>
<path d="M133.118 296.018C126.107 281.086 121.427 273.241 111.383 260.524C131.394 246.258 139.239 236.833 149.218 218.309C154.013 221.803 156.129 224.878 158.609 233.098C160.016 239.587 160.176 243.046 158.609 248.693C151.462 271.609 145.968 282.19 133.118 296.018Z" fill="#AE1645"/>
<path d="M107.894 262.138C101.505 262.973 97.9823 263.144 91.7943 262.138C84.2678 271.639 76.5884 280.049 78.1093 281.498C84.0645 287.169 87.559 290.35 88.8427 296.018C89.8437 303.931 90.2618 308.348 88.8427 315.916L80.256 367.811L80.2028 368.152C79.7726 370.904 79.5152 372.55 80.256 373.727C86.7843 382.724 90.615 387.614 99.3077 394.431C108.048 387.498 112.403 382.822 119.701 373.727C120.241 372.705 120.318 371.475 119.701 367.811L109.236 315.916C108.335 308.254 108.076 303.84 109.236 296.018C110.726 288.537 114.379 286.309 119.701 281.498C121.13 280.864 113.898 271.299 107.894 262.138Z" fill="#AE1645"/>
<path d="M153.511 148.667C152.505 149.44 152.855 137.6 152.974 123.391H103.333C79.9587 120.594 67.0776 117.911 44.5676 109.947C43.8041 110.032 43.8677 144.955 43.226 148.129C41.1309 150.376 39.0119 136.783 34.9076 107.258C20.5423 103.375 12.6107 99.7827 1.6343 91.3933C-0.422493 89.6629 -0.663703 88.2671 1.6343 84.6711C1.96274 84.4613 11.2129 86.1552 24.1743 88.4356C26.3259 88.7815 27.4529 88.748 29.541 88.4356C33.3653 87.2864 35.3941 85.7832 38.9326 82.52C67.4516 92.6312 86.5468 94.8836 122.116 97.3089L168.269 98.9222C171.975 102.244 173.261 104.068 174.441 107.258C191.694 107.078 198.661 107.593 204.226 109.947C205.042 110.489 206.006 111.219 204.226 112.367L204.085 112.444C191.926 119.144 185.062 122.925 174.441 123.391H160.488C159.002 139.007 157.701 145.461 153.511 148.667Z" fill="#AE1645"/>
<path d="M166.123 34.9267C166.772 58.2624 167.599 76.4705 166.123 76.6044C140.826 69.8815 126.027 66.4912 92.331 64.7733C71.7017 64.3259 44.9919 64.6887 44.5676 63.4289C44.2082 61.5705 44.2475 60.5246 44.5676 58.5889C51.7413 26.9385 54.7279 7.65137 78.3777 0.239998C80.3217 -0.122172 81.4568 -0.0345896 83.476 0.239998C92.0129 1.45025 97.3269 4.905 108.968 16.6422C116.869 17.5908 118.762 17.4358 120.238 16.6422C124.863 11.9919 127.941 10.0309 133.923 7.23111C138.062 5.60865 140.357 5.78665 144.388 7.23111C157.523 16.3065 164.633 21.4834 166.123 34.9267Z" fill="#AE1645"/>
</svg>
