<svg width="447" height="163" viewBox="0 0 447 163" fill="none" xmlns="http://www.w3.org/2000/svg">
<path d="M0.181818 26.5527V0.370915H10.6648C12.5909 0.370915 14.1974 0.656427 15.4844 1.22745C16.7713 1.79847 17.7386 2.59109 18.3864 3.60529C19.0341 4.61097 19.358 5.77006 19.358 7.08256C19.358 8.10529 19.1534 9.00444 18.7443 9.78001C18.3352 10.5471 17.7727 11.1777 17.0568 11.6721C16.3494 12.1578 15.5398 12.503 14.6278 12.7076V12.9632C15.625 13.0059 16.5582 13.2871 17.4276 13.807C18.3054 14.3269 19.017 15.0556 19.5625 15.9931C20.108 16.9221 20.3807 18.03 20.3807 19.3169C20.3807 20.7061 20.0355 21.9462 19.3452 23.0371C18.6634 24.1195 17.6534 24.976 16.3153 25.6067C14.9773 26.2374 13.3281 26.5527 11.3679 26.5527H0.181818ZM5.71733 22.0272H10.2301C11.7727 22.0272 12.8977 21.7331 13.6051 21.1451C14.3125 20.5485 14.6662 19.7559 14.6662 18.7672C14.6662 18.0428 14.4915 17.4036 14.142 16.8496C13.7926 16.2956 13.294 15.861 12.6463 15.5456C12.0071 15.2303 11.2443 15.0726 10.358 15.0726H5.71733V22.0272ZM5.71733 11.3269H9.82102C10.5795 11.3269 11.2528 11.1948 11.8409 10.9306C12.4375 10.6578 12.9063 10.2743 13.2472 9.78001C13.5966 9.28569 13.7713 8.69336 13.7713 8.00302C13.7713 7.057 13.4347 6.29421 12.7614 5.71467C12.0966 5.13512 11.1506 4.84535 9.9233 4.84535H5.71733V11.3269ZM43.5518 0.370915V26.5527H38.0163V5.62518H37.8629L31.8672 9.3837V4.47461L38.3487 0.370915H43.5518ZM59.2475 0.0129607C60.5941 0.0129607 61.8896 0.238813 63.1339 0.690517C64.3867 1.14222 65.5032 1.86239 66.4833 2.85103C67.4719 3.83967 68.2518 5.15217 68.8228 6.78853C69.4023 8.41637 69.6964 10.4149 69.7049 12.7843C69.7049 15.0087 69.4535 16.9945 68.9506 18.7417C68.4563 20.4803 67.7447 21.959 66.8157 23.1777C65.8867 24.3965 64.766 25.3255 63.4535 25.9647C62.141 26.5953 60.6751 26.9107 59.0558 26.9107C57.3086 26.9107 55.766 26.574 54.4279 25.9007C53.0898 25.2189 52.0117 24.2942 51.1935 23.1266C50.3839 21.9505 49.8938 20.6294 49.7234 19.1635H55.1822C55.3952 20.1181 55.8427 20.8596 56.5245 21.388C57.2063 21.9078 58.0501 22.1678 59.0558 22.1678C60.7603 22.1678 62.0558 21.4263 62.9421 19.9434C63.8285 18.4519 64.2759 16.4107 64.2844 13.8198H64.1055C63.7134 14.5868 63.185 15.2473 62.5202 15.8013C61.8555 16.3468 61.0927 16.7686 60.2319 17.0669C59.3796 17.3652 58.4719 17.5144 57.5089 17.5144C55.9663 17.5144 54.5898 17.1522 53.3796 16.4277C52.1694 15.7033 51.2148 14.7061 50.516 13.4363C49.8171 12.1664 49.4677 10.7175 49.4677 9.08967C49.4592 7.33398 49.864 5.77006 50.6822 4.3979C51.5004 3.02575 52.6424 1.95188 54.1083 1.17631C55.5827 0.392222 57.2958 0.00443769 59.2475 0.0129607ZM59.2859 4.35955C58.4251 4.35955 57.658 4.5641 56.9847 4.97319C56.32 5.38228 55.7915 5.932 55.3995 6.62234C55.016 7.31268 54.8285 8.08398 54.837 8.93626C54.837 9.79705 55.0245 10.5726 55.3995 11.263C55.783 11.9448 56.3029 12.4902 56.9592 12.8993C57.6239 13.2999 58.3825 13.5002 59.2347 13.5002C59.8739 13.5002 60.4663 13.3809 61.0117 13.1422C61.5572 12.9036 62.0302 12.5755 62.4308 12.1578C62.8398 11.7317 63.1594 11.2417 63.3896 10.6877C63.6197 10.1337 63.7347 9.54563 63.7347 8.92347C63.7262 8.09677 63.5302 7.33825 63.1467 6.6479C62.7631 5.95756 62.2347 5.40359 61.5614 4.98597C60.8881 4.56836 60.1296 4.35955 59.2859 4.35955ZM83.0131 0.0129607C84.3597 0.0129607 85.6552 0.238813 86.8995 0.690517C88.1523 1.14222 89.2688 1.86239 90.2489 2.85103C91.2376 3.83967 92.0174 5.15217 92.5884 6.78853C93.168 8.41637 93.462 10.4149 93.4705 12.7843C93.4705 15.0087 93.2191 16.9945 92.7163 18.7417C92.2219 20.4803 91.5103 21.959 90.5813 23.1777C89.6523 24.3965 88.5316 25.3255 87.2191 25.9647C85.9066 26.5953 84.4407 26.9107 82.8214 26.9107C81.0742 26.9107 79.5316 26.574 78.1935 25.9007C76.8555 25.2189 75.7773 24.2942 74.9592 23.1266C74.1495 21.9505 73.6594 20.6294 73.489 19.1635H78.9478C79.1609 20.1181 79.6083 20.8596 80.2901 21.388C80.9719 21.9078 81.8157 22.1678 82.8214 22.1678C84.5259 22.1678 85.8214 21.4263 86.7077 19.9434C87.5941 18.4519 88.0415 16.4107 88.0501 13.8198H87.8711C87.479 14.5868 86.9506 15.2473 86.2859 15.8013C85.6211 16.3468 84.8583 16.7686 83.9975 17.0669C83.1452 17.3652 82.2376 17.5144 81.2745 17.5144C79.7319 17.5144 78.3555 17.1522 77.1452 16.4277C75.935 15.7033 74.9805 14.7061 74.2816 13.4363C73.5827 12.1664 73.2333 10.7175 73.2333 9.08967C73.2248 7.33398 73.6296 5.77006 74.4478 4.3979C75.266 3.02575 76.408 1.95188 77.8739 1.17631C79.3484 0.392222 81.0614 0.00443769 83.0131 0.0129607ZM83.0515 4.35955C82.1907 4.35955 81.4237 4.5641 80.7504 4.97319C80.0856 5.38228 79.5572 5.932 79.1651 6.62234C78.7816 7.31268 78.5941 8.08398 78.6026 8.93626C78.6026 9.79705 78.7901 10.5726 79.1651 11.263C79.5487 11.9448 80.0685 12.4902 80.7248 12.8993C81.3896 13.2999 82.1481 13.5002 83.0004 13.5002C83.6396 13.5002 84.2319 13.3809 84.7773 13.1422C85.3228 12.9036 85.7958 12.5755 86.1964 12.1578C86.6055 11.7317 86.9251 11.2417 87.1552 10.6877C87.3853 10.1337 87.5004 9.54563 87.5004 8.92347C87.4918 8.09677 87.2958 7.33825 86.9123 6.6479C86.5288 5.95756 86.0004 5.40359 85.3271 4.98597C84.6538 4.56836 83.8952 4.35955 83.0515 4.35955ZM106.868 26.9107C105.061 26.9107 103.451 26.5783 102.036 25.9135C100.63 25.2488 99.5131 24.3326 98.6864 23.165C97.8597 21.9973 97.4293 20.6593 97.3952 19.1507H102.765C102.824 20.165 103.25 20.9874 104.043 21.6181C104.836 22.2488 105.777 22.5641 106.868 22.5641C107.738 22.5641 108.505 22.3723 109.169 21.9888C109.843 21.5968 110.367 21.0556 110.742 20.3652C111.125 19.6664 111.317 18.8652 111.317 17.9618C111.317 17.0414 111.121 16.2317 110.729 15.5328C110.346 14.834 109.813 14.2885 109.131 13.8965C108.449 13.5044 107.669 13.3042 106.792 13.2956C106.025 13.2956 105.279 13.4533 104.554 13.7686C103.838 14.084 103.28 14.5144 102.88 15.0598L97.9577 14.1777L99.1978 0.370915H115.203V4.89648H103.762L103.084 11.4547H103.238C103.698 10.807 104.392 10.2701 105.321 9.84393C106.25 9.41779 107.29 9.20472 108.441 9.20472C110.017 9.20472 111.424 9.57546 112.659 10.3169C113.895 11.0584 114.871 12.0769 115.587 13.3723C116.303 14.6593 116.657 16.1422 116.648 17.8212C116.657 19.5854 116.248 21.1536 115.421 22.5257C114.603 23.8894 113.456 24.9632 111.982 25.7473C110.516 26.5229 108.811 26.9107 106.868 26.9107ZM142.341 6.91637V11.199H134.185V26.5527H128.892V6.91637H142.341ZM153.831 26.9363C151.845 26.9363 150.127 26.5144 148.679 25.6706C147.238 24.8184 146.126 23.6337 145.342 22.1167C144.558 20.5911 144.166 18.8226 144.166 16.8113C144.166 14.7828 144.558 13.0101 145.342 11.4931C146.126 9.96751 147.238 8.78285 148.679 7.9391C150.127 7.08682 151.845 6.66069 153.831 6.66069C155.816 6.66069 157.529 7.08682 158.97 7.9391C160.419 8.78285 161.535 9.96751 162.319 11.4931C163.103 13.0101 163.495 14.7828 163.495 16.8113C163.495 18.8226 163.103 20.5911 162.319 22.1167C161.535 23.6337 160.419 24.8184 158.97 25.6706C157.529 26.5144 155.816 26.9363 153.831 26.9363ZM153.856 22.7175C154.76 22.7175 155.514 22.4618 156.119 21.9505C156.724 21.4306 157.18 20.7232 157.487 19.8283C157.802 18.9334 157.96 17.9149 157.96 16.7729C157.96 15.6309 157.802 14.6124 157.487 13.7175C157.18 12.8226 156.724 12.1152 156.119 11.5953C155.514 11.0755 154.76 10.8155 153.856 10.8155C152.944 10.8155 152.177 11.0755 151.555 11.5953C150.941 12.1152 150.477 12.8226 150.162 13.7175C149.855 14.6124 149.701 15.6309 149.701 16.7729C149.701 17.9149 149.855 18.9334 150.162 19.8283C150.477 20.7232 150.941 21.4306 151.555 21.9505C152.177 22.4618 152.944 22.7175 153.856 22.7175ZM165.502 32.3056V22.2317H167.011C167.446 21.959 167.795 21.5243 168.059 20.9277C168.332 20.3311 168.554 19.628 168.724 18.8184C168.903 18.0087 169.039 17.1351 169.133 16.1976C169.235 15.2516 169.325 14.2971 169.402 13.334L169.913 6.91637H184.973V22.2317H188.015V32.3056H182.825V26.5527H170.821V32.3056H165.502ZM172.431 22.2317H179.833V11.1096H174.541L174.336 13.334C174.191 15.4306 173.983 17.2118 173.71 18.6777C173.437 20.1351 173.011 21.3198 172.431 22.2317ZM194.551 33.9164C193.861 33.9164 193.213 33.861 192.608 33.7502C192.011 33.6479 191.517 33.5158 191.125 33.3539L192.352 29.2885C192.991 29.4846 193.567 29.5911 194.078 29.6081C194.598 29.6252 195.045 29.5059 195.42 29.2502C195.804 28.9945 196.115 28.5598 196.354 27.9462L196.673 27.1152L189.629 6.91637H195.357L199.422 21.3368H199.626L203.73 6.91637H209.496L201.864 28.6749C201.497 29.7317 200.999 30.6522 200.368 31.4363C199.746 32.2289 198.957 32.8382 198.003 33.2644C197.048 33.699 195.898 33.9164 194.551 33.9164ZM13.7457 57.5613V61.8439H3.4929V57.5613H13.7457ZM5.28267 49.9164V69.5527H0.0795455V49.9164H5.28267ZM17.1591 49.9164V69.5527H11.9943V49.9164H17.1591ZM26.9837 69.9235C25.7308 69.9235 24.6143 69.7061 23.6342 69.2715C22.6541 68.8283 21.8786 68.1763 21.3075 67.3155C20.745 66.4462 20.4638 65.3638 20.4638 64.0684C20.4638 62.9775 20.6641 62.0613 21.0646 61.3198C21.4652 60.5783 22.0107 59.9817 22.701 59.53C23.3913 59.0783 24.1754 58.7374 25.0533 58.5073C25.9396 58.2772 26.8686 58.1152 27.8402 58.0215C28.9822 57.9022 29.9027 57.7914 30.6016 57.6891C31.3004 57.5783 31.8075 57.4164 32.1229 57.2033C32.4382 56.9902 32.5959 56.6749 32.5959 56.2573V56.1806C32.5959 55.3709 32.3402 54.7445 31.8288 54.3013C31.326 53.8581 30.6101 53.6365 29.6811 53.6365C28.701 53.6365 27.9212 53.8539 27.3416 54.2885C26.7621 54.7147 26.3786 55.2516 26.1911 55.8993L21.1541 55.4902C21.4098 54.2971 21.9126 53.2658 22.6626 52.3965C23.4126 51.5186 24.38 50.8453 25.5646 50.3766C26.7578 49.8993 28.1385 49.6607 29.7067 49.6607C30.7976 49.6607 31.8416 49.7885 32.8388 50.0442C33.8445 50.2999 34.7351 50.6962 35.5107 51.2331C36.2947 51.7701 36.9126 52.4604 37.3643 53.3042C37.8161 54.1394 38.0419 55.1408 38.0419 56.3084V69.5527H32.8771V66.8297H32.7237C32.4084 67.4434 31.9865 67.9846 31.4581 68.4533C30.9297 68.9135 30.2947 69.2757 29.5533 69.54C28.8118 69.7956 27.9553 69.9235 26.9837 69.9235ZM28.5433 66.165C29.3445 66.165 30.0518 66.0073 30.6655 65.6919C31.2791 65.3681 31.7607 64.9334 32.1101 64.388C32.4595 63.8425 32.6342 63.2246 32.6342 62.5343V60.4505C32.4638 60.5613 32.2294 60.6635 31.9311 60.7573C31.6413 60.8425 31.3132 60.9235 30.9467 61.0002C30.5803 61.0684 30.2138 61.1323 29.8473 61.1919C29.4808 61.2431 29.1484 61.29 28.8501 61.3326C28.2109 61.4263 27.6527 61.5755 27.1754 61.78C26.6982 61.9846 26.3274 62.2615 26.0632 62.611C25.799 62.9519 25.6669 63.378 25.6669 63.8894C25.6669 64.6309 25.9354 65.1976 26.4723 65.5897C27.0178 65.9732 27.7081 66.165 28.5433 66.165ZM50.5991 69.5527V49.9164H56.0451V57.5357H57.5792L62.9229 49.9164H69.315L62.3732 59.6578L69.3917 69.5527H62.9229L58.0778 62.5854H56.0451V69.5527H50.5991ZM79.7564 69.9363C77.7706 69.9363 76.0533 69.5144 74.6044 68.6706C73.1641 67.8184 72.0518 66.6337 71.2678 65.1167C70.4837 63.5911 70.0916 61.8226 70.0916 59.8113C70.0916 57.7828 70.4837 56.0101 71.2678 54.4931C72.0518 52.9675 73.1641 51.7828 74.6044 50.9391C76.0533 50.0868 77.7706 49.6607 79.7564 49.6607C81.7422 49.6607 83.4553 50.0868 84.8956 50.9391C86.3445 51.7828 87.4609 52.9675 88.245 54.4931C89.0291 56.0101 89.4212 57.7828 89.4212 59.8113C89.4212 61.8226 89.0291 63.5911 88.245 65.1167C87.4609 66.6337 86.3445 67.8184 84.8956 68.6706C83.4553 69.5144 81.7422 69.9363 79.7564 69.9363ZM79.782 65.7175C80.6854 65.7175 81.4396 65.4618 82.0447 64.9505C82.6499 64.4306 83.1058 63.7232 83.4126 62.8283C83.728 61.9334 83.8857 60.9149 83.8857 59.7729C83.8857 58.6309 83.728 57.6124 83.4126 56.7175C83.1058 55.8226 82.6499 55.1152 82.0447 54.5953C81.4396 54.0755 80.6854 53.8155 79.782 53.8155C78.87 53.8155 78.103 54.0755 77.4808 54.5953C76.8672 55.1152 76.4027 55.8226 76.0874 56.7175C75.7805 57.6124 75.6271 58.6309 75.6271 59.7729C75.6271 60.9149 75.7805 61.9334 76.0874 62.8283C76.4027 63.7232 76.8672 64.4306 77.4808 64.9505C78.103 65.4618 78.87 65.7175 79.782 65.7175ZM101.835 69.9363C99.8232 69.9363 98.093 69.5101 96.6442 68.6578C95.2038 67.7971 94.0959 66.6039 93.3203 65.0783C92.5533 63.5527 92.1697 61.7971 92.1697 59.8113C92.1697 57.7999 92.5575 56.0357 93.3331 54.5186C94.1172 52.9931 95.2294 51.8042 96.6697 50.9519C98.1101 50.0911 99.8232 49.6607 101.809 49.6607C103.522 49.6607 105.022 49.9718 106.309 50.5939C107.596 51.2161 108.614 52.0897 109.364 53.2147C110.114 54.3397 110.528 55.6607 110.604 57.1777H105.465C105.32 56.1976 104.937 55.4093 104.315 54.8127C103.701 54.2076 102.896 53.905 101.898 53.905C101.055 53.905 100.317 54.1351 99.6868 54.5953C99.0646 55.0471 98.5788 55.7076 98.2294 56.5769C97.88 57.4462 97.7053 58.4988 97.7053 59.7346C97.7053 60.9874 97.8757 62.0527 98.2166 62.9306C98.5661 63.8084 99.0561 64.4775 99.6868 64.9377C100.317 65.3979 101.055 65.628 101.898 65.628C102.521 65.628 103.079 65.5002 103.573 65.2445C104.076 64.9888 104.489 64.6181 104.813 64.1323C105.146 63.638 105.363 63.0456 105.465 62.3553H110.604C110.519 63.8553 110.11 65.1763 109.377 66.3184C108.653 67.4519 107.651 68.3382 106.373 68.9775C105.094 69.6167 103.582 69.9363 101.835 69.9363ZM125.699 63.5314L131.017 49.9164H135.159L127.502 69.5527H123.884L116.405 49.9164H120.534L125.699 63.5314ZM119.294 49.9164V69.5527H114.091V49.9164H119.294ZM132.373 69.5527V49.9164H137.512V69.5527H132.373ZM146.927 62.3681L153.997 49.9164H159.366V69.5527H154.176V57.0627L147.132 69.5527H141.724V49.9164H146.927V62.3681ZM180.773 49.9164V69.5527H175.608V49.9164H180.773ZM178.255 58.5328V62.8283C177.837 63.0158 177.317 63.1948 176.695 63.3652C176.073 63.5272 175.421 63.6593 174.739 63.7615C174.057 63.8638 173.418 63.9149 172.821 63.9149C170 63.9149 167.78 63.3354 166.161 62.1763C164.542 61.0087 163.732 59.1465 163.732 56.5897V49.8908H168.871V56.5897C168.871 57.3482 168.999 57.949 169.255 58.3922C169.519 58.8354 169.936 59.155 170.507 59.351C171.087 59.5385 171.858 59.6323 172.821 59.6323C173.716 59.6323 174.594 59.5385 175.455 59.351C176.316 59.1635 177.249 58.8908 178.255 58.5328ZM193.95 69.9363C191.93 69.9363 190.192 69.5272 188.734 68.709C187.286 67.8823 186.169 66.7147 185.385 65.2061C184.601 63.6891 184.209 61.8951 184.209 59.824C184.209 57.8042 184.601 56.0314 185.385 54.5059C186.169 52.9803 187.273 51.7914 188.696 50.9391C190.128 50.0868 191.807 49.6607 193.733 49.6607C195.028 49.6607 196.234 49.8695 197.351 50.2871C198.476 50.6962 199.456 51.3141 200.291 52.1408C201.135 52.9675 201.791 54.0073 202.26 55.2601C202.729 56.5044 202.963 57.9618 202.963 59.6323V61.128H186.382V57.753H197.837C197.837 56.9689 197.666 56.2743 197.325 55.6692C196.984 55.0641 196.511 54.5911 195.906 54.2502C195.31 53.9007 194.615 53.726 193.822 53.726C192.996 53.726 192.263 53.9178 191.624 54.3013C190.993 54.6763 190.499 55.1834 190.141 55.8226C189.783 56.4533 189.599 57.1564 189.591 57.932V61.1408C189.591 62.1124 189.77 62.9519 190.128 63.6593C190.494 64.3667 191.01 64.9121 191.675 65.2956C192.339 65.6792 193.128 65.8709 194.04 65.8709C194.645 65.8709 195.199 65.7857 195.702 65.6152C196.205 65.4448 196.635 65.1891 196.993 64.8482C197.351 64.5073 197.624 64.0897 197.811 63.5953L202.848 63.9277C202.592 65.138 202.068 66.1948 201.276 67.0982C200.491 67.9931 199.477 68.6919 198.233 69.1948C196.997 69.6891 195.57 69.9363 193.95 69.9363ZM215.389 69.9363C213.378 69.9363 211.648 69.5101 210.199 68.6578C208.759 67.7971 207.651 66.6039 206.875 65.0783C206.108 63.5527 205.724 61.7971 205.724 59.8113C205.724 57.7999 206.112 56.0357 206.888 54.5186C207.672 52.9931 208.784 51.8042 210.224 50.9519C211.665 50.0911 213.378 49.6607 215.364 49.6607C217.077 49.6607 218.577 49.9718 219.864 50.5939C221.151 51.2161 222.169 52.0897 222.919 53.2147C223.669 54.3397 224.082 55.6607 224.159 57.1777H219.02C218.875 56.1976 218.491 55.4093 217.869 54.8127C217.256 54.2076 216.45 53.905 215.453 53.905C214.609 53.905 213.872 54.1351 213.241 54.5953C212.619 55.0471 212.134 55.7076 211.784 56.5769C211.435 57.4462 211.26 58.4988 211.26 59.7346C211.26 60.9874 211.43 62.0527 211.771 62.9306C212.121 63.8084 212.611 64.4775 213.241 64.9377C213.872 65.3979 214.609 65.628 215.453 65.628C216.075 65.628 216.634 65.5002 217.128 65.2445C217.631 64.9888 218.044 64.6181 218.368 64.1323C218.7 63.638 218.918 63.0456 219.02 62.3553H224.159C224.074 63.8553 223.665 65.1763 222.932 66.3184C222.207 67.4519 221.206 68.3382 219.928 68.9775C218.649 69.6167 217.136 69.9363 215.389 69.9363ZM227.646 69.5527V49.9164H233.092V57.5357H234.626L239.97 49.9164H246.362L239.42 59.6578L246.439 69.5527H239.97L235.125 62.5854H233.092V69.5527H227.646ZM256.803 69.9363C254.817 69.9363 253.1 69.5144 251.651 68.6706C250.211 67.8184 249.099 66.6337 248.315 65.1167C247.531 63.5911 247.138 61.8226 247.138 59.8113C247.138 57.7828 247.531 56.0101 248.315 54.4931C249.099 52.9675 250.211 51.7828 251.651 50.9391C253.1 50.0868 254.817 49.6607 256.803 49.6607C258.789 49.6607 260.502 50.0868 261.942 50.9391C263.391 51.7828 264.508 52.9675 265.292 54.4931C266.076 56.0101 266.468 57.7828 266.468 59.8113C266.468 61.8226 266.076 63.5911 265.292 65.1167C264.508 66.6337 263.391 67.8184 261.942 68.6706C260.502 69.5144 258.789 69.9363 256.803 69.9363ZM256.829 65.7175C257.732 65.7175 258.487 65.4618 259.092 64.9505C259.697 64.4306 260.153 63.7232 260.46 62.8283C260.775 61.9334 260.933 60.9149 260.933 59.7729C260.933 58.6309 260.775 57.6124 260.46 56.7175C260.153 55.8226 259.697 55.1152 259.092 54.5953C258.487 54.0755 257.732 53.8155 256.829 53.8155C255.917 53.8155 255.15 54.0755 254.528 54.5953C253.914 55.1152 253.45 55.8226 253.134 56.7175C252.827 57.6124 252.674 58.6309 252.674 59.7729C252.674 60.9149 252.827 61.9334 253.134 62.8283C253.45 63.7232 253.914 64.4306 254.528 64.9505C255.15 65.4618 255.917 65.7175 256.829 65.7175ZM275.212 62.3681L282.282 49.9164H287.651V69.5527H282.461V57.0627L275.417 69.5527H270.009V49.9164H275.212V62.3681ZM281.349 43.0641H285.146C285.137 44.6152 284.562 45.8638 283.42 46.8098C282.286 47.7559 280.752 48.2289 278.817 48.2289C276.874 48.2289 275.336 47.7559 274.202 46.8098C273.069 45.8638 272.502 44.6152 272.502 43.0641H276.273C276.265 43.6522 276.452 44.1806 276.836 44.6493C277.228 45.1181 277.888 45.3524 278.817 45.3524C279.721 45.3524 280.369 45.1223 280.761 44.6621C281.153 44.2019 281.349 43.6692 281.349 43.0641ZM309.221 69.9363C307.21 69.9363 305.48 69.5101 304.031 68.6578C302.591 67.7971 301.483 66.6039 300.707 65.0783C299.94 63.5527 299.556 61.7971 299.556 59.8113C299.556 57.7999 299.944 56.0357 300.72 54.5186C301.504 52.9931 302.616 51.8042 304.056 50.9519C305.497 50.0911 307.21 49.6607 309.196 49.6607C310.909 49.6607 312.409 49.9718 313.696 50.5939C314.983 51.2161 316.001 52.0897 316.751 53.2147C317.501 54.3397 317.914 55.6607 317.991 57.1777H312.852C312.707 56.1976 312.324 55.4093 311.701 54.8127C311.088 54.2076 310.282 53.905 309.285 53.905C308.441 53.905 307.704 54.1351 307.074 54.5953C306.451 55.0471 305.966 55.7076 305.616 56.5769C305.267 57.4462 305.092 58.4988 305.092 59.7346C305.092 60.9874 305.262 62.0527 305.603 62.9306C305.953 63.8084 306.443 64.4775 307.074 64.9377C307.704 65.3979 308.441 65.628 309.285 65.628C309.907 65.628 310.466 65.5002 310.96 65.2445C311.463 64.9888 311.876 64.6181 312.2 64.1323C312.532 63.638 312.75 63.0456 312.852 62.3553H317.991C317.906 63.8553 317.497 65.1763 316.764 66.3184C316.039 67.4519 315.038 68.3382 313.76 68.9775C312.481 69.6167 310.968 69.9363 309.221 69.9363ZM320.139 54.199V49.9164H337.934V54.199H331.606V69.5527H326.416V54.199H320.139ZM346.132 69.9235C344.879 69.9235 343.763 69.7061 342.783 69.2715C341.803 68.8283 341.027 68.1763 340.456 67.3155C339.893 66.4462 339.612 65.3638 339.612 64.0684C339.612 62.9775 339.813 62.0613 340.213 61.3198C340.614 60.5783 341.159 59.9817 341.849 59.53C342.54 59.0783 343.324 58.7374 344.202 58.5073C345.088 58.2772 346.017 58.1152 346.989 58.0215C348.131 57.9022 349.051 57.7914 349.75 57.6891C350.449 57.5783 350.956 57.4164 351.271 57.2033C351.587 56.9902 351.744 56.6749 351.744 56.2573V56.1806C351.744 55.3709 351.489 54.7445 350.977 54.3013C350.474 53.8581 349.759 53.6365 348.83 53.6365C347.849 53.6365 347.07 53.8539 346.49 54.2885C345.911 54.7147 345.527 55.2516 345.339 55.8993L340.303 55.4902C340.558 54.2971 341.061 53.2658 341.811 52.3965C342.561 51.5186 343.528 50.8453 344.713 50.3766C345.906 49.8993 347.287 49.6607 348.855 49.6607C349.946 49.6607 350.99 49.7885 351.987 50.0442C352.993 50.2999 353.884 50.6962 354.659 51.2331C355.443 51.7701 356.061 52.4604 356.513 53.3042C356.964 54.1394 357.19 55.1408 357.19 56.3084V69.5527H352.026V66.8297H351.872C351.557 67.4434 351.135 67.9846 350.607 68.4533C350.078 68.9135 349.443 69.2757 348.702 69.54C347.96 69.7956 347.104 69.9235 346.132 69.9235ZM347.692 66.165C348.493 66.165 349.2 66.0073 349.814 65.6919C350.428 65.3681 350.909 64.9334 351.259 64.388C351.608 63.8425 351.783 63.2246 351.783 62.5343V60.4505C351.612 60.5613 351.378 60.6635 351.08 60.7573C350.79 60.8425 350.462 60.9235 350.095 61.0002C349.729 61.0684 349.362 61.1323 348.996 61.1919C348.629 61.2431 348.297 61.29 347.999 61.3326C347.359 61.4263 346.801 61.5755 346.324 61.78C345.847 61.9846 345.476 62.2615 345.212 62.611C344.947 62.9519 344.815 63.378 344.815 63.8894C344.815 64.6309 345.084 65.1976 345.621 65.5897C346.166 65.9732 346.857 66.165 347.692 66.165ZM375.082 57.5613V61.8439H364.829V57.5613H375.082ZM366.619 49.9164V69.5527H361.415V49.9164H366.619ZM378.495 49.9164V69.5527H373.33V49.9164H378.495ZM399.889 49.9164V65.7942H403.021V75.8681H397.729V69.5527H382.72V49.9164H387.923V65.2701H394.75V49.9164H399.889ZM411.583 62.3681L418.653 49.9164H424.022V69.5527H418.832V57.0627L411.788 69.5527H406.38V49.9164H411.583V62.3681ZM433.591 62.3681L440.661 49.9164H446.03V69.5527H440.84V57.0627L433.796 69.5527H428.388V49.9164H433.591V62.3681ZM10.1023 109.74H5.16761L0.00284092 102.07V101.814H5.19318L10.1023 109.74ZM10.1023 94.0414L5.19318 101.968H0.00284092V101.712L5.16761 94.0414H10.1023ZM18.5142 109.74H13.5795L8.41477 102.07V101.814H13.6051L18.5142 109.74ZM18.5142 94.0414L13.6051 101.968H8.41477V101.712L13.5795 94.0414H18.5142ZM22.717 86.3709H29.5437L36.7539 103.962H37.0607L44.271 86.3709H51.0977V112.553H45.7283V95.5115H45.511L38.7354 112.425H35.0792L28.3036 95.4476H28.0863V112.553H22.717V86.3709ZM60.7592 105.368L67.8288 92.9164H73.1982V112.553H68.0078V100.063L60.9638 112.553H55.5561V92.9164H60.7592V105.368ZM77.5639 119.916V92.9164H82.9332V96.2147H83.1761C83.4148 95.6863 83.7599 95.1493 84.2116 94.6039C84.6719 94.0499 85.2685 93.5897 86.0014 93.2232C86.7429 92.8482 87.6634 92.6607 88.7628 92.6607C90.1946 92.6607 91.5156 93.0357 92.7259 93.7857C93.9361 94.5272 94.9034 95.6479 95.6278 97.1479C96.3523 98.6394 96.7145 100.51 96.7145 102.76C96.7145 104.95 96.3608 106.8 95.6534 108.308C94.9545 109.808 94 110.946 92.7898 111.722C91.5881 112.489 90.2415 112.872 88.75 112.872C87.6932 112.872 86.794 112.698 86.0526 112.348C85.3196 111.999 84.7188 111.56 84.25 111.031C83.7812 110.494 83.4233 109.953 83.1761 109.408H83.0099V119.916H77.5639ZM82.8949 102.735C82.8949 103.902 83.0568 104.921 83.3807 105.79C83.7045 106.659 84.1733 107.337 84.7869 107.823C85.4006 108.3 86.1463 108.539 87.0241 108.539C87.9105 108.539 88.6605 108.296 89.2741 107.81C89.8878 107.316 90.3523 106.634 90.6676 105.764C90.9915 104.887 91.1534 103.877 91.1534 102.735C91.1534 101.601 90.9957 100.604 90.6804 99.7431C90.3651 98.8823 89.9006 98.209 89.2869 97.7232C88.6733 97.2374 87.919 96.9945 87.0241 96.9945C86.1378 96.9945 85.3878 97.2289 84.7741 97.6976C84.169 98.1664 83.7045 98.8311 83.3807 99.6919C83.0568 100.553 82.8949 101.567 82.8949 102.735ZM99.9872 109.74L104.896 101.814H110.087V102.07L104.922 109.74H99.9872ZM99.9872 94.0414H104.922L110.087 101.712V101.968H104.896L99.9872 94.0414ZM108.527 109.74L113.436 101.814H118.626V102.07L113.462 109.74H108.527ZM108.527 94.0414H113.462L118.626 101.712V101.968H113.436L108.527 94.0414ZM131.318 112.553V92.9164H148.487V112.553H143.284V97.199H136.457V112.553H131.318ZM152.833 119.916V92.9164H158.203V96.2147H158.446C158.684 95.6863 159.029 95.1493 159.481 94.6039C159.941 94.0499 160.538 93.5897 161.271 93.2232C162.012 92.8482 162.933 92.6607 164.032 92.6607C165.464 92.6607 166.785 93.0357 167.995 93.7857C169.206 94.5272 170.173 95.6479 170.897 97.1479C171.622 98.6394 171.984 100.51 171.984 102.76C171.984 104.95 171.63 106.8 170.923 108.308C170.224 109.808 169.27 110.946 168.059 111.722C166.858 112.489 165.511 112.872 164.02 112.872C162.963 112.872 162.064 112.698 161.322 112.348C160.589 111.999 159.988 111.56 159.52 111.031C159.051 110.494 158.693 109.953 158.446 109.408H158.279V119.916H152.833ZM158.164 102.735C158.164 103.902 158.326 104.921 158.65 105.79C158.974 106.659 159.443 107.337 160.056 107.823C160.67 108.3 161.416 108.539 162.294 108.539C163.18 108.539 163.93 108.296 164.544 107.81C165.157 107.316 165.622 106.634 165.937 105.764C166.261 104.887 166.423 103.877 166.423 102.735C166.423 101.601 166.265 100.604 165.95 99.7431C165.635 98.8823 165.17 98.209 164.556 97.7232C163.943 97.2374 163.189 96.9945 162.294 96.9945C161.407 96.9945 160.657 97.2289 160.044 97.6976C159.439 98.1664 158.974 98.8311 158.65 99.6919C158.326 100.553 158.164 101.567 158.164 102.735ZM184.487 112.936C182.501 112.936 180.784 112.514 179.335 111.671C177.895 110.818 176.782 109.634 175.998 108.117C175.214 106.591 174.822 104.823 174.822 102.811C174.822 100.783 175.214 99.0101 175.998 97.4931C176.782 95.9675 177.895 94.7828 179.335 93.9391C180.784 93.0868 182.501 92.6607 184.487 92.6607C186.473 92.6607 188.186 93.0868 189.626 93.9391C191.075 94.7828 192.191 95.9675 192.975 97.4931C193.76 99.0101 194.152 100.783 194.152 102.811C194.152 104.823 193.76 106.591 192.975 108.117C192.191 109.634 191.075 110.818 189.626 111.671C188.186 112.514 186.473 112.936 184.487 112.936ZM184.512 108.718C185.416 108.718 186.17 108.462 186.775 107.95C187.38 107.431 187.836 106.723 188.143 105.828C188.458 104.933 188.616 103.915 188.616 102.773C188.616 101.631 188.458 100.612 188.143 99.7175C187.836 98.8226 187.38 98.1152 186.775 97.5953C186.17 97.0755 185.416 96.8155 184.512 96.8155C183.6 96.8155 182.833 97.0755 182.211 97.5953C181.598 98.1152 181.133 98.8226 180.818 99.7175C180.511 100.612 180.358 101.631 180.358 102.773C180.358 103.915 180.511 104.933 180.818 105.828C181.133 106.723 181.598 107.431 182.211 107.95C182.833 108.462 183.6 108.718 184.512 108.718ZM197.693 92.9164H202.896V108.232H208.431V92.9164H213.635V108.232H219.17V92.9164H224.373V112.553H197.693V92.9164ZM237.544 112.936C235.524 112.936 233.786 112.527 232.328 111.709C230.879 110.882 229.763 109.715 228.979 108.206C228.195 106.689 227.803 104.895 227.803 102.824C227.803 100.804 228.195 99.0314 228.979 97.5059C229.763 95.9803 230.866 94.7914 232.29 93.9391C233.722 93.0868 235.401 92.6607 237.327 92.6607C238.622 92.6607 239.828 92.8695 240.945 93.2871C242.07 93.6962 243.05 94.3141 243.885 95.1408C244.729 95.9675 245.385 97.0073 245.854 98.2601C246.322 99.5044 246.557 100.962 246.557 102.632V104.128H229.976V100.753H241.43C241.43 99.9689 241.26 99.2743 240.919 98.6692C240.578 98.0641 240.105 97.5911 239.5 97.2502C238.903 96.9007 238.209 96.726 237.416 96.726C236.589 96.726 235.857 96.9178 235.217 97.3013C234.587 97.6763 234.092 98.1834 233.734 98.8226C233.376 99.4533 233.193 100.156 233.185 100.932V104.141C233.185 105.112 233.364 105.952 233.722 106.659C234.088 107.367 234.604 107.912 235.268 108.296C235.933 108.679 236.722 108.871 237.634 108.871C238.239 108.871 238.793 108.786 239.295 108.615C239.798 108.445 240.229 108.189 240.587 107.848C240.945 107.507 241.217 107.09 241.405 106.595L246.442 106.928C246.186 108.138 245.662 109.195 244.869 110.098C244.085 110.993 243.071 111.692 241.827 112.195C240.591 112.689 239.163 112.936 237.544 112.936ZM233.3 90.2317C232.567 90.2317 231.936 89.976 231.408 89.4647C230.879 88.9448 230.615 88.3311 230.615 87.6238C230.615 86.8993 230.879 86.2857 231.408 85.7828C231.936 85.28 232.567 85.0286 233.3 85.0286C234.041 85.0286 234.668 85.28 235.179 85.7828C235.699 86.2857 235.959 86.8993 235.959 87.6238C235.959 88.3311 235.699 88.9448 235.179 89.4647C234.668 89.976 234.041 90.2317 233.3 90.2317ZM241.124 90.2317C240.391 90.2317 239.76 89.976 239.232 89.4647C238.703 88.9448 238.439 88.3311 238.439 87.6238C238.439 86.8993 238.703 86.2857 239.232 85.7828C239.76 85.28 240.391 85.0286 241.124 85.0286C241.865 85.0286 242.491 85.28 243.003 85.7828C243.523 86.2857 243.783 86.8993 243.783 87.6238C243.783 88.3311 243.523 88.9448 243.003 89.4647C242.491 89.976 241.865 90.2317 241.124 90.2317ZM248.96 112.553L248.935 108.232H249.587C250.047 108.232 250.443 108.121 250.776 107.899C251.116 107.669 251.398 107.298 251.619 106.787C251.841 106.276 252.016 105.598 252.143 104.754C252.271 103.902 252.357 102.854 252.399 101.61L252.719 92.9164H267.651V112.553H262.46V97.199H257.615L257.308 103.195C257.232 104.84 257.031 106.254 256.707 107.439C256.392 108.624 255.953 109.595 255.391 110.354C254.828 111.104 254.151 111.658 253.358 112.016C252.565 112.374 251.645 112.553 250.597 112.553H248.96ZM279.182 97.199V92.9164H296.977V97.199H290.649V112.553H285.459V97.199H279.182ZM303.641 119.916C302.951 119.916 302.303 119.861 301.698 119.75C301.101 119.648 300.607 119.516 300.215 119.354L301.442 115.289C302.081 115.485 302.657 115.591 303.168 115.608C303.688 115.625 304.135 115.506 304.51 115.25C304.894 114.994 305.205 114.56 305.444 113.946L305.763 113.115L298.719 92.9164H304.446L308.512 107.337H308.716L312.82 92.9164H318.586L310.953 114.675C310.587 115.732 310.088 116.652 309.458 117.436C308.836 118.229 308.047 118.838 307.093 119.264C306.138 119.699 304.988 119.916 303.641 119.916ZM321.373 119.916V92.9164H326.742V96.2147H326.985C327.223 95.6863 327.569 95.1493 328.02 94.6039C328.48 94.0499 329.077 93.5897 329.81 93.2232C330.551 92.8482 331.472 92.6607 332.571 92.6607C334.003 92.6607 335.324 93.0357 336.534 93.7857C337.745 94.5272 338.712 95.6479 339.436 97.1479C340.161 98.6394 340.523 100.51 340.523 102.76C340.523 104.95 340.169 106.8 339.462 108.308C338.763 109.808 337.809 110.946 336.598 111.722C335.397 112.489 334.05 112.872 332.559 112.872C331.502 112.872 330.603 112.698 329.861 112.348C329.128 111.999 328.527 111.56 328.059 111.031C327.59 110.494 327.232 109.953 326.985 109.408H326.819V119.916H321.373ZM326.703 102.735C326.703 103.902 326.865 104.921 327.189 105.79C327.513 106.659 327.982 107.337 328.596 107.823C329.209 108.3 329.955 108.539 330.833 108.539C331.719 108.539 332.469 108.296 333.083 107.81C333.696 107.316 334.161 106.634 334.476 105.764C334.8 104.887 334.962 103.877 334.962 102.735C334.962 101.601 334.804 100.604 334.489 99.7431C334.174 98.8823 333.709 98.209 333.096 97.7232C332.482 97.2374 331.728 96.9945 330.833 96.9945C329.946 96.9945 329.196 97.2289 328.583 97.6976C327.978 98.1664 327.513 98.8311 327.189 99.6919C326.865 100.553 326.703 101.567 326.703 102.735ZM357.82 100.561V104.844H347.567V100.561H357.82ZM349.357 92.9164V112.553H344.154V92.9164H349.357ZM361.233 92.9164V112.553H356.069V92.9164H361.233ZM370.662 105.368L377.731 92.9164H383.1V112.553H377.91V100.063L370.866 112.553H365.458V92.9164H370.662V105.368ZM387.466 119.916V92.9164H392.836V96.2147H393.078C393.317 95.6863 393.662 95.1493 394.114 94.6039C394.574 94.0499 395.171 93.5897 395.904 93.2232C396.645 92.8482 397.566 92.6607 398.665 92.6607C400.097 92.6607 401.418 93.0357 402.628 93.7857C403.838 94.5272 404.806 95.6479 405.53 97.1479C406.255 98.6394 406.617 100.51 406.617 102.76C406.617 104.95 406.263 106.8 405.556 108.308C404.857 109.808 403.902 110.946 402.692 111.722C401.49 112.489 400.144 112.872 398.652 112.872C397.596 112.872 396.696 112.698 395.955 112.348C395.222 111.999 394.621 111.56 394.152 111.031C393.684 110.494 393.326 109.953 393.078 109.408H392.912V119.916H387.466ZM392.797 102.735C392.797 103.902 392.959 104.921 393.283 105.79C393.607 106.659 394.076 107.337 394.689 107.823C395.303 108.3 396.049 108.539 396.926 108.539C397.813 108.539 398.563 108.296 399.176 107.81C399.79 107.316 400.255 106.634 400.57 105.764C400.894 104.887 401.056 103.877 401.056 102.735C401.056 101.601 400.898 100.604 400.583 99.7431C400.267 98.8823 399.803 98.209 399.189 97.7232C398.576 97.2374 397.821 96.9945 396.926 96.9945C396.04 96.9945 395.29 97.2289 394.676 97.6976C394.071 98.1664 393.607 98.8311 393.283 99.6919C392.959 100.553 392.797 101.567 392.797 102.735ZM0.0795455 155.553V135.916H17.2486V155.553H12.0455V140.199H5.21875V155.553H0.0795455ZM30.4673 155.936C28.4815 155.936 26.7642 155.514 25.3153 154.671C23.875 153.818 22.7628 152.634 21.9787 151.117C21.1946 149.591 20.8026 147.823 20.8026 145.811C20.8026 143.783 21.1946 142.01 21.9787 140.493C22.7628 138.968 23.875 137.783 25.3153 136.939C26.7642 136.087 28.4815 135.661 30.4673 135.661C32.4531 135.661 34.1662 136.087 35.6065 136.939C37.0554 137.783 38.1719 138.968 38.956 140.493C39.7401 142.01 40.1321 143.783 40.1321 145.811C40.1321 147.823 39.7401 149.591 38.956 151.117C38.1719 152.634 37.0554 153.818 35.6065 154.671C34.1662 155.514 32.4531 155.936 30.4673 155.936ZM30.4929 151.718C31.3963 151.718 32.1506 151.462 32.7557 150.95C33.3608 150.431 33.8168 149.723 34.1236 148.828C34.4389 147.933 34.5966 146.915 34.5966 145.773C34.5966 144.631 34.4389 143.612 34.1236 142.718C33.8168 141.823 33.3608 141.115 32.7557 140.595C32.1506 140.075 31.3963 139.816 30.4929 139.816C29.581 139.816 28.8139 140.075 28.1918 140.595C27.5781 141.115 27.1136 141.823 26.7983 142.718C26.4915 143.612 26.3381 144.631 26.3381 145.773C26.3381 146.915 26.4915 147.933 26.7983 148.828C27.1136 149.723 27.5781 150.431 28.1918 150.95C28.8139 151.462 29.581 151.718 30.4929 151.718ZM62.0281 152.74H57.0934L51.9286 145.07V144.814H57.119L62.0281 152.74ZM62.0281 137.041L57.119 144.968H51.9286V144.712L57.0934 137.041H62.0281ZM70.44 152.74H65.5053L60.3406 145.07V144.814H65.5309L70.44 152.74ZM70.44 137.041L65.5309 144.968H60.3406V144.712L65.5053 137.041H70.44ZM74.6428 129.371H81.4695L88.6797 146.962H88.9865L96.1967 129.371H103.023V155.553H97.6541V138.512H97.4368L90.6612 155.425H87.005L80.2294 138.448H80.0121V155.553H74.6428V129.371ZM113.081 155.923C111.828 155.923 110.712 155.706 109.732 155.271C108.752 154.828 107.976 154.176 107.405 153.316C106.843 152.446 106.561 151.364 106.561 150.068C106.561 148.977 106.762 148.061 107.162 147.32C107.563 146.578 108.108 145.982 108.799 145.53C109.489 145.078 110.273 144.737 111.151 144.507C112.037 144.277 112.966 144.115 113.938 144.021C115.08 143.902 116 143.791 116.699 143.689C117.398 143.578 117.905 143.416 118.221 143.203C118.536 142.99 118.694 142.675 118.694 142.257V142.181C118.694 141.371 118.438 140.744 117.926 140.301C117.424 139.858 116.708 139.637 115.779 139.637C114.799 139.637 114.019 139.854 113.439 140.289C112.86 140.715 112.476 141.252 112.289 141.899L107.252 141.49C107.507 140.297 108.01 139.266 108.76 138.396C109.51 137.519 110.478 136.845 111.662 136.377C112.855 135.899 114.236 135.661 115.804 135.661C116.895 135.661 117.939 135.789 118.936 136.044C119.942 136.3 120.833 136.696 121.608 137.233C122.392 137.77 123.01 138.46 123.462 139.304C123.914 140.139 124.14 141.141 124.14 142.308V155.553H118.975V152.83H118.821C118.506 153.443 118.084 153.985 117.556 154.453C117.027 154.914 116.392 155.276 115.651 155.54C114.909 155.796 114.053 155.923 113.081 155.923ZM114.641 152.165C115.442 152.165 116.15 152.007 116.763 151.692C117.377 151.368 117.858 150.933 118.208 150.388C118.557 149.843 118.732 149.225 118.732 148.534V146.45C118.561 146.561 118.327 146.664 118.029 146.757C117.739 146.843 117.411 146.923 117.044 147C116.678 147.068 116.311 147.132 115.945 147.192C115.578 147.243 115.246 147.29 114.948 147.333C114.309 147.426 113.75 147.575 113.273 147.78C112.796 147.985 112.425 148.262 112.161 148.611C111.897 148.952 111.765 149.378 111.765 149.889C111.765 150.631 112.033 151.198 112.57 151.59C113.115 151.973 113.806 152.165 114.641 152.165ZM137.761 162.226V129.371H143.194V162.226H137.761ZM137.761 155.936C136.252 155.936 134.876 155.693 133.632 155.208C132.387 154.713 131.314 154.019 130.41 153.124C129.507 152.22 128.808 151.151 128.314 149.915C127.819 148.671 127.572 147.303 127.572 145.811C127.572 144.303 127.819 142.931 128.314 141.695C128.808 140.45 129.507 139.381 130.41 138.486C131.314 137.583 132.387 136.888 133.632 136.402C134.876 135.908 136.252 135.661 137.761 135.661H138.771V155.936H137.761ZM137.761 151.692H138.362V139.905H137.761C137.028 139.905 136.376 140.058 135.805 140.365C135.234 140.672 134.752 141.094 134.36 141.631C133.968 142.159 133.67 142.781 133.466 143.497C133.27 144.213 133.172 144.985 133.172 145.811C133.172 146.902 133.35 147.895 133.708 148.79C134.066 149.676 134.591 150.384 135.281 150.912C135.971 151.432 136.798 151.692 137.761 151.692ZM143.194 155.936H142.184V135.661H143.194C144.703 135.661 146.079 135.908 147.324 136.402C148.568 136.888 149.642 137.583 150.545 138.486C151.449 139.381 152.147 140.45 152.642 141.695C153.136 142.931 153.383 144.303 153.383 145.811C153.383 147.303 153.136 148.671 152.642 149.915C152.147 151.151 151.449 152.22 150.545 153.124C149.642 154.019 148.568 154.713 147.324 155.208C146.079 155.693 144.703 155.936 143.194 155.936ZM143.194 151.692C143.927 151.692 144.579 151.543 145.15 151.244C145.721 150.938 146.203 150.516 146.595 149.979C146.987 149.442 147.285 148.82 147.49 148.112C147.694 147.396 147.797 146.629 147.797 145.811C147.797 144.712 147.613 143.719 147.247 142.833C146.889 141.938 146.369 141.226 145.687 140.698C145.005 140.169 144.174 139.905 143.194 139.905H142.593V151.692H143.194ZM162.15 148.368L169.219 135.916H174.589V155.553H169.398V143.063L162.354 155.553H156.947V135.916H162.15V148.368ZM184.158 148.368L191.227 135.916H196.597V155.553H191.406V143.063L184.362 155.553H178.955V135.916H184.158V148.368ZM200.604 152.74L205.513 144.814H210.704V145.07L205.539 152.74H200.604ZM200.604 137.041H205.539L210.704 144.712V144.968H205.513L200.604 137.041ZM209.144 152.74L214.053 144.814H219.244V145.07L214.079 152.74H209.144ZM209.144 137.041H214.079L219.244 144.712V144.968H214.053L209.144 137.041ZM226.786 155.885C225.942 155.885 225.218 155.587 224.613 154.99C224.016 154.385 223.718 153.661 223.718 152.817C223.718 151.982 224.016 151.266 224.613 150.669C225.218 150.073 225.942 149.774 226.786 149.774C227.604 149.774 228.32 150.073 228.934 150.669C229.548 151.266 229.854 151.982 229.854 152.817C229.854 153.379 229.71 153.895 229.42 154.364C229.138 154.824 228.768 155.195 228.308 155.476C227.847 155.749 227.34 155.885 226.786 155.885Z" fill="#B8860B"/>
</svg>
