<svg width="1020" height="113" viewBox="0 0 1020 113" fill="none" xmlns="http://www.w3.org/2000/svg">
<path d="M-0.00284101 1.49112H28.4418L58.4844 74.7866H59.7628L89.8054 1.49112H118.25V110.582H95.8778V39.5771H94.9723L66.7408 110.049H51.5064L23.2749 39.3107H22.3693V110.582H-0.00284101V1.49112ZM237.502 56.0366C237.502 67.9329 235.247 78.0536 230.737 86.3988C226.262 94.744 220.154 101.118 212.413 105.522C204.707 109.89 196.042 112.074 186.419 112.074C176.724 112.074 168.024 109.872 160.318 105.468C152.612 101.065 146.521 94.6907 142.047 86.3455C137.573 78.0004 135.335 67.8974 135.335 56.0366C135.335 44.1403 137.573 34.0195 142.047 25.6744C146.521 17.3292 152.612 10.9727 160.318 6.60476C168.024 2.20135 176.724 -0.000359178 186.419 -0.000359178C196.042 -0.000359178 204.707 2.20135 212.413 6.60476C220.154 10.9727 226.262 17.3292 230.737 25.6744C235.247 34.0195 237.502 44.1403 237.502 56.0366ZM214.117 56.0366C214.117 48.3306 212.963 41.832 210.655 36.5408C208.382 31.2496 205.169 27.2369 201.014 24.5025C196.859 21.7681 191.994 20.4009 186.419 20.4009C180.843 20.4009 175.978 21.7681 171.823 24.5025C167.669 27.2369 164.437 31.2496 162.129 36.5408C159.856 41.832 158.72 48.3306 158.72 56.0366C158.72 63.7425 159.856 70.2411 162.129 75.5323C164.437 80.8235 167.669 84.8363 171.823 87.5707C175.978 90.305 180.843 91.6722 186.419 91.6722C191.994 91.6722 196.859 90.305 201.014 87.5707C205.169 84.8363 208.382 80.8235 210.655 75.5323C212.963 70.2411 214.117 63.7425 214.117 56.0366ZM254.587 110.582V1.49112H277.652V46.5018H324.473V1.49112H347.485V110.582H324.473V65.5181H277.652V110.582H254.587ZM466.75 56.0366C466.75 67.9329 464.495 78.0536 459.985 86.3988C455.51 94.744 449.402 101.118 441.661 105.522C433.955 109.89 425.29 112.074 415.667 112.074C405.972 112.074 397.272 109.872 389.566 105.468C381.86 101.065 375.77 94.6907 371.295 86.3455C366.821 78.0004 364.583 67.8974 364.583 56.0366C364.583 44.1403 366.821 34.0195 371.295 25.6744C375.77 17.3292 381.86 10.9727 389.566 6.60476C397.272 2.20135 405.972 -0.000359178 415.667 -0.000359178C425.29 -0.000359178 433.955 2.20135 441.661 6.60476C449.402 10.9727 455.51 17.3292 459.985 25.6744C464.495 34.0195 466.75 44.1403 466.75 56.0366ZM443.365 56.0366C443.365 48.3306 442.211 41.832 439.903 36.5408C437.63 31.2496 434.417 27.2369 430.262 24.5025C426.107 21.7681 421.242 20.4009 415.667 20.4009C410.091 20.4009 405.226 21.7681 401.071 24.5025C396.917 27.2369 393.685 31.2496 391.377 36.5408C389.104 41.832 387.968 48.3306 387.968 56.0366C387.968 63.7425 389.104 70.2411 391.377 75.5323C393.685 80.8235 396.917 84.8363 401.071 87.5707C405.226 90.305 410.091 91.6722 415.667 91.6722C421.242 91.6722 426.107 90.305 430.262 87.5707C434.417 84.8363 437.63 80.8235 439.903 75.5323C442.211 70.2411 443.365 63.7425 443.365 56.0366ZM576.573 1.49112V110.582H553.775V20.2411H509.67V110.582H486.871V1.49112H576.573ZM698.781 56.0366C698.781 67.9329 696.526 78.0536 692.016 86.3988C687.542 94.744 681.434 101.118 673.692 105.522C665.986 109.89 657.321 112.074 647.698 112.074C638.003 112.074 629.303 109.872 621.597 105.468C613.891 101.065 607.801 94.6907 603.326 86.3455C598.852 78.0004 596.615 67.8974 596.615 56.0366C596.615 44.1403 598.852 34.0195 603.326 25.6744C607.801 17.3292 613.891 10.9727 621.597 6.60476C629.303 2.20135 638.003 -0.000359178 647.698 -0.000359178C657.321 -0.000359178 665.986 2.20135 673.692 6.60476C681.434 10.9727 687.542 17.3292 692.016 25.6744C696.526 34.0195 698.781 44.1403 698.781 56.0366ZM675.397 56.0366C675.397 48.3306 674.243 41.832 671.934 36.5408C669.662 31.2496 666.448 27.2369 662.293 24.5025C658.138 21.7681 653.273 20.4009 647.698 20.4009C642.123 20.4009 637.257 21.7681 633.103 24.5025C628.948 27.2369 625.716 31.2496 623.408 36.5408C621.135 41.832 619.999 48.3306 619.999 56.0366C619.999 63.7425 621.135 70.2411 623.408 75.5323C625.716 80.8235 628.948 84.8363 633.103 87.5707C637.257 90.305 642.123 91.6722 647.698 91.6722C653.273 91.6722 658.138 90.305 662.293 87.5707C666.448 84.8363 669.662 80.8235 671.934 75.5323C674.243 70.2411 675.397 63.7425 675.397 56.0366ZM709.954 110.582V92.0451L713.043 91.7788C717.02 91.4592 720.234 89.9499 722.684 87.2511C725.135 84.5167 726.964 80.1665 728.171 74.2006C729.414 68.1992 730.213 60.1381 730.568 50.0174L732.379 1.49112H806.42V110.582H783.995V19.9748H753.792L752.088 57.9542C751.52 70.1701 750.064 80.1488 747.72 87.8903C745.412 95.6317 741.719 101.349 736.64 105.042C731.598 108.735 724.691 110.582 715.92 110.582H709.954ZM825.437 1.49112H848.448V70.0991H849.354L896.495 1.49112H916.683V110.582H893.618V41.9208H892.819L845.412 110.582H825.437V1.49112ZM1019.48 110.582H996.464V20.3477H980.91C976.471 20.3477 972.778 21.0046 969.83 22.3185C966.918 23.5969 964.734 25.479 963.278 27.9648C961.822 30.4506 961.094 33.5046 961.094 37.1268C961.094 40.7134 961.822 43.7141 963.278 46.1289C964.734 48.5437 966.918 50.3548 969.83 51.5621C972.742 52.7695 976.4 53.3732 980.803 53.3732H1005.84V71.9102H977.075C968.729 71.9102 961.592 70.5252 955.661 67.7553C949.731 64.9854 945.203 61.0082 942.078 55.8235C938.953 50.6033 937.391 44.3711 937.391 37.1268C937.391 29.918 938.918 23.6502 941.972 18.3235C945.061 12.9613 949.518 8.82422 955.342 5.91228C961.201 2.96484 968.25 1.49112 976.489 1.49112H1019.48V110.582ZM960.615 60.9371H985.491L958.964 110.582H933.502L960.615 60.9371Z" fill="#FAF8F3"/>
</svg>
