<svg width="600" height="285" viewBox="0 0 600 285" fill="none" xmlns="http://www.w3.org/2000/svg">
<path d="M10.8132 23.6758H5.87855L0.713778 16.0053V15.7496H5.90412L10.8132 23.6758ZM10.8132 7.97692L5.90412 15.9031H0.713778V15.6474L5.87855 7.97692H10.8132ZM19.2251 23.6758H14.2905L9.12571 16.0053V15.7496H14.3161L19.2251 23.6758ZM19.2251 7.97692L14.3161 15.9031H9.12571V15.6474L14.2905 7.97692H19.2251ZM23.4279 0.306462H30.2546L37.4648 17.8974H37.7717L44.9819 0.306462H51.8086V26.4883H46.4393V9.44709H46.2219L39.4464 26.3604H35.7901L29.0146 9.38317H28.7972V26.4883H23.4279V0.306462ZM65.1392 26.8718C63.1534 26.8718 61.4361 26.4499 59.9872 25.6062C58.5469 24.7539 57.4347 23.5692 56.6506 22.0522C55.8665 20.5266 55.4744 18.7582 55.4744 16.7468C55.4744 14.7184 55.8665 12.9457 56.6506 11.4286C57.4347 9.90305 58.5469 8.71839 59.9872 7.87464C61.4361 7.02237 63.1534 6.59624 65.1392 6.59624C67.125 6.59624 68.8381 7.02237 70.2784 7.87464C71.7273 8.71839 72.8438 9.90305 73.6278 11.4286C74.4119 12.9457 74.804 14.7184 74.804 16.7468C74.804 18.7582 74.4119 20.5266 73.6278 22.0522C72.8438 23.5692 71.7273 24.7539 70.2784 25.6062C68.8381 26.4499 67.125 26.8718 65.1392 26.8718ZM65.1648 22.6531C66.0682 22.6531 66.8224 22.3974 67.4276 21.886C68.0327 21.3661 68.4886 20.6587 68.7955 19.7638C69.1108 18.869 69.2685 17.8505 69.2685 16.7085C69.2685 15.5664 69.1108 14.5479 68.7955 13.6531C68.4886 12.7582 68.0327 12.0508 67.4276 11.5309C66.8224 11.011 66.0682 10.7511 65.1648 10.7511C64.2528 10.7511 63.4858 11.011 62.8636 11.5309C62.25 12.0508 61.7855 12.7582 61.4702 13.6531C61.1634 14.5479 61.0099 15.5664 61.0099 16.7085C61.0099 17.8505 61.1634 18.869 61.4702 19.7638C61.7855 20.6587 62.25 21.3661 62.8636 21.886C63.4858 22.3974 64.2528 22.6531 65.1648 22.6531ZM92.0114 14.4968V18.7795H81.7585V14.4968H92.0114ZM83.5483 6.85192V26.4883H78.3452V6.85192H83.5483ZM95.4247 6.85192V26.4883H90.2599V6.85192H95.4247ZM108.522 26.8718C106.536 26.8718 104.819 26.4499 103.37 25.6062C101.93 24.7539 100.817 23.5692 100.033 22.0522C99.2493 20.5266 98.8572 18.7582 98.8572 16.7468C98.8572 14.7184 99.2493 12.9457 100.033 11.4286C100.817 9.90305 101.93 8.71839 103.37 7.87464C104.819 7.02237 106.536 6.59624 108.522 6.59624C110.508 6.59624 112.221 7.02237 113.661 7.87464C115.11 8.71839 116.227 9.90305 117.011 11.4286C117.795 12.9457 118.187 14.7184 118.187 16.7468C118.187 18.7582 117.795 20.5266 117.011 22.0522C116.227 23.5692 115.11 24.7539 113.661 25.6062C112.221 26.4499 110.508 26.8718 108.522 26.8718ZM108.548 22.6531C109.451 22.6531 110.205 22.3974 110.81 21.886C111.415 21.3661 111.871 20.6587 112.178 19.7638C112.494 18.869 112.651 17.8505 112.651 16.7085C112.651 15.5664 112.494 14.5479 112.178 13.6531C111.871 12.7582 111.415 12.0508 110.81 11.5309C110.205 11.011 109.451 10.7511 108.548 10.7511C107.636 10.7511 106.869 11.011 106.246 11.5309C105.633 12.0508 105.168 12.7582 104.853 13.6531C104.546 14.5479 104.393 15.5664 104.393 16.7085C104.393 17.8505 104.546 18.869 104.853 19.7638C105.168 20.6587 105.633 21.3661 106.246 21.886C106.869 22.3974 107.636 22.6531 108.548 22.6531ZM121.728 26.4883V6.85192H138.897V26.4883H133.694V11.1346H126.867V26.4883H121.728ZM152.116 26.8718C150.13 26.8718 148.413 26.4499 146.964 25.6062C145.523 24.7539 144.411 23.5692 143.627 22.0522C142.843 20.5266 142.451 18.7582 142.451 16.7468C142.451 14.7184 142.843 12.9457 143.627 11.4286C144.411 9.90305 145.523 8.71839 146.964 7.87464C148.413 7.02237 150.13 6.59624 152.116 6.59624C154.102 6.59624 155.815 7.02237 157.255 7.87464C158.704 8.71839 159.82 9.90305 160.604 11.4286C161.388 12.9457 161.781 14.7184 161.781 16.7468C161.781 18.7582 161.388 20.5266 160.604 22.0522C159.82 23.5692 158.704 24.7539 157.255 25.6062C155.815 26.4499 154.102 26.8718 152.116 26.8718ZM152.141 22.6531C153.045 22.6531 153.799 22.3974 154.404 21.886C155.009 21.3661 155.465 20.6587 155.772 19.7638C156.087 18.869 156.245 17.8505 156.245 16.7085C156.245 15.5664 156.087 14.5479 155.772 13.6531C155.465 12.7582 155.009 12.0508 154.404 11.5309C153.799 11.011 153.045 10.7511 152.141 10.7511C151.229 10.7511 150.462 11.011 149.84 11.5309C149.227 12.0508 148.762 12.7582 148.447 13.6531C148.14 14.5479 147.987 15.5664 147.987 16.7085C147.987 17.8505 148.14 18.869 148.447 19.7638C148.762 20.6587 149.227 21.3661 149.84 21.886C150.462 22.3974 151.229 22.6531 152.141 22.6531ZM164.171 26.4883L164.146 22.1673H164.798C165.258 22.1673 165.654 22.0565 165.987 21.8349C166.327 21.6048 166.609 21.234 166.83 20.7227C167.052 20.2113 167.227 19.5337 167.354 18.69C167.482 17.8377 167.567 16.7894 167.61 15.5451L167.93 6.85192H182.862V26.4883H177.671V11.1346H172.826L172.519 17.1303C172.442 18.7752 172.242 20.19 171.918 21.3746C171.603 22.5593 171.164 23.5309 170.602 24.2894C170.039 25.0394 169.362 25.5934 168.569 25.9513C167.776 26.3093 166.856 26.4883 165.808 26.4883H164.171ZM192.287 19.3036L199.356 6.85192H204.725V26.4883H199.535V13.9982L192.491 26.4883H187.083V6.85192H192.287V19.3036ZM220.597 26.4883V11.1218H216.915C215.918 11.1218 215.159 11.3519 214.64 11.8121C214.12 12.2724 213.864 12.8178 213.873 13.4485C213.864 14.0877 214.111 14.6289 214.614 15.0721C215.125 15.5067 215.875 15.7241 216.864 15.7241H222.412V19.4059H216.864C215.185 19.4059 213.732 19.1502 212.505 18.6388C211.277 18.1275 210.331 17.4158 209.667 16.5039C209.002 15.5835 208.674 14.5138 208.682 13.2951C208.674 12.0167 209.002 10.896 209.667 9.93288C210.331 8.96129 211.282 8.20703 212.517 7.6701C213.762 7.12464 215.228 6.85192 216.915 6.85192H225.672V26.4883H220.597ZM208.12 26.4883L213.578 16.261H218.782L213.336 26.4883H208.12ZM229.546 23.6758L234.455 15.7496H239.645V16.0053L234.48 23.6758H229.546ZM229.546 7.97692H234.48L239.645 15.6474V15.9031H234.455L229.546 7.97692ZM238.086 23.6758L242.995 15.7496H248.185V16.0053L243.02 23.6758H238.086ZM238.086 7.97692H243.02L248.185 15.6474V15.9031H242.995L238.086 7.97692ZM276.703 13.5763V17.8974H258.703V13.5763H276.703ZM287.208 33.8519V6.85192H292.578V10.1502H292.821C293.059 9.6218 293.404 9.08487 293.856 8.53942C294.316 7.98544 294.913 7.52521 295.646 7.15874C296.387 6.78374 297.308 6.59624 298.407 6.59624C299.839 6.59624 301.16 6.97124 302.37 7.72124C303.581 8.46271 304.548 9.58345 305.272 11.0835C305.997 12.5749 306.359 14.4457 306.359 16.6957C306.359 18.886 306.005 20.7354 305.298 22.244C304.599 23.744 303.645 24.8817 302.434 25.6573C301.233 26.4244 299.886 26.8079 298.395 26.8079C297.338 26.8079 296.439 26.6332 295.697 26.2837C294.964 25.9343 294.363 25.4954 293.895 24.967C293.426 24.43 293.068 23.8888 292.821 23.3434H292.654V33.8519H287.208ZM292.539 16.6701C292.539 17.8377 292.701 18.8562 293.025 19.7255C293.349 20.5948 293.818 21.2724 294.431 21.7582C295.045 22.2354 295.791 22.4741 296.669 22.4741C297.555 22.4741 298.305 22.2312 298.919 21.7454C299.532 21.2511 299.997 20.5692 300.312 19.6999C300.636 18.8221 300.798 17.8121 300.798 16.6701C300.798 15.5366 300.64 14.5394 300.325 13.6786C300.01 12.8178 299.545 12.1445 298.931 11.6587C298.318 11.1729 297.564 10.93 296.669 10.93C295.782 10.93 295.032 11.1644 294.419 11.6332C293.814 12.1019 293.349 12.7667 293.025 13.6275C292.701 14.4883 292.539 15.5025 292.539 16.6701ZM318.939 26.8718C316.919 26.8718 315.18 26.4627 313.723 25.6445C312.274 24.8178 311.157 23.6502 310.373 22.1417C309.589 20.6246 309.197 18.8306 309.197 16.7596C309.197 14.7397 309.589 12.967 310.373 11.4414C311.157 9.91584 312.261 8.72692 313.684 7.87464C315.116 7.02237 316.795 6.59624 318.721 6.59624C320.017 6.59624 321.223 6.80504 322.339 7.22266C323.464 7.63175 324.444 8.24964 325.279 9.07635C326.123 9.90305 326.779 10.9428 327.248 12.1957C327.717 13.44 327.951 14.8974 327.951 16.5678V18.0636H311.37V14.6886H322.825C322.825 13.9045 322.654 13.2099 322.314 12.6048C321.973 11.9996 321.5 11.5266 320.895 11.1857C320.298 10.8363 319.603 10.6616 318.811 10.6616C317.984 10.6616 317.251 10.8533 316.612 11.2369C315.981 11.6119 315.487 12.119 315.129 12.7582C314.771 13.3888 314.588 14.092 314.579 14.8675V18.0763C314.579 19.0479 314.758 19.8874 315.116 20.5948C315.483 21.3022 315.998 21.8477 316.663 22.2312C317.328 22.6147 318.116 22.8065 319.028 22.8065C319.633 22.8065 320.187 22.7212 320.69 22.5508C321.193 22.3803 321.623 22.1246 321.981 21.7837C322.339 21.4428 322.612 21.0252 322.799 20.5309L327.836 20.8633C327.581 22.0735 327.056 23.1303 326.264 24.0337C325.48 24.9286 324.466 25.6275 323.221 26.1303C321.985 26.6246 320.558 26.8718 318.939 26.8718ZM329.971 32.2411V22.1673H331.48C331.914 21.8945 332.264 21.4599 332.528 20.8633C332.801 20.2667 333.022 19.5636 333.193 18.7539C333.372 17.9442 333.508 17.0707 333.602 16.1332C333.704 15.1871 333.794 14.2326 333.87 13.2695L334.382 6.85192H349.441V22.1673H352.484V32.2411H347.294V26.4883H335.289V32.2411H329.971ZM336.9 22.1673H344.302V11.0451H339.01L338.805 13.2695C338.66 15.3661 338.451 17.1474 338.179 18.6133C337.906 20.0707 337.48 21.2553 336.9 22.1673ZM355.658 26.4883V6.85192H361.104V14.4712H362.638L367.982 6.85192H374.374L367.432 16.5934L374.45 26.4883H367.982L363.136 19.521H361.104V26.4883H355.658ZM381.955 19.3036L389.024 6.85192H394.393V26.4883H389.203V13.9982L382.159 26.4883H376.751V6.85192H381.955V19.3036ZM403.962 19.3036L411.032 6.85192H416.401V26.4883H411.211V13.9982L404.167 26.4883H398.759V6.85192H403.962V19.3036ZM410.099 -0.000356674H413.896C413.887 1.55078 413.312 2.79936 412.17 3.74538C411.036 4.69141 409.502 5.16442 407.567 5.16442C405.624 5.16442 404.086 4.69141 402.952 3.74538C401.819 2.79936 401.252 1.55078 401.252 -0.000356674H405.023C405.015 0.587712 405.202 1.11612 405.586 1.58487C405.978 2.05362 406.638 2.288 407.567 2.288C408.471 2.288 409.119 2.05788 409.511 1.59766C409.903 1.13743 410.099 0.604757 410.099 -0.000356674ZM429.099 26.4883V6.85192H446.268V26.4883H441.065V11.1346H434.238V26.4883H429.099ZM450.615 33.8519V6.85192H455.984V10.1502H456.227C456.466 9.6218 456.811 9.08487 457.262 8.53942C457.723 7.98544 458.319 7.52521 459.052 7.15874C459.794 6.78374 460.714 6.59624 461.814 6.59624C463.245 6.59624 464.566 6.97124 465.777 7.72124C466.987 8.46271 467.954 9.58345 468.679 11.0835C469.403 12.5749 469.765 14.4457 469.765 16.6957C469.765 18.886 469.412 20.7354 468.704 22.244C468.005 23.744 467.051 24.8817 465.841 25.6573C464.639 26.4244 463.292 26.8079 461.801 26.8079C460.744 26.8079 459.845 26.6332 459.103 26.2837C458.37 25.9343 457.77 25.4954 457.301 24.967C456.832 24.43 456.474 23.8888 456.227 23.3434H456.061V33.8519H450.615ZM455.946 16.6701C455.946 17.8377 456.108 18.8562 456.431 19.7255C456.755 20.5948 457.224 21.2724 457.838 21.7582C458.451 22.2354 459.197 22.4741 460.075 22.4741C460.961 22.4741 461.711 22.2312 462.325 21.7454C462.939 21.2511 463.403 20.5692 463.718 19.6999C464.042 18.8221 464.204 17.8121 464.204 16.6701C464.204 15.5366 464.047 14.5394 463.731 13.6786C463.416 12.8178 462.951 12.1445 462.338 11.6587C461.724 11.1729 460.97 10.93 460.075 10.93C459.189 10.93 458.439 11.1644 457.825 11.6332C457.22 12.1019 456.755 12.7667 456.431 13.6275C456.108 14.4883 455.946 15.5025 455.946 16.6701ZM478.599 19.3036L485.669 6.85192H491.038V26.4883H485.848V13.9982L478.804 26.4883H473.396V6.85192H478.599V19.3036ZM507.012 20.467L512.33 6.85192H516.472L508.814 26.4883H505.196L497.718 6.85192H501.847L507.012 20.467ZM500.607 6.85192V26.4883H495.404V6.85192H500.607ZM513.685 26.4883V6.85192H518.824V26.4883H513.685ZM531.985 26.8718C529.966 26.8718 528.227 26.4627 526.77 25.6445C525.321 24.8178 524.204 23.6502 523.42 22.1417C522.636 20.6246 522.244 18.8306 522.244 16.7596C522.244 14.7397 522.636 12.967 523.42 11.4414C524.204 9.91584 525.308 8.72692 526.731 7.87464C528.163 7.02237 529.842 6.59624 531.768 6.59624C533.064 6.59624 534.27 6.80504 535.386 7.22266C536.511 7.63175 537.491 8.24964 538.326 9.07635C539.17 9.90305 539.826 10.9428 540.295 12.1957C540.764 13.44 540.998 14.8974 540.998 16.5678V18.0636H524.417V14.6886H535.872C535.872 13.9045 535.701 13.2099 535.36 12.6048C535.02 11.9996 534.547 11.5266 533.941 11.1857C533.345 10.8363 532.65 10.6616 531.858 10.6616C531.031 10.6616 530.298 10.8533 529.659 11.2369C529.028 11.6119 528.534 12.119 528.176 12.7582C527.818 13.3888 527.635 14.092 527.626 14.8675V18.0763C527.626 19.0479 527.805 19.8874 528.163 20.5948C528.529 21.3022 529.045 21.8477 529.71 22.2312C530.375 22.6147 531.163 22.8065 532.075 22.8065C532.68 22.8065 533.234 22.7212 533.737 22.5508C534.24 22.3803 534.67 22.1246 535.028 21.7837C535.386 21.4428 535.659 21.0252 535.846 20.5309L540.883 20.8633C540.627 22.0735 540.103 23.1303 539.311 24.0337C538.527 24.9286 537.512 25.6275 536.268 26.1303C535.032 26.6246 533.605 26.8718 531.985 26.8718ZM544.552 33.8519V6.85192H549.922V10.1502H550.164C550.403 9.6218 550.748 9.08487 551.2 8.53942C551.66 7.98544 552.257 7.52521 552.99 7.15874C553.731 6.78374 554.652 6.59624 555.751 6.59624C557.183 6.59624 558.504 6.97124 559.714 7.72124C560.924 8.46271 561.892 9.58345 562.616 11.0835C563.341 12.5749 563.703 14.4457 563.703 16.6957C563.703 18.886 563.349 20.7354 562.642 22.244C561.943 23.744 560.988 24.8817 559.778 25.6573C558.576 26.4244 557.23 26.8079 555.738 26.8079C554.681 26.8079 553.782 26.6332 553.041 26.2837C552.308 25.9343 551.707 25.4954 551.238 24.967C550.77 24.43 550.412 23.8888 550.164 23.3434H549.998V33.8519H544.552ZM549.883 16.6701C549.883 17.8377 550.045 18.8562 550.369 19.7255C550.693 20.5948 551.162 21.2724 551.775 21.7582C552.389 22.2354 553.135 22.4741 554.012 22.4741C554.899 22.4741 555.649 22.2312 556.262 21.7454C556.876 21.2511 557.341 20.5692 557.656 19.6999C557.98 18.8221 558.142 17.8121 558.142 16.6701C558.142 15.5366 557.984 14.5394 557.669 13.6786C557.353 12.8178 556.889 12.1445 556.275 11.6587C555.662 11.1729 554.907 10.93 554.012 10.93C553.126 10.93 552.376 11.1644 551.762 11.6332C551.157 12.1019 550.693 12.7667 550.369 13.6275C550.045 14.4883 549.883 15.5025 549.883 16.6701ZM5.99361 62.3036L13.0632 49.8519H18.4325V69.4883H13.2422V56.9982L6.19815 69.4883H0.790483V49.8519H5.99361V62.3036ZM36.2472 49.8519V54.1346H28.0909V69.4883H22.7983V49.8519H36.2472ZM39.5678 76.8519V49.8519H44.9371V53.1502H45.18C45.4187 52.6218 45.7638 52.0849 46.2156 51.5394C46.6758 50.9854 47.2724 50.5252 48.0053 50.1587C48.7468 49.7837 49.6673 49.5962 50.7667 49.5962C52.1985 49.5962 53.5195 49.9712 54.7298 50.7212C55.94 51.4627 56.9073 52.5835 57.6317 54.0835C58.3562 55.5749 58.7184 57.4457 58.7184 59.6957C58.7184 61.886 58.3647 63.7354 57.6573 65.244C56.9585 66.744 56.0039 67.8817 54.7937 68.6573C53.592 69.4244 52.2454 69.8079 50.7539 69.8079C49.6971 69.8079 48.7979 69.6332 48.0565 69.2837C47.3235 68.9343 46.7227 68.4954 46.2539 67.967C45.7852 67.43 45.4272 66.8888 45.18 66.3434H45.0138V76.8519H39.5678ZM44.8988 59.6701C44.8988 60.8377 45.0607 61.8562 45.3846 62.7255C45.7085 63.5948 46.1772 64.2724 46.7908 64.7582C47.4045 65.2354 48.1502 65.4741 49.0281 65.4741C49.9144 65.4741 50.6644 65.2312 51.2781 64.7454C51.8917 64.2511 52.3562 63.5692 52.6715 62.6999C52.9954 61.8221 53.1573 60.8121 53.1573 59.6701C53.1573 58.5366 52.9996 57.5394 52.6843 56.6786C52.369 55.8178 51.9045 55.1445 51.2908 54.6587C50.6772 54.1729 49.9229 53.93 49.0281 53.93C48.1417 53.93 47.3917 54.1644 46.7781 54.6332C46.1729 55.1019 45.7085 55.7667 45.3846 56.6275C45.0607 57.4883 44.8988 58.5025 44.8988 59.6701ZM65.7624 55.886H71.6303C74.2298 55.886 76.2582 56.5082 77.7156 57.7525C79.1729 58.9883 79.9016 60.6417 79.9016 62.7127C79.9016 64.0593 79.5735 65.244 78.9173 66.2667C78.261 67.2809 77.315 68.0735 76.0792 68.6445C74.8434 69.207 73.3604 69.4883 71.6303 69.4883H62.3491V49.8519H67.5522V65.2056H71.6303C72.5423 65.2056 73.2923 64.9755 73.8803 64.5153C74.4684 64.055 74.7667 63.467 74.7752 62.7511C74.7667 61.9925 74.4684 61.3746 73.8803 60.8974C73.2923 60.4116 72.5423 60.1687 71.6303 60.1687H65.7624V55.886ZM82.011 69.4883V49.8519H87.457V69.4883H82.011ZM97.729 65.9087L97.5884 67.315C97.4776 68.44 97.2646 69.5607 96.9492 70.6772C96.6424 71.8022 96.3185 72.8207 95.9776 73.7326C95.6452 74.6445 95.3768 75.3604 95.1722 75.8803H91.6438C91.7717 75.3775 91.9464 74.6744 92.168 73.771C92.3896 72.8761 92.5984 71.8704 92.7944 70.7539C92.9904 69.6374 93.114 68.4996 93.1651 67.3406L93.229 65.9087H97.729ZM109.81 69.4883V49.8519H118.184C120.604 49.8519 122.517 50.3121 123.924 51.2326C125.33 52.1531 126.033 53.4613 126.033 55.1573C126.033 56.2227 125.637 57.109 124.844 57.8164C124.051 58.5238 122.952 59.0011 121.546 59.2482C122.722 59.3335 123.723 59.6019 124.55 60.0536C125.385 60.4968 126.02 61.0721 126.455 61.7795C126.898 62.4869 127.12 63.271 127.12 64.1317C127.12 65.2482 126.821 66.207 126.225 67.0082C125.637 67.8093 124.772 68.4229 123.63 68.8491C122.496 69.2752 121.111 69.4883 119.475 69.4883H109.81ZM114.885 65.4102H119.475C120.233 65.4102 120.826 65.2312 121.252 64.8732C121.686 64.5067 121.904 64.0082 121.904 63.3775C121.904 62.6786 121.686 62.1289 121.252 61.7283C120.826 61.3278 120.233 61.1275 119.475 61.1275H114.885V65.4102ZM114.885 57.9315H118.299C118.844 57.9315 119.309 57.8548 119.692 57.7013C120.084 57.5394 120.382 57.3093 120.587 57.011C120.8 56.7127 120.907 56.359 120.907 55.9499C120.907 55.3448 120.664 54.8718 120.178 54.5309C119.692 54.19 119.027 54.0195 118.184 54.0195H114.885V57.9315ZM139.424 69.8718C137.439 69.8718 135.721 69.4499 134.272 68.6062C132.832 67.7539 131.72 66.5692 130.936 65.0522C130.152 63.5266 129.76 61.7582 129.76 59.7468C129.76 57.7184 130.152 55.9457 130.936 54.4286C131.72 52.9031 132.832 51.7184 134.272 50.8746C135.721 50.0224 137.439 49.5962 139.424 49.5962C141.41 49.5962 143.123 50.0224 144.564 50.8746C146.012 51.7184 147.129 52.9031 147.913 54.4286C148.697 55.9457 149.089 57.7184 149.089 59.7468C149.089 61.7582 148.697 63.5266 147.913 65.0522C147.129 66.5692 146.012 67.7539 144.564 68.6062C143.123 69.4499 141.41 69.8718 139.424 69.8718ZM139.45 65.6531C140.353 65.6531 141.108 65.3974 141.713 64.886C142.318 64.3661 142.774 63.6587 143.081 62.7638C143.396 61.869 143.554 60.8505 143.554 59.7085C143.554 58.5664 143.396 57.5479 143.081 56.6531C142.774 55.7582 142.318 55.0508 141.713 54.5309C141.108 54.011 140.353 53.7511 139.45 53.7511C138.538 53.7511 137.771 54.011 137.149 54.5309C136.535 55.0508 136.071 55.7582 135.755 56.6531C135.449 57.5479 135.295 58.5664 135.295 59.7085C135.295 60.8505 135.449 61.869 135.755 62.7638C136.071 63.6587 136.535 64.3661 137.149 64.886C137.771 65.3974 138.538 65.6531 139.45 65.6531ZM151.62 63.9272H156.9C156.926 64.5749 157.216 65.0863 157.77 65.4613C158.324 65.8363 159.039 66.0238 159.917 66.0238C160.804 66.0238 161.549 65.8192 162.154 65.4102C162.76 64.9925 163.062 64.396 163.062 63.6204C163.062 63.1431 162.943 62.7298 162.704 62.3803C162.466 62.0224 162.133 61.7411 161.707 61.5366C161.281 61.332 160.787 61.2298 160.224 61.2298H157.399V57.663H160.224C161.068 57.663 161.716 57.467 162.167 57.0749C162.627 56.6829 162.858 56.1928 162.858 55.6048C162.858 54.94 162.619 54.4073 162.142 54.0067C161.673 53.5977 161.038 53.3931 160.237 53.3931C159.427 53.3931 158.754 53.5763 158.217 53.9428C157.689 54.3008 157.416 54.7695 157.399 55.3491H152.145C152.162 54.1729 152.515 53.1545 153.206 52.2937C153.904 51.4329 154.842 50.7681 156.018 50.2994C157.203 49.8306 158.528 49.5962 159.994 49.5962C161.596 49.5962 162.977 49.8221 164.136 50.2738C165.304 50.717 166.199 51.3519 166.821 52.1786C167.451 53.0053 167.767 53.9897 167.767 55.1317C167.767 56.1715 167.426 57.0408 166.744 57.7397C166.062 58.4386 165.108 58.9371 163.88 59.2354V59.44C164.69 59.4911 165.423 59.7085 166.079 60.092C166.735 60.4755 167.26 61.0039 167.652 61.6772C168.044 62.342 168.24 63.1303 168.24 64.0423C168.24 65.261 167.882 66.305 167.166 67.1744C166.458 68.0437 165.478 68.7127 164.225 69.1815C162.981 69.6417 161.554 69.8718 159.943 69.8718C158.375 69.8718 156.968 69.646 155.724 69.1942C154.488 68.734 153.504 68.0607 152.771 67.1744C152.047 66.288 151.663 65.2056 151.62 63.9272ZM185.246 57.4968V61.7795H174.993V57.4968H185.246ZM176.783 49.8519V69.4883H171.58V49.8519H176.783ZM188.659 49.8519V69.4883H183.494V49.8519H188.659ZM198.087 62.3036L205.157 49.8519H210.526V69.4883H205.336V56.9982L198.292 69.4883H192.884V49.8519H198.087V62.3036ZM214.892 69.4883V49.8519H220.338V57.4712H221.872L227.216 49.8519H233.608L226.666 59.5934L233.685 69.4883H227.216L222.371 62.521H220.338V69.4883H214.892ZM235.986 49.8519H241.189V65.1673H246.724V49.8519H251.928V65.1673H257.463V49.8519H262.666V69.4883H235.986V49.8519ZM275.837 69.8718C273.817 69.8718 272.078 69.4627 270.621 68.6445C269.172 67.8178 268.056 66.6502 267.272 65.1417C266.488 63.6246 266.096 61.8306 266.096 59.7596C266.096 57.7397 266.488 55.967 267.272 54.4414C268.056 52.9158 269.159 51.7269 270.583 50.8746C272.015 50.0224 273.694 49.5962 275.62 49.5962C276.915 49.5962 278.121 49.805 279.238 50.2227C280.363 50.6317 281.343 51.2496 282.178 52.0763C283.022 52.9031 283.678 53.9428 284.147 55.1957C284.615 56.44 284.85 57.8974 284.85 59.5678V61.0636H268.269V57.6886H279.723C279.723 56.9045 279.553 56.2099 279.212 55.6048C278.871 54.9996 278.398 54.5266 277.793 54.1857C277.196 53.8363 276.502 53.6616 275.709 53.6616C274.882 53.6616 274.15 53.8533 273.51 54.2369C272.88 54.6119 272.385 55.119 272.027 55.7582C271.669 56.3888 271.486 57.092 271.478 57.8675V61.0763C271.478 62.0479 271.657 62.8874 272.015 63.5948C272.381 64.3022 272.897 64.8477 273.561 65.2312C274.226 65.6147 275.015 65.8065 275.926 65.8065C276.532 65.8065 277.086 65.7212 277.588 65.5508C278.091 65.3803 278.522 65.1246 278.88 64.7837C279.238 64.4428 279.51 64.0252 279.698 63.5309L284.735 63.8633C284.479 65.0735 283.955 66.1303 283.162 67.0337C282.378 67.9286 281.364 68.6275 280.12 69.1303C278.884 69.6246 277.456 69.8718 275.837 69.8718ZM293.607 62.3036L300.676 49.8519H306.046V69.4883H300.855V56.9982L293.811 69.4883H288.404V49.8519H293.607V62.3036ZM299.743 42.9996H303.54C303.532 44.5508 302.956 45.7994 301.814 46.7454C300.681 47.6914 299.147 48.1644 297.212 48.1644C295.269 48.1644 293.73 47.6914 292.597 46.7454C291.463 45.7994 290.897 44.5508 290.897 42.9996H294.668C294.659 43.5877 294.847 44.1161 295.23 44.5849C295.623 45.0536 296.283 45.288 297.212 45.288C298.115 45.288 298.763 45.0579 299.155 44.5977C299.547 44.1374 299.743 43.6048 299.743 42.9996ZM0.790483 112.488V92.8519H6.23651V100.471H7.7706L13.1143 92.8519H19.5064L12.5646 102.593L19.5831 112.488H13.1143L8.26918 105.521H6.23651V112.488H0.790483ZM27.4837 112.859C26.2308 112.859 25.1143 112.642 24.1342 112.207C23.1541 111.764 22.3786 111.112 21.8075 110.251C21.245 109.382 20.9638 108.299 20.9638 107.004C20.9638 105.913 21.1641 104.997 21.5646 104.255C21.9652 103.514 22.5107 102.917 23.201 102.466C23.8913 102.014 24.6754 101.673 25.5533 101.443C26.4396 101.213 27.3686 101.051 28.3402 100.957C29.4822 100.838 30.4027 100.727 31.1016 100.625C31.8004 100.514 32.3075 100.352 32.6229 100.139C32.9382 99.9258 33.0959 99.6104 33.0959 99.1928V99.1161C33.0959 98.3065 32.8402 97.68 32.3288 97.2369C31.826 96.7937 31.1101 96.5721 30.1811 96.5721C29.201 96.5721 28.4212 96.7894 27.8416 97.2241C27.2621 97.6502 26.8786 98.1871 26.6911 98.8349L21.6541 98.4258C21.9098 97.2326 22.4126 96.2013 23.1626 95.332C23.9126 94.4542 24.88 93.7809 26.0646 93.3121C27.2578 92.8349 28.6385 92.5962 30.2067 92.5962C31.2976 92.5962 32.3416 92.7241 33.3388 92.9798C34.3445 93.2354 35.2351 93.6317 36.0107 94.1687C36.7947 94.7056 37.4126 95.396 37.8643 96.2397C38.3161 97.0749 38.5419 98.0763 38.5419 99.244V112.488H33.3771V109.765H33.2237C32.9084 110.379 32.4865 110.92 31.9581 111.389C31.4297 111.849 30.7947 112.211 30.0533 112.475C29.3118 112.731 28.4553 112.859 27.4837 112.859ZM29.0433 109.1C29.8445 109.1 30.5518 108.943 31.1655 108.627C31.7791 108.304 32.2607 107.869 32.6101 107.324C32.9595 106.778 33.1342 106.16 33.1342 105.47V103.386C32.9638 103.497 32.7294 103.599 32.4311 103.693C32.1413 103.778 31.8132 103.859 31.4467 103.936C31.0803 104.004 30.7138 104.068 30.3473 104.127C29.9808 104.179 29.6484 104.225 29.3501 104.268C28.7109 104.362 28.1527 104.511 27.6754 104.716C27.1982 104.92 26.8274 105.197 26.5632 105.547C26.299 105.887 26.1669 106.314 26.1669 106.825C26.1669 107.566 26.4354 108.133 26.9723 108.525C27.5178 108.909 28.2081 109.1 29.0433 109.1ZM42.767 112.488V92.8519H48.2131V100.471H49.7472L55.0909 92.8519H61.483L54.5412 102.593L61.5597 112.488H55.0909L50.2457 105.521H48.2131V112.488H42.767ZM81.065 112.872C79.0536 112.872 77.3235 112.446 75.8746 111.593C74.4343 110.733 73.3263 109.539 72.5508 108.014C71.7837 106.488 71.4002 104.733 71.4002 102.747C71.4002 100.735 71.788 98.9712 72.5636 97.4542C73.3477 95.9286 74.4599 94.7397 75.9002 93.8874C77.3406 93.0266 79.0536 92.5962 81.0394 92.5962C82.7525 92.5962 84.2525 92.9073 85.5394 93.5295C86.8263 94.1516 87.8448 95.0252 88.5948 96.1502C89.3448 97.2752 89.7582 98.5962 89.8349 100.113H84.6957C84.5508 99.1332 84.1673 98.3448 83.5451 97.7482C82.9315 97.1431 82.1261 96.8406 81.1289 96.8406C80.2852 96.8406 79.5479 97.0707 78.9173 97.5309C78.2951 97.9826 77.8093 98.6431 77.4599 99.5124C77.1104 100.382 76.9357 101.434 76.9357 102.67C76.9357 103.923 77.1062 104.988 77.4471 105.866C77.7965 106.744 78.2866 107.413 78.9173 107.873C79.5479 108.333 80.2852 108.564 81.1289 108.564C81.7511 108.564 82.3093 108.436 82.8036 108.18C83.3065 107.924 83.7198 107.554 84.0437 107.068C84.3761 106.574 84.5934 105.981 84.6957 105.291H89.8349C89.7496 106.791 89.3406 108.112 88.6076 109.254C87.8832 110.387 86.8817 111.274 85.6033 111.913C84.3249 112.552 82.8121 112.872 81.065 112.872ZM102.194 112.872C100.208 112.872 98.4908 112.45 97.0419 111.606C95.6016 110.754 94.4893 109.569 93.7053 108.052C92.9212 106.527 92.5291 104.758 92.5291 102.747C92.5291 100.718 92.9212 98.9457 93.7053 97.4286C94.4893 95.9031 95.6016 94.7184 97.0419 93.8746C98.4908 93.0224 100.208 92.5962 102.194 92.5962C104.18 92.5962 105.893 93.0224 107.333 93.8746C108.782 94.7184 109.898 95.9031 110.683 97.4286C111.467 98.9457 111.859 100.718 111.859 102.747C111.859 104.758 111.467 106.527 110.683 108.052C109.898 109.569 108.782 110.754 107.333 111.606C105.893 112.45 104.18 112.872 102.194 112.872ZM102.219 108.653C103.123 108.653 103.877 108.397 104.482 107.886C105.087 107.366 105.543 106.659 105.85 105.764C106.165 104.869 106.323 103.85 106.323 102.708C106.323 101.566 106.165 100.548 105.85 99.6531C105.543 98.7582 105.087 98.0508 104.482 97.5309C103.877 97.011 103.123 96.7511 102.219 96.7511C101.308 96.7511 100.54 97.011 99.9183 97.5309C99.3047 98.0508 98.8402 98.7582 98.5249 99.6531C98.218 100.548 98.0646 101.566 98.0646 102.708C98.0646 103.85 98.218 104.869 98.5249 105.764C98.8402 106.659 99.3047 107.366 99.9183 107.886C100.54 108.397 101.308 108.653 102.219 108.653ZM132.569 92.8519V108.73H135.701V118.804H130.408V112.488H115.4V92.8519H120.603V108.206H127.43V92.8519H132.569ZM144.263 105.304L151.333 92.8519H156.702V112.488H151.512V99.9982L144.468 112.488H139.06V92.8519H144.263V105.304ZM166.667 112.859C165.414 112.859 164.298 112.642 163.318 112.207C162.338 111.764 161.562 111.112 160.991 110.251C160.429 109.382 160.147 108.299 160.147 107.004C160.147 105.913 160.348 104.997 160.748 104.255C161.149 103.514 161.694 102.917 162.385 102.466C163.075 102.014 163.859 101.673 164.737 101.443C165.623 101.213 166.552 101.051 167.524 100.957C168.666 100.838 169.586 100.727 170.285 100.625C170.984 100.514 171.491 100.352 171.806 100.139C172.122 99.9258 172.279 99.6104 172.279 99.1928V99.1161C172.279 98.3065 172.024 97.68 171.512 97.2369C171.01 96.7937 170.294 96.5721 169.365 96.5721C168.385 96.5721 167.605 96.7894 167.025 97.2241C166.446 97.6502 166.062 98.1871 165.875 98.8349L160.838 98.4258C161.093 97.2326 161.596 96.2013 162.346 95.332C163.096 94.4542 164.064 93.7809 165.248 93.3121C166.441 92.8349 167.822 92.5962 169.39 92.5962C170.481 92.5962 171.525 92.7241 172.522 92.9798C173.528 93.2354 174.419 93.6317 175.194 94.1687C175.978 94.7056 176.596 95.396 177.048 96.2397C177.5 97.0749 177.725 98.0763 177.725 99.244V112.488H172.561V109.765H172.407C172.092 110.379 171.67 110.92 171.142 111.389C170.613 111.849 169.978 112.211 169.237 112.475C168.495 112.731 167.639 112.859 166.667 112.859ZM168.227 109.1C169.028 109.1 169.735 108.943 170.349 108.627C170.963 108.304 171.444 107.869 171.794 107.324C172.143 106.778 172.318 106.16 172.318 105.47V103.386C172.147 103.497 171.913 103.599 171.615 103.693C171.325 103.778 170.997 103.859 170.63 103.936C170.264 104.004 169.897 104.068 169.531 104.127C169.164 104.179 168.832 104.225 168.534 104.268C167.895 104.362 167.336 104.511 166.859 104.716C166.382 104.92 166.011 105.197 165.747 105.547C165.483 105.887 165.35 106.314 165.35 106.825C165.35 107.566 165.619 108.133 166.156 108.525C166.701 108.909 167.392 109.1 168.227 109.1ZM180.8 112.488L180.775 108.167H181.426C181.887 108.167 182.283 108.056 182.615 107.835C182.956 107.605 183.238 107.234 183.459 106.723C183.681 106.211 183.855 105.534 183.983 104.69C184.111 103.838 184.196 102.789 184.239 101.545L184.559 92.8519H199.49V112.488H194.3V97.1346H189.455L189.148 103.13C189.071 104.775 188.871 106.19 188.547 107.375C188.232 108.559 187.793 109.531 187.23 110.289C186.668 111.039 185.99 111.593 185.198 111.951C184.405 112.309 183.485 112.488 182.436 112.488H180.8ZM207.126 98.886H212.994C215.593 98.886 217.621 99.5082 219.079 100.752C220.536 101.988 221.265 103.642 221.265 105.713C221.265 107.059 220.937 108.244 220.281 109.267C219.624 110.281 218.678 111.074 217.442 111.645C216.207 112.207 214.724 112.488 212.994 112.488H203.712V92.8519H208.915V108.206H212.994C213.906 108.206 214.656 107.975 215.244 107.515C215.832 107.055 216.13 106.467 216.138 105.751C216.13 104.993 215.832 104.375 215.244 103.897C214.656 103.412 213.906 103.169 212.994 103.169H207.126V98.886ZM238.543 100.497V104.779H228.29V100.497H238.543ZM230.08 92.8519V112.488H224.876V92.8519H230.08ZM241.956 92.8519V112.488H236.791V92.8519H241.956ZM251.781 112.859C250.528 112.859 249.411 112.642 248.431 112.207C247.451 111.764 246.675 111.112 246.104 110.251C245.542 109.382 245.261 108.299 245.261 107.004C245.261 105.913 245.461 104.997 245.862 104.255C246.262 103.514 246.808 102.917 247.498 102.466C248.188 102.014 248.972 101.673 249.85 101.443C250.737 101.213 251.665 101.051 252.637 100.957C253.779 100.838 254.7 100.727 255.398 100.625C256.097 100.514 256.604 100.352 256.92 100.139C257.235 99.9258 257.393 99.6104 257.393 99.1928V99.1161C257.393 98.3065 257.137 97.68 256.626 97.2369C256.123 96.7937 255.407 96.5721 254.478 96.5721C253.498 96.5721 252.718 96.7894 252.138 97.2241C251.559 97.6502 251.175 98.1871 250.988 98.8349L245.951 98.4258C246.207 97.2326 246.71 96.2013 247.46 95.332C248.21 94.4542 249.177 93.7809 250.362 93.3121C251.555 92.8349 252.935 92.5962 254.504 92.5962C255.594 92.5962 256.638 92.7241 257.636 92.9798C258.641 93.2354 259.532 93.6317 260.308 94.1687C261.092 94.7056 261.71 95.396 262.161 96.2397C262.613 97.0749 262.839 98.0763 262.839 99.244V112.488H257.674V109.765H257.521C257.205 110.379 256.783 110.92 256.255 111.389C255.727 111.849 255.092 112.211 254.35 112.475C253.609 112.731 252.752 112.859 251.781 112.859ZM253.34 109.1C254.141 109.1 254.849 108.943 255.462 108.627C256.076 108.304 256.558 107.869 256.907 107.324C257.256 106.778 257.431 106.16 257.431 105.47V103.386C257.261 103.497 257.026 103.599 256.728 103.693C256.438 103.778 256.11 103.859 255.744 103.936C255.377 104.004 255.011 104.068 254.644 104.127C254.278 104.179 253.945 104.225 253.647 104.268C253.008 104.362 252.45 104.511 251.972 104.716C251.495 104.92 251.124 105.197 250.86 105.547C250.596 105.887 250.464 106.314 250.464 106.825C250.464 107.566 250.732 108.133 251.269 108.525C251.815 108.909 252.505 109.1 253.34 109.1ZM278.57 112.488V97.1218H274.888C273.891 97.1218 273.132 97.3519 272.612 97.8121C272.092 98.2724 271.837 98.8178 271.845 99.4485C271.837 100.088 272.084 100.629 272.587 101.072C273.098 101.507 273.848 101.724 274.837 101.724H280.385V105.406H274.837C273.158 105.406 271.705 105.15 270.477 104.639C269.25 104.127 268.304 103.416 267.639 102.504C266.974 101.583 266.646 100.514 266.655 99.2951C266.646 98.0167 266.974 96.896 267.639 95.9329C268.304 94.9613 269.254 94.207 270.49 93.6701C271.734 93.1246 273.2 92.8519 274.888 92.8519H283.645V112.488H278.57ZM266.092 112.488L271.551 102.261H276.754L271.308 112.488H266.092ZM296.208 112.488V92.8519H301.654V100.471H303.189L308.532 92.8519H314.924L307.983 102.593L315.001 112.488H308.532L303.687 105.521H301.654V112.488H296.208ZM317.302 119.852V92.8519H322.672V96.1502H322.914C323.153 95.6218 323.498 95.0849 323.95 94.5394C324.41 93.9854 325.007 93.5252 325.74 93.1587C326.481 92.7837 327.402 92.5962 328.501 92.5962C329.933 92.5962 331.254 92.9712 332.464 93.7212C333.674 94.4627 334.642 95.5835 335.366 97.0835C336.091 98.5749 336.453 100.446 336.453 102.696C336.453 104.886 336.099 106.735 335.392 108.244C334.693 109.744 333.738 110.882 332.528 111.657C331.326 112.424 329.98 112.808 328.488 112.808C327.431 112.808 326.532 112.633 325.791 112.284C325.058 111.934 324.457 111.495 323.988 110.967C323.52 110.43 323.162 109.889 322.914 109.343H322.748V119.852H317.302ZM322.633 102.67C322.633 103.838 322.795 104.856 323.119 105.725C323.443 106.595 323.912 107.272 324.525 107.758C325.139 108.235 325.885 108.474 326.762 108.474C327.649 108.474 328.399 108.231 329.012 107.745C329.626 107.251 330.091 106.569 330.406 105.7C330.73 104.822 330.892 103.812 330.892 102.67C330.892 101.537 330.734 100.539 330.419 99.6786C330.103 98.8178 329.639 98.1445 329.025 97.6587C328.412 97.1729 327.657 96.93 326.762 96.93C325.876 96.93 325.126 97.1644 324.512 97.6332C323.907 98.1019 323.443 98.7667 323.119 99.6275C322.795 100.488 322.633 101.502 322.633 102.67ZM345.287 105.304L352.356 92.8519H357.725V112.488H352.535V99.9982L345.491 112.488H340.083V92.8519H345.287V105.304ZM360.119 97.1346V92.8519H377.915V97.1346H371.587V112.488H366.396V97.1346H360.119ZM386.419 105.304L393.489 92.8519H398.858V112.488H393.668V99.9982L386.624 112.488H381.216V92.8519H386.419V105.304ZM403.224 112.488V92.8519H408.67V100.471H410.204L415.548 92.8519H421.94L414.998 102.593L422.017 112.488H415.548L410.703 105.521H408.67V112.488H403.224ZM429.917 112.859C428.664 112.859 427.548 112.642 426.568 112.207C425.588 111.764 424.812 111.112 424.241 110.251C423.679 109.382 423.397 108.299 423.397 107.004C423.397 105.913 423.598 104.997 423.998 104.255C424.399 103.514 424.944 102.917 425.635 102.466C426.325 102.014 427.109 101.673 427.987 101.443C428.873 101.213 429.802 101.051 430.774 100.957C431.916 100.838 432.836 100.727 433.535 100.625C434.234 100.514 434.741 100.352 435.056 100.139C435.372 99.9258 435.529 99.6104 435.529 99.1928V99.1161C435.529 98.3065 435.274 97.68 434.762 97.2369C434.26 96.7937 433.544 96.5721 432.615 96.5721C431.635 96.5721 430.855 96.7894 430.275 97.2241C429.696 97.6502 429.312 98.1871 429.125 98.8349L424.088 98.4258C424.343 97.2326 424.846 96.2013 425.596 95.332C426.346 94.4542 427.314 93.7809 428.498 93.3121C429.691 92.8349 431.072 92.5962 432.64 92.5962C433.731 92.5962 434.775 92.7241 435.772 92.9798C436.778 93.2354 437.669 93.6317 438.444 94.1687C439.228 94.7056 439.846 95.396 440.298 96.2397C440.75 97.0749 440.975 98.0763 440.975 99.244V112.488H435.811V109.765H435.657C435.342 110.379 434.92 110.92 434.392 111.389C433.863 111.849 433.228 112.211 432.487 112.475C431.745 112.731 430.889 112.859 429.917 112.859ZM431.477 109.1C432.278 109.1 432.985 108.943 433.599 108.627C434.213 108.304 434.694 107.869 435.044 107.324C435.393 106.778 435.568 106.16 435.568 105.47V103.386C435.397 103.497 435.163 103.599 434.865 103.693C434.575 103.778 434.247 103.859 433.88 103.936C433.514 104.004 433.147 104.068 432.781 104.127C432.414 104.179 432.082 104.225 431.784 104.268C431.145 104.362 430.586 104.511 430.109 104.716C429.632 104.92 429.261 105.197 428.997 105.547C428.733 105.887 428.6 106.314 428.6 106.825C428.6 107.566 428.869 108.133 429.406 108.525C429.951 108.909 430.642 109.1 431.477 109.1ZM451.12 108.909L450.979 110.315C450.868 111.44 450.655 112.561 450.34 113.677C450.033 114.802 449.709 115.821 449.368 116.733C449.036 117.645 448.767 118.36 448.563 118.88H445.034C445.162 118.377 445.337 117.674 445.559 116.771C445.78 115.876 445.989 114.87 446.185 113.754C446.381 112.637 446.505 111.5 446.556 110.341L446.62 108.909H451.12ZM14.4567 143.497V147.779H4.20384V143.497H14.4567ZM5.99361 135.852V155.488H0.790483V135.852H5.99361ZM17.87 135.852V155.488H12.7053V135.852H17.87ZM30.9673 155.872C28.9815 155.872 27.2642 155.45 25.8153 154.606C24.375 153.754 23.2628 152.569 22.4787 151.052C21.6946 149.527 21.3026 147.758 21.3026 145.747C21.3026 143.718 21.6946 141.946 22.4787 140.429C23.2628 138.903 24.375 137.718 25.8153 136.875C27.2642 136.022 28.9815 135.596 30.9673 135.596C32.9531 135.596 34.6662 136.022 36.1065 136.875C37.5554 137.718 38.6719 138.903 39.456 140.429C40.2401 141.946 40.6321 143.718 40.6321 145.747C40.6321 147.758 40.2401 149.527 39.456 151.052C38.6719 152.569 37.5554 153.754 36.1065 154.606C34.6662 155.45 32.9531 155.872 30.9673 155.872ZM30.9929 151.653C31.8963 151.653 32.6506 151.397 33.2557 150.886C33.8608 150.366 34.3168 149.659 34.6236 148.764C34.9389 147.869 35.0966 146.85 35.0966 145.708C35.0966 144.566 34.9389 143.548 34.6236 142.653C34.3168 141.758 33.8608 141.051 33.2557 140.531C32.6506 140.011 31.8963 139.751 30.9929 139.751C30.081 139.751 29.3139 140.011 28.6918 140.531C28.0781 141.051 27.6136 141.758 27.2983 142.653C26.9915 143.548 26.8381 144.566 26.8381 145.708C26.8381 146.85 26.9915 147.869 27.2983 148.764C27.6136 149.659 28.0781 150.366 28.6918 150.886C29.3139 151.397 30.081 151.653 30.9929 151.653ZM61.3775 155.872C59.3661 155.872 57.636 155.446 56.1871 154.593C54.7468 153.733 53.6388 152.539 52.8633 151.014C52.0962 149.488 51.7127 147.733 51.7127 145.747C51.7127 143.735 52.1005 141.971 52.8761 140.454C53.6602 138.929 54.7724 137.74 56.2127 136.887C57.6531 136.027 59.3661 135.596 61.3519 135.596C63.065 135.596 64.565 135.907 65.8519 136.529C67.1388 137.152 68.1573 138.025 68.9073 139.15C69.6573 140.275 70.0707 141.596 70.1474 143.113H65.0082C64.8633 142.133 64.4798 141.345 63.8576 140.748C63.244 140.143 62.4386 139.841 61.4414 139.841C60.5977 139.841 59.8604 140.071 59.2298 140.531C58.6076 140.983 58.1218 141.643 57.7724 142.512C57.4229 143.382 57.2482 144.434 57.2482 145.67C57.2482 146.923 57.4187 147.988 57.7596 148.866C58.109 149.744 58.5991 150.413 59.2298 150.873C59.8604 151.333 60.5977 151.564 61.4414 151.564C62.0636 151.564 62.6218 151.436 63.1161 151.18C63.619 150.924 64.0323 150.554 64.3562 150.068C64.6886 149.574 64.9059 148.981 65.0082 148.291H70.1474C70.0621 149.791 69.6531 151.112 68.9201 152.254C68.1957 153.387 67.1942 154.274 65.9158 154.913C64.6374 155.552 63.1246 155.872 61.3775 155.872ZM72.2951 140.135V135.852H90.0906V140.135H83.7624V155.488H78.5721V140.135H72.2951ZM98.2884 155.859C97.0355 155.859 95.919 155.642 94.9389 155.207C93.9588 154.764 93.1832 154.112 92.6122 153.251C92.0497 152.382 91.7685 151.299 91.7685 150.004C91.7685 148.913 91.9688 147.997 92.3693 147.255C92.7699 146.514 93.3153 145.917 94.0057 145.466C94.696 145.014 95.4801 144.673 96.358 144.443C97.2443 144.213 98.1733 144.051 99.1449 143.957C100.287 143.838 101.207 143.727 101.906 143.625C102.605 143.514 103.112 143.352 103.428 143.139C103.743 142.926 103.901 142.61 103.901 142.193V142.116C103.901 141.306 103.645 140.68 103.134 140.237C102.631 139.794 101.915 139.572 100.986 139.572C100.006 139.572 99.2259 139.789 98.6463 140.224C98.0668 140.65 97.6832 141.187 97.4957 141.835L92.4588 141.426C92.7145 140.233 93.2173 139.201 93.9673 138.332C94.7173 137.454 95.6847 136.781 96.8693 136.312C98.0625 135.835 99.4432 135.596 101.011 135.596C102.102 135.596 103.146 135.724 104.143 135.98C105.149 136.235 106.04 136.632 106.815 137.169C107.599 137.706 108.217 138.396 108.669 139.24C109.121 140.075 109.347 141.076 109.347 142.244V155.488H104.182V152.765H104.028C103.713 153.379 103.291 153.92 102.763 154.389C102.234 154.849 101.599 155.211 100.858 155.475C100.116 155.731 99.2599 155.859 98.2884 155.859ZM99.848 152.1C100.649 152.1 101.357 151.943 101.97 151.627C102.584 151.304 103.065 150.869 103.415 150.324C103.764 149.778 103.939 149.16 103.939 148.47V146.386C103.768 146.497 103.534 146.599 103.236 146.693C102.946 146.778 102.618 146.859 102.251 146.936C101.885 147.004 101.518 147.068 101.152 147.127C100.786 147.179 100.453 147.225 100.155 147.268C99.5156 147.362 98.9574 147.511 98.4801 147.716C98.0028 147.92 97.6321 148.197 97.3679 148.547C97.1037 148.887 96.9716 149.314 96.9716 149.825C96.9716 150.566 97.2401 151.133 97.777 151.525C98.3224 151.909 99.0128 152.1 99.848 152.1ZM113.572 155.488V135.852H121.945C124.366 135.852 126.279 136.312 127.685 137.233C129.092 138.153 129.795 139.461 129.795 141.157C129.795 142.223 129.398 143.109 128.606 143.816C127.813 144.524 126.714 145.001 125.308 145.248C126.484 145.333 127.485 145.602 128.312 146.054C129.147 146.497 129.782 147.072 130.217 147.779C130.66 148.487 130.881 149.271 130.881 150.132C130.881 151.248 130.583 152.207 129.987 153.008C129.398 153.809 128.533 154.423 127.391 154.849C126.258 155.275 124.873 155.488 123.237 155.488H113.572ZM118.647 151.41H123.237C123.995 151.41 124.587 151.231 125.013 150.873C125.448 150.507 125.665 150.008 125.665 149.377C125.665 148.679 125.448 148.129 125.013 147.728C124.587 147.328 123.995 147.127 123.237 147.127H118.647V151.41ZM118.647 143.931H122.06C122.606 143.931 123.07 143.855 123.454 143.701C123.846 143.539 124.144 143.309 124.349 143.011C124.562 142.713 124.668 142.359 124.668 141.95C124.668 141.345 124.425 140.872 123.94 140.531C123.454 140.19 122.789 140.02 121.945 140.02H118.647V143.931ZM134.314 135.852H139.517V151.167H145.053V135.852H150.256V151.167H155.791V135.852H160.994V155.488H134.314V135.852ZM170.816 155.859C169.563 155.859 168.446 155.642 167.466 155.207C166.486 154.764 165.711 154.112 165.14 153.251C164.577 152.382 164.296 151.299 164.296 150.004C164.296 148.913 164.496 147.997 164.897 147.255C165.297 146.514 165.843 145.917 166.533 145.466C167.223 145.014 168.007 144.673 168.885 144.443C169.772 144.213 170.701 144.051 171.672 143.957C172.814 143.838 173.735 143.727 174.434 143.625C175.132 143.514 175.64 143.352 175.955 143.139C176.27 142.926 176.428 142.61 176.428 142.193V142.116C176.428 141.306 176.172 140.68 175.661 140.237C175.158 139.794 174.442 139.572 173.513 139.572C172.533 139.572 171.753 139.789 171.174 140.224C170.594 140.65 170.211 141.187 170.023 141.835L164.986 141.426C165.242 140.233 165.745 139.201 166.495 138.332C167.245 137.454 168.212 136.781 169.397 136.312C170.59 135.835 171.971 135.596 173.539 135.596C174.63 135.596 175.674 135.724 176.671 135.98C177.676 136.235 178.567 136.632 179.343 137.169C180.127 137.706 180.745 138.396 181.196 139.24C181.648 140.075 181.874 141.076 181.874 142.244V155.488H176.709V152.765H176.556C176.24 153.379 175.819 153.92 175.29 154.389C174.762 154.849 174.127 155.211 173.385 155.475C172.644 155.731 171.787 155.859 170.816 155.859ZM172.375 152.1C173.176 152.1 173.884 151.943 174.498 151.627C175.111 151.304 175.593 150.869 175.942 150.324C176.292 149.778 176.466 149.16 176.466 148.47V146.386C176.296 146.497 176.061 146.599 175.763 146.693C175.473 146.778 175.145 146.859 174.779 146.936C174.412 147.004 174.046 147.068 173.679 147.127C173.313 147.179 172.98 147.225 172.682 147.268C172.043 147.362 171.485 147.511 171.007 147.716C170.53 147.92 170.159 148.197 169.895 148.547C169.631 148.887 169.499 149.314 169.499 149.825C169.499 150.566 169.767 151.133 170.304 151.525C170.85 151.909 171.54 152.1 172.375 152.1ZM197.605 155.488V140.122H193.923C192.926 140.122 192.167 140.352 191.647 140.812C191.127 141.272 190.872 141.818 190.88 142.449C190.872 143.088 191.119 143.629 191.622 144.072C192.133 144.507 192.883 144.724 193.872 144.724H199.42V148.406H193.872C192.193 148.406 190.74 148.15 189.512 147.639C188.285 147.127 187.339 146.416 186.674 145.504C186.01 144.583 185.681 143.514 185.69 142.295C185.681 141.017 186.01 139.896 186.674 138.933C187.339 137.961 188.289 137.207 189.525 136.67C190.77 136.125 192.235 135.852 193.923 135.852H202.68V155.488H197.605ZM185.127 155.488L190.586 145.261H195.789L190.343 155.488H185.127ZM226.852 149.467L232.17 135.852H236.312L228.654 155.488H225.036L217.558 135.852H221.687L226.852 149.467ZM220.447 135.852V155.488H215.244V135.852H220.447ZM233.525 155.488V135.852H238.664V155.488H233.525ZM248.476 155.859C247.223 155.859 246.107 155.642 245.126 155.207C244.146 154.764 243.371 154.112 242.8 153.251C242.237 152.382 241.956 151.299 241.956 150.004C241.956 148.913 242.156 147.997 242.557 147.255C242.957 146.514 243.503 145.917 244.193 145.466C244.884 145.014 245.668 144.673 246.545 144.443C247.432 144.213 248.361 144.051 249.332 143.957C250.474 143.838 251.395 143.727 252.094 143.625C252.793 143.514 253.3 143.352 253.615 143.139C253.93 142.926 254.088 142.61 254.088 142.193V142.116C254.088 141.306 253.832 140.68 253.321 140.237C252.818 139.794 252.102 139.572 251.173 139.572C250.193 139.572 249.413 139.789 248.834 140.224C248.254 140.65 247.871 141.187 247.683 141.835L242.646 141.426C242.902 140.233 243.405 139.201 244.155 138.332C244.905 137.454 245.872 136.781 247.057 136.312C248.25 135.835 249.631 135.596 251.199 135.596C252.29 135.596 253.334 135.724 254.331 135.98C255.337 136.235 256.227 136.632 257.003 137.169C257.787 137.706 258.405 138.396 258.857 139.24C259.308 140.075 259.534 141.076 259.534 142.244V155.488H254.369V152.765H254.216C253.901 153.379 253.479 153.92 252.95 154.389C252.422 154.849 251.787 155.211 251.045 155.475C250.304 155.731 249.447 155.859 248.476 155.859ZM250.036 152.1C250.837 152.1 251.544 151.943 252.158 151.627C252.771 151.304 253.253 150.869 253.602 150.324C253.952 149.778 254.126 149.16 254.126 148.47V146.386C253.956 146.497 253.722 146.599 253.423 146.693C253.134 146.778 252.805 146.859 252.439 146.936C252.072 147.004 251.706 147.068 251.339 147.127C250.973 147.179 250.641 147.225 250.342 147.268C249.703 147.362 249.145 147.511 248.668 147.716C248.19 147.92 247.82 148.197 247.555 148.547C247.291 148.887 247.159 149.314 247.159 149.825C247.159 150.566 247.428 151.133 247.964 151.525C248.51 151.909 249.2 152.1 250.036 152.1ZM272.631 155.872C270.62 155.872 268.89 155.446 267.441 154.593C266.001 153.733 264.893 152.539 264.117 151.014C263.35 149.488 262.967 147.733 262.967 145.747C262.967 143.735 263.354 141.971 264.13 140.454C264.914 138.929 266.026 137.74 267.467 136.887C268.907 136.027 270.62 135.596 272.606 135.596C274.319 135.596 275.819 135.907 277.106 136.529C278.393 137.152 279.411 138.025 280.161 139.15C280.911 140.275 281.325 141.596 281.401 143.113H276.262C276.117 142.133 275.734 141.345 275.112 140.748C274.498 140.143 273.692 139.841 272.695 139.841C271.852 139.841 271.114 140.071 270.484 140.531C269.862 140.983 269.376 141.643 269.026 142.512C268.677 143.382 268.502 144.434 268.502 145.67C268.502 146.923 268.673 147.988 269.013 148.866C269.363 149.744 269.853 150.413 270.484 150.873C271.114 151.333 271.852 151.564 272.695 151.564C273.317 151.564 273.876 151.436 274.37 151.18C274.873 150.924 275.286 150.554 275.61 150.068C275.942 149.574 276.16 148.981 276.262 148.291H281.401C281.316 149.791 280.907 151.112 280.174 152.254C279.45 153.387 278.448 154.274 277.17 154.913C275.891 155.552 274.379 155.872 272.631 155.872ZM293.76 155.872C291.749 155.872 290.019 155.446 288.57 154.593C287.13 153.733 286.022 152.539 285.246 151.014C284.479 149.488 284.096 147.733 284.096 145.747C284.096 143.735 284.483 141.971 285.259 140.454C286.043 138.929 287.155 137.74 288.596 136.887C290.036 136.027 291.749 135.596 293.735 135.596C295.448 135.596 296.948 135.907 298.235 136.529C299.522 137.152 300.54 138.025 301.29 139.15C302.04 140.275 302.453 141.596 302.53 143.113H297.391C297.246 142.133 296.863 141.345 296.24 140.748C295.627 140.143 294.821 139.841 293.824 139.841C292.98 139.841 292.243 140.071 291.613 140.531C290.99 140.983 290.505 141.643 290.155 142.512C289.806 143.382 289.631 144.434 289.631 145.67C289.631 146.923 289.801 147.988 290.142 148.866C290.492 149.744 290.982 150.413 291.613 150.873C292.243 151.333 292.98 151.564 293.824 151.564C294.446 151.564 295.005 151.436 295.499 151.18C296.002 150.924 296.415 150.554 296.739 150.068C297.071 149.574 297.289 148.981 297.391 148.291H302.53C302.445 149.791 302.036 151.112 301.303 152.254C300.578 153.387 299.577 154.274 298.299 154.913C297.02 155.552 295.507 155.872 293.76 155.872ZM314.889 155.872C312.903 155.872 311.186 155.45 309.737 154.606C308.297 153.754 307.185 152.569 306.401 151.052C305.616 149.527 305.224 147.758 305.224 145.747C305.224 143.718 305.616 141.946 306.401 140.429C307.185 138.903 308.297 137.718 309.737 136.875C311.186 136.022 312.903 135.596 314.889 135.596C316.875 135.596 318.588 136.022 320.028 136.875C321.477 137.718 322.594 138.903 323.378 140.429C324.162 141.946 324.554 143.718 324.554 145.747C324.554 147.758 324.162 149.527 323.378 151.052C322.594 152.569 321.477 153.754 320.028 154.606C318.588 155.45 316.875 155.872 314.889 155.872ZM314.915 151.653C315.818 151.653 316.572 151.397 317.178 150.886C317.783 150.366 318.239 149.659 318.545 148.764C318.861 147.869 319.018 146.85 319.018 145.708C319.018 144.566 318.861 143.548 318.545 142.653C318.239 141.758 317.783 141.051 317.178 140.531C316.572 140.011 315.818 139.751 314.915 139.751C314.003 139.751 313.236 140.011 312.614 140.531C312 141.051 311.536 141.758 311.22 142.653C310.913 143.548 310.76 144.566 310.76 145.708C310.76 146.85 310.913 147.869 311.22 148.764C311.536 149.659 312 150.366 312.614 150.886C313.236 151.397 314.003 151.653 314.915 151.653ZM328.095 155.488V135.852H336.469C338.889 135.852 340.803 136.312 342.209 137.233C343.615 138.153 344.318 139.461 344.318 141.157C344.318 142.223 343.922 143.109 343.129 143.816C342.337 144.524 341.237 145.001 339.831 145.248C341.007 145.333 342.009 145.602 342.835 146.054C343.67 146.497 344.305 147.072 344.74 147.779C345.183 148.487 345.405 149.271 345.405 150.132C345.405 151.248 345.107 152.207 344.51 153.008C343.922 153.809 343.057 154.423 341.915 154.849C340.781 155.275 339.396 155.488 337.76 155.488H328.095ZM333.17 151.41H337.76C338.518 151.41 339.111 151.231 339.537 150.873C339.972 150.507 340.189 150.008 340.189 149.377C340.189 148.679 339.972 148.129 339.537 147.728C339.111 147.328 338.518 147.127 337.76 147.127H333.17V151.41ZM333.17 143.931H336.584C337.129 143.931 337.594 143.855 337.977 143.701C338.369 143.539 338.668 143.309 338.872 143.011C339.085 142.713 339.192 142.359 339.192 141.95C339.192 141.345 338.949 140.872 338.463 140.531C337.977 140.19 337.312 140.02 336.469 140.02H333.17V143.931ZM352.251 141.886H358.119C360.718 141.886 362.746 142.508 364.204 143.752C365.661 144.988 366.39 146.642 366.39 148.713C366.39 150.059 366.062 151.244 365.406 152.267C364.749 153.281 363.803 154.074 362.567 154.645C361.332 155.207 359.849 155.488 358.119 155.488H348.837V135.852H354.04V151.206H358.119C359.031 151.206 359.781 150.975 360.369 150.515C360.957 150.055 361.255 149.467 361.263 148.751C361.255 147.993 360.957 147.375 360.369 146.897C359.781 146.412 359.031 146.169 358.119 146.169H352.251V141.886ZM368.499 155.488V135.852H373.945V155.488H368.499ZM389.906 149.467L395.224 135.852H399.366L391.709 155.488H388.091L380.612 135.852H384.741L389.906 149.467ZM383.501 135.852V155.488H378.298V135.852H383.501ZM396.58 155.488V135.852H401.719V155.488H396.58ZM0.790483 198.488V178.852H6.23651V186.471H7.7706L13.1143 178.852H19.5064L12.5646 188.593L19.5831 198.488H13.1143L8.26918 191.521H6.23651V198.488H0.790483ZM25.5629 205.852C24.8725 205.852 24.2248 205.797 23.6197 205.686C23.0231 205.583 22.5288 205.451 22.1367 205.289L23.364 201.224C24.0032 201.42 24.5785 201.527 25.0898 201.544C25.6097 201.561 26.0572 201.441 26.4322 201.186C26.8157 200.93 27.1268 200.495 27.3654 199.882L27.685 199.051L20.641 178.852H26.3683L30.4336 193.272H30.6381L34.7418 178.852H40.5075L32.8754 200.61C32.5089 201.667 32.0103 202.588 31.3796 203.372C30.7575 204.164 29.9691 204.774 29.0146 205.2C28.06 205.635 26.9094 205.852 25.5629 205.852ZM40.5618 198.488L40.5362 194.167H41.1882C41.6484 194.167 42.0447 194.056 42.3771 193.835C42.718 193.605 42.9993 193.234 43.2209 192.723C43.4425 192.211 43.6172 191.534 43.745 190.69C43.8729 189.838 43.9581 188.789 44.0007 187.545L44.3203 178.852H59.2521V198.488H54.0618V183.135H49.2166L48.9098 189.13C48.8331 190.775 48.6328 192.19 48.3089 193.375C47.9936 194.559 47.5547 195.531 46.9922 196.289C46.4297 197.039 45.7521 197.593 44.9595 197.951C44.1669 198.309 43.2464 198.488 42.1982 198.488H40.5618ZM66.8874 184.886H72.7553C75.3548 184.886 77.3832 185.508 78.8406 186.752C80.2979 187.988 81.0266 189.642 81.0266 191.713C81.0266 193.059 80.6985 194.244 80.0423 195.267C79.386 196.281 78.44 197.074 77.2042 197.645C75.9684 198.207 74.4854 198.488 72.7553 198.488H63.4741V178.852H68.6772V194.206H72.7553C73.6673 194.206 74.4173 193.975 75.0053 193.515C75.5934 193.055 75.8917 192.467 75.9002 191.751C75.8917 190.993 75.5934 190.375 75.0053 189.897C74.4173 189.412 73.6673 189.169 72.7553 189.169H66.8874V184.886ZM81.5763 183.135V178.852H99.3718V183.135H93.0437V198.488H87.8533V183.135H81.5763ZM106.036 205.852C105.345 205.852 104.697 205.797 104.092 205.686C103.496 205.583 103.001 205.451 102.609 205.289L103.837 201.224C104.476 201.42 105.051 201.527 105.562 201.544C106.082 201.561 106.53 201.441 106.905 201.186C107.288 200.93 107.599 200.495 107.838 199.882L108.158 199.051L101.114 178.852H106.841L110.906 193.272H111.111L115.214 178.852H120.98L113.348 200.61C112.982 201.667 112.483 202.588 111.852 203.372C111.23 204.164 110.442 204.774 109.487 205.2C108.533 205.635 107.382 205.852 106.036 205.852ZM123.767 205.852V178.852H129.136V182.15H129.379C129.618 181.622 129.963 181.085 130.415 180.539C130.875 179.985 131.472 179.525 132.205 179.159C132.946 178.784 133.866 178.596 134.966 178.596C136.398 178.596 137.719 178.971 138.929 179.721C140.139 180.463 141.107 181.583 141.831 183.083C142.555 184.575 142.918 186.446 142.918 188.696C142.918 190.886 142.564 192.735 141.857 194.244C141.158 195.744 140.203 196.882 138.993 197.657C137.791 198.424 136.445 198.808 134.953 198.808C133.896 198.808 132.997 198.633 132.256 198.284C131.523 197.934 130.922 197.495 130.453 196.967C129.984 196.43 129.626 195.889 129.379 195.343H129.213V205.852H123.767ZM129.098 188.67C129.098 189.838 129.26 190.856 129.584 191.725C129.908 192.595 130.376 193.272 130.99 193.758C131.604 194.235 132.349 194.474 133.227 194.474C134.114 194.474 134.864 194.231 135.477 193.745C136.091 193.251 136.555 192.569 136.871 191.7C137.195 190.822 137.357 189.812 137.357 188.67C137.357 187.537 137.199 186.539 136.884 185.679C136.568 184.818 136.104 184.145 135.49 183.659C134.876 183.173 134.122 182.93 133.227 182.93C132.341 182.93 131.591 183.164 130.977 183.633C130.372 184.102 129.908 184.767 129.584 185.627C129.26 186.488 129.098 187.502 129.098 188.67ZM160.214 186.497V190.779H149.962V186.497H160.214ZM151.751 178.852V198.488H146.548V178.852H151.751ZM163.628 178.852V198.488H158.463V178.852H163.628ZM171.266 184.886H177.134C179.734 184.886 181.762 185.508 183.219 186.752C184.677 187.988 185.406 189.642 185.406 191.713C185.406 193.059 185.077 194.244 184.421 195.267C183.765 196.281 182.819 197.074 181.583 197.645C180.347 198.207 178.864 198.488 177.134 198.488H167.853V178.852H173.056V194.206H177.134C178.046 194.206 178.796 193.975 179.384 193.515C179.972 193.055 180.271 192.467 180.279 191.751C180.271 190.993 179.972 190.375 179.384 189.897C178.796 189.412 178.046 189.169 177.134 189.169H171.266V184.886ZM187.515 198.488V178.852H192.961V198.488H187.515ZM208.922 192.467L214.24 178.852H218.382L210.724 198.488H207.107L199.628 178.852H203.757L208.922 192.467ZM202.517 178.852V198.488H197.314V178.852H202.517ZM215.595 198.488V178.852H220.734V198.488H215.595ZM244.784 198.488V183.122H241.103C240.105 183.122 239.347 183.352 238.827 183.812C238.307 184.272 238.051 184.818 238.06 185.449C238.051 186.088 238.299 186.629 238.801 187.072C239.313 187.507 240.063 187.724 241.051 187.724H246.6V191.406H241.051C239.373 191.406 237.919 191.15 236.692 190.639C235.465 190.127 234.519 189.416 233.854 188.504C233.189 187.583 232.861 186.514 232.87 185.295C232.861 184.017 233.189 182.896 233.854 181.933C234.519 180.961 235.469 180.207 236.705 179.67C237.949 179.125 239.415 178.852 241.103 178.852H249.86V198.488H244.784ZM232.307 198.488L237.766 188.261H242.969L237.523 198.488H232.307ZM254.091 198.488V178.852H262.465C264.885 178.852 266.799 179.312 268.205 180.233C269.611 181.153 270.314 182.461 270.314 184.157C270.314 185.223 269.918 186.109 269.125 186.816C268.333 187.524 267.233 188.001 265.827 188.248C267.003 188.333 268.005 188.602 268.831 189.054C269.667 189.497 270.301 190.072 270.736 190.779C271.179 191.487 271.401 192.271 271.401 193.132C271.401 194.248 271.103 195.207 270.506 196.008C269.918 196.809 269.053 197.423 267.911 197.849C266.777 198.275 265.392 198.488 263.756 198.488H254.091ZM259.167 194.41H263.756C264.515 194.41 265.107 194.231 265.533 193.873C265.968 193.507 266.185 193.008 266.185 192.377C266.185 191.679 265.968 191.129 265.533 190.728C265.107 190.328 264.515 190.127 263.756 190.127H259.167V194.41ZM259.167 186.931H262.58C263.125 186.931 263.59 186.855 263.973 186.701C264.365 186.539 264.664 186.309 264.868 186.011C265.081 185.713 265.188 185.359 265.188 184.95C265.188 184.345 264.945 183.872 264.459 183.531C263.973 183.19 263.309 183.02 262.465 183.02H259.167V186.931ZM273.683 198.488L273.657 194.167H274.309C274.77 194.167 275.166 194.056 275.498 193.835C275.839 193.605 276.12 193.234 276.342 192.723C276.564 192.211 276.738 191.534 276.866 190.69C276.994 189.838 277.079 188.789 277.122 187.545L277.441 178.852H292.373V198.488H287.183V183.135H282.338L282.031 189.13C281.954 190.775 281.754 192.19 281.43 193.375C281.115 194.559 280.676 195.531 280.113 196.289C279.551 197.039 278.873 197.593 278.081 197.951C277.288 198.309 276.368 198.488 275.319 198.488H273.683ZM305.544 198.872C303.524 198.872 301.786 198.463 300.328 197.645C298.879 196.818 297.763 195.65 296.979 194.142C296.195 192.625 295.803 190.831 295.803 188.76C295.803 186.74 296.195 184.967 296.979 183.441C297.763 181.916 298.866 180.727 300.29 179.875C301.722 179.022 303.401 178.596 305.327 178.596C306.622 178.596 307.828 178.805 308.945 179.223C310.07 179.632 311.05 180.25 311.885 181.076C312.729 181.903 313.385 182.943 313.854 184.196C314.322 185.44 314.557 186.897 314.557 188.568V190.064H297.976V186.689H309.43C309.43 185.904 309.26 185.21 308.919 184.605C308.578 184 308.105 183.527 307.5 183.186C306.903 182.836 306.209 182.662 305.416 182.662C304.589 182.662 303.857 182.853 303.217 183.237C302.587 183.612 302.092 184.119 301.734 184.758C301.376 185.389 301.193 186.092 301.185 186.868V190.076C301.185 191.048 301.364 191.887 301.722 192.595C302.088 193.302 302.604 193.848 303.268 194.231C303.933 194.615 304.722 194.806 305.634 194.806C306.239 194.806 306.793 194.721 307.295 194.551C307.798 194.38 308.229 194.125 308.587 193.784C308.945 193.443 309.217 193.025 309.405 192.531L314.442 192.863C314.186 194.074 313.662 195.13 312.869 196.034C312.085 196.929 311.071 197.627 309.827 198.13C308.591 198.625 307.163 198.872 305.544 198.872ZM331.777 186.497V190.779H321.524V186.497H331.777ZM323.314 178.852V198.488H318.111V178.852H323.314ZM335.19 178.852V198.488H330.026V178.852H335.19ZM344.619 191.304L351.688 178.852H357.058V198.488H351.867V185.998L344.823 198.488H339.415V178.852H344.619V191.304ZM370.372 198.872C368.352 198.872 366.614 198.463 365.156 197.645C363.707 196.818 362.591 195.65 361.807 194.142C361.023 192.625 360.631 190.831 360.631 188.76C360.631 186.74 361.023 184.967 361.807 183.441C362.591 181.916 363.695 180.727 365.118 179.875C366.55 179.022 368.229 178.596 370.155 178.596C371.45 178.596 372.656 178.805 373.773 179.223C374.898 179.632 375.878 180.25 376.713 181.076C377.557 181.903 378.213 182.943 378.682 184.196C379.151 185.44 379.385 186.897 379.385 188.568V190.064H362.804V186.689H374.259C374.259 185.904 374.088 185.21 373.747 184.605C373.406 184 372.933 183.527 372.328 183.186C371.732 182.836 371.037 182.662 370.244 182.662C369.418 182.662 368.685 182.853 368.045 183.237C367.415 183.612 366.92 184.119 366.562 184.758C366.205 185.389 366.021 186.092 366.013 186.868V190.076C366.013 191.048 366.192 191.887 366.55 192.595C366.916 193.302 367.432 193.848 368.097 194.231C368.761 194.615 369.55 194.806 370.462 194.806C371.067 194.806 371.621 194.721 372.124 194.551C372.626 194.38 373.057 194.125 373.415 193.784C373.773 193.443 374.045 193.025 374.233 192.531L379.27 192.863C379.014 194.074 378.49 195.13 377.697 196.034C376.913 196.929 375.899 197.627 374.655 198.13C373.419 198.625 371.991 198.872 370.372 198.872ZM394.547 192.467L399.865 178.852H404.007L396.349 198.488H392.732L385.253 178.852H389.382L394.547 192.467ZM388.142 178.852V198.488H382.939V178.852H388.142ZM401.22 198.488V178.852H406.359V198.488H401.22ZM9.66264 241.872C7.65128 241.872 5.92117 241.446 4.4723 240.593C3.03196 239.733 1.92401 238.539 1.14844 237.014C0.381392 235.488 -0.00213066 233.733 -0.00213066 231.747C-0.00213066 229.735 0.385653 227.971 1.16122 226.454C1.94531 224.929 3.05753 223.74 4.49787 222.887C5.93821 222.027 7.65128 221.596 9.63707 221.596C11.3501 221.596 12.8501 221.907 14.1371 222.529C15.424 223.152 16.4425 224.025 17.1925 225.15C17.9425 226.275 18.3558 227.596 18.4325 229.113H13.2933C13.1484 228.133 12.7649 227.345 12.1428 226.748C11.5291 226.143 10.7237 225.841 9.72656 225.841C8.88281 225.841 8.1456 226.071 7.51491 226.531C6.89276 226.983 6.40696 227.643 6.05753 228.512C5.7081 229.382 5.53338 230.434 5.53338 231.67C5.53338 232.923 5.70384 233.988 6.04474 234.866C6.39418 235.744 6.88423 236.413 7.51491 236.873C8.1456 237.333 8.88281 237.564 9.72656 237.564C10.3487 237.564 10.907 237.436 11.4013 237.18C11.9041 236.924 12.3175 236.554 12.6413 236.068C12.9737 235.574 13.1911 234.981 13.2933 234.291H18.4325C18.3473 235.791 17.9382 237.112 17.2053 238.254C16.4808 239.387 15.4794 240.274 14.201 240.913C12.9226 241.552 11.4098 241.872 9.66264 241.872ZM29.2287 226.135V221.852H47.0241V226.135H40.696V241.488H35.5057V226.135H29.2287ZM55.5288 234.304L62.5984 221.852H67.9677V241.488H62.7773V228.998L55.7333 241.488H50.3256V221.852H55.5288V234.304ZM72.3335 248.852V221.852H77.7028V225.15H77.9457C78.1843 224.622 78.5295 224.085 78.9812 223.539C79.4414 222.985 80.038 222.525 80.771 222.159C81.5124 221.784 82.4329 221.596 83.5323 221.596C84.9641 221.596 86.2852 221.971 87.4954 222.721C88.7056 223.463 89.6729 224.583 90.3974 226.083C91.1218 227.575 91.484 229.446 91.484 231.696C91.484 233.886 91.1303 235.735 90.4229 237.244C89.7241 238.744 88.7695 239.882 87.5593 240.657C86.3576 241.424 85.011 241.808 83.5195 241.808C82.4627 241.808 81.5636 241.633 80.8221 241.284C80.0891 240.934 79.4883 240.495 79.0195 239.967C78.5508 239.43 78.1928 238.889 77.9457 238.343H77.7795V248.852H72.3335ZM77.6644 231.67C77.6644 232.838 77.8263 233.856 78.1502 234.725C78.4741 235.595 78.9428 236.272 79.5565 236.758C80.1701 237.235 80.9158 237.474 81.7937 237.474C82.68 237.474 83.43 237.231 84.0437 236.745C84.6573 236.251 85.1218 235.569 85.4371 234.7C85.761 233.822 85.9229 232.812 85.9229 231.67C85.9229 230.537 85.7653 229.539 85.4499 228.679C85.1346 227.818 84.6701 227.145 84.0565 226.659C83.4428 226.173 82.6886 225.93 81.7937 225.93C80.9073 225.93 80.1573 226.164 79.5437 226.633C78.9386 227.102 78.4741 227.767 78.1502 228.627C77.8263 229.488 77.6644 230.502 77.6644 231.67ZM100.714 241.859C99.4613 241.859 98.3448 241.642 97.3647 241.207C96.3846 240.764 95.609 240.112 95.038 239.251C94.4755 238.382 94.1942 237.299 94.1942 236.004C94.1942 234.913 94.3945 233.997 94.7951 233.255C95.1957 232.514 95.7411 231.917 96.4315 231.466C97.1218 231.014 97.9059 230.673 98.7837 230.443C99.6701 230.213 100.599 230.051 101.571 229.957C102.713 229.838 103.633 229.727 104.332 229.625C105.031 229.514 105.538 229.352 105.853 229.139C106.169 228.926 106.326 228.61 106.326 228.193V228.116C106.326 227.306 106.071 226.68 105.559 226.237C105.056 225.794 104.341 225.572 103.412 225.572C102.431 225.572 101.652 225.789 101.072 226.224C100.493 226.65 100.109 227.187 99.9215 227.835L94.8846 227.426C95.1403 226.233 95.6431 225.201 96.3931 224.332C97.1431 223.454 98.1104 222.781 99.2951 222.312C100.488 221.835 101.869 221.596 103.437 221.596C104.528 221.596 105.572 221.724 106.569 221.98C107.575 222.235 108.466 222.632 109.241 223.169C110.025 223.706 110.643 224.396 111.095 225.24C111.547 226.075 111.772 227.076 111.772 228.244V241.488H106.608V238.765H106.454C106.139 239.379 105.717 239.92 105.189 240.389C104.66 240.849 104.025 241.211 103.284 241.475C102.542 241.731 101.686 241.859 100.714 241.859ZM102.274 238.1C103.075 238.1 103.782 237.943 104.396 237.627C105.01 237.304 105.491 236.869 105.841 236.324C106.19 235.778 106.365 235.16 106.365 234.47V232.386C106.194 232.497 105.96 232.599 105.662 232.693C105.372 232.778 105.044 232.859 104.677 232.936C104.311 233.004 103.944 233.068 103.578 233.127C103.211 233.179 102.879 233.225 102.581 233.268C101.941 233.362 101.383 233.511 100.906 233.716C100.429 233.92 100.058 234.197 99.7937 234.547C99.5295 234.887 99.3974 235.314 99.3974 235.825C99.3974 236.566 99.6658 237.133 100.203 237.525C100.748 237.909 101.439 238.1 102.274 238.1ZM114.719 241.488L121.584 231.274L114.757 221.852H120.971L126.071 229.535H126.915V221.852H132.361V229.535H133.179L138.28 221.852H144.493L137.679 231.274L144.532 241.488H138.178L133.128 233.818H132.361V241.488H126.915V233.818H126.148L121.073 241.488H114.719ZM155.772 241.872C153.786 241.872 152.069 241.45 150.62 240.606C149.18 239.754 148.067 238.569 147.283 237.052C146.499 235.527 146.107 233.758 146.107 231.747C146.107 229.718 146.499 227.946 147.283 226.429C148.067 224.903 149.18 223.718 150.62 222.875C152.069 222.022 153.786 221.596 155.772 221.596C157.758 221.596 159.471 222.022 160.911 222.875C162.36 223.718 163.477 224.903 164.261 226.429C165.045 227.946 165.437 229.718 165.437 231.747C165.437 233.758 165.045 235.527 164.261 237.052C163.477 238.569 162.36 239.754 160.911 240.606C159.471 241.45 157.758 241.872 155.772 241.872ZM155.798 237.653C156.701 237.653 157.455 237.397 158.06 236.886C158.665 236.366 159.121 235.659 159.428 234.764C159.744 233.869 159.901 232.85 159.901 231.708C159.901 230.566 159.744 229.548 159.428 228.653C159.121 227.758 158.665 227.051 158.06 226.531C157.455 226.011 156.701 225.751 155.798 225.751C154.886 225.751 154.119 226.011 153.496 226.531C152.883 227.051 152.418 227.758 152.103 228.653C151.796 229.548 151.643 230.566 151.643 231.708C151.643 232.85 151.796 233.869 152.103 234.764C152.418 235.659 152.883 236.366 153.496 236.886C154.119 237.397 154.886 237.653 155.798 237.653ZM180.586 235.467L185.904 221.852H190.046L182.388 241.488H178.771L171.292 221.852H175.421L180.586 235.467ZM174.181 221.852V241.488H168.978V221.852H174.181ZM187.259 241.488V221.852H192.398V241.488H187.259ZM221.268 214.642L222.93 218.196C222.376 218.656 221.762 218.997 221.089 219.218C220.416 219.431 219.61 219.572 218.673 219.64C217.744 219.708 216.61 219.755 215.272 219.781C213.755 219.798 212.52 220.041 211.565 220.51C210.61 220.978 209.886 221.716 209.392 222.721C208.897 223.718 208.574 225.022 208.42 226.633H208.612C209.2 225.431 210.027 224.502 211.092 223.846C212.166 223.19 213.491 222.862 215.068 222.862C216.738 222.862 218.2 223.228 219.453 223.961C220.714 224.694 221.694 225.747 222.393 227.119C223.092 228.491 223.441 230.136 223.441 232.054C223.441 234.048 223.049 235.782 222.265 237.257C221.49 238.723 220.386 239.86 218.954 240.67C217.522 241.471 215.818 241.872 213.841 241.872C211.855 241.872 210.142 241.454 208.701 240.619C207.27 239.784 206.162 238.552 205.377 236.924C204.602 235.297 204.214 233.294 204.214 230.916V229.305C204.214 224.575 205.135 221.068 206.975 218.784C208.816 216.5 211.522 215.341 215.093 215.306C216.065 215.289 216.943 215.285 217.727 215.294C218.511 215.302 219.197 215.264 219.785 215.179C220.382 215.093 220.876 214.914 221.268 214.642ZM213.866 237.653C214.701 237.653 215.417 237.436 216.014 237.001C216.619 236.566 217.083 235.944 217.407 235.135C217.74 234.325 217.906 233.358 217.906 232.233C217.906 231.116 217.74 230.17 217.407 229.395C217.083 228.61 216.619 228.014 216.014 227.605C215.409 227.196 214.684 226.991 213.841 226.991C213.21 226.991 212.643 227.106 212.14 227.336C211.637 227.566 211.207 227.907 210.849 228.359C210.5 228.802 210.227 229.352 210.031 230.008C209.843 230.656 209.75 231.397 209.75 232.233C209.75 233.912 210.112 235.237 210.836 236.208C211.569 237.172 212.579 237.653 213.866 237.653ZM235.928 241.872C233.942 241.872 232.225 241.45 230.776 240.606C229.336 239.754 228.224 238.569 227.44 237.052C226.656 235.527 226.263 233.758 226.263 231.747C226.263 229.718 226.656 227.946 227.44 226.429C228.224 224.903 229.336 223.718 230.776 222.875C232.225 222.022 233.942 221.596 235.928 221.596C237.914 221.596 239.627 222.022 241.067 222.875C242.516 223.718 243.633 224.903 244.417 226.429C245.201 227.946 245.593 229.718 245.593 231.747C245.593 233.758 245.201 235.527 244.417 237.052C243.633 238.569 242.516 239.754 241.067 240.606C239.627 241.45 237.914 241.872 235.928 241.872ZM235.954 237.653C236.857 237.653 237.612 237.397 238.217 236.886C238.822 236.366 239.278 235.659 239.585 234.764C239.9 233.869 240.058 232.85 240.058 231.708C240.058 230.566 239.9 229.548 239.585 228.653C239.278 227.758 238.822 227.051 238.217 226.531C237.612 226.011 236.857 225.751 235.954 225.751C235.042 225.751 234.275 226.011 233.653 226.531C233.039 227.051 232.575 227.758 232.259 228.653C231.952 229.548 231.799 230.566 231.799 231.708C231.799 232.85 231.952 233.869 232.259 234.764C232.575 235.659 233.039 236.366 233.653 236.886C234.275 237.397 235.042 237.653 235.954 237.653ZM247.984 241.488L247.958 237.167H248.61C249.07 237.167 249.467 237.056 249.799 236.835C250.14 236.605 250.421 236.234 250.643 235.723C250.864 235.211 251.039 234.534 251.167 233.69C251.295 232.838 251.38 231.789 251.423 230.545L251.742 221.852H266.674V241.488H261.484V226.135H256.638L256.332 232.13C256.255 233.775 256.055 235.19 255.731 236.375C255.415 237.559 254.977 238.531 254.414 239.289C253.852 240.039 253.174 240.593 252.381 240.951C251.589 241.309 250.668 241.488 249.62 241.488H247.984ZM279.845 241.872C277.825 241.872 276.086 241.463 274.629 240.645C273.18 239.818 272.064 238.65 271.279 237.142C270.495 235.625 270.103 233.831 270.103 231.76C270.103 229.74 270.495 227.967 271.279 226.441C272.064 224.916 273.167 223.727 274.591 222.875C276.022 222.022 277.701 221.596 279.627 221.596C280.923 221.596 282.129 221.805 283.245 222.223C284.37 222.632 285.35 223.25 286.186 224.076C287.029 224.903 287.686 225.943 288.154 227.196C288.623 228.44 288.858 229.897 288.858 231.568V233.064H272.277V229.689H283.731C283.731 228.904 283.561 228.21 283.22 227.605C282.879 227 282.406 226.527 281.801 226.186C281.204 225.836 280.51 225.662 279.717 225.662C278.89 225.662 278.157 225.853 277.518 226.237C276.887 226.612 276.393 227.119 276.035 227.758C275.677 228.389 275.494 229.092 275.485 229.868V233.076C275.485 234.048 275.664 234.887 276.022 235.595C276.389 236.302 276.904 236.848 277.569 237.231C278.234 237.615 279.022 237.806 279.934 237.806C280.539 237.806 281.093 237.721 281.596 237.551C282.099 237.38 282.529 237.125 282.887 236.784C283.245 236.443 283.518 236.025 283.706 235.531L288.743 235.863C288.487 237.074 287.963 238.13 287.17 239.034C286.386 239.929 285.372 240.627 284.127 241.13C282.892 241.625 281.464 241.872 279.845 241.872ZM301.36 241.872C299.341 241.872 297.602 241.463 296.145 240.645C294.696 239.818 293.579 238.65 292.795 237.142C292.011 235.625 291.619 233.831 291.619 231.76C291.619 229.74 292.011 227.967 292.795 226.441C293.579 224.916 294.683 223.727 296.106 222.875C297.538 222.022 299.217 221.596 301.143 221.596C302.439 221.596 303.645 221.805 304.761 222.223C305.886 222.632 306.866 223.25 307.701 224.076C308.545 224.903 309.201 225.943 309.67 227.196C310.139 228.44 310.373 229.897 310.373 231.568V233.064H293.792V229.689H305.247C305.247 228.904 305.076 228.21 304.735 227.605C304.395 227 303.922 226.527 303.316 226.186C302.72 225.836 302.025 225.662 301.233 225.662C300.406 225.662 299.673 225.853 299.034 226.237C298.403 226.612 297.909 227.119 297.551 227.758C297.193 228.389 297.01 229.092 297.001 229.868V233.076C297.001 234.048 297.18 234.887 297.538 235.595C297.904 236.302 298.42 236.848 299.085 237.231C299.75 237.615 300.538 237.806 301.45 237.806C302.055 237.806 302.609 237.721 303.112 237.551C303.615 237.38 304.045 237.125 304.403 236.784C304.761 236.443 305.034 236.025 305.221 235.531L310.258 235.863C310.002 237.074 309.478 238.13 308.686 239.034C307.902 239.929 306.887 240.627 305.643 241.13C304.407 241.625 302.98 241.872 301.36 241.872ZM322.208 241.488V237.5L331.528 228.87C332.32 228.103 332.985 227.413 333.522 226.799C334.067 226.186 334.481 225.585 334.762 224.997C335.043 224.4 335.184 223.757 335.184 223.066C335.184 222.299 335.009 221.639 334.66 221.085C334.31 220.522 333.833 220.092 333.228 219.794C332.623 219.487 331.937 219.333 331.17 219.333C330.369 219.333 329.67 219.495 329.073 219.819C328.477 220.143 328.016 220.608 327.692 221.213C327.369 221.818 327.207 222.538 327.207 223.373H321.952C321.952 221.66 322.34 220.173 323.116 218.912C323.891 217.65 324.978 216.674 326.376 215.984C327.773 215.294 329.384 214.949 331.208 214.949C333.083 214.949 334.715 215.281 336.104 215.946C337.502 216.602 338.589 217.514 339.364 218.681C340.14 219.849 340.528 221.187 340.528 222.696C340.528 223.684 340.332 224.66 339.94 225.623C339.556 226.586 338.87 227.656 337.881 228.832C336.893 230 335.499 231.402 333.701 233.038L329.879 236.784V236.963H340.873V241.488H322.208ZM354.446 241.846C352.64 241.846 351.029 241.514 349.614 240.849C348.208 240.184 347.091 239.268 346.265 238.1C345.438 236.933 345.007 235.595 344.973 234.086H350.343C350.402 235.1 350.828 235.923 351.621 236.554C352.414 237.184 353.355 237.5 354.446 237.5C355.316 237.5 356.083 237.308 356.748 236.924C357.421 236.532 357.945 235.991 358.32 235.301C358.703 234.602 358.895 233.801 358.895 232.897C358.895 231.977 358.699 231.167 358.307 230.468C357.924 229.77 357.391 229.224 356.709 228.832C356.027 228.44 355.248 228.24 354.37 228.231C353.603 228.231 352.857 228.389 352.132 228.704C351.417 229.02 350.858 229.45 350.458 229.995L345.536 229.113L346.776 215.306H362.782V219.832H351.34L350.662 226.39H350.816C351.276 225.743 351.971 225.206 352.9 224.779C353.828 224.353 354.868 224.14 356.019 224.14C357.596 224.14 359.002 224.511 360.238 225.252C361.473 225.994 362.449 227.012 363.165 228.308C363.881 229.595 364.235 231.078 364.226 232.757C364.235 234.521 363.826 236.089 362.999 237.461C362.181 238.825 361.034 239.899 359.56 240.683C358.094 241.458 356.39 241.846 354.446 241.846ZM378.353 242.064C376.154 242.055 374.262 241.514 372.676 240.44C371.1 239.366 369.885 237.811 369.033 235.774C368.189 233.737 367.772 231.287 367.78 228.423C367.78 225.568 368.202 223.135 369.046 221.123C369.898 219.112 371.113 217.582 372.689 216.534C374.275 215.477 376.162 214.949 378.353 214.949C380.543 214.949 382.426 215.477 384.003 216.534C385.588 217.591 386.807 219.125 387.659 221.136C388.512 223.139 388.934 225.568 388.925 228.423C388.925 231.295 388.499 233.75 387.647 235.787C386.803 237.824 385.593 239.379 384.016 240.453C382.439 241.527 380.551 242.064 378.353 242.064ZM378.353 237.474C379.853 237.474 381.05 236.72 381.945 235.211C382.84 233.703 383.283 231.44 383.275 228.423C383.275 226.437 383.07 224.784 382.661 223.463C382.26 222.142 381.689 221.149 380.948 220.484C380.215 219.819 379.35 219.487 378.353 219.487C376.861 219.487 375.668 220.233 374.773 221.724C373.878 223.216 373.426 225.449 373.418 228.423C373.418 230.434 373.618 232.113 374.019 233.46C374.428 234.798 375.003 235.804 375.745 236.477C376.486 237.142 377.355 237.474 378.353 237.474ZM412.863 235.467L418.181 221.852H422.324L414.666 241.488H411.048L403.569 221.852H407.699L412.863 235.467ZM406.458 221.852V241.488H401.255V221.852H406.458ZM419.537 241.488V221.852H424.676V241.488H419.537ZM434.091 234.304L441.161 221.852H446.53V241.488H441.34V228.998L434.296 241.488H428.888V221.852H434.091V234.304ZM449.745 241.488L449.72 237.167H450.372C450.832 237.167 451.228 237.056 451.561 236.835C451.902 236.605 452.183 236.234 452.404 235.723C452.626 235.211 452.801 234.534 452.929 233.69C453.056 232.838 453.142 231.789 453.184 230.545L453.504 221.852H468.436V241.488H463.245V226.135H458.4L458.093 232.13C458.017 233.775 457.816 235.19 457.493 236.375C457.177 237.559 456.738 238.531 456.176 239.289C455.613 240.039 454.936 240.593 454.143 240.951C453.35 241.309 452.43 241.488 451.382 241.488H449.745ZM471.507 241.488L471.482 237.167H472.134C472.594 237.167 472.99 237.056 473.322 236.835C473.663 236.605 473.945 236.234 474.166 235.723C474.388 235.211 474.563 234.534 474.69 233.69C474.818 232.838 474.903 231.789 474.946 230.545L475.266 221.852H490.197V241.488H485.007V226.135H480.162L479.855 232.13C479.778 233.775 479.578 235.19 479.254 236.375C478.939 237.559 478.5 238.531 477.938 239.289C477.375 240.039 476.697 240.593 475.905 240.951C475.112 241.309 474.192 241.488 473.143 241.488H471.507ZM499.623 234.304L506.692 221.852H512.061V241.488H506.871V228.998L499.827 241.488H494.419V221.852H499.623V234.304ZM525.299 241.872C523.314 241.872 521.596 241.45 520.147 240.606C518.707 239.754 517.595 238.569 516.811 237.052C516.027 235.527 515.635 233.758 515.635 231.747C515.635 229.718 516.027 227.946 516.811 226.429C517.595 224.903 518.707 223.718 520.147 222.875C521.596 222.022 523.314 221.596 525.299 221.596C527.285 221.596 528.998 222.022 530.439 222.875C531.887 223.718 533.004 224.903 533.788 226.429C534.572 227.946 534.964 229.718 534.964 231.747C534.964 233.758 534.572 235.527 533.788 237.052C533.004 238.569 531.887 239.754 530.439 240.606C528.998 241.45 527.285 241.872 525.299 241.872ZM525.325 237.653C526.228 237.653 526.983 237.397 527.588 236.886C528.193 236.366 528.649 235.659 528.956 234.764C529.271 233.869 529.429 232.85 529.429 231.708C529.429 230.566 529.271 229.548 528.956 228.653C528.649 227.758 528.193 227.051 527.588 226.531C526.983 226.011 526.228 225.751 525.325 225.751C524.413 225.751 523.646 226.011 523.024 226.531C522.41 227.051 521.946 227.758 521.63 228.653C521.324 229.548 521.17 230.566 521.17 231.708C521.17 232.85 521.324 233.869 521.63 234.764C521.946 235.659 522.41 236.366 523.024 236.886C523.646 237.397 524.413 237.653 525.325 237.653ZM552.172 229.497V233.779H541.919V229.497H552.172ZM543.708 221.852V241.488H538.505V221.852H543.708ZM555.585 221.852V241.488H550.42V221.852H555.585ZM568.682 241.872C566.696 241.872 564.979 241.45 563.53 240.606C562.09 239.754 560.978 238.569 560.194 237.052C559.409 235.527 559.017 233.758 559.017 231.747C559.017 229.718 559.409 227.946 560.194 226.429C560.978 224.903 562.09 223.718 563.53 222.875C564.979 222.022 566.696 221.596 568.682 221.596C570.668 221.596 572.381 222.022 573.821 222.875C575.27 223.718 576.387 224.903 577.171 226.429C577.955 227.946 578.347 229.718 578.347 231.747C578.347 233.758 577.955 235.527 577.171 237.052C576.387 238.569 575.27 239.754 573.821 240.606C572.381 241.45 570.668 241.872 568.682 241.872ZM568.708 237.653C569.611 237.653 570.365 237.397 570.971 236.886C571.576 236.366 572.032 235.659 572.338 234.764C572.654 233.869 572.811 232.85 572.811 231.708C572.811 230.566 572.654 229.548 572.338 228.653C572.032 227.758 571.576 227.051 570.971 226.531C570.365 226.011 569.611 225.751 568.708 225.751C567.796 225.751 567.029 226.011 566.407 226.531C565.793 227.051 565.328 227.758 565.013 228.653C564.706 229.548 564.553 230.566 564.553 231.708C564.553 232.85 564.706 233.869 565.013 234.764C565.328 235.659 565.793 236.366 566.407 236.886C567.029 237.397 567.796 237.653 568.708 237.653ZM581.888 241.488V221.852H590.262C592.682 221.852 594.596 222.312 596.002 223.233C597.408 224.153 598.111 225.461 598.111 227.157C598.111 228.223 597.715 229.109 596.922 229.816C596.13 230.524 595.03 231.001 593.624 231.248C594.8 231.333 595.801 231.602 596.628 232.054C597.463 232.497 598.098 233.072 598.533 233.779C598.976 234.487 599.198 235.271 599.198 236.132C599.198 237.248 598.9 238.207 598.303 239.008C597.715 239.809 596.85 240.423 595.708 240.849C594.574 241.275 593.189 241.488 591.553 241.488H581.888ZM586.963 237.41H591.553C592.311 237.41 592.904 237.231 593.33 236.873C593.765 236.507 593.982 236.008 593.982 235.377C593.982 234.679 593.765 234.129 593.33 233.728C592.904 233.328 592.311 233.127 591.553 233.127H586.963V237.41ZM586.963 229.931H590.377C590.922 229.931 591.387 229.855 591.77 229.701C592.162 229.539 592.461 229.309 592.665 229.011C592.878 228.713 592.985 228.359 592.985 227.95C592.985 227.345 592.742 226.872 592.256 226.531C591.77 226.19 591.105 226.02 590.262 226.02H586.963V229.931ZM0.790483 284.488V264.852H6.23651V272.471H7.7706L13.1143 264.852H19.5064L12.5646 274.593L19.5831 284.488H13.1143L8.26918 277.521H6.23651V284.488H0.790483ZM29.9478 284.872C27.962 284.872 26.2447 284.45 24.7958 283.606C23.3555 282.754 22.2433 281.569 21.4592 280.052C20.6751 278.527 20.283 276.758 20.283 274.747C20.283 272.718 20.6751 270.946 21.4592 269.429C22.2433 267.903 23.3555 266.718 24.7958 265.875C26.2447 265.022 27.962 264.596 29.9478 264.596C31.9336 264.596 33.6467 265.022 35.087 265.875C36.5359 266.718 37.6523 267.903 38.4364 269.429C39.2205 270.946 39.6126 272.718 39.6126 274.747C39.6126 276.758 39.2205 278.527 38.4364 280.052C37.6523 281.569 36.5359 282.754 35.087 283.606C33.6467 284.45 31.9336 284.872 29.9478 284.872ZM29.9734 280.653C30.8768 280.653 31.631 280.397 32.2362 279.886C32.8413 279.366 33.2972 278.659 33.604 277.764C33.9194 276.869 34.0771 275.85 34.0771 274.708C34.0771 273.566 33.9194 272.548 33.604 271.653C33.2972 270.758 32.8413 270.051 32.2362 269.531C31.631 269.011 30.8768 268.751 29.9734 268.751C29.0614 268.751 28.2944 269.011 27.6722 269.531C27.0586 270.051 26.5941 270.758 26.2788 271.653C25.9719 272.548 25.8185 273.566 25.8185 274.708C25.8185 275.85 25.9719 276.869 26.2788 277.764C26.5941 278.659 27.0586 279.366 27.6722 279.886C28.2944 280.397 29.0614 280.653 29.9734 280.653ZM43.1538 284.488V264.852H60.3228V284.488H55.1197V269.135H48.293V284.488H43.1538ZM69.8725 277.304L76.9421 264.852H82.3114V284.488H77.1211V271.998L70.0771 284.488H64.6694V264.852H69.8725V277.304ZM91.8803 277.304L98.9499 264.852H104.319V284.488H99.1289V271.998L92.0849 284.488H86.6772V264.852H91.8803V277.304ZM98.0167 258H101.814C101.805 259.551 101.23 260.799 100.088 261.745C98.9542 262.691 97.4201 263.164 95.4854 263.164C93.5423 263.164 92.0039 262.691 90.8704 261.745C89.7369 260.799 89.1701 259.551 89.1701 258H92.9414C92.9329 258.588 93.1204 259.116 93.5039 259.585C93.896 260.054 94.5565 260.288 95.4854 260.288C96.3888 260.288 97.0366 260.058 97.4286 259.598C97.8207 259.137 98.0167 258.605 98.0167 258ZM111.868 284.821C111.025 284.821 110.3 284.522 109.695 283.926C109.098 283.321 108.8 282.596 108.8 281.752C108.8 280.917 109.098 280.201 109.695 279.605C110.3 279.008 111.025 278.71 111.868 278.71C112.686 278.71 113.402 279.008 114.016 279.605C114.63 280.201 114.936 280.917 114.936 281.752C114.936 282.315 114.792 282.831 114.502 283.299C114.221 283.76 113.85 284.13 113.39 284.412C112.929 284.684 112.422 284.821 111.868 284.821Z" fill="#FAF8F3"/>
</svg>
