<svg width="185" height="395" viewBox="0 0 185 395" fill="none" xmlns="http://www.w3.org/2000/svg">
<path d="M80.1017 260.645C60.0954 244.877 51.4876 235.706 42.9818 218.414C38.0967 221.317 35.3672 222.952 33.0294 233.208C31.9764 239.916 32.0676 243.321 33.0294 248.809C36.0037 268.742 41.2793 279.16 58.5829 296.151C66.0358 281.755 70.8178 274.014 80.1017 260.645Z" fill="#FAF8F3"/>
<path d="M126.367 296.151C119.339 281.214 114.648 273.365 104.579 260.645C124.64 246.373 132.503 236.945 142.506 218.414C147.313 221.91 149.434 224.986 151.92 233.208C153.331 239.699 153.491 243.16 151.92 248.809C144.756 271.733 139.249 282.318 126.367 296.151Z" fill="#FAF8F3"/>
<path d="M101.082 262.259C94.6773 263.095 91.1463 263.265 84.9434 262.259C77.3986 271.763 69.7006 280.176 71.2252 281.625C77.1948 287.299 80.6978 290.481 81.9846 296.151C82.988 304.067 83.4071 308.485 81.9846 316.055L73.3771 367.969C72.9151 370.928 72.6043 372.663 73.3771 373.887C79.9212 382.887 83.7612 387.779 92.4749 394.599C101.236 387.663 105.602 382.986 112.918 373.887C113.459 372.865 113.536 371.635 112.918 367.969L102.427 316.055C101.524 308.391 101.265 303.975 102.427 296.151C103.921 288.668 107.583 286.438 112.918 281.625C114.35 280.992 107.101 271.423 101.082 262.259Z" fill="#FAF8F3"/>
<path d="M157.021 103.759C152.648 136.456 150.404 149.998 147.607 143.569V106.18C148.609 105.178 139.46 108.503 113.984 118.015C98.0567 121.422 89.0189 121.984 72.5601 118.015C45.6161 109.381 36.176 106.764 35.1713 108.332V143.569C31.8613 147.862 29.7705 139.236 27.6397 103.759C11.5834 96.4381 5.36436 90.7412 0.472323 77.1297C-0.0407521 73.8406 -0.264288 72.1196 0.472323 72.019H13.9215C18.5048 72.2207 20.4451 73.0975 23.336 75.5158C34.7703 87.5446 43.5713 90.2675 60.1869 93.5378C85.2926 95.8644 99.3768 95.6287 124.474 93.5378C143.799 91.5356 154.166 87.8902 171.008 72.019C180.265 71.4904 183.528 71.427 183.92 72.019C184.779 74.1843 184.816 75.3115 183.92 77.1297C175.101 90.5913 169.99 97.8493 157.021 103.759Z" fill="#FAF8F3"/>
<path d="M72.5601 80.6265C52.3204 78.8949 41.6328 75.6384 23.336 68.2532C22.4988 64.5299 21.9235 60.5973 23.336 47.8104C37.962 18.9093 49.3002 10.0294 72.5601 1.27612C86.3304 -0.669391 94.9465 -0.162273 111.294 1.27612C141.279 11.9944 154.674 20.3128 159.711 47.8104L159.767 48.8966C160.383 60.9188 160.742 67.9232 159.711 68.2532C142.379 74.3916 132.79 78.1236 113.984 80.6265C97.812 81.8829 88.7227 82.2742 72.5601 80.6265Z" fill="#FAF8F3"/>
<path d="M147.122 301.262L153.1 319.662H172.448L156.795 331.034L162.774 349.435L147.122 338.063L131.469 349.435L137.448 331.034L121.796 319.662H141.143L147.122 301.262Z" fill="#AE1645"/>
</svg>
