<svg width="705" height="142" viewBox="0 0 705 142" fill="none" xmlns="http://www.w3.org/2000/svg">
<path d="M0.00142106 139.475V8.56551H54.0781C63.8793 8.56551 72.3381 10.4831 79.4545 14.3184C86.6136 18.111 92.1321 23.4164 96.0099 30.2345C99.8878 37.0101 101.827 44.8936 101.827 53.8851C101.827 62.9192 99.8452 70.824 95.8821 77.5996C91.9616 84.3326 86.358 89.5527 79.071 93.2601C71.7841 96.9675 63.1335 98.8212 53.1193 98.8212H19.7528V73.8922H47.2386C52.0114 73.8922 55.9957 73.0613 59.1918 71.3993C62.4304 69.7374 64.8807 67.4149 66.5426 64.432C68.2045 61.4064 69.0355 57.8908 69.0355 53.8851C69.0355 49.8368 68.2045 46.3425 66.5426 43.4022C64.8807 40.4192 62.4304 38.1181 59.1918 36.4988C55.9531 34.8794 51.9688 34.0698 47.2386 34.0698H31.642V139.475H0.00142106ZM141.585 141.137C135.321 141.137 129.76 140.093 124.902 138.004C120.087 135.874 116.273 132.678 113.46 128.416C110.69 124.112 109.305 118.722 109.305 112.244C109.305 106.79 110.264 102.188 112.182 98.4377C114.099 94.6877 116.741 91.6408 120.108 89.2971C123.474 86.9533 127.352 85.1848 131.741 83.9917C136.131 82.7559 140.818 81.9249 145.804 81.4988C151.386 80.9874 155.882 80.4547 159.291 79.9007C162.7 79.3042 165.172 78.4732 166.706 77.4078C168.283 76.2999 169.071 74.7445 169.071 72.7417V72.4221C169.071 69.1408 167.942 66.6053 165.683 64.8155C163.425 63.0257 160.378 62.1309 156.543 62.1309C152.409 62.1309 149.085 63.0257 146.571 64.8155C144.057 66.6053 142.459 69.0769 141.777 72.2303L112.949 71.2076C113.801 65.2417 115.996 59.9149 119.533 55.2274C123.112 50.4973 128.013 46.79 134.234 44.1053C140.499 41.378 148.02 40.0144 156.798 40.0144C163.063 40.0144 168.837 40.7601 174.121 42.2516C179.405 43.7005 184.007 45.8311 187.928 48.6436C191.848 51.4135 194.874 54.8226 197.004 58.8709C199.178 62.9192 200.264 67.5428 200.264 72.7417V139.475H170.861V125.796H170.094C168.347 129.119 166.109 131.932 163.382 134.233C160.697 136.534 157.523 138.26 153.858 139.411C150.236 140.561 146.145 141.137 141.585 141.137ZM151.237 120.682C154.604 120.682 157.629 120 160.314 118.637C163.041 117.273 165.214 115.398 166.834 113.012C168.453 110.583 169.263 107.77 169.263 104.574V95.2417C168.368 95.7104 167.281 96.1365 166.003 96.5201C164.767 96.9036 163.403 97.2658 161.912 97.6067C160.42 97.9476 158.886 98.2459 157.31 98.5016C155.733 98.7573 154.22 98.9917 152.771 99.2047C149.831 99.6735 147.317 100.398 145.229 101.378C143.183 102.358 141.607 103.637 140.499 105.213C139.433 106.747 138.901 108.58 138.901 110.71C138.901 113.949 140.051 116.421 142.352 118.125C144.696 119.83 147.658 120.682 151.237 120.682ZM305.094 71.2715L276.393 72.0385C276.095 69.9931 275.286 68.182 273.964 66.6053C272.643 64.986 270.918 63.7289 268.787 62.834C266.699 61.8965 264.27 61.4277 261.5 61.4277C257.878 61.4277 254.788 62.1522 252.232 63.601C249.717 65.0499 248.482 67.0101 248.524 69.4817C248.482 71.3993 249.249 73.0613 250.825 74.4675C252.445 75.8738 255.321 77.003 259.455 77.8553L278.375 81.4348C288.176 83.3098 295.463 86.4206 300.236 90.7672C305.051 95.1138 307.48 100.867 307.523 108.026C307.48 114.759 305.477 120.618 301.514 125.604C297.594 130.59 292.224 134.468 285.406 137.237C278.588 139.965 270.79 141.328 262.011 141.328C247.991 141.328 236.933 138.452 228.837 132.699C220.783 126.904 216.18 119.148 215.03 109.432L245.903 108.665C246.585 112.244 248.354 114.972 251.209 116.847C254.064 118.722 257.707 119.659 262.139 119.659C266.145 119.659 269.405 118.914 271.919 117.422C274.433 115.931 275.712 113.949 275.754 111.477C275.712 109.262 274.732 107.493 272.814 106.172C270.896 104.808 267.892 103.743 263.801 102.976L246.67 99.7161C236.827 97.9263 229.497 94.6238 224.682 89.8084C219.866 84.9505 217.48 78.7715 217.523 71.2715C217.48 64.709 219.227 59.1053 222.764 54.4604C226.301 49.7729 231.33 46.1934 237.849 43.7218C244.369 41.2502 252.061 40.0144 260.925 40.0144C274.22 40.0144 284.703 42.8056 292.374 48.388C300.044 53.9277 304.284 61.5556 305.094 71.2715ZM378.331 41.2928V64.3042H316.392V41.2928H378.331ZM329.368 17.7701H360.625V108.601C360.625 110.519 360.923 112.074 361.52 113.267C362.159 114.418 363.075 115.249 364.268 115.76C365.461 116.229 366.889 116.463 368.551 116.463C369.744 116.463 371.001 116.357 372.322 116.144C373.686 115.888 374.708 115.675 375.39 115.504L380.12 138.068C378.629 138.494 376.52 139.027 373.792 139.666C371.108 140.306 367.89 140.71 364.14 140.881C356.811 141.222 350.525 140.369 345.284 138.324C340.085 136.236 336.1 132.997 333.331 128.608C330.603 124.219 329.282 118.7 329.368 112.053V17.7701ZM394.279 139.475V41.2928H425.536V139.475H394.279ZM409.939 29.851C405.55 29.851 401.779 28.4022 398.625 25.5044C395.472 22.5641 393.895 19.0272 393.895 14.8936C393.895 10.8027 395.472 7.30841 398.625 4.41069C401.779 1.47034 405.55 0.000169754 409.939 0.000169754C414.371 0.000169754 418.142 1.47034 421.253 4.41069C424.407 7.30841 425.983 10.8027 425.983 14.8936C425.983 19.0272 424.407 22.5641 421.253 25.5044C418.142 28.4022 414.371 29.851 409.939 29.851ZM445.431 139.475V41.2928H475.154V59.3184H476.241C478.286 53.3524 481.738 48.6436 486.596 45.1919C491.454 41.7402 497.249 40.0144 503.982 40.0144C510.8 40.0144 516.638 41.7615 521.496 45.2559C526.354 48.7502 529.444 53.4377 530.765 59.3184H531.788C533.62 53.4803 537.2 48.8141 542.526 45.3198C547.853 41.7828 554.138 40.0144 561.383 40.0144C570.673 40.0144 578.215 42.9973 584.011 48.9632C589.806 54.8865 592.704 63.0257 592.704 73.3809V139.475H561.447V80.5399C561.447 75.6394 560.19 71.9107 557.675 69.3539C555.161 66.7544 551.901 65.4547 547.896 65.4547C543.592 65.4547 540.204 66.861 537.732 69.6735C535.303 72.4434 534.089 76.1721 534.089 80.8596V139.475H504.046V80.2203C504.046 75.6607 502.81 72.0598 500.339 69.4178C497.867 66.7757 494.607 65.4547 490.559 65.4547C487.832 65.4547 485.424 66.1152 483.336 67.4363C481.248 68.7147 479.607 70.5471 478.414 72.9334C477.263 75.3198 476.688 78.1323 476.688 81.3709V139.475H445.431ZM657.967 141.328C647.697 141.328 638.833 139.304 631.376 135.256C623.961 131.165 618.251 125.348 614.245 117.806C610.282 110.22 608.3 101.208 608.3 90.7672C608.3 80.6252 610.303 71.7615 614.309 64.1763C618.315 56.5485 623.961 50.6252 631.248 46.4064C638.535 42.1451 647.121 40.0144 657.008 40.0144C663.996 40.0144 670.388 41.101 676.184 43.2743C681.979 45.4476 686.987 48.6649 691.205 52.9263C695.424 57.1877 698.705 62.4505 701.049 68.7147C703.393 74.9363 704.565 82.074 704.565 90.128V97.9263H619.231V79.7729H675.481C675.438 76.449 674.65 73.4874 673.116 70.888C671.582 68.2885 669.472 66.2644 666.788 64.8155C664.146 63.324 661.099 62.5783 657.647 62.5783C654.153 62.5783 651.021 63.3667 648.251 64.9434C645.481 66.4775 643.286 68.5868 641.667 71.2715C640.048 73.9135 639.195 76.9178 639.11 80.2843V98.7573C639.11 102.763 639.898 106.279 641.475 109.304C643.052 112.287 645.289 114.61 648.187 116.271C651.085 117.933 654.536 118.764 658.542 118.764C661.312 118.764 663.826 118.381 666.085 117.614C668.343 116.847 670.282 115.718 671.901 114.226C673.521 112.735 674.735 110.902 675.545 108.729L704.245 109.56C703.052 115.994 700.431 121.598 696.383 126.371C692.377 131.101 687.114 134.787 680.594 137.429C674.075 140.029 666.532 141.328 657.967 141.328Z" fill="#F6B901"/>
</svg>
