<svg width="658" height="176" viewBox="0 0 658 176" fill="none" xmlns="http://www.w3.org/2000/svg">
<path d="M656.918 2.74805C657.762 3.22846 657.966 3.53619 657.996 3.59624L657.998 3.60376V3.68883C657.988 3.82895 657.936 4.07916 657.769 4.51453C657.216 5.95326 655.167 9.26359 654.923 13.4096C652.533 17.0402 651.659 20.2704 650.917 22.4598C650.511 23.6583 650.198 24.3914 649.819 24.9169C649.555 25.2847 649.224 25.5874 648.681 25.8401C644.274 25.8326 640.639 25.7501 638.461 25.3172L638.453 25.3147L638.5 25.1171C638.802 23.8235 639.763 21.9318 641.341 19.6149C642.878 17.358 644.862 14.9059 646.973 12.5263C650.601 8.44286 654.463 4.74975 656.918 2.74805Z" fill="#F6B901"/>
<path d="M631.106 31.1328C631.161 31.6257 631.178 32.3314 631.103 33.2822C630.879 36.0545 630.053 39.7101 629.246 43.1856L629.184 43.4658V43.7536C629.184 46.4559 627.894 50.2966 626.057 53.5619C625.155 55.1633 624.194 56.4919 623.33 57.3801C622.899 57.823 622.543 58.1057 622.285 58.2609C622.175 58.3259 622.103 58.3535 622.068 58.366C620.537 58.351 616.929 57.9106 613.75 56.7296C612.136 56.1291 610.809 55.4035 609.925 54.5928C609.081 53.8196 608.75 53.0865 608.75 52.3133C608.75 52.1106 608.86 51.5577 609.39 50.5894C609.893 49.6686 610.66 48.5827 611.656 47.3716C613.645 44.9596 616.384 42.2698 619.282 39.7376C622.175 37.2105 625.163 34.8985 627.615 33.2321C628.845 32.3964 629.903 31.7508 630.72 31.323C630.859 31.2504 630.989 31.1904 631.106 31.1328Z" fill="#F6B901"/>
<path d="M31.2023 33.582C31.7596 33.7046 32.4604 33.8423 33.2908 33.9223C34.4909 35.4661 35.9531 36.8748 37.4316 38.1609C39.1943 39.6922 41.2586 41.2886 42.9171 42.6623C44.6709 44.1135 46.1262 45.4421 47.1403 46.7407C47.8927 47.7015 48.3025 48.5247 48.4631 49.2529C45.9131 52.6082 43.4907 54.2246 41.6478 55.0203C39.6754 55.8735 38.2014 55.866 37.5897 55.866C37.5207 55.866 36.9861 55.7884 36.0724 54.5999C35.2151 53.484 34.3534 51.7975 33.5876 49.7133C32.0581 45.5497 31.1172 40.3828 31.1172 36.5296C31.1172 35.1834 31.1508 34.2401 31.2023 33.582Z" fill="#F6B901"/>
<path d="M0.865457 0C1.08033 0.760647 1.41097 1.56632 1.81631 2.38202C2.55902 3.87579 3.61868 5.54222 4.90914 7.24367C7.47239 10.624 11.0174 14.2321 14.9776 16.9619C16.5499 18.3081 17.8175 19.344 18.7245 20.2773C19.6729 21.2531 19.9157 21.8186 19.9159 22.1614C19.9159 22.4266 19.7563 22.9846 18.4935 23.9129C17.3248 24.7711 15.448 25.7594 12.6337 26.9855C10.6544 26.1898 9.20056 25.3241 8.06023 24.2957C6.83724 23.1922 5.91253 21.8511 5.09637 20.0896C4.271 18.3081 3.56938 16.1237 2.77414 13.3439C2.00653 10.6591 1.12663 7.32624 0 3.45295C0.0161837 1.70146 0.287323 0.800692 0.534809 0.362819C0.656311 0.150138 0.770097 0.0500426 0.865457 0Z" fill="#F6B901"/>
<path d="M57.4688 54.9316C57.8338 54.9942 58.3927 55.1443 59.1805 55.4521C60.2369 55.8674 61.5137 56.4854 62.9881 57.2861C65.9386 58.89 69.4751 61.1044 73.2927 63.5389C80.2116 67.9552 88.1055 73.1421 94.4851 76.1872C93.886 80.6035 90.8938 85.8529 86.9694 90.3392C84.8232 92.7938 82.5221 94.8806 80.4434 96.3293C78.2476 97.8606 76.6925 98.4036 75.9525 98.4036C75.296 98.4036 74.3229 98.0458 73.0616 96.8648C71.8252 95.7063 70.5444 93.9673 69.3244 91.778C66.8884 87.4042 64.9232 81.6543 64.0142 76.3849C63.575 73.8377 62.6448 70.9803 61.6653 68.2405C60.6432 65.383 59.6209 62.7958 58.7769 60.3162C57.9326 57.8366 57.478 56.0301 57.4688 54.9316Z" fill="#F6B901"/>
<path d="M103.336 78.6133C103.698 78.7184 104.169 78.8935 104.758 79.1638C105.62 79.5591 106.6 80.092 107.683 80.7151C109.746 81.9036 112.35 83.5375 114.611 84.7535C115.777 85.3815 116.965 85.9645 118.105 86.3924C119.101 86.7652 120.188 87.0705 121.268 87.1305C124.776 88.0938 128.997 88.862 133.45 90.3858C137.567 91.797 141.031 93.621 143.061 96.1307C142.957 96.5685 142.77 97.1365 142.431 97.8396C141.891 98.9606 141.077 100.259 140.027 101.678C137.926 104.515 135.018 107.653 131.876 110.585C128.738 113.513 125.433 116.175 122.576 118.089C121.145 119.045 119.871 119.786 118.815 120.279C117.889 120.709 117.299 120.862 116.998 120.904C116.893 120.832 116.655 120.649 116.286 120.206C115.608 119.395 114.82 118.117 113.961 116.39C112.256 112.962 110.492 108.223 108.894 103.147C107.302 98.0873 105.901 92.7803 104.9 88.259C103.919 83.8302 103.377 80.3673 103.336 78.6133Z" fill="#F6B901"/>
<path d="M153.141 98.5276C154.041 98.3925 155.447 98.3599 157.352 98.4725C161.381 98.7127 166.929 99.5209 172.896 100.512C178.926 101.513 185.01 102.639 190.512 103.567C195.227 104.365 199.477 105.006 202.241 105.141C204.385 107.197 205.813 110.263 205.324 115.662C204.773 121.76 201.781 130.652 194.663 143.781C193.316 146.263 192.38 149.741 191.614 153.289C190.843 156.855 190.165 160.903 189.479 164.451C188.771 168.114 188.049 171.287 187.164 173.514C186.727 174.612 186.314 175.305 185.975 175.693C171.443 166.36 163.207 150.337 158.609 134.691C154.186 119.638 153.235 105.296 153.141 98.5276Z" fill="#F6B901"/>
<path d="M258.135 103.57C260.921 103.203 262.509 103.485 263.413 104.163C264.192 104.749 265.113 106.155 265.156 109.903C260.42 129.87 260.346 151.584 237.195 170.455C228.521 165.135 222.451 154.011 218.527 141.553C214.434 128.572 212.877 114.818 212.875 106.563C212.95 106.52 213.092 106.453 213.336 106.38C214.334 106.088 216.022 106 218.524 106.113C220.969 106.223 223.818 106.498 227.074 106.758C230.289 107.013 233.814 107.246 237.427 107.246C241.246 107.246 245.128 106.465 248.643 105.642C252.281 104.789 255.396 103.933 258.135 103.57Z" fill="#F6B901"/>
<path d="M321.968 89.1037C323.22 88.9211 324.126 89.0287 324.841 89.3689C323.942 106.103 320.8 123.565 315.977 137.763C313.5 145.051 310.607 151.407 307.405 156.343C304.37 161.017 301.175 164.233 297.961 165.884C297.473 165.739 296.709 165.339 295.658 164.393C294.299 163.167 292.772 161.313 291.139 158.911C287.887 154.122 284.461 147.518 281.329 140.417C278.205 133.336 275.411 125.85 273.404 119.344C271.46 113.034 270.339 107.91 270.242 104.97C270.678 104.702 271.378 104.352 272.383 103.954C274.808 102.996 278.289 101.997 281.994 101.051C285.674 100.113 289.458 99.2548 292.474 98.5568C293.97 98.2115 295.292 97.9037 296.298 97.646C296.798 97.5184 297.249 97.3933 297.615 97.2807C297.725 97.2482 297.871 97.1981 298.033 97.1406C300.986 97.048 303.952 96.1847 306.713 95.1263C309.606 94.0179 312.584 92.5692 315.143 91.4307C317.822 90.2422 320.083 89.3764 321.968 89.1037Z" fill="#F6B901"/>
<path d="M332.519 91.7814C333.44 91.5186 335.14 91.4511 337.668 91.7113C342.607 92.2217 349.507 93.8381 356.727 95.8223C363.913 97.794 371.27 100.086 377.091 101.895C379.992 102.798 382.526 103.586 384.448 104.147C385.407 104.427 386.244 104.66 386.908 104.822C386.976 104.84 387.045 104.85 387.112 104.867C387.09 105.098 387.058 105.373 387.003 105.701C386.669 107.685 385.843 110.595 384.7 114.098C382.407 121.126 379.165 129.631 376.653 136.98C375.015 140.59 373.777 143.768 372.652 146.543C371.504 149.373 370.483 151.77 369.241 153.977C366.997 157.958 363.947 161.476 357.87 165.409C349.429 158.4 343.105 145.059 338.85 130.744C334.413 115.819 332.414 100.501 332.414 91.8439V91.8189C332.446 91.8089 332.479 91.7939 332.519 91.7814ZM388.776 105.128L388.601 105.12C388.596 105.118 388.591 105.118 388.586 105.118C388.651 105.12 388.716 105.128 388.776 105.128Z" fill="#F6B901"/>
<path d="M395.077 111.081L395.012 110.801C394.231 107.42 394.848 106.567 395.005 106.412C395.114 106.304 395.376 106.122 396.026 106.007C396.685 105.889 397.579 105.871 398.755 105.972C401.152 106.179 404.045 106.795 407.534 107.42C410.917 108.028 414.712 108.611 418.524 108.611C422.179 108.611 426.06 108.396 429.703 108.218C433.39 108.036 436.821 107.893 439.739 108.006C442.744 108.123 444.806 108.506 445.976 109.124C446.506 109.404 446.706 109.657 446.79 109.82C446.87 109.972 446.974 110.288 446.862 110.951C445.259 120.499 441.985 135.229 437.369 147.512C435.056 153.667 432.456 159.062 429.653 162.875C426.785 166.776 424.121 168.46 421.763 168.46C419.4 168.46 416.432 166.601 413.111 162.407C409.894 158.349 406.797 152.664 404.09 146.346C398.65 133.655 395.077 119.115 395.077 111.369V111.081Z" fill="#F6B901"/>
<path d="M506.519 97.6914C508.301 97.7364 508.727 98.1293 508.822 98.2419C508.979 98.427 509.295 99.0626 509.141 101.117C508.996 103.076 508.488 105.681 507.766 109.209C507.067 112.629 506.19 116.793 505.371 121.729C502.906 128.928 497.453 142.722 491.5 154.73C488.495 160.793 485.408 166.31 482.557 170.276C481.128 172.262 479.821 173.771 478.68 174.757C477.478 175.795 476.791 175.968 476.557 175.968C476.474 175.968 475.854 175.86 474.684 174.639C473.594 173.503 472.359 171.749 471.042 169.43C468.412 164.806 465.676 158.335 463.191 151.119C458.299 136.912 454.569 120.386 454.43 110.242C455.351 108.466 456.618 107.422 458.533 106.679C460.794 105.801 463.849 105.37 468.218 104.913C476.766 104.014 489.2 103.093 506.519 97.6914Z" fill="#F6B901"/>
<path d="M553.894 82.0078C553.692 83.6892 553.127 86.4241 552.243 89.8745C551.152 94.1306 549.666 99.1774 548.097 104.017C546.526 108.861 544.888 113.45 543.496 116.802C542.797 118.491 542.189 119.797 541.706 120.651C541.654 120.743 541.599 120.823 541.554 120.898C540.86 120.856 540.172 120.716 539.114 120.235C537.409 119.46 534.789 117.816 530.246 114.268C525.769 109.874 521.798 104.877 519.271 101.009C518.275 99.4877 517.555 98.2141 517.109 97.2658C517.443 97.1307 517.807 96.978 518.192 96.8104C519.549 96.2174 521.325 95.3892 523.341 94.4334C527.402 92.5118 532.509 90.0547 537.541 87.8128C542.597 85.5583 547.438 83.5867 550.963 82.6083C552.245 82.2505 553.216 82.0704 553.894 82.0078Z" fill="#F6B901"/>
<path d="M598.872 59.3054C598.496 61.4172 598.021 64.3497 597.59 66.7918C596.646 72.1289 595.548 77.2957 594.057 80.4659L593.815 80.9739V81.5343C593.815 81.4092 593.82 81.6094 593.554 82.3325C593.323 82.9531 592.969 83.7537 592.513 84.6845C591.6 86.5436 590.332 88.793 588.945 90.9623C587.554 93.1417 586.087 95.1659 584.795 96.6172C584.143 97.3453 583.595 97.8632 583.172 98.1785C583.117 98.2185 583.062 98.2486 583.02 98.2786C582.893 98.201 582.731 98.0984 582.542 97.9633C581.874 97.4879 581.023 96.7548 580.024 95.7939C578.038 93.8798 575.675 91.2601 573.397 88.5103C571.121 85.7654 568.972 82.948 567.406 80.6611C566.619 79.5126 566.007 78.5368 565.601 77.7912C565.556 77.7086 565.514 77.6285 565.477 77.5535C565.581 77.4609 565.703 77.3558 565.84 77.2407C566.734 76.5001 568.073 75.5392 569.771 74.4158C573.15 72.1764 577.731 69.4415 582.457 66.7768C587.175 64.1145 591.998 61.5499 595.85 59.6583C597.042 59.0728 598.133 58.5573 599.089 58.127C599.017 58.5123 598.944 58.9051 598.872 59.3054Z" fill="#F6B901"/>
</svg>
