<svg width="882" height="139" viewBox="0 0 882 139" fill="none" xmlns="http://www.w3.org/2000/svg">
<path d="M65.995 110.582L30.9453 64.0799H23.0618V110.582H-0.00284101V1.49112H23.0618V45.0636H27.696L63.9176 1.49112H92.6286L50.0682 52.0948L94.5994 110.582H65.995ZM101.511 46.6083V28.7638H175.659V46.6083H149.291V110.582H127.665V46.6083H101.511ZM223.452 112.18C215.178 112.18 208.023 110.422 201.986 106.907C195.984 103.355 191.35 98.4194 188.083 92.0984C184.816 85.7418 183.183 78.3732 183.183 69.9925C183.183 61.5408 184.816 54.1545 188.083 47.8335C191.35 41.4769 195.984 36.5408 201.986 33.0252C208.023 29.4741 215.178 27.6985 223.452 27.6985C231.727 27.6985 238.864 29.4741 244.866 33.0252C250.903 36.5408 255.555 41.4769 258.822 47.8335C262.089 54.1545 263.722 61.5408 263.722 69.9925C263.722 78.3732 262.089 85.7418 258.822 92.0984C255.555 98.4194 250.903 103.355 244.866 106.907C238.864 110.422 231.727 112.18 223.452 112.18ZM223.559 94.6019C227.323 94.6019 230.466 93.5366 232.987 91.4059C235.509 89.2397 237.408 86.2923 238.687 82.5636C240.001 78.8349 240.658 74.5913 240.658 69.8327C240.658 65.0742 240.001 60.8306 238.687 57.1019C237.408 53.3732 235.509 50.4258 232.987 48.2596C230.466 46.0934 227.323 45.0103 223.559 45.0103C219.759 45.0103 216.563 46.0934 213.971 48.2596C211.414 50.4258 209.479 53.3732 208.165 57.1019C206.886 60.8306 206.247 65.0742 206.247 69.8327C206.247 74.5913 206.886 78.8349 208.165 82.5636C209.479 86.2923 211.414 89.2397 213.971 91.4059C216.563 93.5366 219.759 94.6019 223.559 94.6019ZM361.561 85.4933L383.72 28.7638H400.978L369.071 110.582H353.997L322.835 28.7638H340.041L361.561 85.4933ZM334.874 28.7638V110.582H313.194V28.7638H334.874ZM389.366 110.582V28.7638H410.779V110.582H389.366ZM451.662 112.127C446.442 112.127 441.79 111.221 437.706 109.41C433.622 107.564 430.39 104.847 428.011 101.26C425.667 97.6381 424.496 93.1282 424.496 87.7305C424.496 83.185 425.33 79.3675 426.999 76.2781C428.668 73.1886 430.941 70.7028 433.817 68.8207C436.694 66.9386 439.961 65.5181 443.618 64.5593C447.312 63.6005 451.182 62.9258 455.231 62.5352C459.989 62.038 463.824 61.5763 466.736 61.1502C469.648 60.6886 471.761 60.0138 473.075 59.1261C474.389 58.2383 475.046 56.9244 475.046 55.1843V54.8647C475.046 51.4911 473.981 48.881 471.85 47.0344C469.755 45.1879 466.772 44.2646 462.901 44.2646C458.817 44.2646 455.568 45.1701 453.153 46.9812C450.738 48.7567 449.14 50.994 448.359 53.6928L427.372 51.9883C428.437 47.0167 430.532 42.7198 433.657 39.0977C436.782 35.44 440.813 32.6346 445.749 30.6815C450.721 28.6928 456.474 27.6985 463.008 27.6985C467.553 27.6985 471.903 28.2312 476.058 29.2965C480.248 30.3619 483.959 32.0131 487.191 34.2504C490.458 36.4876 493.032 39.364 494.915 42.8796C496.797 46.3597 497.738 50.5323 497.738 55.3974V110.582H476.218V99.2362H475.579C474.265 101.793 472.507 104.048 470.305 106.001C468.104 107.919 465.458 109.428 462.368 110.529C459.279 111.594 455.71 112.127 451.662 112.127ZM458.16 96.4663C461.498 96.4663 464.446 95.8093 467.003 94.4954C469.559 93.146 471.566 91.3349 473.022 89.0621C474.478 86.7894 475.206 84.2148 475.206 81.3384V72.6559C474.496 73.1175 473.519 73.5437 472.276 73.9343C471.069 74.2894 469.702 74.6268 468.175 74.9464C466.648 75.2305 465.121 75.4968 463.594 75.7454C462.067 75.9585 460.682 76.1538 459.439 76.3313C456.775 76.7219 454.449 77.3434 452.461 78.1957C450.472 79.0479 448.927 80.2021 447.827 81.658C446.726 83.0785 446.175 84.854 446.175 86.9847C446.175 90.0742 447.294 92.4357 449.531 94.0692C451.804 95.6673 454.68 96.4663 458.16 96.4663ZM554.494 138.387V1.49112H577.132V138.387H554.494ZM554.494 112.18C548.208 112.18 542.473 111.168 537.289 109.144C532.104 107.084 527.629 104.19 523.865 100.461C520.101 96.6971 517.189 92.2404 515.129 87.0913C513.07 81.9066 512.04 76.207 512.04 69.9925C512.04 63.707 513.07 57.9897 515.129 52.8406C517.189 47.6559 520.101 43.1992 523.865 39.4705C527.629 35.7063 532.104 32.8121 537.289 30.788C542.473 28.7283 548.208 27.6985 554.494 27.6985H558.702V112.18H554.494ZM554.494 94.4954H556.997V45.3832H554.494C551.44 45.3832 548.723 46.0224 546.344 47.3008C543.965 48.5792 541.958 50.337 540.325 52.5742C538.691 54.7759 537.448 57.3683 536.596 60.3512C535.779 63.3342 535.371 66.5479 535.371 69.9925C535.371 74.538 536.117 78.6751 537.608 82.4038C539.1 86.0969 541.284 89.0444 544.16 91.2461C547.036 93.4123 550.481 94.4954 554.494 94.4954ZM577.132 112.18H572.924V27.6985H577.132C583.418 27.6985 589.153 28.7283 594.338 30.788C599.522 32.8121 603.997 35.7063 607.761 39.4705C611.525 43.1992 614.437 47.6559 616.497 52.8406C618.556 57.9897 619.586 63.707 619.586 69.9925C619.586 76.207 618.556 81.9066 616.497 87.0913C614.437 92.2404 611.525 96.6971 607.761 100.461C603.997 104.19 599.522 107.084 594.338 109.144C589.153 111.168 583.418 112.18 577.132 112.18ZM577.132 94.4954C580.186 94.4954 582.903 93.8739 585.282 92.631C587.661 91.3526 589.668 89.5948 591.301 87.3576C592.935 85.1204 594.178 82.5281 595.03 79.5806C595.882 76.5977 596.308 73.4016 596.308 69.9925C596.308 65.4116 595.545 61.2745 594.018 57.5813C592.526 53.8526 590.36 50.8874 587.519 48.6857C584.678 46.484 581.216 45.3832 577.132 45.3832H574.629V94.4954H577.132ZM656.114 80.646L685.571 28.7638H707.943V110.582H686.316V58.5401L656.966 110.582H634.434V28.7638H656.114V80.646ZM774.074 110.582V46.555H758.733C754.578 46.555 751.418 47.5138 749.251 49.4315C747.085 51.3491 746.02 53.6218 746.055 56.2496C746.02 58.913 747.05 61.168 749.145 63.0146C751.276 64.8256 754.401 65.7312 758.52 65.7312H781.638V81.0721H758.52C751.524 81.0721 745.469 80.0067 740.356 77.8761C735.242 75.7454 731.3 72.7802 728.531 68.9805C725.761 65.1452 724.393 60.6886 724.429 55.6104C724.393 50.2837 725.761 45.614 728.531 41.6012C731.3 37.5529 735.26 34.4102 740.409 32.1729C745.594 29.9002 751.702 28.7638 758.733 28.7638H795.221V110.582H774.074ZM722.085 110.582L744.83 67.9684H766.51L743.818 110.582H722.085ZM832.348 77.8761V76.065C832.384 69.8505 832.934 64.8967 833.999 61.2035C835.1 57.5103 836.698 54.5273 838.793 52.2546C840.888 49.9819 843.41 47.9222 846.357 46.0756C848.559 44.6552 850.53 43.1815 852.27 41.6545C854.01 40.1275 855.395 38.4407 856.425 36.5941C857.455 34.712 857.969 32.6168 857.969 30.3086C857.969 27.8583 857.384 25.7099 856.212 23.8633C855.04 22.0167 853.46 20.5962 851.471 19.6019C849.518 18.6076 847.352 18.1104 844.972 18.1104C842.664 18.1104 840.48 18.6254 838.42 19.6552C836.361 20.6495 834.674 22.141 833.36 24.1296C832.046 26.0827 831.336 28.5153 831.229 31.4272H809.496C809.674 24.3249 811.379 18.4656 814.61 13.8491C817.842 9.19709 822.121 5.73473 827.447 3.462C832.774 1.15376 838.651 -0.000359178 845.079 -0.000359178C852.146 -0.000359178 858.396 1.17152 863.829 3.51527C869.262 5.8235 873.523 9.17933 876.613 13.5827C879.702 17.9861 881.247 23.2951 881.247 29.5096C881.247 33.6644 880.555 37.3576 879.17 40.5891C877.82 43.7852 875.92 46.6261 873.47 49.1119C871.02 51.5621 868.126 53.7816 864.788 55.7702C861.982 57.4393 859.674 59.1793 857.863 60.9904C856.087 62.8015 854.756 64.8967 853.868 67.2759C853.016 69.6552 852.572 72.5849 852.536 76.065V77.8761H832.348ZM842.895 111.967C839.344 111.967 836.308 110.724 833.786 108.238C831.3 105.717 830.075 102.699 830.111 99.1829C830.075 95.7028 831.3 92.7198 833.786 90.234C836.308 87.7482 839.344 86.5053 842.895 86.5053C846.268 86.5053 849.234 87.7482 851.79 90.234C854.347 92.7198 855.643 95.7028 855.679 99.1829C855.643 101.527 855.022 103.675 853.815 105.628C852.643 107.546 851.098 109.091 849.18 110.262C847.263 111.399 845.168 111.967 842.895 111.967Z" fill="#2C3E50"/>
</svg>
