<svg width="161" height="247" viewBox="0 0 161 247" fill="none" xmlns="http://www.w3.org/2000/svg">
<path d="M54.5434 164.34V130.86C54.5434 122.94 56.4034 116.4 60.1234 111.24C63.8434 105.96 68.9434 101.58 75.4234 98.0999C79.7434 95.6999 83.9434 92.9399 88.0234 89.8199C92.1034 86.6999 95.4634 83.1599 98.1034 79.1999C100.743 75.1199 102.063 70.6199 102.063 65.6999C102.063 58.6199 99.7834 53.4599 95.2234 50.2199C90.7834 46.9799 84.4834 45.3599 76.3234 45.3599C70.0834 45.3599 64.8034 46.7999 60.4834 49.6799C56.2834 52.4399 52.8634 55.8599 50.2234 59.9399C47.7034 63.8999 45.8434 67.6799 44.6434 71.2799L0.00343766 53.4599C0.243438 51.7799 1.32344 48.8999 3.24344 44.8199C5.28344 40.7399 8.34344 36.1799 12.4234 31.1399C16.5034 26.0999 21.7234 21.2399 28.0834 16.5599C34.5634 11.7599 42.3034 7.79991 51.3034 4.67991C60.4234 1.55991 71.0434 -9.63211e-05 83.1634 -9.63211e-05C97.9234 -9.63211e-05 111.123 2.33991 122.763 7.01991C134.403 11.5799 143.583 18.1799 150.303 26.8199C157.023 35.3399 160.383 45.5399 160.383 57.4199C160.383 67.8599 157.923 76.8599 153.003 84.4199C148.083 91.9799 142.203 98.3999 135.363 103.68C128.643 108.84 122.583 113.1 117.183 116.46C111.183 119.94 107.043 123.96 104.763 128.52C102.603 132.96 101.523 138.78 101.523 145.98V164.34H54.5434ZM78.8434 246.24C69.8434 246.24 62.1634 243.06 55.8034 236.7C49.4434 230.22 46.2634 222.54 46.2634 213.66C46.2634 204.42 49.4434 196.62 55.8034 190.26C62.1634 183.78 69.8434 180.54 78.8434 180.54C87.9634 180.54 95.7634 183.78 102.243 190.26C108.723 196.62 111.963 204.42 111.963 213.66C111.963 222.54 108.723 230.22 102.243 236.7C95.7634 243.06 87.9634 246.24 78.8434 246.24Z" fill="#B8860B"/>
</svg>
